<svg width="68" height="68" viewBox="0 0 68 68" fill="none" xmlns="http://www.w3.org/2000/svg">
<path d="M34.5 53C45.2696 53 54 44.2696 54 33.5C54 22.7304 45.2696 14 34.5 14C23.7304 14 15 22.7304 15 33.5C15 44.2696 23.7304 53 34.5 53Z" fill="#FE5B4A"/>
<path d="M34.5 43.0279C39.7621 43.0279 44.0279 38.7621 44.0279 33.5C44.0279 28.2379 39.7621 23.9722 34.5 23.9722C29.2379 23.9722 24.9722 28.2379 24.9722 33.5C24.9722 38.7621 29.2379 43.0279 34.5 43.0279Z" fill="white"/>
<path d="M36.1291 33.1545C36.9684 33.6482 37.3633 34.3393 37.3633 35.3267C37.3633 36.1659 37.0671 36.8077 36.5241 37.3013C35.981 37.795 35.2899 38.0418 34.5 38.0418C33.7101 38.0418 33.019 37.795 32.476 37.3013C31.9329 36.8077 31.6367 36.1165 31.6367 35.3267C31.6367 34.3393 32.0317 33.5988 32.8709 33.1545C32.2785 32.6608 31.9823 32.0684 31.9823 31.3279C31.9823 30.6368 32.2291 30.0937 32.6734 29.6001C33.1671 29.1064 33.7595 28.9089 34.5 28.9089C35.2405 28.9089 35.8329 29.1558 36.3266 29.6001C36.8203 30.0937 37.0177 30.6368 37.0177 31.3279C37.0177 32.0684 36.7215 32.6608 36.1291 33.1545ZM34.5 33.895C34.0557 33.895 33.7101 34.0431 33.4139 34.2899C33.1177 34.5368 32.9696 34.8824 32.9696 35.376C32.9696 35.8697 33.1177 36.2153 33.4139 36.4621C33.7101 36.7089 34.0557 36.857 34.5 36.857C34.9443 36.857 35.2899 36.7089 35.5861 36.4621C35.8823 36.2153 36.0304 35.8203 36.0304 35.376C36.0304 34.9317 35.8823 34.5368 35.5861 34.2899C35.2899 33.9937 34.9443 33.895 34.5 33.895ZM34.5 32.6115C35.1911 32.6115 35.7342 32.0684 35.7342 31.3279C35.7342 30.6368 35.2405 30.0937 34.5 30.0937C33.8089 30.0937 33.2658 30.6368 33.2658 31.3279C33.3152 32.0684 33.8089 32.6115 34.5 32.6115Z" fill="black"/>
<path d="M36.1291 33.1545C36.9684 33.6482 37.3633 34.3393 37.3633 35.3267C37.3633 36.1659 37.0671 36.8077 36.5241 37.3013C35.981 37.795 35.2899 38.0418 34.5 38.0418C33.7101 38.0418 33.019 37.795 32.476 37.3013C31.9329 36.8077 31.6367 36.1165 31.6367 35.3267C31.6367 34.3393 32.0317 33.5988 32.8709 33.1545C32.2785 32.6608 31.9823 32.0684 31.9823 31.3279C31.9823 30.6368 32.2291 30.0937 32.6734 29.6001C33.1671 29.1064 33.7595 28.9089 34.5 28.9089C35.2405 28.9089 35.8329 29.1558 36.3266 29.6001C36.8203 30.0937 37.0177 30.6368 37.0177 31.3279C37.0177 32.0684 36.7215 32.6608 36.1291 33.1545ZM34.5 33.895C34.0557 33.895 33.7101 34.0431 33.4139 34.2899C33.1177 34.5368 32.9696 34.8824 32.9696 35.376C32.9696 35.8697 33.1177 36.2153 33.4139 36.4621C33.7101 36.7089 34.0557 36.857 34.5 36.857C34.9443 36.857 35.2899 36.7089 35.5861 36.4621C35.8823 36.2153 36.0304 35.8203 36.0304 35.376C36.0304 34.9317 35.8823 34.5368 35.5861 34.2899C35.2899 33.9937 34.9443 33.895 34.5 33.895ZM34.5 32.6115C35.1911 32.6115 35.7342 32.0684 35.7342 31.3279C35.7342 30.6368 35.2405 30.0937 34.5 30.0937C33.8089 30.0937 33.2658 30.6368 33.2658 31.3279C33.3152 32.0684 33.8089 32.6115 34.5 32.6115Z" stroke="black"/>
<circle cx="34" cy="34" r="34" fill="#108BE3"/>
<g clip-path="url(#clip0_2873_2)">
<path d="M42.1834 39.3844C42.1127 39.3137 42.1127 39.3137 42.1127 39.1723C40.9813 36.6267 40.8399 33.9397 40.5571 31.2527C40.4156 29.9799 40.2742 28.7071 40.0621 27.505C39.7792 24.818 38.6479 22.131 36.8094 20.1511C36.7387 20.0804 36.668 20.0097 36.5973 19.939C36.5266 19.8683 36.4558 19.7976 36.3144 19.6561L36.2437 19.5854C35.6073 18.949 34.9709 18.4541 34.2638 18.0298C29.6676 14.9892 23.4451 15.5549 19.3439 19.6561C14.6062 24.3938 14.7477 31.6062 19.2731 36.2731C19.3439 36.3439 19.3439 36.3439 19.4146 36.4146C19.4146 36.4146 19.4146 36.4146 19.4853 36.4853C21.8894 38.8894 24.7179 40.1622 28.3948 40.4451C31.0818 40.8693 33.8395 41.0815 36.5266 41.5057C37.5165 41.6472 38.365 41.93 39.2136 42.3543L42.1834 39.3844Z" fill="white"/>
<path d="M28.748 25.2422C29.2556 24.7346 29.2556 23.9114 28.748 23.4038C28.2403 22.8961 27.4172 22.8961 26.9095 23.4038C26.4018 23.9114 26.4018 24.7346 26.9095 25.2422C27.4172 25.7499 28.2403 25.7499 28.748 25.2422Z" fill="#108BE3"/>
<path d="M25.2831 28.707C25.7908 28.1993 25.7908 27.3762 25.2831 26.8685C24.7754 26.3608 23.9523 26.3608 23.4446 26.8685C22.9369 27.3762 22.9369 28.1993 23.4446 28.707C23.9523 29.2146 24.7754 29.2146 25.2831 28.707Z" fill="#108BE3"/>
<path d="M26.3441 33.3033C26.8518 32.7956 26.8518 31.9725 26.3441 31.4648C25.8365 30.9571 25.0133 30.9571 24.5057 31.4648C23.998 31.9725 23.998 32.7956 24.5057 33.3033C25.0133 33.811 25.8365 33.811 26.3441 33.3033Z" fill="#108BE3"/>
<path d="M31.0814 34.5053C31.5891 33.9976 31.5891 33.1745 31.0814 32.6668C30.5738 32.1591 29.7507 32.1591 29.243 32.6668C28.7353 33.1745 28.7353 33.9976 29.243 34.5053C29.7507 35.013 30.5738 35.013 31.0814 34.5053Z" fill="#108BE3"/>
<path d="M29.809 29.8384C30.3167 29.3307 30.3167 28.5076 29.809 28C29.3013 27.4923 28.4782 27.4923 27.9705 28C27.4628 28.5076 27.4628 29.3307 27.9705 29.8384C28.4782 30.3461 29.3013 30.3461 29.809 29.8384Z" fill="#108BE3"/>
<path d="M34.5463 31.0405C35.054 30.5328 35.054 29.7097 34.5463 29.202C34.0386 28.6943 33.2155 28.6943 32.7078 29.202C32.2001 29.7097 32.2001 30.5328 32.7078 31.0405C33.2155 31.5481 34.0386 31.5481 34.5463 31.0405Z" fill="#108BE3"/>
<path d="M33.2738 26.3736C33.7815 25.8659 33.7815 25.0428 33.2738 24.5351C32.7661 24.0274 31.943 24.0274 31.4354 24.5351C30.9277 25.0428 30.9277 25.8659 31.4354 26.3736C31.943 26.8813 32.7661 26.8813 33.2738 26.3736Z" fill="#108BE3"/>
<path d="M49.7493 48.5061L48.4058 49.8496C47.9108 50.3446 47.133 50.2738 46.7087 49.8496L39.2134 42.3542L42.2539 39.3137L49.7493 46.809C50.2442 47.304 50.1735 48.0818 49.7493 48.5061Z" fill="#00274E"/>
</g>
<defs>
<clipPath id="clip0_2873_2">
<rect width="23.9" height="41.9" fill="white" transform="translate(11 28) rotate(-45)"/>
</clipPath>
</defs>
</svg>
