<svg width="21" height="26" viewBox="0 0 21 26" fill="none" xmlns="http://www.w3.org/2000/svg">
<path d="M8.21231 8.83184C7.4803 9.78048 6.07722 9.98169 5.07065 9.29175C4.06409 8.60188 3.85057 7.27957 4.55211 6.33095L7.20578 2.9102C7.93785 1.96159 9.34093 1.76037 10.3475 2.45027C11.354 3.14017 11.5676 4.46247 10.8355 5.41108L8.21231 8.83184Z" fill="#00443B" fill-opacity="0.2"/>
<path d="M13.9467 4.92241C14.6787 3.9738 16.0818 3.77258 17.0884 4.46247C18.0949 5.15238 18.3389 6.47469 17.5764 7.42329L7.02273 21.1063C6.29068 22.0549 4.88759 22.2561 3.88103 21.5662C2.87447 20.8763 2.66096 19.554 3.393 18.6054L13.9467 4.92241Z" fill="#00443B" fill-opacity="0.2"/>
<path d="M3.57604 0.40934C4.5826 1.09924 4.79612 2.42155 4.06408 3.37016C3.33203 4.31877 1.92894 4.51999 0.922381 3.83009C-0.0841854 3.14019 -0.297699 1.81788 0.434347 0.869274C1.16639 -0.0793386 2.56948 -0.280559 3.57604 0.40934Z" fill="#00443B" fill-opacity="0.2"/>
<path d="M16.9359 22.6298C17.668 21.6813 19.0711 21.48 20.0776 22.1699C21.0842 22.8598 21.2977 24.1821 20.5657 25.1307C19.8336 26.0793 18.4305 26.2806 17.4239 25.5906C16.4173 24.9008 16.2039 23.5785 16.9359 22.6298Z" fill="#00443B" fill-opacity="0.2"/>
<path d="M12.8182 17.1969C13.5503 16.2483 14.9533 16.0471 15.9598 16.7369C16.9664 17.4269 17.18 18.7492 16.4479 19.6977L13.7942 23.1185C13.0622 24.0671 11.6591 24.2683 10.6525 23.5785C9.64598 22.8885 9.43244 21.5662 10.1645 20.6176L12.8182 17.1969Z" fill="#00443B" fill-opacity="0.2"/>
</svg>
