<svg width="137" height="137" viewBox="0 0 137 137" fill="none" xmlns="http://www.w3.org/2000/svg">
<path d="M68.0894 136.179C105.694 136.179 136.179 105.694 136.179 68.0894C136.179 30.4846 105.694 0 68.0894 0C30.4846 0 0 30.4846 0 68.0894C0 105.694 30.4846 136.179 68.0894 136.179Z" fill="#E9F6ED"/>
<path d="M82.1224 45.7341L74.0018 56.451C73.7557 50.7244 58.3346 27 58.3346 27C58.3346 27 36.1054 52.2788 33.1524 79.1119C31.3478 95.719 42.6675 101.2 51.6084 103C51.4444 102.918 51.1983 102.836 51.0342 102.755C49.2297 101.936 47.5071 100.464 46.2767 98.6642C45.0463 96.8644 44.3081 94.7374 43.9799 92.5285C43.7339 90.3197 43.8159 88.1927 44.144 86.1475C44.8822 81.9752 46.5228 78.2939 48.4094 74.8579C48.9016 74.0398 49.3937 73.1399 49.8859 72.3218C50.378 71.5038 50.9522 70.6039 51.5264 69.8676C52.5928 68.2314 53.8232 66.7589 54.8895 65.2863L58.8268 59.9688L62.436 65.6954C63.2562 67.0043 64.0765 68.3132 64.8147 69.6222C65.553 70.9311 66.2912 72.24 67.1115 73.7126C67.6037 74.4489 67.9318 75.3488 68.3419 76.1668L69.0801 75.4306L74.0018 70.6857L75.8884 76.7395C76.1344 77.4758 76.2985 78.0484 76.3805 78.7029C76.4626 79.3574 76.6266 80.0118 76.7907 80.5845C76.9547 81.8934 77.2008 83.1206 77.2828 84.4295C77.4469 86.9655 77.3648 89.747 76.8727 92.2831C76.7086 93.592 76.2985 94.901 75.7243 96.1281C75.2322 97.3552 74.5759 98.5823 73.7557 99.7277C72.9354 100.791 71.9511 101.773 70.8847 102.427C70.7468 102.519 70.8732 102.768 71.0333 102.726C100.93 94.8233 82.1224 45.7341 82.1224 45.7341Z" fill="#009E66"/>
<path d="M77.2075 64.9691L85.9298 73.2106L53.6505 107.373C51.3747 109.781 47.5772 109.889 45.1686 107.613C42.76 105.337 42.6524 101.54 44.9283 99.1312L77.2075 64.9691Z" fill="#00443B"/>
<rect x="86.2622" y="35.0021" width="40" height="28" transform="rotate(43.3768 86.2622 35.0021)" fill="#0CC482"/>
<path d="M115.336 62.4739C117.745 64.7497 117.852 68.5472 115.576 70.9558L104.588 82.5854C102.312 84.994 98.5143 85.1016 96.1057 82.8258L115.336 62.4739Z" fill="#00443B"/>
<path d="M67.0317 55.354C64.6232 53.0782 64.5155 49.2807 66.7914 46.8721L77.7801 35.2425C80.0559 32.8339 83.8534 32.7263 86.2619 35.0021L67.0317 55.354Z" fill="#00443B"/>
</svg>
