<svg width="137" height="137" viewBox="0 0 137 137" fill="none" xmlns="http://www.w3.org/2000/svg">
<path d="M68.0894 136.179C105.694 136.179 136.179 105.694 136.179 68.0894C136.179 30.4846 105.694 0 68.0894 0C30.4846 0 0 30.4846 0 68.0894C0 105.694 30.4846 136.179 68.0894 136.179Z" fill="#E9F6ED"/>
<path d="M90.2878 95H43.7427C43.7427 85.1289 54.1601 77.1106 67.0304 77.1106C79.9007 77.1106 90.2878 85.0986 90.2878 95Z" fill="#00443B"/>
<path d="M67.0001 73.3444C73.8907 73.3444 79.4767 67.742 79.4767 60.831C79.4767 53.92 73.8907 48.3175 67.0001 48.3175C60.1094 48.3175 54.5234 53.92 54.5234 60.831C54.5234 67.742 60.1094 73.3444 67.0001 73.3444Z" fill="#0CC482"/>
<path d="M113 74.1341H80.9907C80.9907 67.3307 88.1678 61.8333 97.0105 61.8333C105.853 61.8333 113 67.3307 113 74.1341Z" fill="#00443B"/>
<path d="M96.9803 59.2516C101.73 59.2516 105.581 55.3897 105.581 50.6258C105.581 45.8619 101.73 42 96.9803 42C92.2304 42 88.3799 45.8619 88.3799 50.6258C88.3799 55.3897 92.2304 59.2516 96.9803 59.2516Z" fill="#0CC482"/>
<path d="M53.0395 74.1341H21C21 67.3307 28.1771 61.8333 37.0198 61.8333C45.8624 61.8333 53.0395 67.3307 53.0395 74.1341Z" fill="#00443B"/>
<path d="M37.0198 59.2516C41.7697 59.2516 45.6202 55.3897 45.6202 50.6258C45.6202 45.8619 41.7697 42 37.0198 42C32.27 42 28.4194 45.8619 28.4194 50.6258C28.4194 55.3897 32.27 59.2516 37.0198 59.2516Z" fill="#0CC482"/>
</svg>
