<svg width="17" height="12" viewBox="0 0 17 12" fill="none" xmlns="http://www.w3.org/2000/svg">
<path d="M16.3083 9.4265L15.3818 2.9155C15.1438 1.241 13.7073 0 12.0158 0H4.31483C2.62333 0 1.18683 1.241 0.948826 2.9155L0.0223264 9.4265C-0.164674 10.7355 0.846826 11.9 2.16433 11.9C2.74233 11.9 3.28633 11.6705 3.69433 11.2625L5.61533 9.35H10.7153L12.6278 11.2625C13.0358 11.6705 13.5883 11.9 14.1578 11.9C15.4838 11.9 16.4953 10.7355 16.3083 9.4265ZM14.5233 10.0385C14.4553 10.115 14.3448 10.2 14.1663 10.2C14.0388 10.2 13.9198 10.149 13.8348 10.064L11.4208 7.65H4.90983L2.49583 10.064C2.41083 10.149 2.29183 10.2 2.16433 10.2C1.98583 10.2 1.87533 10.115 1.80733 10.0385C1.73933 9.962 1.67133 9.843 1.69683 9.6645L2.62333 3.1535C2.75083 2.329 3.47333 1.7 4.31483 1.7H12.0158C12.8573 1.7 13.5798 2.329 13.6988 3.162L14.6253 9.673C14.6508 9.843 14.5828 9.962 14.5233 10.0385Z" fill="#00443B"/>
<path d="M5.61543 2.54993H4.76543V4.24993H3.06543V5.09993H4.76543V6.79993H5.61543V5.09993H7.31543V4.24993H5.61543V2.54993Z" fill="#00443B"/>
<path d="M12.4154 6.79985C12.8849 6.79985 13.2654 6.4193 13.2654 5.94985C13.2654 5.48041 12.8849 5.09985 12.4154 5.09985C11.946 5.09985 11.5654 5.48041 11.5654 5.94985C11.5654 6.4193 11.946 6.79985 12.4154 6.79985Z" fill="#00443B"/>
<path d="M10.7152 4.24993C11.1847 4.24993 11.5652 3.86937 11.5652 3.39993C11.5652 2.93048 11.1847 2.54993 10.7152 2.54993C10.2458 2.54993 9.86523 2.93048 9.86523 3.39993C9.86523 3.86937 10.2458 4.24993 10.7152 4.24993Z" fill="#00443B"/>
</svg>
