<svg width="68" height="68" viewBox="0 0 68 68" fill="none" xmlns="http://www.w3.org/2000/svg">
<path d="M34 68C52.7777 68 68 52.7777 68 34C68 15.2223 52.7777 0 34 0C15.2223 0 0 15.2223 0 34C0 52.7777 15.2223 68 34 68Z" fill="#108BE3"/>
<path d="M54 34C54 45.0457 45.0457 54 34 54C22.9543 54 14 45.0457 14 34C14 22.9543 22.9543 14 34 14C45.0457 14 54 22.9543 54 34Z" fill="#E2F4F8"/>
<path fill-rule="evenodd" clip-rule="evenodd" d="M34 50.9231C43.3464 50.9231 50.9231 43.3464 50.9231 34C50.9231 24.6536 43.3464 17.0769 34 17.0769C24.6536 17.0769 17.0769 24.6536 17.0769 34C17.0769 43.3464 24.6536 50.9231 34 50.9231ZM34 54C45.0457 54 54 45.0457 54 34C54 22.9543 45.0457 14 34 14C22.9543 14 14 22.9543 14 34C14 45.0457 22.9543 54 34 54Z" fill="#ABDEEA"/>
<path d="M27 36.0787V34.2879H28.4664C28.4512 34.1606 28.4435 33.8979 28.4435 33.5C28.4435 33.2453 28.4512 33.0304 28.4664 32.8553H27V31.0885H28.581C28.8254 29.1784 29.5052 27.6901 30.6203 26.6236C31.7507 25.5412 33.1637 25 34.8592 25C36.6465 25 38.0824 25.5253 39.1669 26.5758C40.2515 27.6264 40.8625 29.0431 41 30.8258H38.4108C38.2733 29.7434 37.8991 28.8919 37.2881 28.2711C36.6923 27.6503 35.9133 27.3399 34.9509 27.3399C33.958 27.3399 33.1331 27.6662 32.4763 28.3188C31.8194 28.9714 31.407 29.8947 31.239 31.0885H35.3175L35.0196 32.8553H31.0786C31.0633 32.9986 31.0556 33.2055 31.0556 33.4761L31.0786 34.2879H34.6989L34.401 36.0787H31.239C31.4528 37.2247 31.8805 38.1081 32.5221 38.7289C33.1789 39.3497 33.9962 39.6601 34.9738 39.6601C35.9209 39.6601 36.6847 39.3497 37.2651 38.7289C37.8609 38.1081 38.2428 37.2566 38.4108 36.1742H40.9771C40.8091 37.9728 40.1904 39.3975 39.1211 40.448C38.0518 41.4827 36.6312 42 34.8592 42C33.1789 42 31.7812 41.4827 30.6661 40.448C29.5663 39.3975 28.8712 37.941 28.581 36.0787H27Z" fill="#00274E"/>
</svg>
