<svg width="16" height="15" viewBox="0 0 16 15" fill="none" xmlns="http://www.w3.org/2000/svg">
<path d="M10.1818 0H3.63636C3.03273 0 2.51636 0.363636 2.29818 0.887273L0.101818 6.01455C0.0363636 6.18182 0 6.35636 0 6.54545V8C0 8.8 0.654545 9.45455 1.45455 9.45455H6.04364L5.35273 12.7782L5.33091 13.0109C5.33091 13.3091 5.45455 13.5855 5.65091 13.7818L6.42182 14.5455L11.2073 9.75273C11.4764 9.49091 11.6364 9.12727 11.6364 8.72727V1.45455C11.6364 0.654545 10.9818 0 10.1818 0ZM10.1818 8.72727L7.02545 11.8836L7.83273 8H1.45455V6.54545L3.63636 1.45455H10.1818V8.72727ZM13.0909 0H16V8.72727H13.0909V0Z" fill="#F8534B"/>
</svg>
