<svg width="68" height="68" viewBox="0 0 68 68" fill="none" xmlns="http://www.w3.org/2000/svg">
<circle cx="34" cy="34" r="34" fill="#0CC482"/>
<path d="M44 23.0108C43.8429 21.2416 43.4391 19.4941 42.766 17.8328C41.9808 15.891 40.859 14.1219 39.3333 13.3668H39.3109C39.2436 13.3452 39.1987 13.302 39.1314 13.2805C39.1314 13.2805 39.109 13.2805 39.109 13.2589C39.0417 13.2373 38.9968 13.2157 38.9295 13.1942C38.9071 13.1942 38.9071 13.1942 38.8846 13.1726C38.8397 13.151 38.7724 13.1294 38.7276 13.1294C38.7051 13.1294 38.6827 13.1079 38.6603 13.1079C38.6154 13.0863 38.5481 13.0863 38.5032 13.0647C38.4808 13.0647 38.4583 13.0647 38.4359 13.0431C38.391 13.0431 38.3237 13.0216 38.2788 13.0216C38.2564 13.0216 38.234 13.0216 38.2115 13.0216C38.1667 13.0216 38.0994 13 38.0545 13C38.0321 13 38.0096 13 37.9872 13C37.9199 13 37.8301 13 37.7628 13C37.4487 13 37.1795 13.1726 37.0673 13.4315C37.0224 13.5178 37 13.6041 37 13.712V35.0928V50.4542C37 50.562 37 50.6483 37 50.7562C37 50.7994 37 50.8209 37.0224 50.8641C37.0224 50.9288 37.0449 50.972 37.0449 51.0367C37.0449 51.0798 37.0673 51.123 37.0673 51.1661C37.0673 51.2093 37.0897 51.2524 37.0897 51.2956C37.1122 51.3387 37.1122 51.3819 37.1346 51.425C37.1346 51.4682 37.1571 51.4898 37.1571 51.5329C37.1795 51.5761 37.2019 51.6192 37.2244 51.6839C37.2468 51.7055 37.2468 51.7487 37.2692 51.7702C37.2917 51.8134 37.3141 51.8565 37.3365 51.9213C37.359 51.9428 37.359 51.9644 37.3814 51.986C37.4038 52.0291 37.4487 52.0723 37.4712 52.1154C37.4936 52.137 37.4936 52.1586 37.516 52.1586C37.5609 52.2017 37.5833 52.2449 37.6282 52.288C37.6506 52.3096 37.6506 52.3096 37.6731 52.3312C37.7179 52.3743 37.7628 52.4175 37.8077 52.4606L37.8301 52.4822C37.875 52.5254 37.9423 52.5685 37.9872 52.5901L38.0096 52.6117C38.0769 52.6548 38.1218 52.6764 38.1891 52.7195H38.2115C38.2788 52.7411 38.3462 52.7843 38.4135 52.8058C38.4135 52.8058 38.4135 52.8058 38.4359 52.8058C38.5032 52.8274 38.5929 52.849 38.6603 52.8706C38.75 52.8921 38.8173 52.9137 38.9071 52.9353C38.9968 52.9569 39.0865 52.9569 39.1763 52.9784C39.266 52.9784 39.3782 53 39.4679 53C39.5128 53 39.5801 53 39.625 53C41.2853 53 41.9359 51.6408 41.9359 50.3247L41.0385 36.6893C40.9712 35.8263 41.3526 35.0928 42.25 35.0928H42.8333C43.4391 35.0928 43.9551 34.6181 43.9551 34.014L44 23.0108Z" fill="#E9F6ED"/>
<path d="M32.3735 13.8857C32.3735 13.4971 32.1439 13.0007 31.5174 13.0222C30.891 13.0438 30.7239 13.5835 30.7239 13.9289V22.2827C30.7239 22.585 30.4733 22.844 30.181 22.844H30.1601C29.8677 22.844 29.6381 22.585 29.6381 22.2827L29.3248 13.9073C29.3248 13.5403 29.1578 13.0222 28.5313 13.0007C27.884 12.9791 27.6752 13.4971 27.6752 13.8641L27.3411 22.2396C27.3411 22.5418 27.1323 22.8008 26.8399 22.8224C26.5267 22.8224 26.297 22.585 26.297 22.2612V13.9289C26.297 13.5403 26.1299 13.0438 25.5035 13.0222H25.4826C24.8353 13.0007 24.6265 13.5187 24.6265 13.9073L24 22.8656V22.844C24 25.8877 24.8144 27.8304 27.2784 28.3053L25.9629 50.3881C25.9629 52.007 26.9234 53 28.4896 53C30.0557 53 31.0162 51.9854 31.0162 50.3881L29.8051 28.219C32.0603 27.6577 33 25.7581 33 22.844L32.3735 13.8857Z" fill="#E9F6ED"/>
<path d="M38.3111 35.0217C37.6 35.0217 37 35.5848 37 36.2996V50.4007C37 50.509 37 50.6173 37.0222 50.704C37.0222 50.7473 37.0222 50.769 37.0444 50.8123C37.0444 50.8773 37.0667 50.9422 37.0667 50.9856C37.0667 51.0289 37.0889 51.0722 37.0889 51.1155C37.0889 51.1588 37.1111 51.2022 37.1111 51.2455C37.1333 51.2888 37.1333 51.3321 37.1556 51.3971C37.1556 51.4404 37.1778 51.4621 37.1778 51.5054C37.2 51.5487 37.2222 51.6137 37.2444 51.657C37.2667 51.6787 37.2667 51.722 37.2889 51.7437C37.3111 51.787 37.3333 51.852 37.3778 51.8953C37.4 51.917 37.4 51.9386 37.4222 51.9603C37.4444 52.0036 37.4889 52.0469 37.5111 52.1119C37.5333 52.1336 37.5333 52.1552 37.5556 52.1552C37.6 52.1986 37.6222 52.2419 37.6667 52.2852C37.6889 52.3069 37.6889 52.3069 37.7111 52.3285C37.7556 52.3718 37.8 52.4152 37.8444 52.4585L37.8667 52.4801C37.9111 52.5235 37.9778 52.5668 38.0222 52.5884L38.0444 52.6101C38.1111 52.6534 38.1778 52.6751 38.2222 52.7184H38.2444C38.3111 52.7617 38.3778 52.7834 38.4444 52.8051C38.4444 52.8051 38.4444 52.8051 38.4667 52.8051C38.5333 52.8267 38.6222 52.8484 38.6889 52.87C38.7778 52.8917 38.8667 52.9134 38.9333 52.935C39.0222 52.9567 39.1111 52.9567 39.2 52.9783C39.2889 52.9783 39.4 53 39.4889 53C39.5333 53 39.6 53 39.6444 53C41.3111 53 41.9778 51.6354 42 50.2924C42 50.2491 42 50.2274 42 50.1841L41.0889 36.2347C41.0889 36.2347 41.0889 36.2347 41.0889 36.213C41.0444 35.5415 40.4889 35 39.7778 35H38.3111V35.0217Z" fill="#00443B"/>
<path d="M28.5498 28C27.8327 28 27.255 28.6003 27.1952 29.3722L26 50.2985C26 51.9708 26.9562 53 28.51 53C30.0438 53 31 51.9708 31 50.2985L29.8845 29.3722C29.8645 28.6003 29.2669 28 28.5498 28Z" fill="#00443B"/>
</svg>
