<svg width="16" height="16" viewBox="0 0 16 16" fill="none" xmlns="http://www.w3.org/2000/svg">
<path d="M15.0262 11.3107C14.4062 10.7797 13.6966 10.3633 12.9306 10.0811C11.3352 9.46005 9.6443 9.12008 7.93287 9.07629C6.22143 9.12008 4.53053 9.46005 2.93516 10.0811C2.16917 10.3633 1.45956 10.7797 0.839562 11.3107C0.590288 11.5122 0.386573 11.7643 0.241856 12.0503C0.0971382 12.3364 0.0147072 12.6498 0 12.97L0 15.8589H15.8657V12.97C15.851 12.6498 15.7686 12.3364 15.6239 12.0503C15.4792 11.7643 15.2754 11.5122 15.0262 11.3107V11.3107ZM14.2329 14.0806V14.226H1.63285V12.97C1.63285 12.7585 1.83117 12.5205 2.24104 12.2494C2.69585 11.963 3.17874 11.7238 3.68217 11.5355C5.03949 11.0124 6.47842 10.7326 7.93287 10.7091C9.38732 10.7326 10.8262 11.0124 12.1836 11.5355C12.687 11.7238 13.1699 11.963 13.6247 12.2494C14.0346 12.5205 14.2329 12.7585 14.2329 12.97V14.0806Z" fill="#0CC482"/>
<path d="M7.93249 7.78743C8.83312 7.78739 9.70588 7.47514 10.4021 6.90386C11.0984 6.33257 11.5751 5.5376 11.751 4.65432C11.9269 3.77104 11.7912 2.85409 11.367 2.05963C10.9428 1.26517 10.2562 0.642346 9.42437 0.297225C8.59249 -0.0478951 7.66669 -0.0939653 6.80466 0.166861C5.94262 0.427687 5.19766 0.97928 4.69666 1.72769C4.19565 2.47611 3.96958 3.37506 4.05694 4.27144C4.14431 5.16782 4.53972 6.0062 5.17581 6.64378C5.90675 7.37539 6.89831 7.78676 7.93249 7.78743V7.78743ZM7.93249 1.62624C8.37964 1.62624 8.81676 1.75884 9.18856 2.00726C9.56036 2.25569 9.85014 2.60879 10.0213 3.02191C10.1924 3.43503 10.2371 3.88961 10.1499 4.32818C10.0627 4.76675 9.84735 5.16959 9.53116 5.48578C9.21497 5.80197 8.81213 6.0173 8.37356 6.10453C7.93499 6.19177 7.48041 6.147 7.06729 5.97588C6.65417 5.80476 6.30107 5.51498 6.05264 5.14318C5.80422 4.77138 5.67162 4.33426 5.67162 3.88711C5.67162 3.28749 5.90982 2.71243 6.33381 2.28843C6.75781 1.86444 7.33287 1.62624 7.93249 1.62624V1.62624Z" fill="#0CC482"/>
</svg>
