<svg width="68" height="68" viewBox="0 0 68 68" fill="none" xmlns="http://www.w3.org/2000/svg">
<circle cx="34" cy="34" r="34" fill="#F6A442"/>
<g clip-path="url(#clip0_338_769)">
<path d="M47.1708 34.4718H54.0564C54.0564 30.2952 52.7583 26.4573 50.5007 23.2967L45.1954 27.1346L38.4226 22.1679L40.4544 15.903C38.5919 15.3386 36.5601 15 34.5282 15C32.6093 15 30.6903 15.2822 28.9407 15.7902L31.0289 22.1679L24.1997 27.0781L18.6686 23.0709C16.3546 26.3444 15 30.2388 15 34.5282C15 34.6411 15 34.8104 15 34.9233H21.9421L24.5384 42.9378L19.2894 46.7192C21.6599 49.6541 24.8206 51.9117 28.5456 53.097L30.4081 47.3401H38.8177L40.6802 53.0405C44.3488 51.7988 47.6223 49.4284 49.9363 46.3806L44.5181 42.4298L47.1708 34.4718Z" fill="white"/>
<path d="M54 34.4718H47.1143L44.5181 42.4863L49.9363 46.4371C52.4761 43.1071 54 38.987 54 34.4718Z" fill="#461E01"/>
<path d="M30.4079 47.2837L28.5454 53.0406C30.4079 53.6614 32.4398 54 34.528 54C36.6728 54 38.761 53.6614 40.68 52.9841L38.8175 47.2837H30.4079Z" fill="#461E01"/>
<path d="M21.9421 34.9232H15C15.1129 39.382 16.6932 43.5021 19.2894 46.7192L24.5384 42.9377L21.9421 34.9232Z" fill="#461E01"/>
<path d="M30.9724 22.2243L28.9405 15.7902C24.764 17.0318 21.1518 19.6281 18.6685 23.1274L24.1996 27.1346L30.9724 22.2243Z" fill="#461E01"/>
<path d="M45.1952 27.1346L50.5005 23.2967C48.0736 19.8539 44.5179 17.2576 40.4542 15.9031L38.4224 22.1679L45.1952 27.1346Z" fill="#461E01"/>
<path d="M34.5285 28.0376L27.6992 33.0043L30.2955 40.9623H38.705L41.3012 33.0043L34.5285 28.0376Z" fill="#461E01"/>
</g>
<defs>
<clipPath id="clip0_338_769">
<rect width="39" height="39" fill="white" transform="translate(15 15)"/>
</clipPath>
</defs>
</svg>
