<svg width="17" height="18" viewBox="0 0 17 18" fill="none" xmlns="http://www.w3.org/2000/svg">
<path d="M17 9.19544C17 8.62371 16.9494 8.08092 16.8625 7.55261H8.68457V10.8166H13.367C13.1571 11.8877 12.542 12.7923 11.6301 13.4074V15.5786H14.4236C16.0592 14.066 17 11.837 17 9.19544Z" fill="#4285F4"/>
<path d="M8.68456 17.6846C11.0294 17.6846 12.9906 16.903 14.4236 15.5786L11.6301 13.4075C10.8485 13.9285 9.85697 14.247 8.68456 14.247C6.41934 14.247 4.5015 12.7199 3.81397 10.6573H0.933594V12.8936C2.35931 15.7306 5.29034 17.6846 8.68456 17.6846Z" fill="#34A853"/>
<path d="M3.81397 10.6573C3.63304 10.1362 3.53895 9.57899 3.53895 9.00002C3.53895 8.42105 3.64027 7.86379 3.81397 7.34272V5.10645H0.933588C0.340144 6.27886 0 7.59601 0 9.00002C0 10.404 0.340144 11.7212 0.933588 12.8936L3.81397 10.6573Z" fill="#FBBC05"/>
<path d="M8.68456 3.75306C9.96553 3.75306 11.109 4.19453 12.0136 5.05575L14.4887 2.58065C12.9906 1.17665 11.0294 0.31543 8.68456 0.31543C5.29034 0.31543 2.35931 2.26946 0.933594 5.10641L3.81397 7.34268C4.5015 5.2801 6.41934 3.75306 8.68456 3.75306Z" fill="#EA4335"/>
</svg>
