<svg width="16" height="16" viewBox="0 0 16 16" fill="none" xmlns="http://www.w3.org/2000/svg">
<path d="M8.2302 8.88V8.64C8.2302 8.37 8.3702 8.16 8.5602 8.01C8.6102 7.96 8.7902 7.85 8.8302 7.82C8.8802 7.79 9.1002 7.67 9.1402 7.64C9.4502 7.45 9.6202 7.33 9.8502 7.06C10.0802 6.79 10.1902 6.43 10.1902 5.96C10.1902 5.4 9.9602 4.93 9.5102 4.56C9.0602 4.19 8.4902 4 7.8002 4C6.1202 4 5.2402 4.98 5.2002 6.47L6.5202 6.58C6.5702 5.69 6.9902 5.25 7.7602 5.25C8.4702 5.25 8.8402 5.61 8.8402 6.06C8.8402 6.42 8.6002 6.72 8.4402 6.84L8.0202 7.11C7.7102 7.3 7.5802 7.39 7.3502 7.63C7.1202 7.87 7.0202 8.17 7.0202 8.57V8.88H8.2302ZM8.4302 11.15V9.73H6.9402V11.15H8.4302Z" fill="#00443B"/>
<circle cx="8" cy="8" r="7.15" stroke="#00443B" stroke-width="1.7"/>
</svg>
