<svg width="12" height="10" viewBox="0 0 12 10" fill="none" xmlns="http://www.w3.org/2000/svg">
<path d="M6 1.84902C7.00265 1.84666 7.98569 2.11435 8.83643 2.62138C9.68717 3.12841 10.3712 3.85426 10.81 4.71572C10.4951 5.33905 10.0492 5.89368 9.5 6.34496L10.27 7.07597C11.0353 6.43225 11.6285 5.623 12 4.71572C11.3978 3.25398 10.2351 2.0666 8.74874 1.39548C7.26234 0.724369 5.56411 0.620014 4 1.10368L4.9 1.96369C5.2618 1.8908 5.63027 1.85239 6 1.84902ZM5.415 2.44625L6.545 3.52126C6.85553 3.65569 7.10432 3.89342 7.245 4.19016L8.375 5.26995C8.42086 5.08671 8.446 4.8993 8.45 4.71094C8.45 4.09003 8.19188 3.49456 7.73241 3.05551C7.27295 2.61646 6.64978 2.3698 6 2.3698C5.80237 2.37111 5.60574 2.3968 5.415 2.44625ZM0.55 0.740564L2 2.13569C1.10511 2.81046 0.414725 3.70107 0 4.71572C0.474453 5.8671 1.30035 6.8555 2.37036 7.55249C3.44037 8.24947 4.70503 8.62281 6 8.62399C6.80481 8.63211 7.60393 8.4943 8.355 8.21787L10.22 10L11 9.2451L1.32 0L0.55 0.740564ZM4.64 4.64883L6.065 6.01051H6C5.63798 6.01051 5.29079 5.87309 5.0348 5.62848C4.77881 5.38386 4.635 5.0521 4.635 4.70616C4.635 4.69183 4.64 4.6775 4.64 4.64883ZM2.785 2.87625L3.74 3.78882C3.61167 4.08247 3.5454 4.39749 3.545 4.71572C3.54582 5.10352 3.64703 5.48511 3.83961 5.82647C4.03219 6.16783 4.31016 6.45836 4.64875 6.67216C4.98734 6.88597 5.37603 7.0164 5.78016 7.05185C6.1843 7.08729 6.59134 7.02664 6.965 6.8753L7.5 7.38653C7.0113 7.5151 6.50688 7.58097 6 7.58242C4.99711 7.5859 4.01357 7.31869 3.16261 6.81153C2.31166 6.30437 1.62788 5.57789 1.19 4.71572C1.56377 3.99179 2.11008 3.36175 2.785 2.87625Z" fill="white"/>
</svg>
