<svg width="15" height="14" viewBox="0 0 15 14" fill="none" xmlns="http://www.w3.org/2000/svg">
<path d="M13.5 2.94737H11.865C11.9475 2.71895 12 2.46842 12 2.21053C12 0.987368 10.995 0 9.75 0C8.9625 0 8.28 0.397895 7.875 0.994737L7.5 1.48842L7.125 0.987368C6.72 0.397895 6.0375 0 5.25 0C4.005 0 3 0.987368 3 2.21053C3 2.46842 3.0525 2.71895 3.135 2.94737H1.5C0.6675 2.94737 0.00749999 3.60316 0.00749999 4.42105L0 12.5263C0 13.3442 0.6675 14 1.5 14H13.5C14.3325 14 15 13.3442 15 12.5263V4.42105C15 3.60316 14.3325 2.94737 13.5 2.94737ZM9.75 1.47368C10.1625 1.47368 10.5 1.80526 10.5 2.21053C10.5 2.61579 10.1625 2.94737 9.75 2.94737C9.3375 2.94737 9 2.61579 9 2.21053C9 1.80526 9.3375 1.47368 9.75 1.47368ZM5.25 1.47368C5.6625 1.47368 6 1.80526 6 2.21053C6 2.61579 5.6625 2.94737 5.25 2.94737C4.8375 2.94737 4.5 2.61579 4.5 2.21053C4.5 1.80526 4.8375 1.47368 5.25 1.47368ZM13.5 12.5263H1.5V11.0526H13.5V12.5263ZM13.5 8.8421H1.5V4.42105H5.31L3.75 6.50632L4.965 7.36842L7.5 3.97895L10.035 7.36842L11.25 6.50632L9.69 4.42105H13.5V8.8421Z" fill="#00443B"/>
</svg>
