<svg width="189" height="68" viewBox="0 0 189 68" fill="none" xmlns="http://www.w3.org/2000/svg">
<path d="M93.3606 12.1072H97.9498V32.5875H108.435V36.8236H93.3606V12.1072Z" fill="white"/>
<path d="M118.507 25.8748H121.613V25.0971C121.613 23.3651 120.306 22.4826 118.507 22.4826C116.991 22.4826 115.965 23.1555 115.435 24.5289L111.728 23.6795C112.291 20.712 114.977 18.7373 118.507 18.7373C123.273 18.7373 125.992 21.2801 125.992 26.1892V36.8182H122.391L121.933 34.5567C120.554 36.2501 118.717 37.0995 116.461 37.0995C113.317 37.0995 111.061 35.1193 111.061 31.6995C111.056 28.1694 113.951 25.8748 118.507 25.8748ZM121.613 29.3387H118.684C116.742 29.3387 115.645 30.0779 115.645 31.6333C115.645 32.6593 116.456 33.3653 117.619 33.3653C119.737 33.3653 121.607 31.9201 121.607 29.6918V29.3387H121.613Z" fill="white"/>
<path d="M130.587 19.0242H134.966V30.4309C134.966 32.4442 135.954 33.3598 137.509 33.3598C139.66 33.3598 141.569 30.6736 141.569 26.123V19.0242H145.948V36.8182H141.569V33.961C140.19 35.9026 138.287 37.1051 136.059 37.1051C132.777 37.1051 130.587 35.2352 130.587 31.7382V19.0242Z" fill="white"/>
<path d="M150.891 19.0242H155.27V21.92C156.539 19.9068 158.447 18.7429 160.532 18.7429C161.205 18.7429 161.911 18.8477 162.683 19.0959L161.873 23.1556C161.343 22.8357 160.709 22.6592 160.036 22.6592C157.245 22.6592 155.27 25.0972 155.27 30.4972V36.8183H150.891V19.0242Z" fill="white"/>
<path d="M180.66 29.3385H168.371C168.757 31.9861 170.312 33.3651 172.607 33.3651C174.581 33.3651 175.822 32.4826 176.915 30.6127L180.445 31.92C179 35.2736 176.457 37.1103 172.358 37.1103C166.495 37.1103 163.814 32.4164 163.814 27.932C163.814 23.4476 166.501 18.7537 172.358 18.7537C178.007 18.7537 180.654 23.3428 180.654 27.5459V29.3385H180.66ZM176.175 25.8746C175.751 23.8944 174.515 22.4824 172.364 22.4824C170.494 22.4824 169.043 23.6462 168.481 25.8746H176.175Z" fill="white"/>
<path d="M184.62 11.8203H189V36.818H184.62V11.8203Z" fill="white"/>
<path d="M98.9264 45.9575C101.591 45.9575 103.411 47.513 104.067 49.8627L101.966 50.4088C101.331 48.8533 100.322 48.0756 98.9264 48.0756C96.8249 48.0756 95.3742 49.5263 95.3742 52.2787C95.3742 55.1028 96.8028 56.4817 98.8713 56.4817C100.548 56.4817 101.486 55.4061 101.646 54.132H99.3512V52.2235H103.874V58.4564H101.949L101.756 57.1326C101.21 57.982 100.217 58.5998 98.7555 58.5998C95.7383 58.6329 92.9969 56.3549 93.0521 52.2787C93.0466 48.2025 95.7824 45.9575 98.9264 45.9575Z" fill="white"/>
<path d="M109.594 52.9902H111.15V52.6041C111.15 51.7381 110.499 51.2969 109.594 51.2969C108.833 51.2969 108.32 51.6333 108.055 52.3228L106.202 51.8981C106.483 50.4143 107.829 49.427 109.594 49.427C111.977 49.427 113.339 50.7012 113.339 53.1557V58.473H111.536L111.304 57.3422C110.615 58.1917 109.699 58.6164 108.568 58.6164C106.996 58.6164 105.865 57.629 105.865 55.9136C105.865 54.1375 107.311 52.9902 109.594 52.9902ZM111.144 54.7167H109.677C108.706 54.7167 108.16 55.0862 108.16 55.864C108.16 56.3769 108.568 56.73 109.147 56.73C110.206 56.73 111.144 56.0074 111.144 54.8932V54.7167Z" fill="white"/>
<path d="M115.557 49.5594H117.746V50.988C118.436 49.9455 119.197 49.416 120.306 49.416C121.453 49.416 122.424 50.0338 122.799 51.2528C123.433 50.1055 124.443 49.416 125.518 49.416C127.162 49.416 128.166 50.442 128.166 52.1519V58.4565H125.976V52.5214C125.976 51.6885 125.606 51.2859 124.878 51.2859C123.748 51.2859 122.953 52.5931 122.953 54.9925V58.4565H120.763V52.5214C120.763 51.6885 120.394 51.2859 119.666 51.2859C118.535 51.2859 117.741 52.6483 117.741 55.1911V58.4565H115.551V49.5594H115.557Z" fill="white"/>
<path d="M131.663 45.5881C132.457 45.5881 133.075 46.2059 133.075 47.0002C133.075 47.7945 132.457 48.4122 131.663 48.4122C130.869 48.4122 130.251 47.7945 130.251 47.0002C130.251 46.2059 130.869 45.5881 131.663 45.5881ZM130.565 49.5595H132.755V58.4621H130.565V49.5595Z" fill="white"/>
<path d="M135.16 49.5594H137.35V50.988C138.039 50.0172 138.993 49.416 140.108 49.416C141.751 49.416 142.843 50.3537 142.843 52.1022V58.462H140.654V52.7586C140.654 51.7492 140.157 51.2914 139.38 51.2914C138.304 51.2914 137.35 52.6317 137.35 54.9153V58.4675H135.16V49.5594Z" fill="white"/>
<path d="M145.116 57.5079C144.818 57.1384 144.658 56.675 144.658 56.129C144.658 55.2961 145.066 54.6618 145.756 54.2591C145.348 53.7461 145.138 53.1449 145.138 52.4223C145.138 50.6021 146.589 49.4217 148.403 49.4217C148.988 49.4217 149.534 49.5431 150.047 49.8078L151.724 48.9253L152.59 50.376L151.316 51.0103C151.548 51.4184 151.669 51.8928 151.669 52.4223C151.669 54.2591 150.218 55.3898 148.403 55.3898C147.962 55.3898 147.521 55.3181 147.113 55.1968C146.832 55.3567 146.688 55.5829 146.688 55.8697C146.688 56.2944 146.969 56.5206 147.521 56.5206H149.341C151.25 56.5206 152.469 57.4583 152.469 59.1351C152.469 61.2366 150.527 62.2074 148.426 62.2074C147.24 62.2074 146.269 61.9592 145.513 61.4462C144.769 60.9333 144.399 60.2107 144.399 59.273C144.393 58.5504 144.642 57.9492 145.116 57.5079ZM148.845 58.3574H147.642C147.234 58.3574 146.903 58.3408 146.616 58.2857C146.495 58.4787 146.423 58.76 146.423 59.0965C146.423 59.9294 147.218 60.3706 148.42 60.3706C149.551 60.3706 150.273 60.0342 150.273 59.273C150.273 58.589 149.766 58.3574 148.845 58.3574ZM148.403 51.1868C147.697 51.1868 147.185 51.6998 147.185 52.4223C147.185 53.1284 147.697 53.6248 148.403 53.6248C149.11 53.6248 149.623 53.1284 149.623 52.4223C149.623 51.6998 149.11 51.1868 148.403 51.1868Z" fill="white"/>
<path d="M28.3293 0.573643L32.4055 0C32.6427 2.20633 31.9752 4.36302 30.5356 6.18324C29.4324 7.57323 27.9487 8.53299 26.3656 9.05699C25.0253 9.48723 23.7787 10.0167 22.5763 10.7338L21.3793 11.4509C19.6529 7.95382 20.756 5.36138 22.1957 3.5908C23.6353 1.82022 25.9851 0.860466 28.3293 0.573643Z" fill="white"/>
<path d="M22.3391 13.1332C23.012 14.6666 24.1593 15.9628 25.5052 16.8729C25.9354 17.1597 26.465 17.4466 27.0386 17.6892C28.5224 18.2629 30.1054 18.4063 31.6884 18.2188L33.3156 18.0257C33.7458 15.9628 31.5892 12.4658 29.8186 11.8425C28.2852 11.2688 26.6084 11.3626 25.075 11.9859L22.3391 13.1332Z" fill="white"/>
<path d="M46.6915 2.53725L50.4809 4.2637C49.5211 6.27698 47.7946 7.71662 45.5938 8.48332C43.9666 9.05696 42.1409 9.05696 40.5137 8.62673C39.1734 8.24062 37.8275 8.05308 36.3934 8.00343L35.0034 7.95379C35.4833 4.12029 37.7834 2.53725 39.9401 1.82019C42.0858 1.09762 44.5789 1.53336 46.6915 2.53725Z" fill="white"/>
<path d="M34.9483 9.91748C34.6615 11.5447 34.9483 13.2711 35.6213 14.7604C35.8143 15.2403 36.1011 15.7201 36.4817 16.2441C37.4415 17.5404 38.688 18.4946 40.1222 19.2172L41.6059 19.9342C43.0897 18.4505 43.0897 14.3246 41.992 12.8409C40.9882 11.5005 39.5485 10.7338 37.9158 10.4415L34.9483 9.91748Z" fill="white"/>
<path d="M60.6852 13.1331L63.1287 16.4867C61.3085 17.7829 59.1022 18.1635 56.8021 17.7829C55.0756 17.4961 53.4926 16.586 52.2957 15.4332C51.2918 14.4238 50.2327 13.613 49.0358 12.8904L47.8389 12.1733C50.139 9.00725 52.9189 8.77007 55.1749 9.2003C57.3812 9.63054 59.3449 11.2136 60.6852 13.1331Z" fill="white"/>
<path d="M46.7853 13.8005C45.7317 15.0968 45.1581 16.7239 45.0092 18.3566C44.9595 18.8861 44.9595 19.4598 45.0092 20.0831C45.2022 21.6661 45.8255 23.1499 46.7356 24.4461L47.6457 25.7864C49.659 25.2128 51.7219 21.6661 51.4792 19.7962C51.2421 18.1691 50.3761 16.7294 49.0798 15.72L46.7853 13.8005Z" fill="white"/>
<path d="M67.4421 28.9967L67.9716 33.117C65.7653 33.3542 63.6086 32.6372 61.7883 31.1975C60.448 30.0944 59.4882 28.5609 59.0084 26.9779C58.6223 25.6376 58.0486 24.391 57.3812 23.1444L56.7083 21.8978C60.2549 20.221 62.7977 21.3683 64.5683 22.8576C66.2451 24.2972 67.2049 26.647 67.4421 28.9967Z" fill="white"/>
<path d="M54.9817 22.8135C53.4483 23.4368 52.152 24.5896 51.2419 25.9299C50.9551 26.3602 50.6683 26.8897 50.4256 27.4633C49.8023 28.9471 49.6589 30.5301 49.8023 32.1132L49.9954 33.7403C52.0583 34.2202 55.5553 32.0635 56.2282 30.3371C56.8515 28.8037 56.7578 27.171 56.1345 25.5935L54.9817 22.8135Z" fill="white"/>
<path d="M65.6218 46.013L63.9947 49.8465C61.9317 48.9364 60.448 47.2595 59.6316 45.1029C59.0083 43.4757 58.9146 41.6499 59.2952 40.0228C59.6316 38.6328 59.775 37.2924 59.775 35.9025V34.5125C63.6582 34.7993 65.335 37.0994 66.1017 39.2119C66.918 41.3631 66.5816 43.8563 65.6218 46.013Z" fill="white"/>
<path d="M57.8555 34.5071C56.1787 34.2699 54.5019 34.6009 53.0622 35.3234C52.5824 35.5606 52.1025 35.853 51.5785 36.2335C50.3319 37.1933 49.3721 38.5336 48.7489 39.9733L48.0759 41.457C49.6093 42.8967 53.7297 42.7974 55.1693 41.6005C56.4655 40.5469 57.2322 39.1073 57.4197 37.4305L57.8555 34.5071Z" fill="white"/>
<path d="M55.6548 59.9625L52.395 62.5494C51.0546 60.7733 50.5251 58.5725 50.8119 56.2724C51.0491 54.546 51.8655 52.9188 52.9686 51.6722C53.9284 50.6187 54.6951 49.5155 55.368 48.3186L56.041 47.072C59.3008 49.2287 59.6814 52.0087 59.3008 54.2647C58.9147 56.5096 57.5247 58.5229 55.6548 59.9625Z" fill="white"/>
<path d="M54.4082 46.1068C53.0678 45.1029 51.4352 44.623 49.808 44.5237C49.2785 44.4741 48.7048 44.5237 48.0815 44.6175C46.4985 44.8547 45.0589 45.5773 43.7681 46.537L42.4719 47.5409C43.1449 49.5045 46.7853 51.424 48.6552 51.0876C50.2823 50.8008 51.6282 49.8906 52.6321 48.5448L54.4082 46.1068Z" fill="white"/>
<path d="M39.7414 67.2931L35.6211 67.8227C35.3839 65.6163 36.101 63.4596 37.5406 61.6394C38.6437 60.2991 40.1771 59.3393 41.7602 58.8594C43.1005 58.4733 44.3471 57.8997 45.5937 57.2323L46.8403 56.5593C48.5171 60.106 47.3698 62.6488 45.8805 64.4194C44.3857 66.1955 42.0856 67.0559 39.7414 67.2931Z" fill="white"/>
<path d="M45.8753 54.8327C45.252 53.2993 44.0992 52.0031 42.7588 51.093C42.3286 50.8062 41.799 50.5194 41.2254 50.2767C39.7416 49.6534 38.1586 49.51 36.5756 49.6534L34.9484 49.8464C34.4685 51.9094 36.6252 55.4064 38.3517 56.0793C39.8851 56.7026 41.5619 56.6088 43.0953 55.9855L45.8753 54.8327Z" fill="white"/>
<path d="M20.999 65.2357L17.2593 63.4155C18.2632 61.4518 20.0393 60.0122 22.2456 59.2951C23.9224 58.7656 25.7426 58.8153 27.3257 59.2455C28.666 59.6316 30.0119 59.8688 31.4019 59.9626L32.7919 60.0563C32.2623 63.9395 29.9181 65.4232 27.7118 66.0962C25.5054 66.7691 23.0564 66.2892 20.999 65.2357Z" fill="white"/>
<path d="M32.9348 58.1424C33.2713 56.5152 33.0286 54.7888 32.4053 53.2995C32.2123 52.8196 31.9255 52.2956 31.589 51.7661C30.6789 50.4699 29.4323 49.4164 28.0423 48.6993L26.6027 47.9326C25.1189 49.3722 24.9259 53.4926 26.029 55.026C26.9888 56.3663 28.4284 57.2323 30.0556 57.5191L32.9348 58.1424Z" fill="white"/>
<path d="M7.42984 54.833L4.98633 51.4793C6.80655 50.1831 9.01288 49.8025 11.313 50.1831C13.0394 50.5196 14.6225 51.3801 15.8194 52.5329C16.8233 53.5368 17.8823 54.3531 19.0793 55.0757L20.2762 55.8424C17.9761 59.0085 15.1961 59.2456 12.9401 58.8154C10.6897 58.3796 8.7757 56.7966 7.42984 54.833Z" fill="white"/>
<path d="M21.3353 54.2095C22.3888 52.9133 22.9625 51.2861 23.1114 49.6535C23.161 49.1239 23.161 48.5503 23.1114 47.927C22.9183 46.344 22.2951 44.8602 21.385 43.564L20.4748 42.2236C18.4616 42.7973 16.3986 46.3439 16.6413 48.2138C16.8785 49.841 17.6949 51.2806 18.9911 52.3341L21.3353 54.2095Z" fill="white"/>
<path d="M0.623291 39.3996L0 35.2793C2.20633 34.9925 4.36302 35.6654 6.18324 37.0995C7.57323 38.1531 8.58264 39.6865 9.057 41.2695C9.48724 42.6099 10.0609 43.8564 10.7835 45.0589L11.5005 46.2558C8.00347 48.0319 5.41103 46.9287 3.64045 45.4891C1.86987 44.0495 0.91563 41.7494 0.623291 39.3996Z" fill="white"/>
<path d="M13.1827 45.296C14.7161 44.6231 16.0123 43.4758 16.8728 42.0858C17.1596 41.6556 17.4464 41.1261 17.6395 40.5524C18.2131 39.0687 18.3566 37.436 18.1194 35.9026L17.9263 34.2754C15.8634 33.8452 12.416 36.0515 11.7431 37.8221C11.1694 39.3555 11.2632 41.0323 11.9361 42.5657L13.1827 45.296Z" fill="white"/>
<path d="M2.39938 21.9971L3.839 18.114C5.90192 18.9304 7.47947 20.5134 8.43922 22.6701C9.15628 24.2531 9.29969 26.0733 8.96874 27.7005C8.73155 29.0905 8.63226 30.4308 8.6819 31.8208L8.73156 33.2108C4.79877 33.1171 3.07783 30.9107 2.21184 28.7982C1.34586 26.6856 1.53891 24.2035 2.39938 21.9971Z" fill="white"/>
<path d="M10.6897 33.1666C12.3665 33.31 14.0433 32.8798 15.483 32.1131C15.9132 31.8759 16.4427 31.5395 16.9226 31.1092C18.1195 30.1053 19.0296 28.7098 19.6088 27.2261L20.1824 25.6927C18.5994 24.3523 14.4791 24.5895 13.0891 25.8361C11.8425 26.9393 11.1696 28.423 11.0262 30.0998L10.6897 33.1666Z" fill="white"/>
<path d="M12.4657 7.90413L15.7752 5.36133C17.1156 7.13743 17.5955 9.33824 17.2149 11.6383C16.9777 13.3648 16.1117 14.992 15.0085 16.1944C14.0488 17.2479 13.2324 18.3015 12.565 19.548L11.848 20.745C8.58812 18.5386 8.30129 15.7587 8.68188 13.5082C9.01283 11.2633 10.5462 9.29412 12.4657 7.90413Z" fill="white"/>
<path d="M13.4695 21.7601C14.8098 22.7639 16.4425 23.2935 18.0697 23.4369C18.5992 23.4865 19.1729 23.4369 19.7961 23.3872C21.3792 23.1501 22.8629 22.4771 24.1095 21.567L25.4057 20.6073C24.7824 18.594 21.142 16.6303 19.3163 16.9668C17.6891 17.2536 16.2991 18.1196 15.2897 19.46L13.4695 21.7601Z" fill="white"/>
</svg>
