<svg width="109" height="40" viewBox="0 0 109 40" fill="none" xmlns="http://www.w3.org/2000/svg">
<path d="M53.8428 6.98218H56.4894V18.7935H62.5366V21.2366H53.8428V6.98218Z" fill="#00443B"/>
<path d="M68.3452 14.9222H70.1362V14.4737C70.1362 13.4748 69.3823 12.9659 68.3452 12.9659C67.4704 12.9659 66.8788 13.3539 66.5734 14.146L64.4357 13.6562C64.7602 11.9447 66.3093 10.8059 68.3452 10.8059C71.0937 10.8059 72.662 12.2724 72.662 15.1035V21.2335H70.5847L70.3207 19.9292C69.5254 20.9058 68.4661 21.3957 67.1651 21.3957C65.3518 21.3957 64.0508 20.2537 64.0508 18.2814C64.0476 16.2455 65.7177 14.9222 68.3452 14.9222ZM70.1362 16.9199H68.447C67.3273 16.9199 66.6943 17.3462 66.6943 18.2433C66.6943 18.8349 67.1619 19.2421 67.8331 19.2421C69.0546 19.2421 70.133 18.4087 70.133 17.1235V16.9199H70.1362Z" fill="#00443B"/>
<path d="M75.3125 10.9714H77.8383V17.5499C77.8383 18.711 78.4077 19.239 79.3048 19.239C80.5454 19.239 81.646 17.6899 81.646 15.0655V10.9714H84.1718V21.2336H81.646V19.5858C80.8507 20.7055 79.7533 21.399 78.4681 21.399C76.5754 21.399 75.3125 20.3206 75.3125 18.3038V10.9714Z" fill="#00443B"/>
<path d="M87.0215 10.9716H89.5473V12.6416C90.2789 11.4805 91.3795 10.8093 92.582 10.8093C92.9701 10.8093 93.3773 10.8698 93.8226 11.0129L93.355 13.3542C93.0496 13.1697 92.6838 13.0679 92.2957 13.0679C90.6861 13.0679 89.5473 14.4739 89.5473 17.5882V21.2337H87.0215V10.9716Z" fill="#00443B"/>
<path d="M104.19 16.9199H97.1022C97.3249 18.4468 98.2219 19.2421 99.5452 19.2421C100.684 19.2421 101.4 18.7331 102.03 17.6547L104.066 18.4087C103.232 20.3428 101.766 21.402 99.4021 21.402C96.0206 21.402 94.4746 18.695 94.4746 16.1087C94.4746 13.5225 96.0238 10.8154 99.4021 10.8154C102.66 10.8154 104.186 13.4621 104.186 15.8861V16.9199H104.19ZM101.603 14.9222C101.358 13.7802 100.646 12.9658 99.4053 12.9658C98.3269 12.9658 97.4903 13.637 97.1658 14.9222H101.603Z" fill="#00443B"/>
<path d="M106.474 6.81689H108.999V21.2335H106.474V6.81689Z" fill="#00443B"/>
<path d="M57.0534 26.5044C58.5898 26.5044 59.6396 27.4015 60.0181 28.7566L58.8061 29.0715C58.4403 28.1745 57.8582 27.7259 57.0534 27.7259C55.8414 27.7259 55.0047 28.5625 55.0047 30.1499C55.0047 31.7786 55.8286 32.5739 57.0215 32.5739C57.9886 32.5739 58.5294 31.9536 58.6216 31.2187H57.2983V30.1181H59.9068V33.7127H58.7966L58.6852 32.9493C58.3703 33.4391 57.7977 33.7954 56.9547 33.7954C55.2147 33.8145 53.6337 32.5007 53.6655 30.1499C53.6623 27.7991 55.2401 26.5044 57.0534 26.5044Z" fill="#00443B"/>
<path d="M63.2061 30.5603H64.1031V30.3377C64.1031 29.8382 63.7278 29.5837 63.2061 29.5837C62.7671 29.5837 62.4712 29.7778 62.3186 30.1754L61.2497 29.9305C61.4119 29.0748 62.1881 28.5054 63.2061 28.5054C64.5803 28.5054 65.366 29.2402 65.366 30.6558V33.7223H64.3258L64.1922 33.0702C63.7946 33.5601 63.2665 33.805 62.6144 33.805C61.7078 33.805 61.0557 33.2356 61.0557 32.2463C61.0557 31.222 61.8891 30.5603 63.2061 30.5603ZM64.1 31.556H63.2538C62.6939 31.556 62.379 31.7691 62.379 32.2177C62.379 32.5135 62.6144 32.7171 62.9484 32.7171C63.5592 32.7171 64.1 32.3004 64.1 31.6578V31.556Z" fill="#00443B"/>
<path d="M66.6438 28.5817H67.9067V29.4056C68.3043 28.8044 68.7433 28.499 69.3827 28.499C70.0444 28.499 70.6042 28.8553 70.8206 29.5583C71.1864 28.8967 71.7685 28.499 72.3888 28.499C73.3368 28.499 73.9157 29.0907 73.9157 30.0768V33.7128H72.6529V30.29C72.6529 29.8096 72.4397 29.5774 72.0198 29.5774C71.3677 29.5774 70.9096 30.3313 70.9096 31.7151V33.7128H69.6467V30.29C69.6467 29.8096 69.4336 29.5774 69.0137 29.5774C68.3616 29.5774 67.9035 30.3631 67.9035 31.8296V33.7128H66.6406V28.5817H66.6438Z" fill="#00443B"/>
<path d="M75.9335 26.2915C76.3916 26.2915 76.7478 26.6478 76.7478 27.1059C76.7478 27.5639 76.3916 27.9202 75.9335 27.9202C75.4754 27.9202 75.1191 27.5639 75.1191 27.1059C75.1191 26.6478 75.4754 26.2915 75.9335 26.2915ZM75.3005 28.5819H76.5633V33.7161H75.3005V28.5819Z" fill="#00443B"/>
<path d="M77.9502 28.5817H79.2131V29.4056C79.6107 28.8458 80.161 28.499 80.8036 28.499C81.7516 28.499 82.3814 29.0398 82.3814 30.0482V33.716H81.1185V30.4268C81.1185 29.8446 80.8322 29.5806 80.3837 29.5806C79.7634 29.5806 79.2131 30.3536 79.2131 31.6706V33.7192H77.9502V28.5817Z" fill="#00443B"/>
<path d="M83.6919 33.1658C83.5201 32.9527 83.4279 32.6855 83.4279 32.3705C83.4279 31.8902 83.6633 31.5244 84.0609 31.2922C83.8255 30.9963 83.7046 30.6496 83.7046 30.2329C83.7046 29.1831 84.5413 28.5024 85.5878 28.5024C85.925 28.5024 86.24 28.5723 86.5358 28.725L87.5028 28.2161L88.0023 29.0527L87.2674 29.4185C87.401 29.6539 87.471 29.9275 87.471 30.2329C87.471 31.2922 86.6344 31.9443 85.5878 31.9443C85.3333 31.9443 85.0789 31.9029 84.8435 31.8329C84.6812 31.9252 84.5985 32.0556 84.5985 32.221C84.5985 32.466 84.7608 32.5964 85.0789 32.5964H86.1286C87.2293 32.5964 87.9323 33.1372 87.9323 34.1042C87.9323 35.3162 86.8126 35.8761 85.6006 35.8761C84.9166 35.8761 84.3568 35.7329 83.9209 35.4371C83.4915 35.1413 83.2784 34.7245 83.2784 34.1838C83.2752 33.767 83.4183 33.4203 83.6919 33.1658ZM85.8423 33.6557H85.1488C84.9134 33.6557 84.7226 33.6462 84.5572 33.6143C84.4872 33.7257 84.4458 33.8879 84.4458 34.082C84.4458 34.5623 84.9039 34.8168 85.5974 34.8168C86.2495 34.8168 86.6662 34.6227 86.6662 34.1838C86.6662 33.7893 86.3735 33.6557 85.8423 33.6557ZM85.5878 29.5203C85.1806 29.5203 84.8848 29.8161 84.8848 30.2329C84.8848 30.64 85.1806 30.9263 85.5878 30.9263C85.995 30.9263 86.2908 30.64 86.2908 30.2329C86.2908 29.8161 85.995 29.5203 85.5878 29.5203Z" fill="#00443B"/>
<path d="M16.3374 0.330829L18.6882 0C18.825 1.27243 18.4401 2.51623 17.6098 3.56598C16.9736 4.36761 16.1179 4.92112 15.205 5.22332C14.432 5.47145 13.713 5.77683 13.0195 6.19037L12.3293 6.60391C11.3336 4.58711 11.9698 3.092 12.8001 2.07088C13.6303 1.04975 14.9855 0.496245 16.3374 0.330829Z" fill="#00443B"/>
<path d="M12.8838 7.57403C13.2719 8.45837 13.9335 9.20592 14.7097 9.7308C14.9578 9.89622 15.2632 10.0616 15.5941 10.2016C16.4498 10.5324 17.3627 10.6151 18.2757 10.507L19.2141 10.3956C19.4622 9.20592 18.2184 7.18912 17.1973 6.82966C16.313 6.49883 15.3459 6.5529 14.4616 6.91236L12.8838 7.57403Z" fill="#00443B"/>
<path d="M26.9282 1.46332L29.1136 2.459C28.5601 3.62009 27.5644 4.45035 26.2952 4.89252C25.3567 5.22335 24.3038 5.22335 23.3654 4.97523C22.5924 4.75255 21.8162 4.64439 20.9891 4.61577L20.1875 4.58714C20.4643 2.37629 21.7908 1.46332 23.0346 1.04978C24.272 0.633064 25.7098 0.884365 26.9282 1.46332Z" fill="#00443B"/>
<path d="M20.1556 5.71948C19.9902 6.6579 20.1556 7.65357 20.5437 8.51246C20.6551 8.78922 20.8205 9.06597 21.04 9.36817C21.5935 10.1157 22.3124 10.6661 23.1395 11.0828L23.9952 11.4963C24.8509 10.6406 24.8509 8.26116 24.2179 7.40545C23.6389 6.63245 22.8086 6.19028 21.867 6.02168L20.1556 5.71948Z" fill="#00443B"/>
<path d="M34.9976 7.57403L36.4068 9.50813C35.357 10.2557 34.0846 10.4752 32.7581 10.2557C31.7624 10.0903 30.8495 9.56538 30.1592 8.90054C29.5802 8.3184 28.9694 7.85079 28.2792 7.43406L27.5889 7.02052C28.9154 5.19459 30.5186 5.0578 31.8197 5.30593C33.0921 5.55405 34.2246 6.46702 34.9976 7.57403Z" fill="#00443B"/>
<path d="M26.9823 7.95898C26.3747 8.70654 26.0439 9.64495 25.958 10.5865C25.9294 10.8919 25.9294 11.2228 25.958 11.5822C26.0693 12.4952 26.4288 13.3509 26.9537 14.0985L27.4785 14.8714C28.6396 14.5406 29.8294 12.4952 29.6894 11.4168C29.5526 10.4784 29.0532 9.64813 28.3056 9.06599L26.9823 7.95898Z" fill="#00443B"/>
<path d="M38.8945 16.7229L39.1999 19.0992C37.9274 19.2359 36.6836 18.8224 35.6339 17.9922C34.8609 17.3559 34.3074 16.4716 34.0306 15.5586C33.8079 14.7856 33.4771 14.0667 33.0922 13.3478L32.7041 12.6289C34.7495 11.6618 36.216 12.3235 37.2371 13.1824C38.2042 14.0126 38.7577 15.3678 38.8945 16.7229Z" fill="#00443B"/>
<path d="M31.7089 13.157C30.8245 13.5164 30.077 14.1813 29.5521 14.9543C29.3867 15.2024 29.2213 15.5078 29.0813 15.8386C28.7218 16.6943 28.6391 17.6073 28.7218 18.5203L28.8332 19.4587C30.0229 19.7354 32.0397 18.4916 32.4278 17.496C32.7873 16.6116 32.7332 15.67 32.3737 14.7602L31.7089 13.157Z" fill="#00443B"/>
<path d="M37.8452 26.5363L36.9068 28.7472C35.7171 28.2223 34.8613 27.2553 34.3905 26.0115C34.0311 25.0731 33.977 24.0201 34.1965 23.0817C34.3905 22.2801 34.4733 21.5071 34.4733 20.7054V19.9038C36.7127 20.0692 37.6798 21.3957 38.1219 22.6141C38.5927 23.8547 38.3987 25.2925 37.8452 26.5363Z" fill="#00443B"/>
<path d="M33.3666 19.901C32.3996 19.7642 31.4325 19.9551 30.6023 20.3718C30.3255 20.5086 30.0487 20.6772 29.7465 20.8966C29.0276 21.4502 28.4741 22.2232 28.1147 23.0534L27.7266 23.9091C28.6109 24.7394 30.9872 24.6821 31.8174 23.9918C32.565 23.3843 33.0071 22.554 33.1153 21.5869L33.3666 19.901Z" fill="#00443B"/>
<path d="M32.0973 34.5814L30.2173 36.0733C29.4443 35.049 29.1389 33.7798 29.3043 32.4532C29.4411 31.4576 29.9119 30.5192 30.5481 29.8002C31.1017 29.1926 31.5438 28.5564 31.9319 27.8661L32.32 27.1472C34.2 28.391 34.4195 29.9943 34.2 31.2953C33.9773 32.59 33.1757 33.7511 32.0973 34.5814Z" fill="#00443B"/>
<path d="M31.378 26.5905C30.605 26.0116 29.6634 25.7348 28.725 25.6776C28.4196 25.6489 28.0888 25.6776 27.7293 25.7316C26.8163 25.8684 25.9861 26.2851 25.2417 26.8387L24.4941 27.4176C24.8822 28.5501 26.9817 29.6571 28.0601 29.463C28.9985 29.2976 29.7747 28.7727 30.3537 27.9966L31.378 26.5905Z" fill="#00443B"/>
<path d="M22.9196 38.809L20.5433 39.1144C20.4066 37.842 20.8201 36.5982 21.6503 35.5484C22.2866 34.7754 23.1709 34.2219 24.0839 33.9452C24.8569 33.7225 25.5758 33.3917 26.2947 33.0067L27.0136 32.6187C27.9807 34.6641 27.319 36.1306 26.4601 37.1517C25.5981 38.176 24.2716 38.6722 22.9196 38.809Z" fill="#00443B"/>
<path d="M26.4571 31.6229C26.0977 30.7386 25.4328 29.991 24.6598 29.4662C24.4117 29.3007 24.1063 29.1353 23.7755 28.9954C22.9198 28.6359 22.0068 28.5532 21.0939 28.6359L20.1554 28.7472C19.8787 29.937 21.1225 31.9538 22.1182 32.3419C23.0025 32.7013 23.9695 32.6472 24.8539 32.2878L26.4571 31.6229Z" fill="#00443B"/>
<path d="M12.1099 37.6225L9.95312 36.5728C10.5321 35.4403 11.5564 34.61 12.8288 34.1965C13.7959 33.8911 14.8456 33.9197 15.7586 34.1679C16.5316 34.3905 17.3078 34.5273 18.1094 34.5814L18.911 34.6355C18.6056 36.875 17.2537 37.7307 15.9813 38.1188C14.7088 38.5068 13.2964 38.2301 12.1099 37.6225Z" fill="#00443B"/>
<path d="M18.9945 33.5317C19.1886 32.5933 19.0486 31.5976 18.6891 30.7387C18.5778 30.462 18.4124 30.1598 18.2183 29.8544C17.6935 29.1068 16.9745 28.4993 16.1729 28.0857L15.3426 27.6436C14.4869 28.4738 14.3756 30.8501 15.0118 31.7344C15.5653 32.5074 16.3956 33.0068 17.334 33.1723L18.9945 33.5317Z" fill="#00443B"/>
<path d="M4.28421 31.6232L2.875 29.6891C3.92475 28.9416 5.19718 28.7221 6.52369 28.9416C7.51937 29.1356 8.43233 29.6319 9.12262 30.2967C9.70158 30.8757 10.3123 31.3465 11.0026 31.7632L11.6929 32.2053C10.3664 34.0313 8.76316 34.1681 7.4621 33.9199C6.16422 33.6686 5.0604 32.7557 4.28421 31.6232Z" fill="#00443B"/>
<path d="M12.3043 31.2635C12.9119 30.516 13.2427 29.5776 13.3286 28.636C13.3572 28.3306 13.3572 27.9998 13.3286 27.6403C13.2172 26.7273 12.8578 25.8716 12.3329 25.1241L11.808 24.3511C10.6469 24.6819 9.45723 26.7273 9.59719 27.8057C9.73398 28.7441 10.2048 29.5744 10.9523 30.182L12.3043 31.2635Z" fill="#00443B"/>
<path d="M0.359463 22.7226L0 20.3463C1.27243 20.1809 2.51623 20.569 3.56598 21.3961C4.36761 22.0036 4.94975 22.888 5.22333 23.8009C5.47145 24.5739 5.80228 25.2929 6.219 25.9863L6.63254 26.6766C4.61574 27.7009 3.12064 27.0647 2.09951 26.2345C1.07839 25.4042 0.52806 24.0777 0.359463 22.7226Z" fill="#00443B"/>
<path d="M7.6034 26.123C8.48774 25.7349 9.2353 25.0733 9.73154 24.2716C9.89696 24.0235 10.0624 23.7181 10.1737 23.3873C10.5045 22.5316 10.5873 21.59 10.4505 20.7057L10.3391 19.7672C9.14941 19.5191 7.16124 20.7915 6.77315 21.8127C6.44232 22.697 6.4964 23.6641 6.88449 24.5484L7.6034 26.123Z" fill="#00443B"/>
<path d="M1.3841 12.6862L2.21436 10.4468C3.40408 10.9176 4.31388 11.8305 4.86738 13.0743C5.28092 13.9873 5.36363 15.0371 5.17276 15.9755C5.03598 16.7771 4.97871 17.5501 5.00734 18.3517L5.03598 19.1534C2.76787 19.0993 1.77538 17.8269 1.27595 16.6085C0.77652 15.3902 0.887856 13.9587 1.3841 12.6862Z" fill="#00443B"/>
<path d="M6.16504 19.1279C7.13209 19.2106 8.09913 18.9624 8.92939 18.5203C9.17752 18.3835 9.48289 18.1895 9.75965 17.9413C10.4499 17.3624 10.9748 16.5576 11.3088 15.7019L11.6397 14.8175C10.7267 14.0445 8.35044 14.1813 7.54881 14.9002C6.82989 15.5364 6.44179 16.3921 6.35908 17.3592L6.16504 19.1279Z" fill="#00443B"/>
<path d="M7.18891 4.55827L9.09755 3.0918C9.87055 4.1161 10.1473 5.38535 9.9278 6.71185C9.79102 7.70753 9.29159 8.64595 8.65538 9.33942C8.10187 9.94701 7.63107 10.5546 7.24616 11.2735L6.83263 11.9638C4.95261 10.6914 4.78719 9.08812 5.00668 7.79024C5.19755 6.49555 6.08189 5.3599 7.18891 4.55827Z" fill="#00443B"/>
<path d="M7.76855 12.5494C8.54156 13.1283 9.48315 13.4337 10.4216 13.5164C10.727 13.545 11.0578 13.5164 11.4172 13.4878C12.3302 13.351 13.1859 12.9629 13.9048 12.438L14.6524 11.8845C14.2929 10.7234 12.1934 9.59096 11.1405 9.78501C10.2021 9.95043 9.40044 10.4499 8.8183 11.2229L7.76855 12.5494Z" fill="#00443B"/>
</svg>
