<svg width="68" height="68" viewBox="0 0 68 68" fill="none" xmlns="http://www.w3.org/2000/svg">
<path d="M34 68C52.7777 68 68 52.7777 68 34C68 15.2223 52.7777 0 34 0C15.2223 0 0 15.2223 0 34C0 52.7777 15.2223 68 34 68Z" fill="#0CC482"/>
<path d="M34.1719 49.3215C43.7271 49.3215 51.4731 46.6624 51.4731 43.3822C51.4731 40.1021 43.7271 37.443 34.1719 37.443C24.6166 37.443 16.8706 40.1021 16.8706 43.3822C16.8706 46.6624 24.6166 49.3215 34.1719 49.3215Z" fill="#00443B"/>
<path d="M25.3922 42.3493C32.1427 42.3493 37.615 36.8769 37.615 30.1265C37.615 23.376 32.1427 17.9037 25.3922 17.9037C18.6418 17.9037 13.1694 23.376 13.1694 30.1265C13.1694 36.8769 18.6418 42.3493 25.3922 42.3493Z" fill="white"/>
</svg>
