<svg width="68" height="68" viewBox="0 0 68 68" fill="none" xmlns="http://www.w3.org/2000/svg">
<circle cx="34" cy="34" r="34" fill="#108BE3"/>
<path d="M30.2994 31.6027H49.2943L49.5064 31.5421C46.4466 24.0592 38.9638 19 31.9959 19C24.1799 19 17.7574 24.9984 17.0606 32.6327C17.0303 33.0871 17 33.5415 17 33.9959C17 34.8442 17.0606 35.6622 17.2121 36.4801C17.5453 39.1764 18.333 41.7817 19.5448 44.2053L21.9684 48.9919H31.9959C43.5989 48.9919 48.9308 49.9007 50.6879 46.6592L30.2994 37.9343V31.6027Z" fill="#00274E"/>
<path d="M50.7483 36.0256C50.506 34.4503 50.0818 32.9658 49.5062 31.542L49.2942 31.6026H30.2993V37.9342L50.6877 46.6591C51.7178 44.7808 51.5663 41.5696 50.7483 36.0256Z" fill="white"/>
</svg>
