<svg width="14" height="17" viewBox="0 0 14 17" fill="none" xmlns="http://www.w3.org/2000/svg">
<path d="M5.45222 15.4265C5.45222 16.2963 6.14444 17 7 17C7.85556 17 8.54778 16.2963 8.54778 15.4265H5.45222ZM7 3.55814C9.14667 3.55814 10.8889 5.3293 10.8889 7.51163V13.0465H3.11111V7.51163C3.11111 5.3293 4.85333 3.55814 7 3.55814ZM7 0C6.35444 0 5.83333 0.529767 5.83333 1.18605V2.11116C3.39111 2.64884 1.55556 4.86279 1.55556 7.51163V12.2558L0 13.8372V14.6279H14V13.8372L12.4444 12.2558V7.51163C12.4444 4.86279 10.6089 2.64884 8.16667 2.11116V1.18605C8.16667 0.529767 7.64556 0 7 0Z" fill="#00443B"/>
</svg>
