<svg width="14" height="14" viewBox="0 0 14 14" fill="none" xmlns="http://www.w3.org/2000/svg">
<path d="M0 4.60547V9.39453H3.11111L7 13.3854V0.614595L3.11111 4.60547H0ZM5.44444 4.46978V9.53022L3.75667 7.79818H1.55556V6.20182H3.75667L5.44444 4.46978ZM10.5 7C10.5 5.58723 9.70667 4.374 8.55556 3.78335V10.2087C9.70667 9.626 10.5 8.41277 10.5 7ZM8.55556 0V1.64424C10.8033 2.33067 12.4444 4.46978 12.4444 7C12.4444 9.53022 10.8033 11.6693 8.55556 12.3558V14C11.6744 13.2737 14 10.4162 14 7C14 3.58381 11.6744 0.72634 8.55556 0Z" fill="#00443B"/>
</svg>
