<svg width="68" height="68" viewBox="0 0 68 68" fill="none" xmlns="http://www.w3.org/2000/svg">
<circle cx="34" cy="34" r="34" fill="#00443B"/>
<g clip-path="url(#clip0_418_2152)">
<path d="M23.8786 30.7572C27.6776 30.7572 30.7572 27.6776 30.7572 23.8786C30.7572 20.0797 27.6776 17 23.8786 17C20.0797 17 17 20.0797 17 23.8786C17 27.6776 20.0797 30.7572 23.8786 30.7572Z" fill="#F8534B"/>
<path d="M44.1218 30.7572C47.9207 30.7572 51.0004 27.6776 51.0004 23.8786C51.0004 20.0797 47.9207 17 44.1218 17C40.3228 17 37.2432 20.0797 37.2432 23.8786C37.2432 27.6776 40.3228 30.7572 44.1218 30.7572Z" fill="#108BE3"/>
<path d="M23.8786 51C27.6776 51 30.7572 47.9204 30.7572 44.1214C30.7572 40.3225 27.6776 37.2428 23.8786 37.2428C20.0797 37.2428 17 40.3225 17 44.1214C17 47.9204 20.0797 51 23.8786 51Z" fill="#F6A442"/>
<path d="M44.1218 51C47.9207 51 51.0004 47.9204 51.0004 44.1214C51.0004 40.3225 47.9207 37.2428 44.1218 37.2428C40.3228 37.2428 37.2432 40.3225 37.2432 44.1214C37.2432 47.9204 40.3228 51 44.1218 51Z" fill="#0CC482"/>
</g>
<defs>
<clipPath id="clip0_418_2152">
<rect width="34" height="34" fill="white" transform="translate(17 17)"/>
</clipPath>
</defs>
</svg>
