<svg width="144" height="160" viewBox="0 0 144 160" fill="none" xmlns="http://www.w3.org/2000/svg">
<path d="M122.137 12.4535C114.299 4.03908 100.131 0.431641 82.0057 0.431641H29.4006C25.6922 0.431641 22.5411 2.97184 21.9605 6.41611L0.0568614 137.259C-0.378589 139.838 1.74247 142.176 4.51905 142.176H36.9952L45.1517 93.4489L44.8988 94.9748C45.4794 91.5305 48.6072 88.9903 52.3109 88.9903H67.7436C98.0612 88.9903 121.8 77.3918 128.735 43.84C128.941 42.8477 129.119 41.8819 129.273 40.9382C128.398 40.5016 128.398 40.5016 129.273 40.9382C131.338 28.537 129.259 20.0962 122.137 12.4535Z" fill="#00443B"/>
<path d="M57.5784 36.4708C58.4446 36.0827 59.4092 35.8666 60.4205 35.8666H101.662C106.545 35.8666 111.101 36.1665 115.264 36.7971C116.458 36.9779 117.614 37.1852 118.738 37.4233C119.862 37.6571 120.953 37.9217 122.011 38.2127C122.54 38.3583 123.06 38.5082 123.57 38.667C125.616 39.3109 127.522 40.0606 129.273 40.9382C131.338 28.5326 129.259 20.0962 122.137 12.4535C114.295 4.03908 100.131 0.431641 82.0057 0.431641H29.3959C25.6922 0.431641 22.5411 2.97184 21.9605 6.41611L0.0568646 137.254C-0.378585 139.838 1.74248 142.171 4.51437 142.171H36.9952L53.9169 41.1013C54.2634 39.0286 55.6774 37.3307 57.5784 36.4708Z" fill="#00443B"/>
<path d="M128.735 43.8403C121.8 77.3877 98.0613 88.9906 67.7437 88.9906H52.3063C48.6026 88.9906 45.4749 91.5308 44.8989 94.9751L34.7525 155.561C34.3732 157.819 36.2274 159.865 38.6528 159.865H66.03C69.2701 159.865 72.0279 157.642 72.5336 154.63L72.8005 153.316L77.9604 122.516L78.2928 120.814C78.7985 117.802 81.5563 115.579 84.7965 115.579H88.8934C115.414 115.579 136.18 105.431 142.248 76.0823C144.781 63.8179 143.47 53.5777 136.77 46.3849C134.737 44.2063 132.214 42.407 129.273 40.9385C129.114 41.8866 128.941 42.848 128.735 43.8403Z" fill="#00443B" fill-opacity="0.75"/>
<path d="M122.018 38.2133C120.96 37.9223 119.869 37.6577 118.745 37.4239C117.622 37.1902 116.461 36.9829 115.271 36.8021C111.104 36.1671 106.553 35.8672 101.665 35.8672H60.4279C59.4119 35.8672 58.4473 36.0833 57.5858 36.4758C55.6801 37.3357 54.2708 39.0292 53.9243 41.1064L45.1591 93.4495L44.9062 94.9754C45.4822 91.5311 48.6099 88.9909 52.3136 88.9909H67.751C98.0686 88.9909 121.808 77.3924 128.742 43.8406C128.948 42.8483 129.121 41.8869 129.281 40.9388C127.525 40.0656 125.624 39.3115 123.578 38.672C123.067 38.5132 122.547 38.3589 122.018 38.2133Z" fill="#00231E"/>
</svg>
