<svg width="159" height="194" viewBox="0 0 159 194" fill="none" xmlns="http://www.w3.org/2000/svg">
<rect width="159" height="194" rx="15" fill="#00274E"/>
<rect x="22" y="86.3311" width="116" height="18.006" rx="9.00299" fill="#E2F4F8"/>
<rect x="22" y="108.493" width="116" height="18.006" rx="9.00299" fill="#E2F4F8"/>
<rect x="22" y="130.654" width="116" height="18.006" rx="9.00299" fill="#0CC482"/>
<rect x="22" y="152.815" width="116" height="18.006" rx="9.00299" fill="#E2F4F8"/>
<rect x="22" y="26.7729" width="116" height="55.403" rx="8.65672" fill="#E2F4F8"/>
<path d="M71.0841 95.6235C71.1422 96.1907 71.5931 96.6027 72.2184 96.6027C72.8729 96.6027 73.3673 96.1616 73.3673 95.4635C73.3673 94.8624 73.0425 94.4552 72.5238 94.4552C72.4899 94.4552 72.4463 94.46 72.3881 94.4649L73.188 93.3838V93.1705H71.244V93.7329H72.3251L71.6852 94.6103L71.9276 94.9497C72.0197 94.9012 72.1215 94.8769 72.2233 94.8769C72.5384 94.8769 72.7565 95.0902 72.7565 95.4732C72.7565 95.8174 72.5335 96.0404 72.2184 96.0404C71.9324 96.0404 71.753 95.8756 71.6706 95.5459L71.0841 95.6235ZM75.1597 96.564H75.7899V95.2357H76.4395C77.1328 95.2357 77.5012 94.8236 77.5012 94.2031C77.5012 93.5826 77.1328 93.1705 76.4395 93.1705H75.1597V96.564ZM75.7899 94.6539V93.7523H76.4153C76.7013 93.7523 76.8613 93.8977 76.8613 94.2031C76.8613 94.5085 76.7013 94.6539 76.4153 94.6539H75.7899ZM77.9659 95.8659C77.9659 96.3458 78.2665 96.6027 78.7173 96.6027C79.0228 96.6027 79.2845 96.4379 79.4736 96.1713V96.564H80.0747V94.1207H79.4736V95.0951C79.4736 95.7205 79.2118 96.0889 78.9161 96.0889C78.7028 96.0889 78.5671 95.9628 78.5671 95.6865V94.1207H77.9659V95.8659ZM80.7544 96.564H81.3555V95.5896C81.3555 94.9642 81.6173 94.5958 81.913 94.5958C82.1263 94.5958 82.262 94.7218 82.262 94.9981V96.564H82.8631V94.8188C82.8631 94.3388 82.5626 94.0819 82.1117 94.0819C81.8063 94.0819 81.5445 94.2467 81.3555 94.5134V94.1207H80.7544V96.564ZM83.5826 95.7011C83.5826 96.2973 83.9171 96.6027 84.4794 96.6027C84.62 96.6027 84.7509 96.5737 84.8769 96.5155L84.7363 96.0307C84.6636 96.0695 84.5861 96.0889 84.5036 96.0889C84.2903 96.0889 84.1837 95.9822 84.1837 95.6914V94.6346H84.8284V94.1207H84.1837V93.1317L83.5826 93.5099V94.1207H83.2044V94.6346H83.5826V95.7011ZM85.0403 95.3423C85.0403 96.0598 85.5105 96.6027 86.2813 96.6027C87.0521 96.6027 87.5224 96.0598 87.5224 95.3423C87.5224 94.6249 87.0521 94.0819 86.2813 94.0819C85.5105 94.0819 85.0403 94.6249 85.0403 95.3423ZM86.8921 95.3423C86.8921 95.5508 86.8388 95.7301 86.7273 95.8756C86.6158 96.0162 86.4704 96.0889 86.2813 96.0889C86.0923 96.0889 85.9468 96.0162 85.8353 95.8756C85.7238 95.7301 85.6705 95.5508 85.6705 95.3423C85.6705 95.1339 85.7238 94.9545 85.8353 94.8139C85.9468 94.6685 86.0923 94.5958 86.2813 94.5958C86.4704 94.5958 86.6158 94.6685 86.7273 94.8139C86.8388 94.9545 86.8921 95.1339 86.8921 95.3423ZM87.8325 95.9435C87.8859 96.1228 87.9974 96.2779 88.167 96.4088C88.3367 96.5397 88.55 96.6027 88.8021 96.6027C89.0493 96.6027 89.2481 96.53 89.4032 96.3894C89.5583 96.244 89.6359 96.0501 89.6359 95.8126C89.6359 95.4684 89.4226 95.2599 89.0396 95.1242C88.647 94.9836 88.5403 94.8963 88.5403 94.78C88.5403 94.6685 88.647 94.5958 88.7779 94.5958C88.9427 94.5958 89.0736 94.6685 89.1705 94.8091L89.5293 94.4794C89.379 94.2273 89.093 94.0819 88.7633 94.0819C88.3173 94.0819 87.9925 94.3873 87.9925 94.7654C87.9925 95.1193 88.2058 95.3326 88.5742 95.4829C88.9087 95.6138 89.0784 95.7011 89.0784 95.8513C89.0784 96.0065 88.9524 96.0889 88.7972 96.0889C88.5694 96.0889 88.4046 95.9386 88.3125 95.6865L87.8325 95.9435Z" fill="#00274E"/>
<path d="M72.4958 118.725H73.1066V118.095H73.4847V117.533H73.1066V115.332H72.4667L71.0366 117.785V118.095H72.4958V118.725ZM71.7783 117.533L72.4958 116.238V117.533H71.7783ZM75.2023 118.725H75.8325V117.397H76.4821C77.1754 117.397 77.5438 116.985 77.5438 116.364C77.5438 115.744 77.1754 115.332 76.4821 115.332H75.2023V118.725ZM75.8325 116.815V115.913H76.4579C76.7439 115.913 76.9039 116.059 76.9039 116.364C76.9039 116.67 76.7439 116.815 76.4579 116.815H75.8325ZM78.0085 118.027C78.0085 118.507 78.3091 118.764 78.76 118.764C79.0654 118.764 79.3271 118.599 79.5162 118.332V118.725H80.1173V116.282H79.5162V117.256C79.5162 117.882 79.2544 118.25 78.9587 118.25C78.7454 118.25 78.6097 118.124 78.6097 117.848V116.282H78.0085V118.027ZM80.797 118.725H81.3981V117.751C81.3981 117.125 81.6599 116.757 81.9556 116.757C82.1689 116.757 82.3046 116.883 82.3046 117.159V118.725H82.9057V116.98C82.9057 116.5 82.6052 116.243 82.1543 116.243C81.8489 116.243 81.5871 116.408 81.3981 116.674V116.282H80.797V118.725ZM83.6252 117.862C83.6252 118.458 83.9597 118.764 84.522 118.764C84.6626 118.764 84.7935 118.735 84.9195 118.677L84.7789 118.192C84.7062 118.231 84.6287 118.25 84.5462 118.25C84.3329 118.25 84.2263 118.143 84.2263 117.853V116.796H84.871V116.282H84.2263V115.293L83.6252 115.671V116.282H83.247V116.796H83.6252V117.862ZM85.0829 117.503C85.0829 118.221 85.5531 118.764 86.3239 118.764C87.0947 118.764 87.565 118.221 87.565 117.503C87.565 116.786 87.0947 116.243 86.3239 116.243C85.5531 116.243 85.0829 116.786 85.0829 117.503ZM86.9348 117.503C86.9348 117.712 86.8814 117.891 86.7699 118.037C86.6584 118.177 86.513 118.25 86.3239 118.25C86.1349 118.25 85.9894 118.177 85.8779 118.037C85.7664 117.891 85.7131 117.712 85.7131 117.503C85.7131 117.295 85.7664 117.116 85.8779 116.975C85.9894 116.83 86.1349 116.757 86.3239 116.757C86.513 116.757 86.6584 116.83 86.7699 116.975C86.8814 117.116 86.9348 117.295 86.9348 117.503ZM87.8751 118.105C87.9285 118.284 88.04 118.439 88.2096 118.57C88.3793 118.701 88.5926 118.764 88.8447 118.764C89.0919 118.764 89.2907 118.691 89.4458 118.551C89.6009 118.405 89.6785 118.211 89.6785 117.974C89.6785 117.63 89.4652 117.421 89.0822 117.285C88.6896 117.145 88.5829 117.057 88.5829 116.941C88.5829 116.83 88.6896 116.757 88.8205 116.757C88.9853 116.757 89.1162 116.83 89.2131 116.97L89.5719 116.641C89.4216 116.388 89.1356 116.243 88.8059 116.243C88.3599 116.243 88.0351 116.548 88.0351 116.927C88.0351 117.28 88.2484 117.494 88.6169 117.644C88.9513 117.775 89.121 117.862 89.121 118.012C89.121 118.168 88.995 118.25 88.8398 118.25C88.612 118.25 88.4472 118.1 88.3551 117.848L87.8751 118.105Z" fill="#00274E"/>
<path d="M71.0912 139.82C71.0912 140.45 71.5905 140.925 72.2255 140.925C72.8703 140.925 73.3599 140.445 73.3599 139.82C73.3599 139.17 72.8897 138.714 72.2643 138.714H72.1867L72.9236 137.454H72.2449L71.256 139.223C71.159 139.398 71.0912 139.621 71.0912 139.82ZM72.7491 139.82C72.7491 140.145 72.5212 140.363 72.2255 140.363C71.9347 140.363 71.702 140.145 71.702 139.82C71.702 139.485 71.9201 139.277 72.2255 139.277C72.5309 139.277 72.7491 139.485 72.7491 139.82ZM75.1526 140.886H75.7828V139.558H76.4324C77.1257 139.558 77.4941 139.146 77.4941 138.525C77.4941 137.905 77.1257 137.493 76.4324 137.493H75.1526V140.886ZM75.7828 138.976V138.075H76.4082C76.6942 138.075 76.8542 138.22 76.8542 138.525C76.8542 138.831 76.6942 138.976 76.4082 138.976H75.7828ZM77.9588 140.188C77.9588 140.668 78.2594 140.925 78.7102 140.925C79.0157 140.925 79.2774 140.76 79.4665 140.494V140.886H80.0676V138.443H79.4665V139.417C79.4665 140.043 79.2047 140.411 78.909 140.411C78.6957 140.411 78.56 140.285 78.56 140.009V138.443H77.9588V140.188ZM80.7472 140.886H81.3484V139.912C81.3484 139.286 81.6102 138.918 81.9059 138.918C82.1192 138.918 82.2549 139.044 82.2549 139.32V140.886H82.856V139.141C82.856 138.661 82.5555 138.404 82.1046 138.404C81.7992 138.404 81.5374 138.569 81.3484 138.836V138.443H80.7472V140.886ZM83.5755 140.023C83.5755 140.62 83.91 140.925 84.4723 140.925C84.6129 140.925 84.7438 140.896 84.8698 140.838L84.7292 140.353C84.6565 140.392 84.579 140.411 84.4965 140.411C84.2832 140.411 84.1766 140.304 84.1766 140.014V138.957H84.8213V138.443H84.1766V137.454L83.5755 137.832V138.443H83.1973V138.957H83.5755V140.023ZM85.0332 139.665C85.0332 140.382 85.5034 140.925 86.2742 140.925C87.045 140.925 87.5153 140.382 87.5153 139.665C87.5153 138.947 87.045 138.404 86.2742 138.404C85.5034 138.404 85.0332 138.947 85.0332 139.665ZM86.885 139.665C86.885 139.873 86.8317 140.052 86.7202 140.198C86.6087 140.338 86.4633 140.411 86.2742 140.411C86.0852 140.411 85.9397 140.338 85.8282 140.198C85.7167 140.052 85.6634 139.873 85.6634 139.665C85.6634 139.456 85.7167 139.277 85.8282 139.136C85.9397 138.991 86.0852 138.918 86.2742 138.918C86.4633 138.918 86.6087 138.991 86.7202 139.136C86.8317 139.277 86.885 139.456 86.885 139.665ZM87.8254 140.266C87.8788 140.445 87.9903 140.6 88.1599 140.731C88.3296 140.862 88.5429 140.925 88.795 140.925C89.0422 140.925 89.241 140.852 89.3961 140.712C89.5512 140.566 89.6288 140.372 89.6288 140.135C89.6288 139.791 89.4155 139.582 89.0325 139.446C88.6399 139.306 88.5332 139.219 88.5332 139.102C88.5332 138.991 88.6399 138.918 88.7707 138.918C88.9356 138.918 89.0665 138.991 89.1634 139.131L89.5222 138.802C89.3719 138.55 89.0859 138.404 88.7562 138.404C88.3102 138.404 87.9854 138.71 87.9854 139.088C87.9854 139.442 88.1987 139.655 88.5671 139.805C88.9016 139.936 89.0713 140.023 89.0713 140.174C89.0713 140.329 88.9453 140.411 88.7901 140.411C88.5623 140.411 88.3975 140.261 88.3054 140.009L87.8254 140.266Z" fill="#00274E"/>
<path d="M70.6689 163.048H71.2797V159.654H71.0131L70.0193 160.236V160.895L70.6689 160.508V163.048ZM71.9087 161.351C71.9087 162.442 72.3595 163.087 73.1594 163.087C73.9593 163.087 74.4101 162.442 74.4101 161.351C74.4101 160.26 73.9593 159.616 73.1594 159.616C72.3595 159.616 71.9087 160.26 71.9087 161.351ZM73.809 161.351C73.809 162.132 73.5909 162.524 73.1594 162.524C72.728 162.524 72.5098 162.132 72.5098 161.351C72.5098 160.571 72.728 160.178 73.1594 160.178C73.5909 160.178 73.809 160.571 73.809 161.351ZM76.2438 163.048H76.874V161.72H77.5236C78.2169 161.72 78.5853 161.308 78.5853 160.687C78.5853 160.066 78.2169 159.654 77.5236 159.654H76.2438V163.048ZM76.874 161.138V160.236H77.4994C77.7854 160.236 77.9454 160.382 77.9454 160.687C77.9454 160.992 77.7854 161.138 77.4994 161.138H76.874ZM79.05 162.35C79.05 162.83 79.3506 163.087 79.8015 163.087C80.1069 163.087 80.3686 162.922 80.5577 162.655V163.048H81.1588V160.605H80.5577V161.579C80.5577 162.204 80.2959 162.573 80.0002 162.573C79.7869 162.573 79.6512 162.447 79.6512 162.17V160.605H79.05V162.35ZM81.8385 163.048H82.4396V162.073C82.4396 161.448 82.7014 161.08 82.9971 161.08C83.2104 161.08 83.3461 161.206 83.3461 161.482V163.048H83.9472V161.303C83.9472 160.823 83.6467 160.566 83.1958 160.566C82.8904 160.566 82.6286 160.731 82.4396 160.997V160.605H81.8385V163.048ZM84.6667 162.185C84.6667 162.781 85.0012 163.087 85.5635 163.087C85.7041 163.087 85.835 163.058 85.961 162.999L85.8204 162.515C85.7477 162.553 85.6702 162.573 85.5877 162.573C85.3744 162.573 85.2678 162.466 85.2678 162.175V161.118H85.9125V160.605H85.2678V159.616L84.6667 159.994V160.605H84.2885V161.118H84.6667V162.185ZM86.1244 161.826C86.1244 162.544 86.5946 163.087 87.3654 163.087C88.1362 163.087 88.6065 162.544 88.6065 161.826C88.6065 161.109 88.1362 160.566 87.3654 160.566C86.5946 160.566 86.1244 161.109 86.1244 161.826ZM87.9763 161.826C87.9763 162.035 87.9229 162.214 87.8114 162.359C87.6999 162.5 87.5545 162.573 87.3654 162.573C87.1764 162.573 87.0309 162.5 86.9194 162.359C86.8079 162.214 86.7546 162.035 86.7546 161.826C86.7546 161.618 86.8079 161.438 86.9194 161.298C87.0309 161.152 87.1764 161.08 87.3654 161.08C87.5545 161.08 87.6999 161.152 87.8114 161.298C87.9229 161.438 87.9763 161.618 87.9763 161.826ZM88.9166 162.427C88.97 162.607 89.0815 162.762 89.2511 162.893C89.4208 163.024 89.6341 163.087 89.8862 163.087C90.1334 163.087 90.3322 163.014 90.4873 162.873C90.6424 162.728 90.72 162.534 90.72 162.296C90.72 161.952 90.5067 161.744 90.1237 161.608C89.7311 161.467 89.6244 161.38 89.6244 161.264C89.6244 161.152 89.7311 161.08 89.862 161.08C90.0268 161.08 90.1577 161.152 90.2546 161.293L90.6134 160.963C90.4631 160.711 90.1771 160.566 89.8474 160.566C89.4014 160.566 89.0766 160.871 89.0766 161.249C89.0766 161.603 89.2899 161.817 89.6584 161.967C89.9928 162.098 90.1625 162.185 90.1625 162.335C90.1625 162.49 90.0365 162.573 89.8813 162.573C89.6535 162.573 89.4887 162.422 89.3966 162.17L88.9166 162.427Z" fill="#00274E"/>
<circle cx="80.5195" cy="26.7731" r="11.7731" fill="#108BE3"/>
<path d="M85.0802 26.9363H87.4645C87.4645 25.4901 87.015 24.1612 86.2332 23.0667L84.3961 24.3957L82.0509 22.6759L82.7545 20.5065C82.1096 20.3111 81.406 20.1938 80.7024 20.1938C80.038 20.1938 79.3735 20.2916 78.7676 20.4675L79.4908 22.6759L77.126 24.3761L75.2107 22.9886C74.4095 24.1221 73.9404 25.4706 73.9404 26.9559C73.9404 26.9949 73.9404 27.0536 73.9404 27.0927H76.3443L77.2433 29.8678L75.4257 31.1772C76.2465 32.1935 77.341 32.9752 78.6308 33.3856L79.2758 31.3922H82.1877L82.8327 33.3661C84.103 32.9361 85.2365 32.1153 86.0378 31.06L84.1616 29.6919L85.0802 26.9363Z" fill="white"/>
<path d="M87.4449 26.9365H85.0606L84.1616 29.7117L86.0378 31.0797C86.9172 29.9267 87.4449 28.5 87.4449 26.9365Z" fill="#00274E"/>
<path d="M79.2758 31.3726L78.6309 33.366C79.2758 33.581 79.9794 33.6982 80.7025 33.6982C81.4451 33.6982 82.1682 33.581 82.8327 33.3464L82.1878 31.3726H79.2758Z" fill="#00274E"/>
<path d="M76.3443 27.0928H73.9404C73.9795 28.6367 74.5267 30.0634 75.4257 31.1773L77.2433 29.8679L76.3443 27.0928Z" fill="#00274E"/>
<path d="M79.4712 22.6952L78.7676 20.4673C77.3214 20.8972 76.0706 21.7962 75.2107 23.0079L77.1259 24.3955L79.4712 22.6952Z" fill="#00274E"/>
<path d="M84.396 24.396L86.2331 23.067C85.3927 21.8749 84.1615 20.9759 82.7543 20.5068L82.0508 22.6762L84.396 24.396Z" fill="#00274E"/>
<path d="M80.7022 24.7085L78.3374 26.4283L79.2364 29.1839H82.1484L83.0474 26.4283L80.7022 24.7085Z" fill="#00274E"/>
<path d="M71.3212 48.0479H72.4587C73.3572 48.0479 74.1519 47.4557 74.1519 46.2299C74.1519 45.0041 73.3572 44.412 72.4587 44.412H71.3212V48.0479ZM71.9964 47.4246V45.0353H72.2457C72.5937 45.0353 72.8794 45.1236 73.1131 45.3054C73.3468 45.482 73.4663 45.7884 73.4663 46.2299C73.4663 46.6714 73.3468 46.9779 73.1131 47.1597C72.8794 47.3363 72.5937 47.4246 72.2457 47.4246H71.9964ZM77.086 46.6818C77.086 46.0637 76.6965 45.3885 75.8654 45.3885C75.0032 45.3885 74.6085 46.0793 74.6085 46.739C74.6085 47.3986 75.0032 48.0894 75.8654 48.0894C76.4679 48.0894 76.8419 47.8193 77.0548 47.3259L76.5354 47.1337C76.3744 47.409 76.1926 47.5388 75.9018 47.5388C75.5642 47.5388 75.3356 47.3363 75.2785 46.9467H77.086V46.6818ZM75.2941 46.4377C75.3772 46.1105 75.5901 45.9391 75.8654 45.9391C76.1822 45.9391 76.364 46.1468 76.4264 46.4377H75.2941ZM77.6654 49.1074H78.3094V47.9647V47.8089C78.4289 47.9596 78.6886 48.0894 78.9431 48.0894C79.7118 48.0894 80.1377 47.5648 80.1377 46.739C80.1377 45.9131 79.7118 45.3885 78.9431 45.3885C78.6471 45.3885 78.3925 45.5495 78.3094 45.7001V45.5443V45.4301H77.6654V49.1074ZM79.4625 46.739C79.4625 47.2376 79.208 47.5388 78.8548 47.5388C78.5016 47.5388 78.2523 47.2428 78.2523 46.739C78.2523 46.2351 78.5016 45.9391 78.8548 45.9391C79.208 45.9391 79.4625 46.2351 79.4625 46.739ZM80.5735 46.739C80.5735 47.5077 81.0773 48.0894 81.9031 48.0894C82.729 48.0894 83.2328 47.5077 83.2328 46.739C83.2328 45.9702 82.729 45.3885 81.9031 45.3885C81.0773 45.3885 80.5735 45.9702 80.5735 46.739ZM82.5576 46.739C82.5576 46.9623 82.5005 47.1545 82.381 47.3103C82.2615 47.4609 82.1057 47.5388 81.9031 47.5388C81.7006 47.5388 81.5448 47.4609 81.4253 47.3103C81.3058 47.1545 81.2487 46.9623 81.2487 46.739C81.2487 46.5156 81.3058 46.3234 81.4253 46.1728C81.5448 46.017 81.7006 45.9391 81.9031 45.9391C82.1057 45.9391 82.2615 46.017 82.381 46.1728C82.5005 46.3234 82.5576 46.5156 82.5576 46.739ZM83.813 48.0479H84.4571V47.1181C84.4571 46.3234 84.7479 45.965 85.1583 45.965C85.2569 45.965 85.3504 45.991 85.4283 46.0378L85.5478 45.4404C85.4335 45.4041 85.3297 45.3885 85.231 45.3885C84.9245 45.3885 84.6441 45.5599 84.4571 45.856V45.4301H83.813V48.0479ZM86.2244 47.1233C86.2244 47.7622 86.5828 48.0894 87.1853 48.0894C87.3359 48.0894 87.4762 48.0582 87.6112 47.9959L87.4606 47.4765C87.3827 47.5181 87.2996 47.5388 87.2113 47.5388C86.9827 47.5388 86.8685 47.4246 86.8685 47.1129V45.9806H87.5593V45.4301H86.8685V44.3705L86.2244 44.7756V45.4301H85.8193V45.9806H86.2244V47.1233ZM90.2638 46.6818C90.2638 46.0637 89.8743 45.3885 89.0432 45.3885C88.181 45.3885 87.7863 46.0793 87.7863 46.739C87.7863 47.3986 88.181 48.0894 89.0432 48.0894C89.6457 48.0894 90.0197 47.8193 90.2327 47.3259L89.7133 47.1337C89.5522 47.409 89.3705 47.5388 89.0796 47.5388C88.742 47.5388 88.5134 47.3363 88.4563 46.9467H90.2638V46.6818ZM88.4719 46.4377C88.555 46.1105 88.7679 45.9391 89.0432 45.9391C89.3601 45.9391 89.5419 46.1468 89.6042 46.4377H88.4719Z" fill="#00274E"/>
<path d="M35.4725 58.0508H38.2773V57.6214H35.9296V55.6823H37.7925V55.2529H35.9296V53.6324H38.208V53.203H35.4725V58.0508ZM39.1361 58.0508H39.5655V56.5203C39.5655 55.5438 40.0572 54.9067 40.6943 54.9067C41.1722 54.9067 41.4076 55.1906 41.4076 55.71V58.0508H41.837V55.6546C41.837 54.9274 41.4284 54.505 40.7636 54.505C40.265 54.505 39.8079 54.8166 39.5655 55.2876V54.5604H39.1361V58.0508ZM44.7585 58.0508H45.1879V54.9621H46.0328V54.5604H45.1879V54.2695C45.1879 53.7917 45.4164 53.5493 45.8042 53.5493C45.922 53.5493 46.0466 53.577 46.1643 53.6324L46.2544 53.2376C46.1436 53.1753 46.0051 53.1476 45.8389 53.1476C45.1463 53.1476 44.7585 53.5354 44.7585 54.3388V54.5604H44.2045V54.9621H44.7585V58.0508ZM46.6702 56.9566C46.6702 57.6837 47.0788 58.1062 47.7436 58.1062C48.2422 58.1062 48.6993 57.7945 48.9417 57.3236V58.0508H49.3711V54.5604H48.9417V56.0909C48.9417 57.0674 48.45 57.7045 47.8129 57.7045C47.335 57.7045 47.0995 57.4206 47.0995 56.9012V54.5604H46.6702V56.9566ZM47.8475 54.1726H48.1938L48.9763 53.203H48.3323L47.8475 54.1726ZM50.61 57.0605C50.61 57.7599 50.9493 58.1062 51.4826 58.1062C51.7388 58.1062 51.9397 58.0646 52.092 57.9815L51.9743 57.5937C51.8566 57.6699 51.7111 57.7045 51.538 57.7045C51.2333 57.7045 51.0394 57.5106 51.0394 57.1297V54.9621H51.9812V54.5604H51.0394V53.1476L50.61 53.4316V54.5604H49.9936V54.9621H50.61V57.0605ZM53.1795 57.5937C53.2696 57.7322 53.4219 57.8499 53.6297 57.9538C53.8444 58.0577 54.0591 58.1062 54.2807 58.1062C55.2779 58.1062 55.8389 57.3167 55.8389 56.3056C55.8389 55.2945 55.2779 54.505 54.2807 54.505C53.8444 54.505 53.4358 54.7128 53.1795 55.0521V54.8443V53.1476H52.7502V58.0508H53.1795V57.8015V57.5937ZM55.3887 56.3056C55.3887 57.1297 54.9801 57.7045 54.2599 57.7045C53.5397 57.7045 53.138 57.1297 53.138 56.3056C53.138 55.897 53.2349 55.5646 53.4288 55.3014C53.6297 55.0382 53.9067 54.9067 54.2599 54.9067C54.6131 54.9067 54.8901 55.0382 55.0909 55.3014C55.2918 55.5646 55.3887 55.897 55.3887 56.3056ZM56.5056 56.3056C56.5056 57.2405 57.1496 58.1062 58.1399 58.1062C59.1303 58.1062 59.7743 57.2405 59.7743 56.3056C59.7743 55.3707 59.1303 54.505 58.1399 54.505C57.1496 54.505 56.5056 55.3707 56.5056 56.3056ZM59.3242 56.3056C59.3242 57.0328 58.8948 57.7045 58.1399 57.7045C57.3851 57.7045 56.9557 57.0328 56.9557 56.3056C56.9557 55.5784 57.3851 54.9067 58.1399 54.9067C58.8948 54.9067 59.3242 55.5784 59.3242 56.3056ZM60.6494 58.0508H61.0788V53.1476H60.6494V58.0508ZM63.7085 57.0466C63.7085 57.7668 64.1587 58.1062 64.7958 58.1062C65.3221 58.1062 65.6823 57.8707 65.897 57.5106L66.0008 58.0508H66.3263V55.7377C66.3263 55.3568 66.2086 55.0521 65.9731 54.8374C65.7446 54.6158 65.4468 54.505 65.0936 54.505C64.4565 54.505 63.9371 54.879 63.847 55.4607L64.2626 55.5576C64.3734 55.1698 64.6435 54.9067 65.0936 54.9067C65.5922 54.9067 65.897 55.1698 65.897 55.7516V55.9039H65.2944C64.2972 55.9039 63.7085 56.2917 63.7085 57.0466ZM65.897 56.4372C65.897 57.3375 65.3291 57.7045 64.8374 57.7045C64.4149 57.7045 64.1587 57.469 64.1587 57.0466C64.1587 56.5757 64.5327 56.3056 65.3083 56.3056H65.897V56.4372ZM67.3246 58.0508H67.7539V56.5203C67.7539 55.5438 68.2179 54.9067 68.7927 54.9067C69.2567 54.9067 69.416 55.1629 69.416 55.71V58.0508H69.8454V56.5203C69.8454 55.5438 70.3094 54.9067 70.8842 54.9067C71.3482 54.9067 71.5075 55.1629 71.5075 55.71V58.0508H71.9369V55.6546C71.9369 54.879 71.6252 54.505 70.9535 54.505C70.4895 54.505 70.0532 54.8305 69.8108 55.2806C69.7069 54.7612 69.3883 54.505 68.862 54.505C68.3703 54.505 67.9755 54.8097 67.7539 55.2876V54.5604H67.3246V58.0508ZM75.8931 56.1117C75.8931 55.156 75.2559 54.505 74.3626 54.505C73.4415 54.505 72.8113 55.2668 72.8113 56.3056C72.8113 57.3236 73.4553 58.1062 74.3626 58.1062C75.0274 58.1062 75.4637 57.8361 75.8169 57.1436L75.436 56.9566C75.1798 57.4898 74.8889 57.7045 74.3626 57.7045C74.0094 57.7045 73.7393 57.5729 73.5454 57.3028C73.3515 57.0328 73.2545 56.7003 73.2545 56.3056H75.8931V56.1117ZM73.2891 55.9039C73.4207 55.2599 73.8432 54.9067 74.3626 54.9067C74.9789 54.9067 75.3668 55.2876 75.4499 55.9039H73.2891ZM76.7658 58.0508H77.1952V56.7003C77.1952 55.5369 77.6176 54.9067 78.1578 54.9067C78.3309 54.9067 78.4971 54.9482 78.6495 55.0313L78.7464 54.6227C78.5525 54.5396 78.4071 54.505 78.2201 54.505C77.7561 54.505 77.4098 54.7474 77.1952 55.1837V54.5604H76.7658V58.0508ZM79.3966 58.0508H79.826V54.5604H79.3966V58.0508ZM79.2581 53.5562C79.2581 53.757 79.4105 53.9094 79.6113 53.9094C79.8121 53.9094 79.9645 53.757 79.9645 53.5562C79.9645 53.3554 79.8121 53.203 79.6113 53.203C79.4105 53.203 79.2581 53.3554 79.2581 53.5562ZM80.697 56.3056C80.697 57.2474 81.2441 58.1062 82.2414 58.1062C82.927 58.1062 83.4048 57.7738 83.6472 57.1436L83.2594 56.9912C83.0655 57.4621 82.7469 57.7045 82.2414 57.7045C81.8882 57.7045 81.6112 57.5729 81.4242 57.3098C81.2372 57.0397 81.1472 56.7073 81.1472 56.3056C81.1472 55.9039 81.2372 55.5715 81.4242 55.3083C81.6112 55.0382 81.8882 54.9067 82.2414 54.9067C82.7331 54.9067 83.0724 55.1421 83.2594 55.62L83.6472 55.4676C83.4048 54.8236 82.9408 54.505 82.2414 54.505C81.2441 54.505 80.697 55.3637 80.697 56.3056ZM84.2141 57.0466C84.2141 57.7668 84.6643 58.1062 85.3014 58.1062C85.8277 58.1062 86.1879 57.8707 86.4026 57.5106L86.5064 58.0508H86.8319V55.7377C86.8319 55.3568 86.7142 55.0521 86.4787 54.8374C86.2502 54.6158 85.9524 54.505 85.5992 54.505C84.9621 54.505 84.4427 54.879 84.3526 55.4607L84.7682 55.5576C84.879 55.1698 85.1491 54.9067 85.5992 54.9067C86.0978 54.9067 86.4026 55.1698 86.4026 55.7516V55.9039H85.8C84.8028 55.9039 84.2141 56.2917 84.2141 57.0466ZM86.4026 56.4372C86.4026 57.3375 85.8347 57.7045 85.343 57.7045C84.9205 57.7045 84.6643 57.469 84.6643 57.0466C84.6643 56.5757 85.0383 56.3056 85.8139 56.3056H86.4026V56.4372ZM87.8302 58.0508H88.2595V56.5203C88.2595 55.5438 88.7512 54.9067 89.3884 54.9067C89.8662 54.9067 90.1017 55.1906 90.1017 55.71V58.0508H90.531V55.6546C90.531 54.9274 90.1225 54.505 89.4576 54.505C88.959 54.505 88.5019 54.8166 88.2595 55.2876V54.5604H87.8302V58.0508ZM91.4029 56.3056C91.4029 57.2405 92.047 58.1062 93.0373 58.1062C94.0277 58.1062 94.6717 57.2405 94.6717 56.3056C94.6717 55.3707 94.0277 54.505 93.0373 54.505C92.047 54.505 91.4029 55.3707 91.4029 56.3056ZM94.2216 56.3056C94.2216 57.0328 93.7922 57.7045 93.0373 57.7045C92.2825 57.7045 91.8531 57.0328 91.8531 56.3056C91.8531 55.5784 92.2825 54.9067 93.0373 54.9067C93.7922 54.9067 94.2216 55.5784 94.2216 56.3056ZM95.2144 58.584H95.533L96.1978 57.4413H95.5607L95.2144 58.584ZM100.122 54.9828C100.122 54.7612 99.9626 54.6019 99.741 54.6019C99.5194 54.6019 99.3601 54.7612 99.3601 54.9828C99.3601 55.2045 99.5194 55.3637 99.741 55.3637C99.9626 55.3637 100.122 55.2045 100.122 54.9828ZM100.614 56.8181C100.614 56.271 100.233 55.9801 99.7549 55.9801C99.3047 55.9801 99.0069 56.2225 98.8754 56.7073L99.2216 56.8388C99.3255 56.5133 99.4917 56.3818 99.7687 56.3818C100.018 56.3818 100.184 56.548 100.184 56.8042C100.184 57.102 100.067 57.2474 99.4848 57.5522C98.8407 57.8846 98.633 58.127 98.633 58.5494C98.633 59.1242 99.0762 59.519 99.7064 59.519C100.42 59.519 100.863 59.1311 100.974 58.4871L100.537 58.4109C100.42 58.8818 100.17 59.1173 99.7549 59.1173C99.3186 59.1173 99.0762 58.8957 99.0762 58.5286C99.1039 58.2101 99.1455 58.1754 99.8241 57.8015C100.371 57.5175 100.614 57.2544 100.614 56.8181ZM101.656 56.3056C101.656 57.2474 102.203 58.1062 103.2 58.1062C103.886 58.1062 104.364 57.7738 104.606 57.1436L104.218 56.9912C104.024 57.4621 103.706 57.7045 103.2 57.7045C102.847 57.7045 102.57 57.5729 102.383 57.3098C102.196 57.0397 102.106 56.7073 102.106 56.3056C102.106 55.9039 102.196 55.5715 102.383 55.3083C102.57 55.0382 102.847 54.9067 103.2 54.9067C103.692 54.9067 104.031 55.1421 104.218 55.62L104.606 55.4676C104.364 54.8236 103.9 54.505 103.2 54.505C102.203 54.505 101.656 55.3637 101.656 56.3056ZM105.367 56.9566C105.367 57.6837 105.775 58.1062 106.44 58.1062C106.939 58.1062 107.396 57.7945 107.638 57.3236V58.0508H108.068V54.5604H107.638V56.0909C107.638 57.0674 107.147 57.7045 106.509 57.7045C106.032 57.7045 105.796 57.4206 105.796 56.9012V54.5604H105.367V56.9566ZM108.953 57.0466C108.953 57.7668 109.404 58.1062 110.041 58.1062C110.567 58.1062 110.927 57.8707 111.142 57.5106L111.246 58.0508H111.571V55.7377C111.571 55.3568 111.453 55.0521 111.218 54.8374C110.989 54.6158 110.692 54.505 110.338 54.505C109.701 54.505 109.182 54.879 109.092 55.4607L109.507 55.5576C109.618 55.1698 109.888 54.9067 110.338 54.9067C110.837 54.9067 111.142 55.1698 111.142 55.7516V55.9039H110.539C109.542 55.9039 108.953 56.2917 108.953 57.0466ZM111.142 56.4372C111.142 57.3375 110.574 57.7045 110.082 57.7045C109.66 57.7045 109.404 57.469 109.404 57.0466C109.404 56.5757 109.778 56.3056 110.553 56.3056H111.142V56.4372ZM110.165 54.1726H110.512L111.294 53.203H110.65L110.165 54.1726ZM112.569 58.0508H112.999V56.5203C112.999 55.5438 113.491 54.9067 114.128 54.9067C114.605 54.9067 114.841 55.1906 114.841 55.71V58.0508H115.27V55.6546C115.27 54.9274 114.862 54.505 114.197 54.505C113.698 54.505 113.241 54.8166 112.999 55.2876V54.5604H112.569V58.0508ZM116.455 57.0605C116.455 57.7599 116.794 58.1062 117.328 58.1062C117.584 58.1062 117.785 58.0646 117.937 57.9815L117.819 57.5937C117.702 57.6699 117.556 57.7045 117.383 57.7045C117.078 57.7045 116.885 57.5106 116.885 57.1297V54.9621H117.826V54.5604H116.885V53.1476L116.455 53.4316V54.5604H115.839V54.9621H116.455V57.0605ZM118.293 56.3056C118.293 57.2405 118.937 58.1062 119.927 58.1062C120.918 58.1062 121.562 57.2405 121.562 56.3056C121.562 55.3707 120.918 54.505 119.927 54.505C118.937 54.505 118.293 55.3707 118.293 56.3056ZM121.111 56.3056C121.111 57.0328 120.682 57.7045 119.927 57.7045C119.172 57.7045 118.743 57.0328 118.743 56.3056C118.743 55.5784 119.172 54.9067 119.927 54.9067C120.682 54.9067 121.111 55.5784 121.111 56.3056ZM122.134 57.1505C122.266 57.6837 122.681 58.1062 123.394 58.1062C124.059 58.1062 124.475 57.7184 124.475 57.0812C124.475 56.5826 124.122 56.264 123.623 56.077C123.034 55.8624 122.82 55.71 122.82 55.4053C122.82 55.1006 123.034 54.9067 123.332 54.9067C123.616 54.9067 123.831 55.0244 124.018 55.3083L124.322 55.0452C124.101 54.6781 123.796 54.505 123.353 54.505C122.792 54.505 122.376 54.8651 122.376 55.4191C122.376 55.9385 122.681 56.1948 123.256 56.3956C123.775 56.5826 124.025 56.7488 124.025 57.0882C124.025 57.469 123.789 57.7045 123.394 57.7045C122.917 57.7045 122.66 57.4275 122.515 56.9496L122.134 57.1505ZM40.5056 67.4636H40.935V65.7668V65.5591C41.1636 65.8984 41.6137 66.1062 42.0361 66.1062C43.0334 66.1062 43.5944 65.3167 43.5944 64.3056C43.5944 63.2945 43.0334 62.505 42.0361 62.505C41.586 62.505 41.1289 62.7543 40.935 63.059V62.8513V62.5604H40.5056V67.4636ZM43.1442 64.3056C43.1442 64.7142 43.0473 65.0466 42.8464 65.3098C42.6456 65.5729 42.3686 65.7045 42.0154 65.7045C41.6622 65.7045 41.3852 65.5729 41.1843 65.3098C40.9904 65.0466 40.8935 64.7142 40.8935 64.3056C40.8935 63.4815 41.2951 62.9067 42.0154 62.9067C42.7356 62.9067 43.1442 63.4815 43.1442 64.3056ZM44.4688 64.9566C44.4688 65.6837 44.8774 66.1062 45.5422 66.1062C46.0409 66.1062 46.4979 65.7945 46.7403 65.3236V66.0508H47.1697V62.5604H46.7403V64.0909C46.7403 65.0674 46.2486 65.7045 45.6115 65.7045C45.1336 65.7045 44.8982 65.4206 44.8982 64.9012V62.5604H44.4688V64.9566ZM48.2493 66.0508H48.6787V64.5203C48.6787 63.5438 49.1704 62.9067 49.8076 62.9067C50.2854 62.9067 50.5209 63.1906 50.5209 63.71V66.0508H50.9502V63.6546C50.9502 62.9274 50.5416 62.505 49.8768 62.505C49.3782 62.505 48.9211 62.8166 48.6787 63.2876V62.5604H48.2493V66.0508ZM52.1351 65.0605C52.1351 65.7599 52.4744 66.1062 53.0077 66.1062C53.2639 66.1062 53.4647 66.0646 53.6171 65.9815L53.4994 65.5937C53.3816 65.6699 53.2362 65.7045 53.0631 65.7045C52.7584 65.7045 52.5644 65.5106 52.5644 65.1297V62.9621H53.5063V62.5604H52.5644V61.1476L52.1351 61.4316V62.5604H51.5187V62.9621H52.1351V65.0605ZM53.9728 64.3056C53.9728 65.2405 54.6168 66.1062 55.6072 66.1062C56.5975 66.1062 57.2416 65.2405 57.2416 64.3056C57.2416 63.3707 56.5975 62.505 55.6072 62.505C54.6168 62.505 53.9728 63.3707 53.9728 64.3056ZM56.7914 64.3056C56.7914 65.0328 56.362 65.7045 55.6072 65.7045C54.8523 65.7045 54.4229 65.0328 54.4229 64.3056C54.4229 63.5784 54.8523 62.9067 55.6072 62.9067C56.362 62.9067 56.7914 63.5784 56.7914 64.3056ZM57.8139 65.1505C57.9455 65.6837 58.361 66.1062 59.0743 66.1062C59.7391 66.1062 60.1547 65.7184 60.1547 65.0812C60.1547 64.5826 59.8015 64.264 59.3028 64.077C58.7142 63.8624 58.4995 63.71 58.4995 63.4053C58.4995 63.1006 58.7142 62.9067 59.012 62.9067C59.2959 62.9067 59.5106 63.0244 59.6976 63.3083L60.0023 63.0452C59.7807 62.6781 59.476 62.505 59.0327 62.505C58.4718 62.505 58.0563 62.8651 58.0563 63.4191C58.0563 63.9385 58.361 64.1948 58.9358 64.3956C59.4552 64.5826 59.7045 64.7488 59.7045 65.0882C59.7045 65.469 59.469 65.7045 59.0743 65.7045C58.5964 65.7045 58.3402 65.4275 58.1948 64.9496L57.8139 65.1505ZM63.504 66.0508H63.975L65.1523 62.5604H64.7021L63.7395 65.476L62.7769 62.5604H62.3267L63.504 66.0508ZM65.5312 65.0466C65.5312 65.7668 65.9813 66.1062 66.6185 66.1062C67.1448 66.1062 67.5049 65.8707 67.7196 65.5106L67.8235 66.0508H68.149V63.7377C68.149 63.3568 68.0312 63.0521 67.7958 62.8374C67.5672 62.6158 67.2694 62.505 66.9163 62.505C66.2791 62.505 65.7597 62.879 65.6697 63.4607L66.0852 63.5576C66.196 63.1698 66.4661 62.9067 66.9163 62.9067C67.4149 62.9067 67.7196 63.1698 67.7196 63.7516V63.9039H67.1171C66.1198 63.9039 65.5312 64.2917 65.5312 65.0466ZM67.7196 64.4372C67.7196 65.3375 67.1517 65.7045 66.66 65.7045C66.2376 65.7045 65.9813 65.469 65.9813 65.0466C65.9813 64.5757 66.3553 64.3056 67.1309 64.3056H67.7196V64.4372ZM69.1472 66.0508H69.5766V61.1476H69.1472V66.0508ZM73.5294 64.1117C73.5294 63.156 72.8923 62.505 71.9989 62.505C71.0778 62.505 70.4476 63.2668 70.4476 64.3056C70.4476 65.3236 71.0917 66.1062 71.9989 66.1062C72.6637 66.1062 73.1 65.8361 73.4532 65.1436L73.0723 64.9566C72.8161 65.4898 72.5252 65.7045 71.9989 65.7045C71.6457 65.7045 71.3756 65.5729 71.1817 65.3028C70.9878 65.0328 70.8908 64.7003 70.8908 64.3056H73.5294V64.1117ZM70.9254 63.9039C71.057 63.2599 71.4795 62.9067 71.9989 62.9067C72.6152 62.9067 73.0031 63.2876 73.0862 63.9039H70.9254ZM76.147 64.9566C76.147 65.6837 76.5556 66.1062 77.2204 66.1062C77.719 66.1062 78.1761 65.7945 78.4185 65.3236V66.0508H78.8479V62.5604H78.4185V64.0909C78.4185 65.0674 77.9268 65.7045 77.2897 65.7045C76.8118 65.7045 76.5763 65.4206 76.5763 64.9012V62.5604H76.147V64.9566ZM79.9275 66.0508H80.3569V64.5203C80.3569 63.5438 80.8486 62.9067 81.4857 62.9067C81.9636 62.9067 82.199 63.1906 82.199 63.71V66.0508H82.6284V63.6546C82.6284 62.9274 82.2198 62.505 81.555 62.505C81.0564 62.505 80.5993 62.8166 80.3569 63.2876V62.5604H79.9275V66.0508ZM85.6122 65.0605C85.6122 65.7599 85.9516 66.1062 86.4848 66.1062C86.7411 66.1062 86.9419 66.0646 87.0942 65.9815L86.9765 65.5937C86.8588 65.6699 86.7134 65.7045 86.5402 65.7045C86.2355 65.7045 86.0416 65.5106 86.0416 65.1297V62.9621H86.9834V62.5604H86.0416V61.1476L85.6122 61.4316V62.5604H84.9959V62.9621H85.6122V65.0605ZM87.4499 64.3056C87.4499 65.2405 88.094 66.1062 89.0843 66.1062C90.0746 66.1062 90.7187 65.2405 90.7187 64.3056C90.7187 63.3707 90.0746 62.505 89.0843 62.505C88.094 62.505 87.4499 63.3707 87.4499 64.3056ZM90.2686 64.3056C90.2686 65.0328 89.8392 65.7045 89.0843 65.7045C88.3295 65.7045 87.9001 65.0328 87.9001 64.3056C87.9001 63.5784 88.3295 62.9067 89.0843 62.9067C89.8392 62.9067 90.2686 63.5784 90.2686 64.3056ZM91.5938 64.9566C91.5938 65.6837 92.0024 66.1062 92.6672 66.1062C93.1659 66.1062 93.6229 65.7945 93.8653 65.3236V66.0508H94.2947V62.5604H93.8653V64.0909C93.8653 65.0674 93.3736 65.7045 92.7365 65.7045C92.2586 65.7045 92.0232 65.4206 92.0232 64.9012V62.5604H91.5938V64.9566ZM95.1666 64.3056C95.1666 65.2474 95.7137 66.1062 96.7109 66.1062C97.3966 66.1062 97.8744 65.7738 98.1168 65.1436L97.729 64.9912C97.5351 65.4621 97.2165 65.7045 96.7109 65.7045C96.3577 65.7045 96.0807 65.5729 95.8937 65.3098C95.7068 65.0397 95.6167 64.7073 95.6167 64.3056C95.6167 63.9039 95.7068 63.5715 95.8937 63.3083C96.0807 63.0382 96.3577 62.9067 96.7109 62.9067C97.2026 62.9067 97.542 63.1421 97.729 63.62L98.1168 63.4676C97.8744 62.8236 97.4104 62.505 96.7109 62.505C95.7137 62.505 95.1666 63.3637 95.1666 64.3056ZM98.9452 66.0508H99.3746V64.5618C99.3746 63.5646 99.9079 62.9067 100.552 62.9067C101.023 62.9067 101.279 63.2045 101.279 63.71V66.0508H101.708V63.6546C101.708 62.9274 101.307 62.505 100.621 62.505C100.116 62.505 99.6031 62.7889 99.3746 63.3222V61.1476H98.9452V66.0508ZM102.579 64.3056C102.579 65.3167 103.14 66.1062 104.137 66.1062C104.573 66.1062 105.024 65.8569 105.238 65.5522V65.7599V66.0508H105.668V61.1476H105.238V62.8443V63.0521C104.989 62.6989 104.601 62.505 104.137 62.505C103.14 62.505 102.579 63.2945 102.579 64.3056ZM105.28 64.3056C105.28 65.1297 104.878 65.7045 104.158 65.7045C103.438 65.7045 103.029 65.1297 103.029 64.3056C103.029 63.897 103.126 63.5646 103.327 63.3014C103.528 63.0382 103.805 62.9067 104.158 62.9067C104.511 62.9067 104.788 63.0382 104.982 63.3014C105.183 63.5646 105.28 63.897 105.28 64.3056ZM106.542 64.3056C106.542 65.2405 107.186 66.1062 108.176 66.1062C109.167 66.1062 109.811 65.2405 109.811 64.3056C109.811 63.3707 109.167 62.505 108.176 62.505C107.186 62.505 106.542 63.3707 106.542 64.3056ZM109.361 64.3056C109.361 65.0328 108.931 65.7045 108.176 65.7045C107.422 65.7045 106.992 65.0328 106.992 64.3056C106.992 63.5784 107.422 62.9067 108.176 62.9067C108.931 62.9067 109.361 63.5784 109.361 64.3056ZM111.241 66.0508H111.684L112.411 63.1975L113.139 66.0508H113.582L114.628 62.5604H114.177L113.36 65.4413L112.626 62.5604H112.197L111.463 65.4413L110.645 62.5604H110.195L111.241 66.0508ZM115.264 66.0508H115.694V64.5203C115.694 63.5438 116.186 62.9067 116.823 62.9067C117.301 62.9067 117.536 63.1906 117.536 63.71V66.0508H117.965V63.6546C117.965 62.9274 117.557 62.505 116.892 62.505C116.393 62.505 115.936 62.8166 115.694 63.2876V62.5604H115.264V66.0508ZM119.09 63.8485C119.09 64.3956 119.47 64.6865 119.948 64.6865C120.398 64.6865 120.696 64.4441 120.828 63.9593L120.482 63.8277C120.378 64.1532 120.211 64.2848 119.934 64.2848C119.692 64.2848 119.519 64.1117 119.519 63.8624C119.519 63.5646 119.637 63.4191 120.218 63.1144C120.862 62.782 121.07 62.5396 121.07 62.1172C121.07 61.5424 120.627 61.1476 119.997 61.1476C119.283 61.1476 118.84 61.5354 118.729 62.1795L119.166 62.2557C119.283 61.7848 119.533 61.5493 119.948 61.5493C120.385 61.5493 120.627 61.7709 120.627 62.1379C120.599 62.4565 120.551 62.4911 119.879 62.8651C119.332 63.149 119.09 63.4122 119.09 63.8485ZM119.581 65.6837C119.581 65.9053 119.741 66.0646 119.962 66.0646C120.184 66.0646 120.343 65.9053 120.343 65.6837C120.343 65.4621 120.184 65.3028 119.962 65.3028C119.741 65.3028 119.581 65.4621 119.581 65.6837Z" fill="#00274E"/>
</svg>
