<svg width="159" height="194" viewBox="0 0 159 194" fill="none" xmlns="http://www.w3.org/2000/svg">
<rect width="159" height="194" rx="15" fill="#00274E"/>
<rect x="31" y="69" width="42" height="42" rx="21" transform="rotate(-90 31 69)" fill="#002F5D"/>
<rect x="31" y="145" width="42" height="42" rx="21" transform="rotate(-90 31 145)" fill="#002F5D"/>
<rect x="86" y="69" width="42" height="42" rx="21" transform="rotate(-90 86 69)" fill="#002F5D"/>
<rect x="86" y="145" width="42" height="42" rx="21" transform="rotate(-90 86 145)" fill="#0CC482"/>
<path d="M43.9567 43.9411C43.9567 43.7744 43.9234 43.6244 43.8567 43.4911C43.7901 43.3411 43.7151 43.2161 43.6317 43.1161C43.5151 42.9661 43.3984 42.8661 43.2817 42.8161C43.0817 42.6994 42.9401 42.6411 42.8567 42.6411L42.8067 43.3411V43.6161L42.8817 43.8161C42.9151 43.8994 42.9984 44.0244 43.1317 44.1911C43.3484 44.4078 43.6234 44.5161 43.9567 44.5161V43.9411ZM42.7817 56.4911C42.7817 56.8078 42.8984 57.0828 43.1317 57.3161C43.2317 57.4161 43.3901 57.4994 43.6067 57.5661C43.8401 57.6161 44.0484 57.6411 44.2317 57.6411L43.9567 57.0661C43.9567 56.7494 43.8484 56.4828 43.6317 56.2661C43.4151 56.0494 43.1317 55.9411 42.7817 55.9411V56.4911ZM42.7817 54.6161C42.7817 54.9328 42.8984 55.2078 43.1317 55.4411C43.3484 55.6578 43.6234 55.7661 43.9567 55.7661V55.1911C43.9567 54.8911 43.8401 54.6244 43.6067 54.3911C43.3734 54.1578 43.0984 54.0411 42.7817 54.0411V54.6161ZM42.7817 52.7411C42.7817 53.0578 42.8984 53.3328 43.1317 53.5661C43.3484 53.7828 43.6234 53.8911 43.9567 53.8911V53.3161C43.9567 53.0161 43.8401 52.7494 43.6067 52.5161C43.3901 52.2994 43.1151 52.1911 42.7817 52.1911V52.7411ZM42.7817 50.8911C42.7817 51.1911 42.8984 51.4578 43.1317 51.6911C43.3651 51.9244 43.6401 52.0411 43.9567 52.0411V51.4661C43.9567 51.1494 43.8401 50.8744 43.6067 50.6411C43.3901 50.4244 43.1151 50.3161 42.7817 50.3161V50.8911ZM42.7817 49.0161C42.7817 49.3161 42.8984 49.5828 43.1317 49.8161C43.3817 50.0328 43.6567 50.1411 43.9567 50.1411V49.5911C43.9567 49.2578 43.8484 48.9828 43.6317 48.7661C43.4151 48.5494 43.1317 48.4411 42.7817 48.4411V49.0161ZM42.7817 47.1411C42.7817 47.4411 42.8984 47.7078 43.1317 47.9411C43.3484 48.1578 43.6234 48.2661 43.9567 48.2661V47.6911C43.9567 47.3744 43.8484 47.1078 43.6317 46.8911C43.4151 46.6744 43.1317 46.5661 42.7817 46.5661V47.1411ZM42.7817 45.2661C42.7817 45.5994 42.8984 45.8661 43.1317 46.0661C43.3484 46.2828 43.6234 46.3911 43.9567 46.3911V45.8161C43.9567 45.4994 43.8484 45.2328 43.6317 45.0161C43.3817 44.7994 43.0984 44.6911 42.7817 44.6911V45.2661ZM43.2067 41.5911C43.2067 41.7911 43.2401 41.9578 43.3067 42.0911C43.3901 42.2411 43.4901 42.3661 43.6067 42.4661C43.7734 42.5661 43.9151 42.6244 44.0317 42.6411C44.1151 42.2744 44.1651 42.0828 44.1817 42.0661C44.2317 41.9161 44.2567 41.7494 44.2567 41.5661L44.2067 41.1411C44.1401 40.8244 43.9734 40.5744 43.7067 40.3911L43.3317 41.0411C43.2484 41.2078 43.2067 41.3911 43.2067 41.5911ZM44.2317 57.0661C44.2317 56.7828 44.3401 56.5161 44.5567 56.2661C44.7734 56.0494 45.0567 55.9411 45.4067 55.9411V56.4911C45.4067 56.8078 45.2901 57.0828 45.0567 57.3161C44.8401 57.5328 44.5651 57.6411 44.2317 57.6411V57.0661ZM44.2317 55.1911C44.2317 54.8911 44.3484 54.6244 44.5817 54.3911C44.8151 54.1578 45.0901 54.0411 45.4067 54.0411V54.6161C45.4067 54.9328 45.2901 55.2078 45.0567 55.4411C44.8401 55.6578 44.5651 55.7661 44.2317 55.7661V55.1911ZM44.2317 53.3161C44.2317 53.0161 44.3484 52.7494 44.5817 52.5161C44.7984 52.2994 45.0734 52.1911 45.4067 52.1911V52.7411C45.4067 53.0578 45.2901 53.3328 45.0567 53.5661C44.8401 53.7828 44.5651 53.8911 44.2317 53.8911V53.3161ZM44.2317 51.4661C44.2317 51.1494 44.3484 50.8744 44.5817 50.6411C44.7984 50.4244 45.0734 50.3161 45.4067 50.3161V50.8911C45.4067 51.1911 45.2901 51.4578 45.0567 51.6911C44.8234 51.9244 44.5484 52.0411 44.2317 52.0411V51.4661ZM44.2317 49.5911C44.2317 49.2911 44.3401 49.0161 44.5567 48.7661C44.7734 48.5494 45.0567 48.4411 45.4067 48.4411V49.0161C45.4067 49.3161 45.2901 49.5828 45.0567 49.8161C44.8067 50.0328 44.5317 50.1411 44.2317 50.1411V49.5911ZM44.2317 47.6911C44.2317 47.4078 44.3401 47.1411 44.5567 46.8911C44.7734 46.6744 45.0567 46.5661 45.4067 46.5661V47.1411C45.4067 47.4411 45.2901 47.7078 45.0567 47.9411C44.8401 48.1578 44.5651 48.2661 44.2317 48.2661V47.6911ZM44.2317 45.8161C44.2317 45.5328 44.3401 45.2661 44.5567 45.0161C44.8067 44.7994 45.0901 44.6911 45.4067 44.6911V45.2661C45.4067 45.5994 45.2901 45.8661 45.0567 46.0661C44.8401 46.2828 44.5651 46.3911 44.2317 46.3911V45.8161ZM44.2317 43.9411C44.2317 43.8244 44.2651 43.6744 44.3317 43.4911C44.3817 43.4078 44.4734 43.2994 44.6067 43.1661L44.9817 43.0161C45.0984 42.9661 45.2484 42.9578 45.4317 42.9911L45.4067 43.4161V43.4911C45.3901 43.5244 45.3817 43.5661 45.3817 43.6161L45.3067 43.8161C45.2734 43.8994 45.1901 44.0244 45.0567 44.1911C44.8401 44.4078 44.5651 44.5161 44.2317 44.5161V43.9411ZM44.4567 42.1661C44.5567 41.8494 44.7567 41.6661 45.0567 41.6161C45.0901 41.5994 45.1651 41.5911 45.2817 41.5911C45.4984 41.5911 45.7067 41.6578 45.9067 41.7911L45.7067 42.1411C45.6067 42.3411 45.4317 42.4911 45.1817 42.5911L44.7817 42.6911H44.3067L44.4567 42.1661ZM44.3567 40.0661C44.3567 40.3994 44.4984 40.6661 44.7817 40.8661C44.8484 40.7328 44.9651 40.5828 45.1317 40.4161C45.3651 40.1328 45.5067 39.8494 45.5567 39.5661C45.5901 39.4328 45.6067 39.2828 45.6067 39.1161C45.5901 38.8828 45.5401 38.7328 45.4567 38.6661L44.8317 39.0911C44.5151 39.3578 44.3567 39.6828 44.3567 40.0661ZM45.0067 41.0411C45.0234 40.9744 45.1401 40.8244 45.3567 40.5911C45.5067 40.4244 45.6984 40.3411 45.9317 40.3411C46.0317 40.3411 46.0984 40.3494 46.1317 40.3661C46.2484 40.3661 46.3734 40.4328 46.5067 40.5661C46.6067 40.6661 46.7067 40.7828 46.8067 40.9161C46.7401 40.9328 46.6317 40.9994 46.4817 41.1161C46.3317 41.2328 46.1567 41.2911 45.9567 41.2911C45.6234 41.2911 45.3067 41.2078 45.0067 41.0411ZM46.0817 39.1411C46.0817 39.2578 46.1234 39.3994 46.2067 39.5661C46.3234 39.4994 46.3984 39.4578 46.4317 39.4411L46.7567 39.3411C46.9901 39.2744 47.2484 39.0994 47.5317 38.8161C47.6484 38.6661 47.7317 38.5328 47.7817 38.4161C47.8484 38.2494 47.8817 38.0994 47.8817 37.9661C47.6151 37.9661 47.3567 37.9911 47.1067 38.0411C46.6734 38.1078 46.3734 38.3161 46.2067 38.6661C46.1234 38.8661 46.0817 39.0244 46.0817 39.1411ZM46.3567 39.8411C46.5234 39.7411 46.6901 39.6661 46.8567 39.6161C46.9234 39.5828 47.0067 39.5661 47.1067 39.5661C47.3067 39.5661 47.4817 39.6328 47.6317 39.7661C47.7484 39.8661 47.8234 39.9828 47.8567 40.1161L47.9567 40.5661C47.8067 40.5661 47.6817 40.5828 47.5817 40.6161H47.4817C47.3317 40.6161 47.1567 40.5578 46.9567 40.4411C46.8567 40.3911 46.7484 40.3078 46.6317 40.1911C46.4984 40.0911 46.4067 39.9744 46.3567 39.8411ZM48.0817 39.4161C48.2817 39.4161 48.4651 39.4328 48.6317 39.4661C48.7984 39.4994 48.9234 39.5578 49.0067 39.6411C49.1234 39.7911 49.1901 39.9161 49.2067 40.0161C49.2734 40.0994 49.2901 40.2328 49.2567 40.4161L49.1067 40.8661C49.0067 40.7994 48.8901 40.7494 48.7567 40.7161C48.5567 40.6328 48.4067 40.4828 48.3067 40.2661L48.2317 40.0911C48.1817 39.9911 48.1567 39.9161 48.1567 39.8661C48.1067 39.7328 48.0817 39.5828 48.0817 39.4161ZM48.3317 39.1161L48.6817 39.1911C48.7151 39.2078 48.8234 39.2161 49.0067 39.2161C49.2401 39.2161 49.4317 39.1828 49.5817 39.1161C49.7651 39.0661 49.9067 38.9911 50.0067 38.8911C50.1401 38.8078 50.2401 38.6911 50.3067 38.5411L50.0067 38.3911C49.8567 38.3078 49.7234 38.2578 49.6067 38.2411C49.4567 38.1911 49.3151 38.1661 49.1817 38.1661C48.9317 38.1661 48.7151 38.2244 48.5317 38.3411C48.3817 38.4078 48.2734 38.5244 48.2067 38.6911C48.1234 38.7911 48.0817 38.9328 48.0817 39.1161H48.3317ZM49.6067 40.3411C49.6734 40.1411 49.7317 39.9994 49.7817 39.9161L50.2317 40.2161C50.4317 40.4161 50.5317 40.6244 50.5317 40.8411C50.5317 41.1744 50.3567 41.4578 50.0067 41.6911C49.9067 41.5244 49.8234 41.4244 49.7567 41.3911C49.6234 41.2078 49.5567 40.9994 49.5567 40.7661L49.6067 40.3411ZM49.9317 39.6661C50.2317 39.8328 50.3901 39.9411 50.4067 39.9911C50.6401 40.1744 50.9234 40.2994 51.2567 40.3661L51.5067 40.3911C51.7567 40.3911 51.9734 40.3244 52.1567 40.1911C51.9234 39.8744 51.7651 39.6828 51.6817 39.6161C51.5651 39.4661 51.4234 39.3578 51.2567 39.2911C51.1067 39.2244 50.9401 39.1911 50.7567 39.1911C50.5401 39.1911 50.3651 39.2411 50.2317 39.3411C50.0984 39.4244 49.9984 39.5328 49.9317 39.6661ZM50.3817 42.2911C50.3817 42.1578 50.4234 42.0078 50.5067 41.8411C50.6401 41.5411 50.8234 41.3161 51.0567 41.1661L51.3317 41.6411C51.3817 41.7411 51.4067 41.8494 51.4067 41.9661C51.4067 42.1661 51.3567 42.3328 51.2567 42.4661C51.2234 42.5328 51.1234 42.6244 50.9567 42.7411C50.7901 42.8244 50.6401 42.8744 50.5067 42.8911C50.4734 42.7078 50.4401 42.5828 50.4067 42.5161L50.3817 42.2911ZM50.5817 57.0661C50.5817 56.7661 50.6984 56.4994 50.9317 56.2661C51.1484 56.0494 51.4151 55.9411 51.7317 55.9411V56.4911C51.7317 56.8244 51.6234 57.0994 51.4067 57.3161C51.1901 57.5328 50.9151 57.6411 50.5817 57.6411V57.0661ZM50.5817 55.1911C50.5817 54.8911 50.6984 54.6244 50.9317 54.3911C51.1651 54.1578 51.4317 54.0411 51.7317 54.0411V54.6161C51.7317 54.9494 51.6234 55.2244 51.4067 55.4411C51.1901 55.6578 50.9151 55.7661 50.5817 55.7661V55.1911ZM50.5817 53.3161C50.5817 53.0161 50.6984 52.7494 50.9317 52.5161C51.1484 52.2994 51.4151 52.1911 51.7317 52.1911V52.7411C51.7317 53.0744 51.6234 53.3494 51.4067 53.5661C51.1901 53.7828 50.9151 53.8911 50.5817 53.8911V53.3161ZM50.5817 51.4661C50.5817 51.1494 50.6984 50.8744 50.9317 50.6411C51.1484 50.4244 51.4151 50.3161 51.7317 50.3161V50.8911C51.7317 51.2078 51.6234 51.4744 51.4067 51.6911C51.1734 51.9244 50.8984 52.0411 50.5817 52.0411V51.4661ZM50.5817 49.5911C50.5817 49.2911 50.6901 49.0161 50.9067 48.7661C51.1234 48.5494 51.3984 48.4411 51.7317 48.4411V49.0161C51.7317 49.3328 51.6234 49.5994 51.4067 49.8161C51.1567 50.0328 50.8817 50.1411 50.5817 50.1411V49.5911ZM50.5817 47.6911C50.5817 47.3911 50.6984 47.1244 50.9317 46.8911C51.1484 46.6744 51.4151 46.5661 51.7317 46.5661V47.1411C51.7317 47.4578 51.6234 47.7244 51.4067 47.9411C51.1901 48.1578 50.9151 48.2661 50.5817 48.2661V47.6911ZM50.5817 45.8161C50.5817 45.5161 50.6984 45.2494 50.9317 45.0161C51.1817 44.7994 51.4484 44.6911 51.7317 44.6911V45.2661C51.7317 45.5994 51.6234 45.8661 51.4067 46.0661C51.1901 46.2828 50.9151 46.3911 50.5817 46.3911V45.8161ZM50.5817 43.9411C50.5817 43.7911 50.6067 43.6411 50.6567 43.4911L50.6817 43.4661L50.7067 43.4161C50.7401 43.3994 50.7567 43.3744 50.7567 43.3411L50.9067 43.2161C50.9734 43.1494 51.0901 43.0661 51.2567 42.9661C51.4567 42.8994 51.5984 42.8661 51.6817 42.8661C51.7151 43.0161 51.7317 43.1911 51.7317 43.3911C51.7317 43.7078 51.6234 43.9744 51.4067 44.1911C51.1901 44.4078 50.9151 44.5161 50.5817 44.5161V43.9411ZM51.3067 41.0161C51.4401 41.1828 51.5317 41.3494 51.5817 41.5161C51.7151 41.7828 51.9234 42.0161 52.2067 42.2161L52.6067 42.4161L52.8817 42.4411L53.0817 42.4161L52.9067 41.7161C52.7901 41.3328 52.5567 41.0661 52.2067 40.9161C52.0901 40.8661 51.9651 40.8411 51.8317 40.8411C51.6484 40.8411 51.4734 40.8994 51.3067 41.0161ZM52.0317 43.3661C52.0317 43.6994 52.1401 43.9744 52.3567 44.1911C52.5734 44.4078 52.8484 44.5161 53.1817 44.5161V43.9411C53.1817 43.7744 53.1484 43.6244 53.0817 43.4911L53.0567 43.4411C53.0567 43.4078 53.0484 43.3911 53.0317 43.3911L52.9817 43.2661L52.8317 43.0661C52.7317 42.9828 52.5984 42.8994 52.4317 42.8161C52.3817 42.7994 52.2984 42.7911 52.1817 42.7911C52.0984 42.7911 52.0317 42.7994 51.9817 42.8161L52.0317 43.3661ZM52.0317 56.4911C52.0317 56.7911 52.1401 57.0661 52.3567 57.3161C52.5734 57.5328 52.8484 57.6411 53.1817 57.6411V57.0661C53.1817 56.7494 53.0734 56.4828 52.8567 56.2661C52.6401 56.0494 52.3651 55.9411 52.0317 55.9411V56.4911ZM52.0317 54.6161C52.0317 54.9328 52.1484 55.2078 52.3817 55.4411C52.5984 55.6578 52.8651 55.7661 53.1817 55.7661V55.1911C53.1817 54.8744 53.0734 54.6078 52.8567 54.3911C52.6234 54.1578 52.3484 54.0411 52.0317 54.0411V54.6161ZM52.0317 52.7411C52.0317 53.0578 52.1484 53.3328 52.3817 53.5661C52.5984 53.7828 52.8651 53.8911 53.1817 53.8911V53.3161C53.1817 52.9994 53.0734 52.7328 52.8567 52.5161C52.6401 52.2994 52.3651 52.1911 52.0317 52.1911V52.7411ZM52.0317 50.8911C52.0317 51.1911 52.1484 51.4578 52.3817 51.6911C52.6151 51.9244 52.8817 52.0411 53.1817 52.0411V51.4661C53.1817 51.1328 53.0734 50.8578 52.8567 50.6411C52.6401 50.4244 52.3651 50.3161 52.0317 50.3161V50.8911ZM52.0317 49.0161C52.0317 49.3161 52.1484 49.5828 52.3817 49.8161C52.6317 50.0328 52.8984 50.1411 53.1817 50.1411V49.5911C53.1817 49.2578 53.0734 48.9828 52.8567 48.7661C52.6401 48.5494 52.3651 48.4411 52.0317 48.4411V49.0161ZM52.0317 47.1411C52.0317 47.4411 52.1484 47.7078 52.3817 47.9411C52.5984 48.1578 52.8651 48.2661 53.1817 48.2661V47.6911C53.1817 47.3744 53.0734 47.1078 52.8567 46.8911C52.6401 46.6744 52.3651 46.5661 52.0317 46.5661V47.1411ZM52.0317 45.2661C52.0317 45.5994 52.1484 45.8661 52.3817 46.0661C52.5984 46.2828 52.8651 46.3911 53.1817 46.3911V45.8161C53.1817 45.4994 53.0734 45.2328 52.8567 45.0161C52.6067 44.7994 52.3317 44.6911 52.0317 44.6911V45.2661ZM52.5817 39.7161C52.5817 39.7494 52.5984 39.8661 52.6317 40.0661C52.6817 40.1994 52.7651 40.3244 52.8817 40.4411L53.3317 40.0161C53.5984 39.7994 53.7984 39.5328 53.9317 39.2161C53.9984 39.0994 54.0401 38.9494 54.0567 38.7661V38.6411C54.0567 38.5744 54.0401 38.4578 54.0067 38.2911C53.7901 38.3578 53.5484 38.4744 53.2817 38.6411C53.0817 38.7744 52.9234 38.9161 52.8067 39.0661C52.6734 39.2494 52.5984 39.4161 52.5817 39.5661V39.7161ZM53.1067 40.6411C53.2067 40.5244 53.3484 40.3911 53.5317 40.2411C53.6484 40.1078 53.8234 40.0411 54.0567 40.0411C54.1734 40.0411 54.2734 40.0578 54.3567 40.0911C54.5067 40.1578 54.6234 40.2411 54.7067 40.3411C54.7901 40.4578 54.8651 40.5911 54.9317 40.7411C54.8817 40.7411 54.8151 40.7661 54.7317 40.8161L54.5817 40.8911C54.3817 41.0078 54.1567 41.0411 53.9067 40.9911C53.6734 40.9411 53.5401 40.8994 53.5067 40.8661C53.3567 40.7994 53.2234 40.7244 53.1067 40.6411ZM54.5567 38.9661C54.5567 39.0328 54.5734 39.1494 54.6067 39.3161L55.2067 39.1661C55.5567 39.1161 55.8651 38.9911 56.1317 38.7911C56.4317 38.5578 56.6067 38.3078 56.6567 38.0411C56.4067 37.9911 56.1401 37.9661 55.8567 37.9661C55.6401 37.9661 55.4234 38.0078 55.2067 38.0911C55.0401 38.1578 54.8984 38.2661 54.7817 38.4161C54.6484 38.5494 54.5734 38.6911 54.5567 38.8411V38.9661ZM54.9567 39.5161L55.2567 39.4661H55.4067C55.6734 39.4661 55.8817 39.5661 56.0317 39.7661C56.1984 39.9828 56.2567 40.2661 56.2067 40.6161C56.0901 40.5828 55.9567 40.5661 55.8067 40.5661C55.6401 40.5661 55.4401 40.4744 55.2067 40.2911C55.1067 40.2078 55.0067 40.1078 54.9067 39.9911C54.8067 39.8911 54.7317 39.7578 54.6817 39.5911L54.9567 39.5161ZM56.5567 39.8411C56.5567 39.6578 56.5651 39.5494 56.5817 39.5161C56.6651 39.5161 56.8484 39.5744 57.1317 39.6911C57.2484 39.7244 57.3651 39.8161 57.4817 39.9661C57.5484 40.0661 57.5984 40.1994 57.6317 40.3661V40.4661L57.5817 40.7911C57.5151 40.9411 57.4401 41.0661 57.3567 41.1661L57.0317 40.9411C56.8651 40.8244 56.7317 40.6328 56.6317 40.3661C56.5817 40.2161 56.5567 40.0411 56.5567 39.8411ZM56.6317 39.2161C56.8317 39.2661 57.0317 39.3328 57.2317 39.4161C57.5317 39.5328 57.8567 39.5828 58.2067 39.5661C58.2567 39.5661 58.4151 39.5328 58.6817 39.4661C58.8484 39.3828 58.9734 39.2911 59.0567 39.1911C58.8901 39.0578 58.6734 38.8994 58.4067 38.7161C58.2567 38.6328 58.0567 38.5578 57.8067 38.4911H57.5317L57.2567 38.5411C56.9234 38.6578 56.7151 38.8828 56.6317 39.2161ZM57.8567 41.1911C57.8567 41.1078 57.8984 40.9744 57.9817 40.7911C58.0984 40.5911 58.1817 40.4661 58.2317 40.4161C58.2817 40.4494 58.4151 40.5911 58.6317 40.8411C58.7651 41.0244 58.8317 41.2161 58.8317 41.4161L58.7817 41.6911C58.6817 41.9411 58.4651 42.1411 58.1317 42.2911C58.0984 42.1578 58.0401 42.0328 57.9567 41.9161C57.8401 41.7328 57.8067 41.4911 57.8567 41.1911ZM58.3567 43.2161C58.3567 42.9828 58.4317 42.7578 58.5817 42.5411C58.6317 42.4411 58.7317 42.3411 58.8817 42.2411C58.9651 42.1411 59.0901 42.0661 59.2567 42.0161L59.3317 42.2911C59.3651 42.3244 59.3817 42.3578 59.3817 42.3911C59.3984 42.4244 59.4067 42.4828 59.4067 42.5661C59.4234 42.5994 59.4317 42.6744 59.4317 42.7911C59.4317 43.0244 59.3484 43.2161 59.1817 43.3661L59.0317 43.5161L58.8317 43.6161C58.6984 43.6828 58.5484 43.7161 58.3817 43.7161V43.3161L58.3567 43.2161ZM58.3817 57.0161C58.3817 56.6661 58.4901 56.3828 58.7067 56.1661C58.9401 55.9328 59.2067 55.8161 59.5067 55.8161V56.4161C59.5067 56.7661 59.3984 57.0578 59.1817 57.2911C58.9484 57.5244 58.6817 57.6411 58.3817 57.6411V57.0161ZM58.3817 55.0411C58.3817 54.6911 58.4901 54.4078 58.7067 54.1911C58.9401 53.9411 59.2067 53.8161 59.5067 53.8161V54.4411C59.5067 54.7911 59.3984 55.0744 59.1817 55.2911C58.9651 55.5244 58.6984 55.6411 58.3817 55.6411V55.0411ZM58.3817 53.0411C58.3817 52.7078 58.4901 52.4328 58.7067 52.2161C58.9234 51.9828 59.1901 51.8661 59.5067 51.8661V52.4661C59.5067 52.7994 59.3984 53.0744 59.1817 53.2911C58.9651 53.5244 58.6984 53.6411 58.3817 53.6411V53.0411ZM58.3817 51.0661C58.3817 50.7161 58.4901 50.4328 58.7067 50.2161C58.9234 49.9828 59.1901 49.8661 59.5067 49.8661V50.4661C59.5067 50.7994 59.3984 51.0828 59.1817 51.3161C58.9651 51.5661 58.6984 51.6911 58.3817 51.6911V51.0661ZM58.3817 49.0911C58.3817 48.7411 58.4901 48.4494 58.7067 48.2161C58.9401 47.9828 59.2067 47.8661 59.5067 47.8661V48.4911C59.5067 48.8411 59.3984 49.1244 59.1817 49.3411C58.9484 49.5744 58.6817 49.6911 58.3817 49.6911V49.0911ZM58.3817 47.0911C58.3817 46.7411 58.4901 46.4578 58.7067 46.2411C58.9401 46.0078 59.2067 45.8911 59.5067 45.8911V46.4911C59.5067 46.8411 59.3984 47.1244 59.1817 47.3411C58.9484 47.5744 58.6817 47.6911 58.3817 47.6911V47.0911ZM58.3817 45.0911C58.3817 44.7578 58.5067 44.4828 58.7567 44.2661C59.0067 44.0161 59.2567 43.8911 59.5067 43.8911V44.4911C59.5067 44.8411 59.3984 45.1328 59.1817 45.3661C58.9484 45.5994 58.6817 45.7161 58.3817 45.7161V45.0911ZM58.4317 40.1911C58.5817 40.3411 58.7234 40.4994 58.8567 40.6661C59.0401 40.8828 59.2901 41.0744 59.6067 41.2411C59.8234 41.3244 60.0067 41.3661 60.1567 41.3661C60.2901 41.3661 60.4151 41.3411 60.5317 41.2911L60.1817 40.5911C60.0984 40.4078 59.9651 40.2578 59.7817 40.1411C59.6317 40.0244 59.4651 39.9494 59.2817 39.9161L59.1067 39.8911C59.0067 39.8911 58.9151 39.9078 58.8317 39.9411C58.6984 39.9744 58.5651 40.0578 58.4317 40.1911ZM59.6317 42.2161L59.7067 42.5161C59.7567 42.7994 59.8984 43.0744 60.1317 43.3411L60.3067 43.5161L60.5067 43.6161C60.6401 43.6828 60.7901 43.7161 60.9567 43.7161V43.1911L60.9317 43.0161C60.9317 42.8661 60.8817 42.6744 60.7817 42.4411C60.6817 42.2578 60.5651 42.1244 60.4317 42.0411C60.3151 41.9578 60.1651 41.8994 59.9817 41.8661H59.8567C59.7401 41.8661 59.6317 41.8828 59.5317 41.9161L59.6317 42.2161ZM59.8067 56.4161C59.8067 56.7328 59.9234 57.0244 60.1567 57.2911C60.3901 57.5244 60.6567 57.6411 60.9567 57.6411V57.0161C60.9567 56.6661 60.8484 56.3828 60.6317 56.1661C60.3984 55.9328 60.1234 55.8161 59.8067 55.8161V56.4161ZM59.8067 54.4411C59.8067 54.7744 59.9234 55.0578 60.1567 55.2911C60.3734 55.5244 60.6401 55.6411 60.9567 55.6411V55.0411C60.9567 54.6911 60.8484 54.4078 60.6317 54.1911C60.4151 53.9411 60.1401 53.8161 59.8067 53.8161V54.4411ZM59.8067 52.4661C59.8067 52.7828 59.9234 53.0578 60.1567 53.2911C60.3734 53.5244 60.6401 53.6411 60.9567 53.6411V53.0411C60.9567 52.7078 60.8484 52.4328 60.6317 52.2161C60.4151 51.9828 60.1401 51.8661 59.8067 51.8661V52.4661ZM59.8067 50.4661C59.8067 50.7661 59.9234 51.0494 60.1567 51.3161C60.3901 51.5661 60.6567 51.6911 60.9567 51.6911V51.0661C60.9567 50.7161 60.8484 50.4328 60.6317 50.2161C60.4151 49.9828 60.1401 49.8661 59.8067 49.8661V50.4661ZM59.8067 48.4911C59.8067 48.8244 59.9234 49.1078 60.1567 49.3411C60.3901 49.5744 60.6567 49.6911 60.9567 49.6911V49.0911C60.9567 48.7411 60.8484 48.4494 60.6317 48.2161C60.3984 47.9828 60.1234 47.8661 59.8067 47.8661V48.4911ZM59.8067 46.4911C59.8067 46.8244 59.9234 47.1078 60.1567 47.3411C60.3901 47.5744 60.6567 47.6911 60.9567 47.6911V47.0911C60.9567 46.7411 60.8484 46.4578 60.6317 46.2411C60.3984 46.0078 60.1234 45.8911 59.8067 45.8911V46.4911ZM59.8067 44.4911C59.8067 44.8078 59.9234 45.0994 60.1567 45.3661C60.3901 45.5994 60.6567 45.7161 60.9567 45.7161V45.0911C60.9567 44.7578 60.8484 44.4744 60.6317 44.2411C60.3984 44.0078 60.1234 43.8911 59.8067 43.8911V44.4911Z" fill="white"/>
<path d="M55.7028 132.416C55.3862 132.416 55.1112 132.533 54.8778 132.766C54.6612 132.983 54.5528 133.249 54.5528 133.566H55.1278C55.4612 133.566 55.7362 133.458 55.9528 133.241C56.1695 133.008 56.2778 132.733 56.2778 132.416H55.7028ZM44.4278 124.816C44.4612 125.016 44.5195 125.183 44.6028 125.316C44.6862 125.466 44.7862 125.591 44.9028 125.691C45.1195 125.824 45.3362 125.891 45.5528 125.891C45.6695 125.891 45.7528 125.883 45.8028 125.866L45.7278 125.566L45.6778 125.291C45.6612 125.108 45.6112 124.958 45.5278 124.841C45.3612 124.641 45.2612 124.524 45.2278 124.491C44.9612 124.258 44.6862 124.141 44.4028 124.141V124.491L44.4278 124.816ZM44.4528 122.766C44.4528 122.883 44.4695 123.008 44.5028 123.141C44.5528 123.291 44.6278 123.433 44.7278 123.566C44.8445 123.699 44.9695 123.791 45.1028 123.841C45.2195 123.908 45.3695 123.941 45.5528 123.941V123.641V123.341V123.216C45.5528 123.133 45.5362 123.024 45.5028 122.891C45.4862 122.741 45.4195 122.599 45.3028 122.466C45.1362 122.183 44.8945 122.016 44.5778 121.966L44.5028 122.291L44.4528 122.616V122.766ZM44.8028 126.666L44.9028 126.966C44.9862 127.166 45.0778 127.316 45.1778 127.416C45.2445 127.516 45.3778 127.616 45.5778 127.716C45.7445 127.783 45.8862 127.816 46.0028 127.816C46.1528 127.816 46.3112 127.774 46.4778 127.691L46.4028 127.541L46.3278 127.416L46.2278 127.141C46.1445 126.991 46.0612 126.858 45.9778 126.741C45.7778 126.591 45.6528 126.499 45.6028 126.466C45.4028 126.349 45.2028 126.291 45.0028 126.291C44.9528 126.291 44.8612 126.308 44.7278 126.341L44.8028 126.666ZM44.9028 120.891C44.9028 121.124 44.9445 121.316 45.0278 121.466C45.1945 121.766 45.4362 121.949 45.7528 122.016L45.8028 121.716L45.8778 121.441C45.9112 121.274 45.9278 121.158 45.9278 121.091C45.9278 120.841 45.9028 120.649 45.8528 120.516C45.7028 120.199 45.4945 119.983 45.2278 119.866L45.1528 120.016L45.1028 120.166L44.9778 120.466C44.9278 120.616 44.9028 120.758 44.9028 120.891ZM45.6778 128.666C45.7278 128.733 45.7862 128.833 45.8528 128.966C46.0528 129.299 46.3195 129.491 46.6528 129.541L46.8528 129.566C47.0862 129.566 47.3112 129.483 47.5278 129.316C47.5112 129.283 47.4862 129.249 47.4528 129.216C47.4195 129.183 47.3862 129.133 47.3528 129.066L47.2528 128.966L47.1778 128.841C47.1278 128.774 47.0695 128.716 47.0028 128.666L46.8278 128.516C46.7945 128.483 46.7612 128.458 46.7278 128.441C46.6945 128.424 46.6612 128.408 46.6278 128.391L46.4278 128.316C46.2945 128.283 46.1862 128.266 46.1028 128.266C45.8528 128.266 45.6612 128.308 45.5278 128.391L45.6778 128.666ZM45.7778 119.466C45.8278 119.616 45.9028 119.758 46.0028 119.891C46.1195 119.991 46.2362 120.083 46.3528 120.166L46.5028 119.891L46.6278 119.641C46.7112 119.491 46.7612 119.341 46.7778 119.191C46.8112 119.108 46.8195 119.024 46.8028 118.941C46.8028 118.841 46.8028 118.774 46.8028 118.741C46.7528 118.391 46.6028 118.133 46.3528 117.966L46.1528 118.216L45.9528 118.516L45.8278 118.741C45.7945 118.841 45.7778 118.924 45.7778 118.991C45.7612 119.041 45.7528 119.124 45.7528 119.241L45.7778 119.466ZM45.8528 123.941C45.8362 123.841 45.8362 123.741 45.8528 123.641V123.366C45.8528 123.216 45.8945 123.074 45.9778 122.941C46.0612 122.791 46.1612 122.683 46.2778 122.616C46.4112 122.499 46.6028 122.441 46.8528 122.441C46.9695 122.441 47.0612 122.449 47.1278 122.466L47.0778 122.691C47.0778 122.808 47.0695 122.891 47.0528 122.941C47.0195 123.108 46.9778 123.233 46.9278 123.316C46.8112 123.483 46.7195 123.583 46.6528 123.616C46.5528 123.716 46.4362 123.791 46.3028 123.841C46.1028 123.908 45.9528 123.941 45.8528 123.941ZM45.9528 125.116C45.9528 124.966 45.9612 124.858 45.9778 124.791C46.0278 124.641 46.1028 124.516 46.2028 124.416C46.4028 124.183 46.6695 124.066 47.0028 124.066V124.191L47.0278 124.316V124.566V124.666C47.0278 124.783 47.0195 124.874 47.0028 124.941C46.9362 125.108 46.8695 125.233 46.8028 125.316C46.6528 125.549 46.4112 125.708 46.0778 125.791L46.0028 125.516C46.0028 125.466 45.9862 125.374 45.9528 125.241V125.116ZM46.0778 121.791L46.1528 121.516C46.2028 121.383 46.2778 121.249 46.3778 121.116C46.4778 121.016 46.6028 120.941 46.7528 120.891C46.8862 120.841 47.0112 120.816 47.1278 120.816C47.3112 120.816 47.4695 120.849 47.6028 120.916L47.5528 121.041L47.5278 121.141L47.4278 121.366C47.3778 121.483 47.3112 121.599 47.2278 121.716C47.0445 121.849 46.9362 121.924 46.9028 121.941C46.7362 122.041 46.5278 122.091 46.2778 122.091C46.1612 122.091 46.0778 122.083 46.0278 122.066L46.0778 121.791ZM46.4028 126.591C46.4362 126.408 46.4778 126.274 46.5278 126.191C46.6778 125.924 46.9112 125.749 47.2278 125.666L47.3028 125.891L47.3778 126.141C47.4112 126.274 47.4278 126.366 47.4278 126.416C47.4278 126.549 47.3945 126.716 47.3278 126.916C47.1778 127.216 46.9778 127.433 46.7278 127.566L46.6528 127.416L46.6028 127.291L46.4778 127.041C46.4278 126.891 46.4028 126.741 46.4028 126.591ZM46.6278 120.291C46.6445 120.224 46.6862 120.141 46.7528 120.041L46.8778 119.791C47.0278 119.508 47.2695 119.341 47.6028 119.291L47.7528 119.266C47.9862 119.266 48.2112 119.349 48.4278 119.516L48.2778 119.716L48.2278 119.816L48.1528 119.941C48.1362 119.974 48.0945 120.024 48.0278 120.091L47.8778 120.216L47.7028 120.291C47.6862 120.308 47.6195 120.333 47.5028 120.366C47.4195 120.399 47.2778 120.416 47.0778 120.416C46.8778 120.383 46.7278 120.341 46.6278 120.291ZM46.7778 130.191C46.8612 130.308 47.0112 130.474 47.2278 130.691C47.3445 130.808 47.4862 130.908 47.6528 130.991C47.8362 131.041 47.9945 131.066 48.1278 131.066C48.4612 131.066 48.7278 130.924 48.9278 130.641L48.7028 130.466L48.4778 130.266C48.2112 130.049 47.9278 129.941 47.6278 129.941C47.5778 129.924 47.5362 129.924 47.5028 129.941C47.4695 129.941 47.4362 129.941 47.4028 129.941C47.3528 129.941 47.2778 129.958 47.1778 129.991C47.0112 130.024 46.8778 130.091 46.7778 130.191ZM46.9778 117.716C46.9778 117.816 46.9862 117.891 47.0028 117.941L47.0778 118.166C47.1612 118.299 47.2612 118.416 47.3778 118.516L47.7528 118.066C47.8695 117.949 47.9528 117.816 48.0028 117.666C48.0862 117.516 48.1278 117.333 48.1278 117.116C48.1278 116.816 48.0362 116.566 47.8528 116.366L47.6028 116.566L47.3778 116.816C47.1112 117.066 46.9778 117.366 46.9778 117.716ZM47.2278 128.041C47.2278 127.941 47.2362 127.866 47.2528 127.816C47.3028 127.683 47.3778 127.558 47.4778 127.441C47.5612 127.341 47.6778 127.249 47.8278 127.166C47.8612 127.233 47.9028 127.299 47.9528 127.366C47.9695 127.416 48.0112 127.491 48.0778 127.591C48.1778 127.758 48.2278 127.949 48.2278 128.166C48.2278 128.549 48.0695 128.866 47.7528 129.116L47.5778 128.891L47.4778 128.791L47.4028 128.666C47.3695 128.633 47.3362 128.566 47.3028 128.466C47.2862 128.449 47.2612 128.383 47.2278 128.266V128.041ZM47.9778 118.266C48.0612 118.166 48.1862 118.074 48.3528 117.991C48.4862 117.958 48.5862 117.941 48.6528 117.941C49.0028 117.941 49.3028 118.083 49.5528 118.366L49.3528 118.516C49.2362 118.633 49.1778 118.691 49.1778 118.691C48.9612 118.874 48.7195 118.966 48.4528 118.966H48.2278L48.0278 118.916C47.8612 118.866 47.7195 118.791 47.6028 118.691L47.9778 118.266ZM48.3278 129.266C48.3278 129.199 48.3445 129.133 48.3778 129.066L48.4528 128.841C48.5362 128.708 48.6362 128.591 48.7528 128.491C48.8862 128.658 48.9945 128.783 49.0778 128.866C49.1778 128.949 49.2445 129.058 49.2778 129.191C49.3112 129.291 49.3445 129.424 49.3778 129.591C49.3778 129.908 49.2862 130.183 49.1028 130.416L48.8778 130.241L48.6778 130.066C48.4445 129.849 48.3278 129.583 48.3278 129.266ZM48.6528 131.891L48.9278 132.066C49.1278 132.199 49.3612 132.266 49.6278 132.266C49.7612 132.266 49.8612 132.258 49.9278 132.241L50.1278 132.141C50.1445 132.141 50.2112 132.099 50.3278 132.016C50.4445 131.899 50.5362 131.774 50.6028 131.641C50.4862 131.591 50.3862 131.549 50.3028 131.516C50.2195 131.466 50.1445 131.424 50.0778 131.391C49.9278 131.308 49.7778 131.258 49.6278 131.241C49.4778 131.224 49.3195 131.224 49.1528 131.241C48.8362 131.308 48.5778 131.458 48.3778 131.691L48.6528 131.891ZM48.5028 116.441C48.5028 116.691 48.5862 116.924 48.7528 117.141L48.9778 116.941L49.2278 116.791C49.4778 116.591 49.6528 116.341 49.7528 116.041C49.7862 115.941 49.8028 115.866 49.8028 115.816C49.8028 115.783 49.8028 115.749 49.8028 115.716C49.8195 115.683 49.8195 115.641 49.8028 115.591C49.8028 115.424 49.7695 115.274 49.7028 115.141C49.4362 115.274 49.2362 115.383 49.1028 115.466C48.9695 115.549 48.8445 115.666 48.7278 115.816C48.6112 115.983 48.5445 116.133 48.5278 116.266L48.5028 116.441ZM49.1528 117.191C49.2028 117.141 49.2778 117.083 49.3778 117.016C49.5445 116.899 49.7278 116.841 49.9278 116.841C49.9945 116.841 50.0945 116.858 50.2278 116.891L50.4278 116.966L50.6028 117.091C50.7028 117.174 50.7945 117.299 50.8778 117.466L50.4528 117.691C50.3362 117.774 50.2112 117.816 50.0778 117.816L49.8778 117.841C49.4945 117.841 49.1778 117.683 48.9278 117.366L49.1528 117.191ZM49.6778 130.266C49.6778 130.033 49.7612 129.808 49.9278 129.591L50.1278 129.741C50.2112 129.758 50.2778 129.799 50.3278 129.866C50.5445 130.016 50.6945 130.233 50.7778 130.516L50.8278 130.716V130.941C50.8278 131.041 50.7945 131.191 50.7278 131.391L50.2028 131.141C50.0862 131.074 49.9778 130.974 49.8778 130.841C49.7945 130.741 49.7362 130.608 49.7028 130.441L49.6778 130.266ZM50.6028 132.916L50.9278 133.041C51.0945 133.074 51.2195 133.091 51.3028 133.091C51.5862 133.091 51.7862 133.049 51.9028 132.966C52.1862 132.816 52.3695 132.574 52.4528 132.241C52.3195 132.208 52.2195 132.191 52.1528 132.191L52.0028 132.141L51.8778 132.116C51.7612 132.083 51.6028 132.066 51.4028 132.066C51.3028 132.066 51.1528 132.099 50.9528 132.166C50.6362 132.316 50.4195 132.524 50.3028 132.791L50.6028 132.916ZM50.6528 115.966L50.7778 115.916L50.9278 115.841C51.0278 115.808 51.0945 115.774 51.1278 115.741L51.3278 115.616C51.4445 115.499 51.5362 115.374 51.6028 115.241C51.7195 115.074 51.7778 114.874 51.7778 114.641C51.7778 114.524 51.7695 114.433 51.7528 114.366L51.4278 114.441C51.3612 114.474 51.2612 114.508 51.1278 114.541C50.8945 114.641 50.7362 114.733 50.6528 114.816C50.5195 114.933 50.4278 115.058 50.3778 115.191C50.3112 115.324 50.2778 115.466 50.2778 115.616C50.2778 115.799 50.3112 115.958 50.3778 116.091L50.6528 115.966ZM50.7778 116.241L50.9028 116.166C50.9195 116.166 50.9612 116.149 51.0278 116.116C51.1278 116.083 51.2028 116.066 51.2528 116.066C51.3028 116.049 51.3778 116.041 51.4778 116.041C51.6112 116.058 51.7445 116.108 51.8778 116.191C52.1445 116.324 52.3195 116.558 52.4028 116.891L52.1528 116.966L51.9278 117.016C51.7945 117.049 51.6945 117.066 51.6278 117.066C51.4445 117.066 51.2862 117.033 51.1528 116.966C50.8528 116.816 50.6362 116.608 50.5028 116.341L50.7778 116.241ZM51.3028 131.266C51.2528 131.133 51.2278 130.999 51.2278 130.866C51.2278 130.683 51.2612 130.524 51.3278 130.391C51.4278 130.424 51.5028 130.458 51.5528 130.491L51.7778 130.566C51.8945 130.616 52.0112 130.683 52.1278 130.766C52.2278 130.849 52.3112 130.958 52.3778 131.091C52.5112 131.358 52.5528 131.649 52.5028 131.966L52.2278 131.891L52.0778 131.866L51.9528 131.841C51.7862 131.774 51.6528 131.699 51.5528 131.616C51.4362 131.499 51.3528 131.383 51.3028 131.266ZM52.5778 125.816C52.8945 125.816 53.1695 125.699 53.4028 125.466C53.6362 125.233 53.7528 124.958 53.7528 124.641H53.1528C52.8362 124.641 52.5612 124.758 52.3278 124.991C52.0945 125.208 51.9778 125.483 51.9778 125.816H52.5778ZM52.5778 123.191C52.8945 123.191 53.1695 123.308 53.4028 123.541C53.6362 123.774 53.7528 124.049 53.7528 124.366H53.1528C52.8362 124.366 52.5612 124.249 52.3278 124.016C52.0945 123.783 51.9778 123.508 51.9778 123.191H52.5778ZM52.2028 115.441C52.3362 115.408 52.5362 115.374 52.8028 115.341C52.9695 115.308 53.1112 115.258 53.2278 115.191C53.3778 115.108 53.5028 115.008 53.6028 114.891C53.8362 114.658 53.9528 114.383 53.9528 114.066C53.8028 114.066 53.6862 114.074 53.6028 114.091L53.2778 114.116C52.9112 114.133 52.6195 114.283 52.4028 114.566C52.3195 114.683 52.2778 114.749 52.2778 114.766L52.2028 114.991C52.1862 115.141 52.1862 115.291 52.2028 115.441ZM52.8278 115.616H52.9778C53.1112 115.616 53.2112 115.624 53.2778 115.641C53.4278 115.691 53.5528 115.766 53.6528 115.866C53.7862 115.983 53.8695 116.108 53.9028 116.241C53.9695 116.408 54.0028 116.558 54.0028 116.691H53.7528L53.5028 116.716H53.4278C53.1945 116.716 52.9695 116.633 52.7528 116.466L52.6028 116.316L52.4528 116.141C52.3528 115.974 52.2945 115.833 52.2778 115.716L52.8278 115.616ZM52.4028 133.416C52.5528 133.449 52.7778 133.483 53.0778 133.516H53.2278C53.3112 133.516 53.4362 133.499 53.6028 133.466C53.7695 133.416 53.9112 133.341 54.0278 133.241C54.1445 133.158 54.2278 133.033 54.2778 132.866C54.3445 132.733 54.3778 132.583 54.3778 132.416H53.7778H53.5528C53.5028 132.416 53.4278 132.433 53.3278 132.466C53.1278 132.533 52.9862 132.599 52.9028 132.666C52.7695 132.766 52.6695 132.874 52.6028 132.991C52.5362 133.074 52.4695 133.216 52.4028 133.416ZM52.8778 131.316C52.8612 131.166 52.8612 131.008 52.8778 130.841C52.9445 130.858 53.0278 130.874 53.1278 130.891C53.2278 130.908 53.3028 130.916 53.3528 130.916C53.5362 130.949 53.6612 130.991 53.7278 131.041C53.8612 131.108 53.9695 131.191 54.0528 131.291C54.0862 131.341 54.1195 131.399 54.1528 131.466C54.2028 131.516 54.2445 131.583 54.2778 131.666C54.3445 131.799 54.3778 131.949 54.3778 132.116H53.8028L53.5778 132.091C53.4778 132.058 53.4112 132.024 53.3778 131.991C53.2445 131.924 53.1362 131.833 53.0528 131.716C52.9695 131.599 52.9112 131.466 52.8778 131.316ZM53.8778 125.816C54.0612 125.816 54.2028 125.824 54.3028 125.841L54.4278 125.866C54.5945 125.866 54.7695 125.799 54.9528 125.666C55.2362 125.516 55.4362 125.308 55.5528 125.041C55.3195 124.941 55.1445 124.874 55.0278 124.841C54.8945 124.808 54.8028 124.791 54.7528 124.791C54.5362 124.791 54.3528 124.866 54.2028 125.016C54.1028 125.116 54.0278 125.233 53.9778 125.366C53.9445 125.466 53.9112 125.616 53.8778 125.816ZM53.9528 123.191C54.1195 123.191 54.2612 123.199 54.3778 123.216C54.5112 123.233 54.6195 123.249 54.7028 123.266C55.1528 123.349 55.4695 123.549 55.6528 123.866C55.7362 124.033 55.7778 124.183 55.7778 124.316C55.7778 124.483 55.7445 124.633 55.6778 124.766L55.1278 124.541C54.8445 124.474 54.5695 124.308 54.3028 124.041C54.1695 123.874 54.0862 123.741 54.0528 123.641C53.9862 123.524 53.9528 123.374 53.9528 123.191ZM54.8778 115.516C55.1945 115.516 55.4612 115.633 55.6778 115.866C55.8945 116.083 56.0028 116.349 56.0028 116.666H55.4528C55.1362 116.666 54.8612 116.558 54.6278 116.341C54.4112 116.108 54.3028 115.833 54.3028 115.516H54.8778ZM54.8778 115.216C55.1945 115.216 55.4612 115.108 55.6778 114.891C55.8945 114.658 56.0028 114.383 56.0028 114.066H55.4528C55.1362 114.066 54.8612 114.183 54.6278 114.416C54.4112 114.633 54.3028 114.899 54.3028 115.216H54.8778ZM55.1278 130.966C55.4445 130.966 55.7112 131.083 55.9278 131.316C56.1612 131.533 56.2778 131.799 56.2778 132.116H55.7028C55.3862 132.116 55.1112 132.008 54.8778 131.791C54.6612 131.558 54.5528 131.283 54.5528 130.966H55.1278ZM55.5028 126.341C55.6695 126.474 55.9028 126.524 56.2028 126.491C56.3528 126.491 56.4862 126.466 56.6028 126.416C56.7362 126.366 56.8695 126.291 57.0028 126.191C56.8862 126.024 56.7612 125.883 56.6278 125.766C56.4778 125.616 56.2862 125.541 56.0528 125.541C55.9362 125.541 55.8528 125.549 55.8028 125.566C55.5528 125.633 55.3445 125.824 55.1778 126.141L55.5028 126.341ZM56.4028 127.341C56.5028 127.541 56.6778 127.691 56.9278 127.791C57.1612 127.858 57.3612 127.891 57.5278 127.891C57.6445 127.891 57.7362 127.883 57.8028 127.866L57.6528 127.316C57.5195 126.999 57.3028 126.816 57.0028 126.766L56.8528 126.741C56.6195 126.741 56.3945 126.833 56.1778 127.016L56.4028 127.341ZM56.7528 115.516C57.0528 115.516 57.3112 115.633 57.5278 115.866C57.7612 116.083 57.8778 116.349 57.8778 116.666H57.3028C56.9862 116.666 56.7195 116.558 56.5028 116.341C56.2862 116.108 56.1778 115.833 56.1778 115.516H56.7528ZM56.7528 115.216C57.0528 115.216 57.3112 115.108 57.5278 114.891C57.7612 114.658 57.8778 114.383 57.8778 114.066H57.3028C56.9862 114.066 56.7195 114.183 56.5028 114.416C56.2862 114.633 56.1778 114.899 56.1778 115.216H56.7528ZM56.3278 124.741C56.2945 124.541 56.2778 124.399 56.2778 124.316C56.2778 124.116 56.3112 123.949 56.3778 123.816C56.5945 123.933 56.8112 124.074 57.0278 124.241C57.2112 124.358 57.3528 124.508 57.4528 124.691C57.5528 124.874 57.6028 125.058 57.6028 125.241C57.6028 125.558 57.4778 125.816 57.2278 126.016C57.0945 125.816 56.9612 125.666 56.8278 125.566C56.6112 125.366 56.4445 125.091 56.3278 124.741ZM56.7028 128.216C56.7028 128.316 56.7112 128.383 56.7278 128.416V128.641V128.716C56.7445 128.733 56.7528 128.766 56.7528 128.816L56.8278 129.041C56.8778 129.158 56.9612 129.283 57.0778 129.416C57.2778 129.649 57.5528 129.766 57.9028 129.766V129.166C57.9028 129.066 57.8695 128.916 57.8028 128.716L57.7028 128.541L57.5278 128.391C57.3112 128.224 57.0362 128.166 56.7028 128.216ZM56.7278 132.466C56.7278 132.783 56.8445 133.058 57.0778 133.291C57.3112 133.524 57.5862 133.641 57.9028 133.641V133.066C57.9028 132.733 57.7862 132.458 57.5528 132.241C57.3362 132.008 57.0612 131.891 56.7278 131.891V132.466ZM56.7278 130.541C56.7278 130.858 56.8445 131.133 57.0778 131.366C57.3112 131.583 57.5862 131.691 57.9028 131.691V131.116C57.9028 130.783 57.7862 130.508 57.5528 130.291C57.3362 130.058 57.0612 129.941 56.7278 129.941V130.541ZM57.8278 126.266C57.9278 125.899 58.0778 125.633 58.2778 125.466C58.4445 125.683 58.5862 125.899 58.7028 126.116C58.8028 126.316 58.8528 126.533 58.8528 126.766C58.8528 126.933 58.8278 127.083 58.7778 127.216C58.6445 127.549 58.4112 127.741 58.0778 127.791C58.0612 127.674 58.0362 127.566 58.0028 127.466C57.9695 127.366 57.9445 127.283 57.9278 127.216C57.8112 126.933 57.7778 126.616 57.8278 126.266ZM58.1778 133.066C58.1778 132.733 58.2945 132.458 58.5278 132.241C58.7612 132.008 59.0362 131.891 59.3528 131.891V132.466C59.3528 132.783 59.2362 133.058 59.0028 133.291C58.7862 133.524 58.5112 133.641 58.1778 133.641V133.066ZM58.1778 131.116C58.1778 130.783 58.2945 130.508 58.5278 130.291C58.7612 130.058 59.0362 129.941 59.3528 129.941V130.541C59.3528 130.858 59.2362 131.133 59.0028 131.366C58.7695 131.583 58.4945 131.691 58.1778 131.691V131.116ZM58.1778 129.166C58.1778 129.066 58.2112 128.916 58.2778 128.716C58.3112 128.616 58.3445 128.549 58.3778 128.516C58.3945 128.483 58.4112 128.449 58.4278 128.416C58.4445 128.383 58.4695 128.349 58.5028 128.316C58.5862 128.183 58.6945 128.066 58.8278 127.966C58.9945 127.866 59.1362 127.808 59.2528 127.791L59.3278 128.166C59.3278 128.333 59.3362 128.458 59.3528 128.541C59.3528 128.624 59.3445 128.683 59.3278 128.716V128.816L59.2528 129.041C59.2195 129.158 59.1362 129.283 59.0028 129.416C58.8028 129.649 58.5278 129.766 58.1778 129.766V129.166Z" fill="white"/>
<path d="M111.828 56.4911C111.495 56.4911 111.211 56.6078 110.978 56.8411C110.745 57.0578 110.628 57.3244 110.628 57.6411H111.228C111.561 57.6411 111.845 57.5328 112.078 57.3161C112.311 57.0828 112.428 56.8078 112.428 56.4911H111.828ZM101.703 52.2411C101.703 52.5078 101.728 52.7661 101.778 53.0161C101.811 53.2328 101.878 53.4244 101.978 53.5911C102.095 53.7578 102.228 53.8828 102.378 53.9661C102.478 54.0328 102.553 54.0744 102.603 54.0911L102.853 54.1161C103.02 54.1161 103.17 54.0828 103.303 54.0161C103.236 53.8994 103.153 53.7078 103.053 53.4411C102.953 53.1244 102.786 52.8494 102.553 52.6161C102.386 52.4828 102.253 52.3911 102.153 52.3411C102.036 52.2744 101.886 52.2411 101.703 52.2411ZM101.703 44.0161C101.736 44.4494 101.903 44.7744 102.203 44.9911C102.386 45.1244 102.578 45.1911 102.778 45.1911C102.895 45.1911 103.003 45.1661 103.103 45.1161C103.053 44.9661 103.02 44.8744 103.003 44.8411C103.003 44.7911 102.995 44.7411 102.978 44.6911C102.961 44.6411 102.953 44.5911 102.953 44.5411C102.886 44.2411 102.745 43.9578 102.528 43.6911C102.428 43.5911 102.303 43.4911 102.153 43.3911C102.02 43.3078 101.878 43.2661 101.728 43.2661C101.711 43.4328 101.703 43.6828 101.703 44.0161ZM101.953 50.4411C101.903 50.5911 101.878 50.7411 101.878 50.8911C101.878 51.1411 101.945 51.3744 102.078 51.5911C102.161 51.7244 102.27 51.8328 102.403 51.9161C102.536 51.9828 102.686 52.0161 102.853 52.0161C102.853 51.8161 102.878 51.6161 102.928 51.4161C102.945 51.3494 102.953 51.2578 102.953 51.1411C102.953 50.9244 102.911 50.6911 102.828 50.4411C102.795 50.3411 102.761 50.2661 102.728 50.2161C102.728 50.1994 102.686 50.1328 102.603 50.0161C102.486 49.8828 102.37 49.7828 102.253 49.7161C102.12 49.9828 102.02 50.2244 101.953 50.4411ZM102.078 45.7161C102.145 45.8828 102.261 46.1161 102.428 46.4161C102.528 46.5828 102.653 46.7244 102.803 46.8411C102.97 46.9578 103.136 47.0328 103.303 47.0661L103.503 47.0911C103.553 47.0911 103.645 47.0744 103.778 47.0411C103.911 46.9911 104.036 46.9078 104.153 46.7911L103.753 46.3411C103.57 46.0911 103.32 45.8994 103.003 45.7661L102.778 45.6911C102.728 45.6744 102.653 45.6661 102.553 45.6661H102.428C102.328 45.6661 102.211 45.6828 102.078 45.7161ZM102.128 41.5661C102.045 41.7661 102.003 41.9411 102.003 42.0911C102.003 42.3244 102.053 42.5161 102.153 42.6661C102.303 42.9661 102.553 43.1328 102.903 43.1661C102.903 43.0328 102.936 42.8328 103.003 42.5661C103.036 42.3661 103.053 42.2244 103.053 42.1411C103.053 41.9578 103.028 41.7911 102.978 41.6411C102.895 41.2911 102.72 41.0411 102.453 40.8911C102.353 41.0578 102.245 41.2828 102.128 41.5661ZM102.353 54.7411C102.47 54.9578 102.611 55.1744 102.778 55.3911C102.911 55.5744 103.07 55.7161 103.253 55.8161C103.436 55.9161 103.628 55.9661 103.828 55.9661C104.128 55.9661 104.378 55.8411 104.578 55.5911C104.278 55.3411 104.12 55.2078 104.103 55.1911C103.87 54.9411 103.595 54.7744 103.278 54.6911C103.128 54.6411 102.97 54.6161 102.803 54.6161C102.67 54.6161 102.52 54.6578 102.353 54.7411ZM102.878 49.2161C102.878 49.3661 102.928 49.5411 103.028 49.7411C103.128 49.8911 103.245 49.9994 103.378 50.0661C103.495 49.8328 103.603 49.6578 103.703 49.5411C103.903 49.2744 104.028 48.9661 104.078 48.6161V48.4411C104.078 48.1578 104.011 47.9161 103.878 47.7161L103.278 48.2411C103.011 48.5244 102.878 48.8494 102.878 49.2161ZM103.103 40.5161C103.103 40.6661 103.145 40.8244 103.228 40.9911L103.553 41.3161L103.728 41.0661L103.928 40.8411C104.111 40.6078 104.245 40.3244 104.328 39.9911C104.345 39.8244 104.345 39.6661 104.328 39.5161C104.311 39.3661 104.261 39.2161 104.178 39.0661C103.928 39.2328 103.728 39.3911 103.578 39.5411C103.261 39.8078 103.103 40.1328 103.103 40.5161ZM103.153 52.0411C103.153 51.8911 103.17 51.6994 103.203 51.4661C103.22 51.3161 103.278 51.1828 103.378 51.0661C103.478 50.9328 103.595 50.8411 103.728 50.7911C103.828 50.7578 103.903 50.7411 103.953 50.7411C103.986 50.7244 104.053 50.7161 104.153 50.7161C104.303 50.7328 104.453 50.7828 104.603 50.8661C104.536 50.9828 104.486 51.1078 104.453 51.2411C104.386 51.4411 104.228 51.6244 103.978 51.7911C103.778 51.8911 103.653 51.9494 103.603 51.9661C103.486 52.0161 103.336 52.0411 103.153 52.0411ZM103.178 43.1911C103.211 42.9578 103.245 42.7744 103.278 42.6411C103.311 42.4911 103.378 42.3661 103.478 42.2661C103.595 42.1494 103.72 42.0744 103.853 42.0411C103.903 42.0244 103.978 42.0161 104.078 42.0161C104.278 42.0161 104.486 42.0828 104.703 42.2161L104.528 42.5661C104.461 42.7494 104.295 42.9078 104.028 43.0411C103.711 43.1744 103.428 43.2244 103.178 43.1911ZM103.203 44.3411C103.203 44.0911 103.295 43.8744 103.478 43.6911C103.561 43.6244 103.686 43.5578 103.853 43.4911C104.053 43.4578 104.211 43.4494 104.328 43.4661C104.311 43.5828 104.311 43.7161 104.328 43.8661C104.328 44.0494 104.245 44.2661 104.078 44.5161C104.011 44.6161 103.911 44.7161 103.778 44.8161C103.611 44.9161 103.478 44.9828 103.378 45.0161L103.303 44.7661L103.228 44.4911L103.203 44.3411ZM103.328 53.3411C103.311 53.2911 103.303 53.2078 103.303 53.0911C103.303 52.8744 103.37 52.6828 103.503 52.5161C103.62 52.3994 103.736 52.3161 103.853 52.2661C104.003 52.2161 104.153 52.1911 104.303 52.1911C104.303 52.2911 104.32 52.4244 104.353 52.5911V52.6911C104.353 52.9078 104.295 53.1078 104.178 53.2911C104.161 53.3078 104.145 53.3328 104.128 53.3661C104.111 53.3828 104.095 53.4161 104.078 53.4661L103.928 53.6161C103.811 53.7328 103.686 53.8244 103.553 53.8911L103.328 53.3411ZM103.628 50.1911C103.728 50.0078 103.836 49.8494 103.953 49.7161C104.02 49.5994 104.12 49.5078 104.253 49.4411C104.386 49.3744 104.52 49.3411 104.653 49.3411C104.97 49.3411 105.236 49.4911 105.453 49.7911L105.153 50.0661C105.003 50.2161 104.786 50.3078 104.503 50.3411C104.37 50.3578 104.228 50.3578 104.078 50.3411C103.928 50.3078 103.778 50.2578 103.628 50.1911ZM103.953 41.2411C104.003 41.1911 104.061 41.1161 104.128 41.0161C104.228 40.8994 104.353 40.8161 104.503 40.7661C104.653 40.7161 104.795 40.7078 104.928 40.7411C105.095 40.7744 105.22 40.8328 105.303 40.9161C105.386 40.9661 105.495 41.0744 105.628 41.2411C105.511 41.3078 105.403 41.3911 105.303 41.4911C105.153 41.6244 104.936 41.6911 104.653 41.6911C104.47 41.6911 104.328 41.6744 104.228 41.6411C104.061 41.6078 103.92 41.5494 103.803 41.4661L103.953 41.2411ZM103.978 45.1411L104.128 44.9911C104.211 44.9078 104.336 44.8328 104.503 44.7661L104.678 45.1161C104.745 45.2328 104.778 45.3661 104.778 45.5161C104.778 45.6328 104.77 45.7244 104.753 45.7911C104.703 46.0911 104.57 46.3578 104.353 46.5911C104.136 46.3244 104.02 46.1828 104.003 46.1661C103.886 46.0328 103.828 45.8578 103.828 45.6411C103.828 45.5744 103.845 45.4744 103.878 45.3411L103.978 45.1411ZM104.078 56.6661C104.245 56.7828 104.47 56.9161 104.753 57.0661C104.953 57.1661 105.17 57.2161 105.403 57.2161C105.57 57.2161 105.728 57.1911 105.878 57.1411C106.028 57.0578 106.153 56.9578 106.253 56.8411C106.37 56.7078 106.436 56.5661 106.453 56.4161L106.153 56.3411L105.853 56.2661C105.653 56.1994 105.436 56.1661 105.203 56.1661C105.053 56.1661 104.945 56.1744 104.878 56.1911C104.495 56.2744 104.228 56.4328 104.078 56.6661ZM104.103 54.1661C104.12 54.0328 104.186 53.8994 104.303 53.7661C104.436 53.6328 104.553 53.5411 104.653 53.4911L104.878 53.8411C104.995 54.0244 105.053 54.2578 105.053 54.5411C105.02 54.8744 104.92 55.1494 104.753 55.3661L104.328 54.9911C104.161 54.8078 104.078 54.5994 104.078 54.3661C104.078 54.2828 104.086 54.2161 104.103 54.1661ZM104.628 47.6411C104.578 47.7578 104.553 47.8744 104.553 47.9911C104.553 48.1578 104.611 48.3411 104.728 48.5411C104.878 48.4244 105.061 48.3161 105.278 48.2161C105.578 48.0661 105.82 47.8494 106.003 47.5661C106.07 47.4828 106.136 47.3411 106.203 47.1411C106.27 46.9578 106.278 46.8078 106.228 46.6911L105.853 46.7661C105.77 46.7828 105.645 46.8244 105.478 46.8911C105.061 47.0078 104.778 47.2578 104.628 47.6411ZM104.828 39.5161C104.828 39.6661 104.878 39.8078 104.978 39.9411C105.211 39.8078 105.386 39.7161 105.503 39.6661C105.803 39.5328 106.053 39.3328 106.253 39.0661C106.353 38.8994 106.42 38.7661 106.453 38.6661C106.503 38.4994 106.52 38.3411 106.503 38.1911L105.753 38.3411C105.353 38.4578 105.07 38.6911 104.903 39.0411L104.828 39.2661V39.5161ZM104.903 48.7661C105.07 48.6494 105.236 48.5578 105.403 48.4911C105.52 48.4244 105.653 48.3911 105.803 48.3911C105.97 48.3911 106.12 48.4328 106.253 48.5161C106.386 48.5828 106.486 48.6828 106.553 48.8161C106.636 48.9328 106.686 49.0828 106.703 49.2661L106.503 49.2911L106.303 49.3661C106.253 49.3828 106.178 49.3911 106.078 49.3911C105.911 49.3911 105.753 49.3578 105.603 49.2911C105.303 49.2078 105.07 49.0328 104.903 48.7661ZM105.128 40.1911C105.228 40.1244 105.395 40.0411 105.628 39.9411C105.728 39.8911 105.836 39.8661 105.953 39.8661C106.17 39.8661 106.336 39.9161 106.453 40.0161C106.586 40.1494 106.678 40.2578 106.728 40.3411C106.795 40.5411 106.836 40.6911 106.853 40.7911L106.453 40.8661C106.403 40.8828 106.336 40.8911 106.253 40.8911C106.103 40.8911 105.945 40.8494 105.778 40.7661C105.711 40.7328 105.653 40.6994 105.603 40.6661L105.428 40.5411C105.311 40.4411 105.211 40.3244 105.128 40.1911ZM105.328 55.1911C105.328 54.9411 105.403 54.7161 105.553 54.5161C105.72 54.6161 105.845 54.6828 105.928 54.7161C106.128 54.8494 106.278 55.0328 106.378 55.2661C106.445 55.4328 106.486 55.5661 106.503 55.6661C106.52 55.8161 106.52 55.9744 106.503 56.1411L106.203 56.0661L105.928 55.9911C105.628 55.8911 105.436 55.6828 105.353 55.3661L105.328 55.1911ZM106.678 57.6161L106.853 57.6411H107.053H107.253C107.586 57.6411 107.87 57.5328 108.103 57.3161C108.336 57.0828 108.453 56.8078 108.453 56.4911H107.853C107.67 56.4911 107.511 56.5244 107.378 56.5911L107.178 56.6911C107.111 56.7078 107.045 56.7494 106.978 56.8161C106.695 57.0494 106.528 57.3078 106.478 57.5911L106.678 57.6161ZM106.628 47.7911C106.761 47.7744 106.97 47.7661 107.253 47.7661C107.586 47.7661 107.87 47.6578 108.103 47.4411C108.336 47.2078 108.453 46.9244 108.453 46.5911H107.853C107.57 46.5911 107.27 46.7078 106.953 46.9411C106.82 47.0578 106.728 47.1911 106.678 47.3411C106.628 47.4911 106.611 47.6411 106.628 47.7911ZM106.678 48.0911C106.911 48.0578 107.103 48.0411 107.253 48.0411C107.586 48.0411 107.87 48.1578 108.103 48.3911C108.336 48.6078 108.453 48.8828 108.453 49.2161H107.853C107.686 49.2161 107.528 49.1828 107.378 49.1161C107.245 49.0494 107.136 48.9661 107.053 48.8661C106.82 48.5994 106.695 48.3411 106.678 48.0911ZM106.928 55.0161L107.028 55.0411H107.128H107.178H107.253C107.586 55.0411 107.87 55.1578 108.103 55.3911C108.336 55.6078 108.453 55.8744 108.453 56.1911H107.853C107.686 56.1911 107.528 56.1661 107.378 56.1161C107.345 56.0994 107.311 56.0828 107.278 56.0661C107.245 56.0494 107.211 56.0244 107.178 55.9911C107.128 55.9578 107.078 55.9078 107.028 55.8411C106.845 55.6244 106.778 55.3494 106.828 55.0161H106.928ZM106.978 39.3161H107.128H107.428C107.745 39.3161 108.02 39.2078 108.253 38.9911C108.486 38.7578 108.603 38.4828 108.603 38.1661H108.003C107.853 38.1661 107.703 38.1911 107.553 38.2411L107.353 38.3411L107.278 38.4161L107.228 38.4661L107.178 38.4911C106.911 38.7244 106.795 39.0078 106.828 39.3411L106.978 39.3161ZM107.153 39.6161C107.203 39.5994 107.253 39.5994 107.303 39.6161C107.353 39.6161 107.395 39.6161 107.428 39.6161C107.761 39.6161 108.036 39.7328 108.253 39.9661C108.486 40.1828 108.603 40.4494 108.603 40.7661H108.003C107.836 40.7661 107.686 40.7328 107.553 40.6661L107.353 40.5661L107.278 40.4911L107.228 40.4661L107.203 40.4161C107.02 40.1994 106.903 39.9328 106.853 39.6161H107.153ZM109.228 57.6411C109.561 57.6411 109.845 57.5328 110.078 57.3161C110.328 57.0828 110.453 56.8078 110.453 56.4911H109.828C109.495 56.4911 109.211 56.6078 108.978 56.8411C108.745 57.0578 108.628 57.3244 108.628 57.6411H109.228ZM109.228 55.0411C109.561 55.0411 109.845 55.1578 110.078 55.3911C110.328 55.6078 110.453 55.8744 110.453 56.1911H109.828C109.495 56.1911 109.211 56.0828 108.978 55.8661C108.745 55.6328 108.628 55.3578 108.628 55.0411H109.228ZM109.228 48.0411C109.561 48.0411 109.845 48.1578 110.078 48.3911C110.328 48.6244 110.453 48.8994 110.453 49.2161H109.828C109.495 49.2161 109.211 49.0994 108.978 48.8661C108.745 48.6328 108.628 48.3578 108.628 48.0411H109.228ZM109.228 47.7661C109.561 47.7661 109.845 47.6494 110.078 47.4161C110.328 47.1828 110.453 46.9078 110.453 46.5911H109.828C109.495 46.5911 109.211 46.7078 108.978 46.9411C108.745 47.1744 108.628 47.4494 108.628 47.7661H109.228ZM109.353 39.6161C109.686 39.6161 109.961 39.7328 110.178 39.9661C110.411 40.1828 110.528 40.4494 110.528 40.7661H109.928C109.611 40.7661 109.336 40.6578 109.103 40.4411C108.886 40.2078 108.778 39.9328 108.778 39.6161H109.353ZM109.353 39.3161C109.67 39.3161 109.945 39.2078 110.178 38.9911C110.411 38.7578 110.528 38.4828 110.528 38.1661H109.928C109.611 38.1661 109.336 38.2828 109.103 38.5161C108.886 38.7328 108.778 38.9994 108.778 39.3161H109.353ZM111.228 55.0411C111.561 55.0411 111.845 55.1578 112.078 55.3911C112.311 55.6078 112.428 55.8744 112.428 56.1911H111.828C111.495 56.1911 111.211 56.0828 110.978 55.8661C110.745 55.6328 110.628 55.3578 110.628 55.0411H111.228ZM111.228 48.0411C111.561 48.0411 111.845 48.1578 112.078 48.3911C112.311 48.6078 112.428 48.8828 112.428 49.2161H111.828C111.495 49.2161 111.211 49.1078 110.978 48.8911C110.745 48.6578 110.628 48.3744 110.628 48.0411H111.228ZM111.228 47.7661C111.561 47.7661 111.845 47.6578 112.078 47.4411C112.311 47.2078 112.428 46.9244 112.428 46.5911H111.828C111.495 46.5911 111.211 46.7078 110.978 46.9411C110.745 47.1578 110.628 47.4328 110.628 47.7661H111.228ZM111.278 39.6161C111.595 39.6161 111.861 39.7328 112.078 39.9661C112.311 40.1828 112.428 40.4494 112.428 40.7661H111.853C111.536 40.7661 111.261 40.6578 111.028 40.4411C110.811 40.2078 110.703 39.9328 110.703 39.6161H111.278ZM111.278 39.3161C111.595 39.3161 111.861 39.2078 112.078 38.9911C112.311 38.7578 112.428 38.4828 112.428 38.1661H111.853C111.536 38.1661 111.261 38.2744 111.028 38.4911C110.811 38.7078 110.703 38.9828 110.703 39.3161H111.278Z" fill="white"/>
<path d="M110.307 122.841C110.391 122.791 110.457 122.724 110.507 122.641L110.707 122.416C110.907 122.166 111.157 121.991 111.457 121.891C111.607 121.841 111.749 121.816 111.882 121.816C112.082 121.816 112.249 121.849 112.382 121.916L112.207 122.241L112.032 122.541C111.916 122.741 111.766 122.891 111.582 122.991C111.399 123.091 111.207 123.141 111.007 123.141C110.724 123.141 110.491 123.041 110.307 122.841ZM101.532 132.391C101.532 132.724 101.649 133.008 101.882 133.241C102.116 133.474 102.391 133.591 102.707 133.591V132.991C102.707 132.658 102.591 132.374 102.357 132.141C102.141 131.908 101.866 131.791 101.532 131.791V132.391ZM101.532 130.416C101.532 130.749 101.649 131.033 101.882 131.266C102.116 131.499 102.391 131.616 102.707 131.616V131.016C102.707 130.683 102.591 130.399 102.357 130.166C102.124 129.916 101.849 129.791 101.532 129.791V130.416ZM101.532 128.416C101.532 128.749 101.641 129.033 101.857 129.266C102.091 129.499 102.374 129.616 102.707 129.616V129.016C102.707 128.683 102.591 128.399 102.357 128.166C102.124 127.933 101.849 127.816 101.532 127.816V128.416ZM101.532 126.441C101.532 126.774 101.649 127.058 101.882 127.291C102.116 127.524 102.391 127.641 102.707 127.641V127.041C102.707 126.708 102.591 126.424 102.357 126.191C102.141 125.958 101.866 125.841 101.532 125.841V126.441ZM101.532 124.441C101.532 124.774 101.641 125.058 101.857 125.291C102.091 125.524 102.374 125.641 102.707 125.641V125.041C102.707 124.708 102.591 124.424 102.357 124.191C102.124 123.958 101.849 123.841 101.532 123.841V124.441ZM101.532 122.466C101.532 122.799 101.649 123.083 101.882 123.316C102.116 123.549 102.391 123.666 102.707 123.666V123.066C102.707 122.733 102.591 122.449 102.357 122.216C102.141 121.983 101.866 121.866 101.532 121.866V122.466ZM101.532 120.491C101.532 120.824 101.649 121.108 101.882 121.341C102.116 121.574 102.391 121.691 102.707 121.691V121.091C102.707 120.758 102.591 120.474 102.357 120.241C102.124 119.991 101.849 119.866 101.532 119.866V120.491ZM101.532 118.491C101.532 118.824 101.641 119.108 101.857 119.341C102.091 119.574 102.374 119.691 102.707 119.691V119.091C102.707 118.758 102.591 118.474 102.357 118.241C102.124 118.008 101.849 117.891 101.532 117.891V118.491ZM101.532 116.516C101.532 116.849 101.649 117.133 101.882 117.366C102.116 117.599 102.391 117.716 102.707 117.716V117.116C102.707 116.783 102.591 116.499 102.357 116.266C102.141 116.033 101.866 115.916 101.532 115.916V116.516ZM101.532 114.516C101.532 114.849 101.641 115.133 101.857 115.366C102.091 115.599 102.374 115.716 102.707 115.716V115.116C102.707 114.783 102.591 114.499 102.357 114.266C102.124 114.033 101.849 113.916 101.532 113.916V114.516ZM102.982 132.991C102.982 132.658 103.091 132.374 103.307 132.141C103.541 131.908 103.824 131.791 104.157 131.791V132.391C104.157 132.724 104.041 133.008 103.807 133.241C103.574 133.474 103.299 133.591 102.982 133.591V132.991ZM102.982 131.016C102.982 130.683 103.099 130.399 103.332 130.166C103.566 129.916 103.841 129.791 104.157 129.791V130.416C104.157 130.749 104.041 131.033 103.807 131.266C103.574 131.499 103.299 131.616 102.982 131.616V131.016ZM102.982 129.016C102.982 128.683 103.099 128.399 103.332 128.166C103.566 127.933 103.841 127.816 104.157 127.816V128.416C104.157 128.749 104.041 129.033 103.807 129.266C103.591 129.499 103.316 129.616 102.982 129.616V129.016ZM102.982 127.041C102.982 126.708 103.091 126.424 103.307 126.191C103.541 125.958 103.824 125.841 104.157 125.841V126.441C104.157 126.774 104.041 127.058 103.807 127.291C103.574 127.524 103.299 127.641 102.982 127.641V127.041ZM102.982 125.041C102.982 124.708 103.099 124.424 103.332 124.191C103.566 123.958 103.841 123.841 104.157 123.841V124.441C104.157 124.774 104.041 125.058 103.807 125.291C103.591 125.524 103.316 125.641 102.982 125.641V125.041ZM102.982 123.066C102.982 122.733 103.091 122.449 103.307 122.216C103.541 121.983 103.824 121.866 104.157 121.866V122.466C104.157 122.799 104.041 123.083 103.807 123.316C103.574 123.549 103.299 123.666 102.982 123.666V123.066ZM102.982 121.091C102.982 120.758 103.099 120.474 103.332 120.241C103.566 119.991 103.841 119.866 104.157 119.866V120.491C104.157 120.824 104.041 121.108 103.807 121.341C103.574 121.574 103.299 121.691 102.982 121.691V121.091ZM102.982 119.091C102.982 118.758 103.099 118.474 103.332 118.241C103.566 118.008 103.841 117.891 104.157 117.891V118.491C104.157 118.824 104.041 119.108 103.807 119.341C103.591 119.574 103.316 119.691 102.982 119.691V119.091ZM102.982 117.116C102.982 116.783 103.091 116.499 103.307 116.266C103.541 116.033 103.824 115.916 104.157 115.916V116.516C104.157 116.849 104.041 117.133 103.807 117.366C103.574 117.599 103.299 117.716 102.982 117.716V117.116ZM102.982 115.116C102.982 114.783 103.099 114.499 103.332 114.266C103.566 114.033 103.841 113.916 104.157 113.916V114.516C104.157 114.849 104.041 115.133 103.807 115.366C103.591 115.599 103.316 115.716 102.982 115.716V115.116ZM105.182 125.066C105.499 125.066 105.766 124.958 105.982 124.741C106.216 124.508 106.332 124.233 106.332 123.916H105.757C105.441 123.916 105.166 124.033 104.932 124.266C104.716 124.483 104.607 124.749 104.607 125.066H105.182ZM105.182 122.466C105.499 122.466 105.766 122.583 105.982 122.816C106.216 123.033 106.332 123.299 106.332 123.616H105.757C105.441 123.616 105.166 123.508 104.932 123.291C104.716 123.058 104.607 122.783 104.607 122.466H105.182ZM105.182 116.641C105.499 116.641 105.766 116.524 105.982 116.291C106.216 116.058 106.332 115.783 106.332 115.466H105.757C105.441 115.466 105.166 115.583 104.932 115.816C104.716 116.033 104.607 116.308 104.607 116.641H105.182ZM105.182 114.016C105.499 114.016 105.766 114.133 105.982 114.366C106.216 114.599 106.332 114.874 106.332 115.191H105.757C105.441 115.191 105.166 115.083 104.932 114.866C104.716 114.633 104.607 114.349 104.607 114.016H105.182ZM107.082 125.066C107.182 125.066 107.257 125.058 107.307 125.041C107.357 125.041 107.391 125.033 107.407 125.016C107.441 125.016 107.457 125.008 107.457 124.991H107.507L107.782 124.741C107.999 124.524 108.132 124.274 108.182 123.991C108.149 123.991 107.966 123.966 107.632 123.916C107.532 123.916 107.457 123.924 107.407 123.941C107.374 123.941 107.307 123.958 107.207 123.991C107.041 124.074 106.916 124.158 106.832 124.241C106.616 124.491 106.507 124.766 106.507 125.066H107.082ZM107.082 122.466C107.182 122.466 107.257 122.474 107.307 122.491C107.357 122.491 107.391 122.499 107.407 122.516C107.441 122.516 107.466 122.524 107.482 122.541C107.516 122.541 107.541 122.549 107.557 122.566C107.741 122.616 107.882 122.708 107.982 122.841C108.166 123.008 108.257 123.216 108.257 123.466C108.257 123.566 108.249 123.641 108.232 123.691L107.657 123.616C107.541 123.616 107.457 123.608 107.407 123.591C107.374 123.591 107.307 123.574 107.207 123.541C107.041 123.458 106.916 123.374 106.832 123.291C106.616 123.041 106.507 122.766 106.507 122.466H107.082ZM107.057 116.641L107.307 116.616L107.407 116.566H107.432H107.457L107.482 116.541C107.582 116.491 107.682 116.416 107.782 116.316C108.016 116.049 108.149 115.791 108.182 115.541L107.632 115.466L107.407 115.491L107.182 115.566C107.066 115.616 106.949 115.699 106.832 115.816C106.616 116.033 106.507 116.308 106.507 116.641H107.057ZM107.057 114.016C107.174 114.016 107.257 114.024 107.307 114.041L107.407 114.066C107.424 114.083 107.449 114.091 107.482 114.091L107.532 114.116C107.699 114.166 107.849 114.258 107.982 114.391C108.232 114.641 108.316 114.933 108.232 115.266C108.032 115.216 107.841 115.191 107.657 115.191L107.407 115.166L107.182 115.091C107.066 115.041 106.949 114.958 106.832 114.841C106.616 114.624 106.507 114.349 106.507 114.016H107.057ZM108.082 125.141C108.216 125.174 108.341 125.216 108.457 125.266C108.557 125.299 108.641 125.316 108.707 125.316C108.807 125.316 108.957 125.283 109.157 125.216C109.474 125.083 109.707 124.916 109.857 124.716C109.741 124.616 109.582 124.516 109.382 124.416C109.266 124.349 109.132 124.316 108.982 124.316C108.816 124.316 108.674 124.349 108.557 124.416C108.441 124.483 108.341 124.583 108.257 124.716C108.207 124.799 108.149 124.941 108.082 125.141ZM108.082 116.716C108.249 116.749 108.374 116.783 108.457 116.816C108.557 116.849 108.641 116.866 108.707 116.866C108.791 116.866 108.932 116.833 109.132 116.766C109.432 116.683 109.666 116.516 109.832 116.266C109.682 116.133 109.532 116.033 109.382 115.966C109.266 115.899 109.132 115.866 108.982 115.866C108.832 115.866 108.691 115.908 108.557 115.991C108.441 116.058 108.341 116.158 108.257 116.291C108.191 116.408 108.132 116.549 108.082 116.716ZM108.657 114.166C108.874 114.199 109.116 114.266 109.382 114.366C109.782 114.516 110.041 114.774 110.157 115.141C110.191 115.274 110.207 115.374 110.207 115.441C110.207 115.641 110.141 115.833 110.007 116.016L109.507 115.716C109.224 115.533 109.007 115.316 108.857 115.066C108.774 114.933 108.716 114.783 108.682 114.616C108.632 114.483 108.624 114.333 108.657 114.166ZM108.682 123.066C108.649 122.866 108.649 122.716 108.682 122.616C108.799 122.633 109.041 122.699 109.407 122.816C109.791 122.966 110.041 123.224 110.157 123.591C110.191 123.724 110.207 123.833 110.207 123.916C110.207 124.099 110.149 124.283 110.032 124.466C109.966 124.416 109.891 124.366 109.807 124.316C109.724 124.266 109.632 124.216 109.532 124.166C109.232 123.983 109.007 123.758 108.857 123.491C108.757 123.324 108.699 123.183 108.682 123.066ZM109.557 125.991C109.707 126.124 109.916 126.208 110.182 126.241C110.366 126.241 110.507 126.233 110.607 126.216C110.741 126.183 110.882 126.133 111.032 126.066C110.832 125.766 110.732 125.616 110.732 125.616C110.666 125.499 110.566 125.416 110.432 125.366C110.316 125.299 110.191 125.266 110.057 125.266C109.774 125.266 109.507 125.416 109.257 125.716L109.557 125.991ZM109.257 117.266C109.357 117.349 109.449 117.441 109.532 117.541C109.666 117.674 109.882 117.758 110.182 117.791C110.366 117.791 110.499 117.783 110.582 117.766C110.732 117.733 110.882 117.683 111.032 117.616L110.732 117.166C110.666 117.049 110.566 116.966 110.432 116.916C110.316 116.849 110.191 116.816 110.057 116.816C109.774 116.816 109.507 116.966 109.257 117.266ZM109.707 121.866C109.774 122.183 109.907 122.441 110.107 122.641C110.107 122.641 110.174 122.574 110.307 122.441L110.482 122.241C110.599 122.074 110.657 121.891 110.657 121.691C110.657 121.608 110.641 121.516 110.607 121.416C110.524 121.133 110.332 120.924 110.032 120.791C110.016 120.808 109.982 120.866 109.932 120.966L109.807 121.166C109.691 121.366 109.657 121.599 109.707 121.866ZM110.207 127.091C110.291 127.308 110.441 127.474 110.657 127.591C110.957 127.758 111.241 127.833 111.507 127.816C111.507 127.649 111.482 127.466 111.432 127.266C111.382 126.966 111.207 126.758 110.907 126.641C110.841 126.608 110.774 126.591 110.707 126.591H110.507C110.407 126.608 110.257 126.649 110.057 126.716L110.207 127.091ZM110.207 118.641C110.291 118.858 110.441 119.024 110.657 119.141C110.924 119.308 111.207 119.383 111.507 119.366C111.507 119.299 111.499 119.216 111.482 119.116C111.466 118.999 111.449 118.899 111.432 118.816C111.382 118.516 111.207 118.308 110.907 118.191C110.824 118.158 110.682 118.141 110.482 118.141C110.349 118.174 110.207 118.224 110.057 118.291L110.207 118.641ZM110.307 119.966C110.307 120.099 110.366 120.299 110.482 120.566C110.666 120.833 110.882 121.024 111.132 121.141C111.149 121.108 111.182 121.024 111.232 120.891C111.282 120.808 111.316 120.716 111.332 120.616C111.366 120.483 111.382 120.391 111.382 120.341C111.382 120.141 111.307 119.966 111.157 119.816C111.057 119.699 110.941 119.633 110.807 119.616C110.657 119.566 110.507 119.541 110.357 119.541C110.341 119.574 110.332 119.608 110.332 119.641C110.349 119.658 110.349 119.683 110.332 119.716C110.332 119.799 110.324 119.858 110.307 119.891V119.966ZM110.357 132.466C110.357 132.783 110.466 133.049 110.682 133.266C110.916 133.483 111.191 133.591 111.507 133.591V133.041C111.507 132.724 111.391 132.458 111.157 132.241C110.941 132.008 110.674 131.891 110.357 131.891V132.466ZM110.357 130.591C110.357 130.908 110.466 131.183 110.682 131.416C110.916 131.633 111.191 131.741 111.507 131.741V131.166C111.507 130.849 111.391 130.583 111.157 130.366C110.941 130.149 110.674 130.041 110.357 130.041V130.591ZM110.357 128.716C110.357 129.033 110.466 129.308 110.682 129.541C110.916 129.758 111.191 129.866 111.507 129.866V129.291C111.507 128.974 111.391 128.708 111.157 128.491C110.941 128.274 110.674 128.166 110.357 128.166V128.716ZM110.657 124.416C110.657 124.083 110.732 123.833 110.882 123.666C111.132 123.899 111.316 124.074 111.432 124.191C111.682 124.441 111.807 124.724 111.807 125.041C111.807 125.308 111.749 125.508 111.632 125.641C111.566 125.758 111.449 125.858 111.282 125.941L110.982 125.441C110.766 125.124 110.657 124.783 110.657 124.416ZM110.657 115.966C110.657 115.633 110.732 115.383 110.882 115.216C111.132 115.449 111.316 115.624 111.432 115.741C111.682 116.008 111.807 116.316 111.807 116.666C111.807 116.783 111.749 116.958 111.632 117.191C111.516 117.324 111.399 117.424 111.282 117.491C111.149 117.258 111.041 117.091 110.957 116.991C110.757 116.658 110.657 116.316 110.657 115.966ZM111.507 120.991C111.524 120.958 111.557 120.866 111.607 120.716C111.691 120.433 111.857 120.166 112.107 119.916C112.274 119.783 112.407 119.691 112.507 119.641C112.624 119.574 112.774 119.541 112.957 119.541C112.957 119.708 112.949 119.841 112.932 119.941C112.932 120.024 112.916 120.149 112.882 120.316C112.866 120.516 112.799 120.699 112.682 120.866C112.582 121.016 112.457 121.133 112.307 121.216C112.141 121.316 111.974 121.366 111.807 121.366C111.707 121.366 111.574 121.333 111.407 121.266L111.507 120.991ZM111.732 127.216C111.716 127.149 111.707 127.049 111.707 126.916C111.707 126.716 111.749 126.508 111.832 126.291C111.866 126.191 111.899 126.124 111.932 126.091C111.966 126.008 112.007 125.941 112.057 125.891C112.174 125.758 112.291 125.658 112.407 125.591C112.541 125.891 112.632 126.124 112.682 126.291C112.732 126.441 112.757 126.591 112.757 126.741C112.757 126.958 112.699 127.166 112.582 127.366C112.416 127.633 112.149 127.783 111.782 127.816C111.782 127.683 111.766 127.483 111.732 127.216ZM111.732 118.766C111.716 118.699 111.707 118.591 111.707 118.441C111.707 118.224 111.741 118.024 111.807 117.841C111.891 117.691 111.974 117.558 112.057 117.441C112.124 117.324 112.241 117.224 112.407 117.141C112.541 117.441 112.632 117.674 112.682 117.841C112.732 117.991 112.757 118.141 112.757 118.291C112.757 118.508 112.699 118.716 112.582 118.916C112.449 119.083 112.332 119.191 112.232 119.241C112.149 119.291 111.999 119.333 111.782 119.366C111.782 119.233 111.766 119.033 111.732 118.766ZM111.807 133.041C111.807 132.724 111.916 132.458 112.132 132.241C112.366 132.008 112.641 131.891 112.957 131.891V132.466C112.957 132.783 112.841 133.049 112.607 133.266C112.391 133.483 112.124 133.591 111.807 133.591V133.041ZM111.807 131.166C111.807 130.849 111.916 130.583 112.132 130.366C112.366 130.149 112.641 130.041 112.957 130.041V130.591C112.957 130.908 112.841 131.183 112.607 131.416C112.391 131.633 112.124 131.741 111.807 131.741V131.166ZM111.807 129.291C111.807 128.974 111.916 128.708 112.132 128.491C112.366 128.274 112.641 128.166 112.957 128.166V128.716C112.957 129.033 112.841 129.308 112.607 129.541C112.391 129.758 112.124 129.866 111.807 129.866V129.291Z" fill="#00274E"/>
<path d="M37.2558 82H38.3658V77.26L39.9158 81.36H40.6958L42.2458 77.26V82H43.3458V75H42.0858L40.3058 79.64L38.5258 75H37.2558V82ZM44.5323 80.55C44.5323 81.54 45.1823 82.08 46.0723 82.08C46.7423 82.08 47.2623 81.83 47.6323 81.32L47.7723 82H48.6223V78.89C48.6223 77.58 47.8623 76.88 46.6123 76.88C45.6423 76.88 44.8823 77.44 44.7223 78.27L45.6423 78.48C45.7923 78.03 46.1223 77.8 46.6123 77.8C47.1823 77.8 47.5723 78.08 47.5723 78.68V78.9H46.6923C45.3623 78.9 44.5323 79.52 44.5323 80.55ZM47.5723 79.89C47.5723 80.71 46.9323 81.16 46.3223 81.16C45.9123 81.16 45.6323 80.91 45.6323 80.54C45.6323 80.02 46.0123 79.76 46.7323 79.76H47.5723V79.89ZM49.929 82H50.989V80.16C50.989 78.59 51.559 77.83 52.349 77.83C52.569 77.83 52.759 77.88 52.929 77.98L53.129 77C52.889 76.92 52.669 76.88 52.479 76.88C51.869 76.88 51.319 77.2 50.989 77.8V76.96H49.929V82ZM53.4576 79.48C53.4576 80.91 54.2876 82.08 55.8476 82.08C56.9276 82.08 57.6876 81.58 58.0576 80.65L57.1176 80.27C56.8376 80.86 56.4476 81.16 55.8476 81.16C55.0076 81.16 54.5576 80.48 54.5576 79.48C54.5576 78.48 55.0076 77.8 55.8476 77.8C56.4476 77.8 56.8476 78.1 57.1176 78.69L58.0576 78.3C57.6876 77.37 56.9276 76.88 55.8476 76.88C54.2876 76.88 53.4576 78.05 53.4576 79.48ZM58.8677 79.48C58.8677 80.92 59.8177 82.08 61.3677 82.08C62.9077 82.08 63.8677 80.92 63.8677 79.48C63.8677 78.04 62.9077 76.88 61.3677 76.88C59.8177 76.88 58.8677 78.04 58.8677 79.48ZM62.7577 79.48C62.7577 79.95 62.6377 80.34 62.3877 80.67C62.1377 81 61.7977 81.16 61.3677 81.16C60.9377 81.16 60.5877 81 60.3377 80.67C60.0877 80.34 59.9677 79.95 59.9677 79.48C59.9677 79.01 60.0877 78.62 60.3377 78.29C60.5877 77.96 60.9377 77.8 61.3677 77.8C61.7977 77.8 62.1377 77.96 62.3877 78.29C62.6377 78.62 62.7577 79.01 62.7577 79.48ZM64.5695 80.71C64.7795 81.47 65.4695 82.08 66.5095 82.08C67.5095 82.08 68.1795 81.46 68.1795 80.49C68.1795 79.84 67.7695 79.36 66.9495 79.07C66.1395 78.76 65.8895 78.57 65.8895 78.28C65.8895 77.99 66.1295 77.8 66.4495 77.8C66.8095 77.8 67.0995 77.96 67.3095 78.28L67.9595 77.69C67.6495 77.16 67.1195 76.88 66.4395 76.88C65.5595 76.88 64.8995 77.48 64.8995 78.26C64.8995 79.01 65.3295 79.43 66.1195 79.72C66.8095 79.99 67.1795 80.2 67.1795 80.55C67.1795 80.94 66.8995 81.16 66.5095 81.16C65.9995 81.16 65.6295 80.86 65.4195 80.26L64.5695 80.71Z" fill="white"/>
<path d="M33.5689 154.5C33.5389 156.81 35.0489 158.1 36.7489 158.08C37.5989 158.08 38.2289 157.7 38.5589 157.15L38.6689 158H39.5989V154.47H37.1289V155.41H38.5189C38.4489 156.38 37.8689 157.05 36.7989 157.05C35.5589 157.05 34.6989 156.18 34.6989 154.5C34.6989 152.85 35.5689 151.95 36.8189 151.95C37.6989 151.95 38.3089 152.46 38.6389 153.35L39.6689 153.08C39.2989 151.76 38.2889 150.92 36.8189 150.92C35.0889 150.92 33.5689 152.19 33.5689 154.5ZM40.7266 156.55C40.7266 157.54 41.3766 158.08 42.2666 158.08C42.9366 158.08 43.4566 157.83 43.8266 157.32L43.9666 158H44.8166V154.89C44.8166 153.58 44.0566 152.88 42.8066 152.88C41.8366 152.88 41.0766 153.44 40.9166 154.27L41.8366 154.48C41.9866 154.03 42.3166 153.8 42.8066 153.8C43.3766 153.8 43.7666 154.08 43.7666 154.68V154.9H42.8866C41.5566 154.9 40.7266 155.52 40.7266 156.55ZM43.7666 155.89C43.7666 156.71 43.1266 157.16 42.5166 157.16C42.1066 157.16 41.8266 156.91 41.8266 156.54C41.8266 156.02 42.2066 155.76 42.9266 155.76H43.7666V155.89ZM47.2126 157.44C47.4026 157.77 47.9526 158.08 48.5426 158.08C50.0126 158.08 50.8226 157.05 50.8226 155.48C50.8226 153.91 50.0126 152.88 48.5426 152.88C48.0126 152.88 47.4826 153.14 47.2126 153.49V153.19V150.92H46.1526V158H47.2126V157.74V157.44ZM49.7226 155.48C49.7226 156.51 49.2026 157.16 48.4126 157.16C47.6426 157.16 47.1126 156.51 47.1126 155.48C47.1126 154.45 47.6426 153.8 48.4126 153.8C49.2026 153.8 49.7226 154.45 49.7226 155.48ZM51.9827 158H53.0427V156.16C53.0427 154.59 53.6127 153.83 54.4027 153.83C54.6227 153.83 54.8127 153.88 54.9827 153.98L55.1827 153C54.9427 152.92 54.7227 152.88 54.5327 152.88C53.9227 152.88 53.3727 153.2 53.0427 153.8V152.96H51.9827V158ZM56.0452 158H57.1052V152.96H56.0452V158ZM55.8552 151.51C55.8552 151.91 56.1552 152.22 56.5652 152.22C56.9752 152.22 57.2852 151.91 57.2852 151.51C57.2852 151.11 56.9752 150.8 56.5652 150.8C56.1552 150.8 55.8552 151.11 55.8552 151.51ZM62.9254 155.32C62.9254 154.08 62.1254 152.88 60.6154 152.88C59.0654 152.88 58.2554 154.14 58.2554 155.48C58.2554 156.82 59.0654 158.08 60.6154 158.08C61.7254 158.08 62.4154 157.6 62.8554 156.63L61.9854 156.29C61.6554 156.89 61.2754 157.16 60.6654 157.16C59.9154 157.16 59.4254 156.64 59.3354 155.76H62.9254V155.32ZM59.3854 154.9C59.5454 154.19 60.0154 153.8 60.6154 153.8C61.3254 153.8 61.7254 154.25 61.8454 154.9H59.3854ZM64.0823 158H65.1423V150.92H64.0823V158ZM66.2051 156.55C66.2051 157.54 66.8551 158.08 67.7451 158.08C68.4151 158.08 68.9351 157.83 69.3051 157.32L69.4451 158H70.2951V154.89C70.2951 153.58 69.5351 152.88 68.2851 152.88C67.3151 152.88 66.5551 153.44 66.3951 154.27L67.3151 154.48C67.4651 154.03 67.7951 153.8 68.2851 153.8C68.8551 153.8 69.2451 154.08 69.2451 154.68V154.9H68.3651C67.0351 154.9 66.2051 155.52 66.2051 156.55ZM69.2451 155.89C69.2451 156.71 68.6051 157.16 67.9951 157.16C67.5851 157.16 67.3051 156.91 67.3051 156.54C67.3051 156.02 67.6851 155.76 68.4051 155.76H69.2451V155.89Z" fill="white"/>
<path d="M96.9091 82H101.229V80.97H98.0191V78.78H100.529V77.76H98.0191V76.03H101.129V75H96.9091V82ZM102.006 80.71C102.216 81.47 102.906 82.08 103.946 82.08C104.946 82.08 105.616 81.46 105.616 80.49C105.616 79.84 105.206 79.36 104.386 79.07C103.576 78.76 103.326 78.57 103.326 78.28C103.326 77.99 103.566 77.8 103.886 77.8C104.246 77.8 104.536 77.96 104.746 78.28L105.396 77.69C105.086 77.16 104.556 76.88 103.876 76.88C102.996 76.88 102.336 77.48 102.336 78.26C102.336 79.01 102.766 79.43 103.556 79.72C104.246 79.99 104.616 80.2 104.616 80.55C104.616 80.94 104.336 81.16 103.946 81.16C103.436 81.16 103.066 80.86 102.856 80.26L102.006 80.71ZM106.843 80.32C106.843 81.49 107.473 82.08 108.523 82.08C108.833 82.08 109.113 82.02 109.353 81.9L109.103 81.03C108.953 81.12 108.773 81.16 108.573 81.16C108.133 81.16 107.903 80.93 107.903 80.34V77.88H109.243V76.96H107.903V74.92L106.843 75.59V76.96H106.033V77.88H106.843V80.32ZM114.422 79.32C114.422 78.08 113.622 76.88 112.112 76.88C110.562 76.88 109.752 78.14 109.752 79.48C109.752 80.82 110.562 82.08 112.112 82.08C113.222 82.08 113.912 81.6 114.352 80.63L113.482 80.29C113.152 80.89 112.772 81.16 112.162 81.16C111.412 81.16 110.922 80.64 110.832 79.76H114.422V79.32ZM110.882 78.9C111.042 78.19 111.512 77.8 112.112 77.8C112.822 77.8 113.222 78.25 113.342 78.9H110.882ZM115.578 82H116.638V80.16C116.638 78.59 117.208 77.83 117.998 77.83C118.218 77.83 118.408 77.88 118.578 77.98L118.778 77C118.538 76.92 118.318 76.88 118.128 76.88C117.518 76.88 116.968 77.2 116.638 77.8V76.96H115.578V82Z" fill="white"/>
<path d="M92.2489 158H93.3589V154.85H94.2289L96.1989 158H97.4389L95.4289 154.76C96.3089 154.55 96.7989 153.88 96.7989 152.92C96.7989 151.73 96.0389 151 94.7089 151H92.2489V158ZM93.3589 153.82V152.03H94.7089C95.3589 152.03 95.6889 152.33 95.6889 152.92C95.6889 153.53 95.3189 153.82 94.7089 153.82H93.3589ZM97.9239 156.55C97.9239 157.54 98.5739 158.08 99.4639 158.08C100.134 158.08 100.654 157.83 101.024 157.32L101.164 158H102.014V154.89C102.014 153.58 101.254 152.88 100.004 152.88C99.0339 152.88 98.2739 153.44 98.1139 154.27L99.0339 154.48C99.1839 154.03 99.5139 153.8 100.004 153.8C100.574 153.8 100.964 154.08 100.964 154.68V154.9H100.084C98.7539 154.9 97.9239 155.52 97.9239 156.55ZM100.964 155.89C100.964 156.71 100.324 157.16 99.7139 157.16C99.3039 157.16 99.0239 156.91 99.0239 156.54C99.0239 156.02 99.4039 155.76 100.124 155.76H100.964V155.89ZM103.321 158H104.381V156.04C104.381 154.61 104.881 153.8 105.591 153.8C106.071 153.8 106.301 154.06 106.301 154.63V158H107.351V155.96C107.351 154.57 107.881 153.8 108.561 153.8C109.041 153.8 109.271 154.06 109.271 154.63V158H110.321V154.46C110.321 153.45 109.801 152.88 108.841 152.88C108.211 152.88 107.631 153.29 107.271 153.94C107.071 153.23 106.561 152.88 105.871 152.88C105.261 152.88 104.761 153.2 104.381 153.84V152.96H103.321V158ZM111.478 155.48C111.478 156.92 112.428 158.08 113.978 158.08C115.518 158.08 116.478 156.92 116.478 155.48C116.478 154.04 115.518 152.88 113.978 152.88C112.428 152.88 111.478 154.04 111.478 155.48ZM115.368 155.48C115.368 155.95 115.248 156.34 114.998 156.67C114.748 157 114.408 157.16 113.978 157.16C113.548 157.16 113.198 157 112.948 156.67C112.698 156.34 112.578 155.95 112.578 155.48C112.578 155.01 112.698 154.62 112.948 154.29C113.198 153.96 113.548 153.8 113.978 153.8C114.408 153.8 114.748 153.96 114.998 154.29C115.248 154.62 115.368 155.01 115.368 155.48ZM117.637 158H118.697V155.93C118.697 154.6 119.287 153.8 119.987 153.8C120.507 153.8 120.807 154.11 120.807 154.72V158H121.857V154.44C121.857 153.44 121.237 152.88 120.307 152.88C119.657 152.88 119.067 153.25 118.697 153.84V152.96H117.637V158Z" fill="white"/>
<path d="M47.3792 89.9C47.3792 90.545 47.8242 91.04 48.4692 91.04C49.1142 91.04 49.5592 90.545 49.5592 89.9C49.5592 89.255 49.1142 88.76 48.4692 88.76C48.3642 88.76 48.2092 88.79 48.1442 88.845L48.9242 87.46H48.5992L47.6042 89.155C47.4542 89.41 47.3792 89.66 47.3792 89.9ZM49.2392 89.9C49.2392 90.395 48.9192 90.76 48.4692 90.76C48.0192 90.76 47.6992 90.395 47.6992 89.9C47.6992 89.375 48.0142 89.04 48.4692 89.04C48.9242 89.04 49.2392 89.375 49.2392 89.9ZM49.7426 91.25H50.0726L52.2526 87.25H51.9226L49.7426 91.25ZM53.1305 91H53.4405V87.5H53.3605L52.5505 88.015V88.36L53.1305 87.995V91ZM54.1721 89.25C54.1721 89.8 54.2721 90.235 54.4771 90.56C54.6821 90.88 54.9821 91.04 55.3771 91.04C55.7721 91.04 56.0671 90.88 56.2721 90.56C56.4771 90.235 56.5821 89.8 56.5821 89.25C56.5821 88.7 56.4771 88.265 56.2721 87.945C56.0671 87.62 55.7721 87.46 55.3771 87.46C54.9821 87.46 54.6821 87.62 54.4771 87.945C54.2721 88.265 54.1721 88.7 54.1721 89.25ZM56.2621 89.25C56.2621 90.145 55.9321 90.76 55.3771 90.76C54.8221 90.76 54.4921 90.145 54.4921 89.25C54.4921 88.355 54.8221 87.74 55.3771 87.74C55.9321 87.74 56.2621 88.355 56.2621 89.25Z" fill="white"/>
<path d="M47.3547 166.04C47.4197 166.665 47.8497 167.04 48.4297 167.04C49.1147 167.04 49.5347 166.585 49.5347 165.93C49.5347 165.24 49.0697 164.825 48.5447 164.825C48.4897 164.825 48.4447 164.83 48.4147 164.84L49.3597 163.585V163.5H47.5297V163.78H48.8747L47.9697 164.99L48.1197 165.185C48.2147 165.125 48.3197 165.095 48.4297 165.095C48.9297 165.095 49.2147 165.39 49.2147 165.93C49.2147 166.445 48.9347 166.76 48.4297 166.76C47.9847 166.76 47.7197 166.46 47.6647 165.995L47.3547 166.04ZM49.7671 167.25H50.0971L52.2771 163.25H51.9471L49.7671 167.25ZM53.1549 167H53.4649V163.5H53.3849L52.5749 164.015V164.36L53.1549 163.995V167ZM54.1965 165.25C54.1965 165.8 54.2965 166.235 54.5015 166.56C54.7065 166.88 55.0065 167.04 55.4015 167.04C55.7965 167.04 56.0915 166.88 56.2965 166.56C56.5015 166.235 56.6065 165.8 56.6065 165.25C56.6065 164.7 56.5015 164.265 56.2965 163.945C56.0915 163.62 55.7965 163.46 55.4015 163.46C55.0065 163.46 54.7065 163.62 54.5015 163.945C54.2965 164.265 54.1965 164.7 54.1965 165.25ZM56.2865 165.25C56.2865 166.145 55.9565 166.76 55.4015 166.76C54.8465 166.76 54.5165 166.145 54.5165 165.25C54.5165 164.355 54.8465 163.74 55.4015 163.74C55.9565 163.74 56.2865 164.355 56.2865 165.25Z" fill="white"/>
<path d="M102.379 89.9C102.379 90.545 102.824 91.04 103.469 91.04C104.114 91.04 104.559 90.545 104.559 89.9C104.559 89.255 104.114 88.76 103.469 88.76C103.364 88.76 103.209 88.79 103.144 88.845L103.924 87.46H103.599L102.604 89.155C102.454 89.41 102.379 89.66 102.379 89.9ZM104.239 89.9C104.239 90.395 103.919 90.76 103.469 90.76C103.019 90.76 102.699 90.395 102.699 89.9C102.699 89.375 103.014 89.04 103.469 89.04C103.924 89.04 104.239 89.375 104.239 89.9ZM104.743 91.25H105.073L107.253 87.25H106.923L104.743 91.25ZM108.131 91H108.441V87.5H108.361L107.551 88.015V88.36L108.131 87.995V91ZM109.172 89.25C109.172 89.8 109.272 90.235 109.477 90.56C109.682 90.88 109.982 91.04 110.377 91.04C110.772 91.04 111.067 90.88 111.272 90.56C111.477 90.235 111.582 89.8 111.582 89.25C111.582 88.7 111.477 88.265 111.272 87.945C111.067 87.62 110.772 87.46 110.377 87.46C109.982 87.46 109.682 87.62 109.477 87.945C109.272 88.265 109.172 88.7 109.172 89.25ZM111.262 89.25C111.262 90.145 110.932 90.76 110.377 90.76C109.822 90.76 109.492 90.145 109.492 89.25C109.492 88.355 109.822 87.74 110.377 87.74C110.932 87.74 111.262 88.355 111.262 89.25Z" fill="white"/>
<path d="M103.114 167.04H103.439L104.474 165.245C104.599 165.025 104.659 164.81 104.659 164.6C104.659 163.955 104.214 163.46 103.569 163.46C102.924 163.46 102.479 163.955 102.479 164.6C102.479 165.245 102.924 165.74 103.569 165.74C103.674 165.74 103.829 165.71 103.894 165.655L103.114 167.04ZM104.339 164.6C104.339 165.125 104.024 165.46 103.569 165.46C103.114 165.46 102.799 165.125 102.799 164.6C102.799 164.105 103.119 163.74 103.569 163.74C104.019 163.74 104.339 164.105 104.339 164.6ZM104.643 167.25H104.973L107.153 163.25H106.823L104.643 167.25ZM108.03 167H108.34V163.5H108.26L107.45 164.015V164.36L108.03 163.995V167ZM109.072 165.25C109.072 165.8 109.172 166.235 109.377 166.56C109.582 166.88 109.882 167.04 110.277 167.04C110.672 167.04 110.967 166.88 111.172 166.56C111.377 166.235 111.482 165.8 111.482 165.25C111.482 164.7 111.377 164.265 111.172 163.945C110.967 163.62 110.672 163.46 110.277 163.46C109.882 163.46 109.582 163.62 109.377 163.945C109.172 164.265 109.072 164.7 109.072 165.25ZM111.162 165.25C111.162 166.145 110.832 166.76 110.277 166.76C109.722 166.76 109.392 166.145 109.392 165.25C109.392 164.355 109.722 163.74 110.277 163.74C110.832 163.74 111.162 164.355 111.162 165.25Z" fill="white"/>
</svg>
