<svg width="159" height="194" viewBox="0 0 159 194" fill="none" xmlns="http://www.w3.org/2000/svg">
<rect width="159" height="194" rx="15" fill="#00274E"/>
<rect x="22" y="86.3311" width="116" height="18.006" rx="9.00299" fill="#0CC482"/>
<rect x="22" y="108.493" width="116" height="18.006" rx="9.00299" fill="#FE5B4A"/>
<rect x="22" y="130.654" width="116" height="18.006" rx="9.00299" fill="#E2F4F8"/>
<rect x="22" y="152.815" width="116" height="18.006" rx="9.00299" fill="#E2F4F8"/>
<rect x="22" y="26.7729" width="116" height="55.403" rx="8.65672" fill="#E2F4F8"/>
<path d="M60.1428 97H62.2128V96.4183H60.773V93.6066H60.1428V97ZM62.717 97H63.3182V94.5567H62.717V97ZM62.6298 93.8538C62.6298 94.072 62.7995 94.2416 63.0176 94.2416C63.2358 94.2416 63.4054 94.072 63.4054 93.8538C63.4054 93.6357 63.2358 93.466 63.0176 93.466C62.7995 93.466 62.6298 93.6357 62.6298 93.8538ZM63.9953 97H64.5964V93.5678H63.9953V97ZM66.689 94.5567L66.1461 96.0595L65.5886 94.5567H64.9826L65.8649 96.8352L65.448 97.9889H66.0297L67.2902 94.5567H66.689ZM70.2964 94.5567L69.7535 96.0595L69.196 94.5567H68.59L69.4723 96.8352L69.0554 97.9889H69.6372L70.8976 94.5567H70.2964ZM72.2653 96.1613C72.338 96.7091 72.7259 97.0388 73.3124 97.0388C74.0154 97.0388 74.3935 96.6849 74.3935 95.8075V93.6066H73.7633V95.8753C73.7633 96.3019 73.6033 96.4571 73.3124 96.4571C73.0846 96.4571 72.944 96.3262 72.8858 96.0304L72.2653 96.1613ZM74.9566 96.2971C74.9566 96.7673 75.2668 97.0388 75.6983 97.0388C76.0086 97.0388 76.2606 96.9224 76.4497 96.6897L76.5127 97H77.0072V95.5408C77.0072 94.867 76.6339 94.5179 75.9795 94.5179C75.4947 94.5179 75.1263 94.7894 75.0487 95.1966L75.5577 95.313C75.6304 95.1239 75.771 95.0318 75.9795 95.0318C76.2267 95.0318 76.4061 95.153 76.4061 95.3905V95.4972H75.9795C75.3541 95.4972 74.9566 95.8123 74.9566 96.2971ZM76.4061 96.0208C76.4061 96.3262 76.1491 96.5249 75.8583 96.5249C75.6983 96.5249 75.5868 96.428 75.5868 96.2874C75.5868 96.0741 75.7371 95.9723 76.0037 95.9723H76.4061V96.0208ZM77.6201 97H78.2213V96.1032C78.2213 95.4051 78.4394 95.0318 78.7497 95.0318C78.9484 95.0318 79.0502 95.1433 79.0502 95.3712V97H79.6513V96.0498C79.6513 95.3905 79.8695 95.0318 80.1797 95.0318C80.3785 95.0318 80.4803 95.1433 80.4803 95.3712V97H81.0814V95.2693C81.0814 94.7991 80.8051 94.5179 80.3543 94.5179C80.0586 94.5179 79.7822 94.707 79.6077 95.0221C79.5059 94.6876 79.2393 94.5179 78.9242 94.5179C78.6188 94.5179 78.4103 94.6634 78.2213 94.9494V94.5567H77.6201V97ZM83.9344 95.725C83.9344 95.1482 83.5708 94.5179 82.7952 94.5179C81.9905 94.5179 81.622 95.1627 81.622 95.7784C81.622 96.394 81.9905 97.0388 82.7952 97.0388C83.3575 97.0388 83.7066 96.7867 83.9053 96.3262L83.4206 96.1468C83.2703 96.4037 83.1006 96.5249 82.8291 96.5249C82.514 96.5249 82.3007 96.3359 82.2474 95.9723H83.9344V95.725ZM82.2619 95.4972C82.3395 95.1918 82.5383 95.0318 82.7952 95.0318C83.0909 95.0318 83.2606 95.2257 83.3187 95.4972H82.2619ZM84.2486 96.3795C84.3019 96.5589 84.4134 96.714 84.5831 96.8449C84.7527 96.9758 84.966 97.0388 85.2181 97.0388C85.4654 97.0388 85.6641 96.9661 85.8192 96.8255C85.9744 96.68 86.0519 96.4861 86.0519 96.2486C86.0519 95.9044 85.8386 95.696 85.4557 95.5602C85.063 95.4196 84.9563 95.3324 84.9563 95.216C84.9563 95.1045 85.063 95.0318 85.1939 95.0318C85.3587 95.0318 85.4896 95.1045 85.5866 95.2451L85.9453 94.9155C85.795 94.6634 85.509 94.5179 85.1793 94.5179C84.7333 94.5179 84.4085 94.8234 84.4085 95.2015C84.4085 95.5554 84.6218 95.7687 84.9903 95.9189C85.3248 96.0498 85.4944 96.1371 85.4944 96.2874C85.4944 96.4425 85.3684 96.5249 85.2133 96.5249C84.9854 96.5249 84.8206 96.3746 84.7285 96.1226L84.2486 96.3795ZM87.8186 97H88.4488V95.6717H89.0984C89.7916 95.6717 90.1601 95.2597 90.1601 94.6391C90.1601 94.0186 89.7916 93.6066 89.0984 93.6066H87.8186V97ZM88.4488 95.09V94.1883H89.0742C89.3602 94.1883 89.5202 94.3337 89.5202 94.6391C89.5202 94.9445 89.3602 95.09 89.0742 95.09H88.4488ZM90.3707 95.7784C90.3707 96.4958 90.841 97.0388 91.6118 97.0388C92.3825 97.0388 92.8528 96.4958 92.8528 95.7784C92.8528 95.0609 92.3825 94.5179 91.6118 94.5179C90.841 94.5179 90.3707 95.0609 90.3707 95.7784ZM92.2226 95.7784C92.2226 95.9868 92.1692 96.1662 92.0577 96.3116C91.9462 96.4522 91.8008 96.5249 91.6118 96.5249C91.4227 96.5249 91.2773 96.4522 91.1658 96.3116C91.0543 96.1662 91.0009 95.9868 91.0009 95.7784C91.0009 95.5699 91.0543 95.3905 91.1658 95.25C91.2773 95.1045 91.4227 95.0318 91.6118 95.0318C91.8008 95.0318 91.9462 95.1045 92.0577 95.25C92.1692 95.3905 92.2226 95.5699 92.2226 95.7784ZM93.4578 96.1371C93.4578 96.7334 93.7923 97.0388 94.3546 97.0388C94.4952 97.0388 94.6261 97.0097 94.7521 96.9515L94.6115 96.4667C94.5388 96.5055 94.4613 96.5249 94.3788 96.5249C94.1655 96.5249 94.0589 96.4183 94.0589 96.1274V95.0706H94.7036V94.5567H94.0589V93.5678L93.4578 93.9459V94.5567H93.0796V95.0706H93.4578V96.1371ZM95.252 96.1371C95.252 96.7334 95.5865 97.0388 96.1488 97.0388C96.2894 97.0388 96.4203 97.0097 96.5464 96.9515L96.4058 96.4667C96.3331 96.5055 96.2555 96.5249 96.1731 96.5249C95.9598 96.5249 95.8531 96.4183 95.8531 96.1274V95.0706H96.4979V94.5567H95.8531V93.5678L95.252 93.9459V94.5567H94.8739V95.0706H95.252V96.1371ZM99.0221 95.725C99.0221 95.1482 98.6585 94.5179 97.8829 94.5179C97.0782 94.5179 96.7097 95.1627 96.7097 95.7784C96.7097 96.394 97.0782 97.0388 97.8829 97.0388C98.4452 97.0388 98.7943 96.7867 98.993 96.3262L98.5083 96.1468C98.358 96.4037 98.1883 96.5249 97.9168 96.5249C97.6017 96.5249 97.3884 96.3359 97.3351 95.9723H99.0221V95.725ZM97.3496 95.4972C97.4272 95.1918 97.626 95.0318 97.8829 95.0318C98.1786 95.0318 98.3483 95.2257 98.4065 95.4972H97.3496ZM99.5629 97H100.164V96.1323C100.164 95.3905 100.435 95.056 100.818 95.056C100.911 95.056 100.998 95.0803 101.071 95.1239L101.182 94.5664C101.075 94.5325 100.978 94.5179 100.886 94.5179C100.6 94.5179 100.339 94.6779 100.164 94.9542V94.5567H99.5629V97Z" fill="#00274E"/>
<path d="M57.8344 119H59.9819V118.418H58.4646V117.483H59.6426V116.901H58.4646V116.188H59.9334V115.607H57.8344V119ZM60.5648 119H61.166V115.568H60.5648V119ZM61.8431 119H62.4442V116.557H61.8431V119ZM61.7558 115.854C61.7558 116.072 61.9255 116.242 62.1436 116.242C62.3618 116.242 62.5314 116.072 62.5314 115.854C62.5314 115.636 62.3618 115.466 62.1436 115.466C61.9255 115.466 61.7558 115.636 61.7558 115.854ZM62.8994 118.379C62.9527 118.559 63.0642 118.714 63.2339 118.845C63.4036 118.976 63.6169 119.039 63.869 119.039C64.1162 119.039 64.315 118.966 64.4701 118.825C64.6252 118.68 64.7028 118.486 64.7028 118.249C64.7028 117.904 64.4895 117.696 64.1065 117.56C63.7138 117.42 63.6072 117.332 63.6072 117.216C63.6072 117.105 63.7138 117.032 63.8447 117.032C64.0095 117.032 64.1404 117.105 64.2374 117.245L64.5961 116.915C64.4458 116.663 64.1598 116.518 63.8302 116.518C63.3842 116.518 63.0594 116.823 63.0594 117.201C63.0594 117.555 63.2727 117.769 63.6411 117.919C63.9756 118.05 64.1453 118.137 64.1453 118.287C64.1453 118.443 64.0192 118.525 63.8641 118.525C63.6363 118.525 63.4714 118.375 63.3793 118.123L62.8994 118.379ZM65.0451 118.297C65.0451 118.767 65.3554 119.039 65.7868 119.039C66.0971 119.039 66.3492 118.922 66.5382 118.69L66.6012 119H67.0957V117.541C67.0957 116.867 66.7224 116.518 66.068 116.518C65.5832 116.518 65.2148 116.789 65.1372 117.197L65.6462 117.313C65.719 117.124 65.8595 117.032 66.068 117.032C66.3152 117.032 66.4946 117.153 66.4946 117.391V117.497H66.068C65.4426 117.497 65.0451 117.812 65.0451 118.297ZM66.4946 118.021C66.4946 118.326 66.2377 118.525 65.9468 118.525C65.7868 118.525 65.6753 118.428 65.6753 118.287C65.6753 118.074 65.8256 117.972 66.0922 117.972H66.4946V118.021ZM70.3456 116.557L69.8027 118.06L69.2452 116.557H68.6392L69.5215 118.835L69.1046 119.989H69.6863L70.9467 116.557H70.3456ZM72.586 119H73.2162V117.536H73.5458L74.4572 119H75.1601L74.2197 117.483C74.6269 117.361 74.8547 117.022 74.8547 116.571C74.8547 115.99 74.4814 115.607 73.8221 115.607H72.586V119ZM73.2162 116.954V116.188H73.827C74.0742 116.188 74.2245 116.305 74.2245 116.571C74.2245 116.838 74.0742 116.954 73.827 116.954H73.2162ZM75.3227 117.778C75.3227 118.496 75.7929 119.039 76.5637 119.039C77.3345 119.039 77.8048 118.496 77.8048 117.778C77.8048 117.061 77.3345 116.518 76.5637 116.518C75.7929 116.518 75.3227 117.061 75.3227 117.778ZM77.1745 117.778C77.1745 117.987 77.1212 118.166 77.0097 118.312C76.8982 118.452 76.7528 118.525 76.5637 118.525C76.3747 118.525 76.2292 118.452 76.1177 118.312C76.0062 118.166 75.9529 117.987 75.9529 117.778C75.9529 117.57 76.0062 117.391 76.1177 117.25C76.2292 117.105 76.3747 117.032 76.5637 117.032C76.7528 117.032 76.8982 117.105 77.0097 117.25C77.1212 117.391 77.1745 117.57 77.1745 117.778ZM78.9474 118.748C79.025 118.889 79.2625 119.039 79.5388 119.039C80.2563 119.039 80.6538 118.549 80.6538 117.778C80.6538 117.008 80.2563 116.518 79.5388 116.518C79.3013 116.518 79.0589 116.639 78.9474 116.78V116.634V115.568H78.3463V119H78.9474V118.893V118.748ZM80.0236 117.778C80.0236 118.244 79.7861 118.525 79.4564 118.525C79.1268 118.525 78.8941 118.249 78.8941 117.778C78.8941 117.308 79.1268 117.032 79.4564 117.032C79.7861 117.032 80.0236 117.308 80.0236 117.778ZM83.3729 117.725C83.3729 117.148 83.0093 116.518 82.2336 116.518C81.4289 116.518 81.0605 117.163 81.0605 117.778C81.0605 118.394 81.4289 119.039 82.2336 119.039C82.796 119.039 83.145 118.787 83.3438 118.326L82.859 118.147C82.7087 118.404 82.5391 118.525 82.2676 118.525C81.9525 118.525 81.7392 118.336 81.6858 117.972H83.3729V117.725ZM81.7004 117.497C81.778 117.192 81.9767 117.032 82.2336 117.032C82.5294 117.032 82.699 117.226 82.7572 117.497H81.7004ZM83.9136 119H84.5147V118.132C84.5147 117.391 84.7862 117.056 85.1692 117.056C85.2613 117.056 85.3486 117.08 85.4213 117.124L85.5328 116.566C85.4261 116.532 85.3292 116.518 85.2371 116.518C84.951 116.518 84.6893 116.678 84.5147 116.954V116.557H83.9136V119ZM86.1643 118.137C86.1643 118.733 86.4988 119.039 87.0611 119.039C87.2017 119.039 87.3326 119.01 87.4586 118.952L87.318 118.467C87.2453 118.506 87.1678 118.525 87.0853 118.525C86.872 118.525 86.7654 118.418 86.7654 118.127V117.071H87.4101V116.557H86.7654V115.568L86.1643 115.946V116.557H85.7861V117.071H86.1643V118.137ZM89.127 119H89.7573V117.672H90.4069C91.1001 117.672 91.4685 117.26 91.4685 116.639C91.4685 116.019 91.1001 115.607 90.4069 115.607H89.127V119ZM89.7573 117.09V116.188H90.3826C90.6686 116.188 90.8286 116.334 90.8286 116.639C90.8286 116.945 90.6686 117.09 90.3826 117.09H89.7573ZM91.6792 117.778C91.6792 118.496 92.1494 119.039 92.9202 119.039C93.691 119.039 94.1612 118.496 94.1612 117.778C94.1612 117.061 93.691 116.518 92.9202 116.518C92.1494 116.518 91.6792 117.061 91.6792 117.778ZM93.531 117.778C93.531 117.987 93.4777 118.166 93.3662 118.312C93.2547 118.452 93.1093 118.525 92.9202 118.525C92.7311 118.525 92.5857 118.452 92.4742 118.312C92.3627 118.166 92.3094 117.987 92.3094 117.778C92.3094 117.57 92.3627 117.391 92.4742 117.25C92.5857 117.105 92.7311 117.032 92.9202 117.032C93.1093 117.032 93.2547 117.105 93.3662 117.25C93.4777 117.391 93.531 117.57 93.531 117.778ZM94.7662 118.137C94.7662 118.733 95.1007 119.039 95.663 119.039C95.8036 119.039 95.9345 119.01 96.0606 118.952L95.92 118.467C95.8473 118.506 95.7697 118.525 95.6873 118.525C95.474 118.525 95.3673 118.418 95.3673 118.127V117.071H96.0121V116.557H95.3673V115.568L94.7662 115.946V116.557H94.3881V117.071H94.7662V118.137ZM96.5604 118.137C96.5604 118.733 96.8949 119.039 97.4573 119.039C97.5979 119.039 97.7288 119.01 97.8548 118.952L97.7142 118.467C97.6415 118.506 97.5639 118.525 97.4815 118.525C97.2682 118.525 97.1616 118.418 97.1616 118.127V117.071H97.8063V116.557H97.1616V115.568L96.5604 115.946V116.557H96.1823V117.071H96.5604V118.137ZM100.331 117.725C100.331 117.148 99.967 116.518 99.1913 116.518C98.3866 116.518 98.0182 117.163 98.0182 117.778C98.0182 118.394 98.3866 119.039 99.1913 119.039C99.7537 119.039 100.103 118.787 100.301 118.326L99.8167 118.147C99.6664 118.404 99.4967 118.525 99.2253 118.525C98.9102 118.525 98.6969 118.336 98.6435 117.972H100.331V117.725ZM98.6581 117.497C98.7356 117.192 98.9344 117.032 99.1913 117.032C99.4871 117.032 99.6567 117.226 99.7149 117.497H98.6581ZM100.871 119H101.472V118.132C101.472 117.391 101.744 117.056 102.127 117.056C102.219 117.056 102.306 117.08 102.379 117.124L102.49 116.566C102.384 116.532 102.287 116.518 102.195 116.518C101.909 116.518 101.647 116.678 101.472 116.954V116.557H100.871V119Z" fill="#00274E"/>
<path d="M61.1483 141H63.2183V140.418H61.7785V137.607H61.1483V141ZM63.7225 141H64.3236V138.557H63.7225V141ZM63.6352 137.854C63.6352 138.072 63.8049 138.242 64.0231 138.242C64.2412 138.242 64.4109 138.072 64.4109 137.854C64.4109 137.636 64.2412 137.466 64.0231 137.466C63.8049 137.466 63.6352 137.636 63.6352 137.854ZM65.0007 141H65.6018V137.568H65.0007V141ZM67.6945 138.557L67.1515 140.06L66.594 138.557H65.9881L66.8704 140.835L66.4535 141.989H67.0352L68.2956 138.557H67.6945ZM71.3019 138.557L70.759 140.06L70.2015 138.557H69.5955L70.4778 140.835L70.0609 141.989H70.6426L71.903 138.557H71.3019ZM73.2708 140.161C73.3435 140.709 73.7313 141.039 74.3179 141.039C75.0208 141.039 75.3989 140.685 75.3989 139.807V137.607H74.7687V139.875C74.7687 140.302 74.6088 140.457 74.3179 140.457C74.09 140.457 73.9495 140.326 73.8913 140.03L73.2708 140.161ZM75.9523 139.778C75.9523 140.496 76.4226 141.039 77.1934 141.039C77.9642 141.039 78.4344 140.496 78.4344 139.778C78.4344 139.061 77.9642 138.518 77.1934 138.518C76.4226 138.518 75.9523 139.061 75.9523 139.778ZM77.8042 139.778C77.8042 139.987 77.7509 140.166 77.6394 140.312C77.5279 140.452 77.3824 140.525 77.1934 140.525C77.0043 140.525 76.8589 140.452 76.7474 140.312C76.6359 140.166 76.5826 139.987 76.5826 139.778C76.5826 139.57 76.6359 139.391 76.7474 139.25C76.8589 139.105 77.0043 139.032 77.1934 139.032C77.3824 139.032 77.5279 139.105 77.6394 139.25C77.7509 139.391 77.8042 139.57 77.8042 139.778ZM78.9759 141H79.577V139.967C79.577 139.337 79.8582 139.032 80.1491 139.032C80.3963 139.032 80.5126 139.172 80.5126 139.468V141H81.1138V139.255C81.1138 138.77 80.8229 138.518 80.3527 138.518C80.0182 138.518 79.737 138.692 79.577 138.949V137.568H78.9759V141ZM81.7738 141H82.3749V140.026C82.3749 139.4 82.6367 139.032 82.9324 139.032C83.1457 139.032 83.2814 139.158 83.2814 139.434V141H83.8826V139.255C83.8826 138.775 83.582 138.518 83.1312 138.518C82.8258 138.518 82.564 138.683 82.3749 138.949V138.557H81.7738V141ZM85.8131 141H86.4434V139.672H87.093C87.7862 139.672 88.1546 139.26 88.1546 138.639C88.1546 138.019 87.7862 137.607 87.093 137.607H85.8131V141ZM86.4434 139.09V138.188H87.0687C87.3547 138.188 87.5147 138.334 87.5147 138.639C87.5147 138.945 87.3547 139.09 87.0687 139.09H86.4434ZM88.3653 139.778C88.3653 140.496 88.8355 141.039 89.6063 141.039C90.3771 141.039 90.8473 140.496 90.8473 139.778C90.8473 139.061 90.3771 138.518 89.6063 138.518C88.8355 138.518 88.3653 139.061 88.3653 139.778ZM90.2171 139.778C90.2171 139.987 90.1638 140.166 90.0523 140.312C89.9408 140.452 89.7954 140.525 89.6063 140.525C89.4172 140.525 89.2718 140.452 89.1603 140.312C89.0488 140.166 88.9955 139.987 88.9955 139.778C88.9955 139.57 89.0488 139.391 89.1603 139.25C89.2718 139.105 89.4172 139.032 89.6063 139.032C89.7954 139.032 89.9408 139.105 90.0523 139.25C90.1638 139.391 90.2171 139.57 90.2171 139.778ZM91.4523 140.137C91.4523 140.733 91.7868 141.039 92.3491 141.039C92.4897 141.039 92.6206 141.01 92.7467 140.952L92.6061 140.467C92.5334 140.506 92.4558 140.525 92.3734 140.525C92.1601 140.525 92.0534 140.418 92.0534 140.127V139.071H92.6982V138.557H92.0534V137.568L91.4523 137.946V138.557H91.0742V139.071H91.4523V140.137ZM93.2465 140.137C93.2465 140.733 93.581 141.039 94.1434 141.039C94.284 141.039 94.4149 141.01 94.5409 140.952L94.4003 140.467C94.3276 140.506 94.25 140.525 94.1676 140.525C93.9543 140.525 93.8477 140.418 93.8477 140.127V139.071H94.4924V138.557H93.8477V137.568L93.2465 137.946V138.557H92.8684V139.071H93.2465V140.137ZM97.0167 139.725C97.0167 139.148 96.6531 138.518 95.8774 138.518C95.0727 138.518 94.7043 139.163 94.7043 139.778C94.7043 140.394 95.0727 141.039 95.8774 141.039C96.4398 141.039 96.7888 140.787 96.9876 140.326L96.5028 140.147C96.3525 140.404 96.1828 140.525 95.9114 140.525C95.5963 140.525 95.383 140.336 95.3296 139.972H97.0167V139.725ZM95.3442 139.497C95.4217 139.192 95.6205 139.032 95.8774 139.032C96.1732 139.032 96.3428 139.226 96.401 139.497H95.3442ZM97.5574 141H98.1585V140.132C98.1585 139.391 98.43 139.056 98.813 139.056C98.9051 139.056 98.9924 139.08 99.0651 139.124L99.1766 138.566C99.0699 138.532 98.973 138.518 98.8809 138.518C98.5948 138.518 98.3331 138.678 98.1585 138.954V138.557H97.5574V141Z" fill="#00274E"/>
<path d="M56.1039 162.089C56.2105 162.617 56.6711 163.039 57.2722 163.039C57.9072 163.039 58.3581 162.641 58.3581 162.026C58.3435 161.473 58.043 161.255 57.5873 161.042C57.2625 160.891 57.1171 160.823 56.9959 160.692C56.9377 160.625 56.9086 160.547 56.9086 160.46C56.9086 160.285 57.0637 160.15 57.2528 160.15C57.4709 160.15 57.6212 160.271 57.7036 160.508L58.2126 160.183C58.043 159.771 57.723 159.568 57.2528 159.568C56.6953 159.568 56.3075 159.96 56.3075 160.479C56.3075 160.94 56.5596 161.216 56.9474 161.41L57.088 161.478C57.3934 161.628 57.534 161.701 57.6455 161.832C57.6988 161.895 57.7279 161.972 57.7279 162.055C57.7279 162.326 57.5534 162.457 57.2867 162.457C56.9377 162.457 56.7147 162.181 56.6129 161.769L56.1039 162.089ZM58.7374 162.297C58.7374 162.767 59.0477 163.039 59.4791 163.039C59.7894 163.039 60.0415 162.922 60.2305 162.69L60.2935 163H60.788V161.541C60.788 160.867 60.4147 160.518 59.7603 160.518C59.2755 160.518 58.9071 160.789 58.8295 161.197L59.3385 161.313C59.4113 161.124 59.5518 161.032 59.7603 161.032C60.0075 161.032 60.1869 161.153 60.1869 161.391V161.497H59.7603C59.1349 161.497 58.7374 161.812 58.7374 162.297ZM60.1869 162.021C60.1869 162.326 59.93 162.525 59.6391 162.525C59.4791 162.525 59.3676 162.428 59.3676 162.287C59.3676 162.074 59.5179 161.972 59.7845 161.972H60.1869V162.021ZM61.401 163H62.0021V162.026C62.0021 161.4 62.2639 161.032 62.5596 161.032C62.7729 161.032 62.9086 161.158 62.9086 161.434V163H63.5097V161.255C63.5097 160.775 63.2092 160.518 62.7583 160.518C62.4529 160.518 62.1911 160.683 62.0021 160.949V160.557H61.401V163ZM64.0536 161.778C64.0536 162.549 64.4415 163.039 65.1201 163.039C65.4352 163.039 65.6825 162.898 65.76 162.748V162.893V163H66.3612V159.568H65.76V160.634V160.78C65.6437 160.629 65.3965 160.518 65.1201 160.518C64.4415 160.518 64.0536 161.008 64.0536 161.778ZM65.8134 161.778C65.8134 162.249 65.5807 162.525 65.251 162.525C64.9214 162.525 64.6838 162.244 64.6838 161.778C64.6838 161.308 64.9214 161.032 65.251 161.032C65.5807 161.032 65.8134 161.308 65.8134 161.778ZM67.0393 163H67.6404V162.132C67.6404 161.391 67.9119 161.056 68.2949 161.056C68.387 161.056 68.4743 161.08 68.547 161.124L68.6585 160.566C68.5518 160.532 68.4549 160.518 68.3628 160.518C68.0767 160.518 67.815 160.678 67.6404 160.954V160.557H67.0393V163ZM68.8022 162.297C68.8022 162.767 69.1125 163.039 69.5439 163.039C69.8542 163.039 70.1063 162.922 70.2953 162.69L70.3583 163H70.8528V161.541C70.8528 160.867 70.4795 160.518 69.8251 160.518C69.3403 160.518 68.9719 160.789 68.8943 161.197L69.4033 161.313C69.476 161.124 69.6166 161.032 69.8251 161.032C70.0723 161.032 70.2517 161.153 70.2517 161.391V161.497H69.8251C69.1997 161.497 68.8022 161.812 68.8022 162.297ZM70.2517 162.021C70.2517 162.326 69.9948 162.525 69.7039 162.525C69.5439 162.525 69.4324 162.428 69.4324 162.287C69.4324 162.074 69.5827 161.972 69.8493 161.972H70.2517V162.021ZM74.1027 160.557L73.5597 162.06L73.0023 160.557H72.3963L73.2786 162.835L72.8617 163.989H73.4434L74.7038 160.557H74.1027ZM76.0716 162.161C76.1443 162.709 76.5321 163.039 77.1187 163.039C77.8216 163.039 78.1997 162.685 78.1997 161.807V159.607H77.5695V161.875C77.5695 162.302 77.4096 162.457 77.1187 162.457C76.8908 162.457 76.7503 162.326 76.6921 162.03L76.0716 162.161ZM78.7628 162.297C78.7628 162.767 79.0731 163.039 79.5045 163.039C79.8148 163.039 80.0669 162.922 80.2559 162.69L80.319 163H80.8134V161.541C80.8134 160.867 80.4402 160.518 79.7857 160.518C79.3009 160.518 78.9325 160.789 78.8549 161.197L79.364 161.313C79.4367 161.124 79.5773 161.032 79.7857 161.032C80.0329 161.032 80.2123 161.153 80.2123 161.391V161.497H79.7857C79.1604 161.497 78.7628 161.812 78.7628 162.297ZM80.2123 162.021C80.2123 162.326 79.9554 162.525 79.6645 162.525C79.5045 162.525 79.393 162.428 79.393 162.287C79.393 162.074 79.5433 161.972 79.81 161.972H80.2123V162.021ZM81.4264 163H82.0275V162.103C82.0275 161.405 82.2457 161.032 82.5559 161.032C82.7547 161.032 82.8565 161.143 82.8565 161.371V163H83.4576V162.05C83.4576 161.391 83.6757 161.032 83.986 161.032C84.1848 161.032 84.2866 161.143 84.2866 161.371V163H84.8877V161.269C84.8877 160.799 84.6114 160.518 84.1605 160.518C83.8648 160.518 83.5885 160.707 83.414 161.022C83.3122 160.688 83.0455 160.518 82.7304 160.518C82.425 160.518 82.2166 160.663 82.0275 160.949V160.557H81.4264V163ZM87.7407 161.725C87.7407 161.148 87.3771 160.518 86.6014 160.518C85.7967 160.518 85.4283 161.163 85.4283 161.778C85.4283 162.394 85.7967 163.039 86.6014 163.039C87.1638 163.039 87.5128 162.787 87.7116 162.326L87.2268 162.147C87.0765 162.404 86.9068 162.525 86.6354 162.525C86.3203 162.525 86.107 162.336 86.0536 161.972H87.7407V161.725ZM86.0682 161.497C86.1457 161.192 86.3445 161.032 86.6014 161.032C86.8972 161.032 87.0668 161.226 87.125 161.497H86.0682ZM88.0548 162.379C88.1081 162.559 88.2196 162.714 88.3893 162.845C88.559 162.976 88.7723 163.039 89.0244 163.039C89.2716 163.039 89.4704 162.966 89.6255 162.825C89.7806 162.68 89.8582 162.486 89.8582 162.249C89.8582 161.904 89.6449 161.696 89.2619 161.56C88.8692 161.42 88.7626 161.332 88.7626 161.216C88.7626 161.105 88.8692 161.032 89.0001 161.032C89.165 161.032 89.2958 161.105 89.3928 161.245L89.7515 160.915C89.6013 160.663 89.3152 160.518 88.9856 160.518C88.5396 160.518 88.2148 160.823 88.2148 161.201C88.2148 161.555 88.4281 161.769 88.7965 161.919C89.131 162.05 89.3007 162.137 89.3007 162.287C89.3007 162.443 89.1747 162.525 89.0195 162.525C88.7917 162.525 88.6269 162.375 88.5347 162.123L88.0548 162.379ZM91.6249 163H92.2551V161.672H92.9047C93.5979 161.672 93.9663 161.26 93.9663 160.639C93.9663 160.019 93.5979 159.607 92.9047 159.607H91.6249V163ZM92.2551 161.09V160.188H92.8804C93.1664 160.188 93.3264 160.334 93.3264 160.639C93.3264 160.945 93.1664 161.09 92.8804 161.09H92.2551ZM94.177 161.778C94.177 162.496 94.6472 163.039 95.418 163.039C96.1888 163.039 96.659 162.496 96.659 161.778C96.659 161.061 96.1888 160.518 95.418 160.518C94.6472 160.518 94.177 161.061 94.177 161.778ZM96.0288 161.778C96.0288 161.987 95.9755 162.166 95.864 162.312C95.7525 162.452 95.6071 162.525 95.418 162.525C95.2289 162.525 95.0835 162.452 94.972 162.312C94.8605 162.166 94.8072 161.987 94.8072 161.778C94.8072 161.57 94.8605 161.391 94.972 161.25C95.0835 161.105 95.2289 161.032 95.418 161.032C95.6071 161.032 95.7525 161.105 95.864 161.25C95.9755 161.391 96.0288 161.57 96.0288 161.778ZM97.264 162.137C97.264 162.733 97.5985 163.039 98.1608 163.039C98.3014 163.039 98.4323 163.01 98.5584 162.952L98.4178 162.467C98.3451 162.506 98.2675 162.525 98.1851 162.525C97.9718 162.525 97.8651 162.418 97.8651 162.127V161.071H98.5099V160.557H97.8651V159.568L97.264 159.946V160.557H96.8859V161.071H97.264V162.137ZM99.0583 162.137C99.0583 162.733 99.3927 163.039 99.9551 163.039C100.096 163.039 100.227 163.01 100.353 162.952L100.212 162.467C100.139 162.506 100.062 162.525 99.9793 162.525C99.766 162.525 99.6594 162.418 99.6594 162.127V161.071H100.304V160.557H99.6594V159.568L99.0583 159.946V160.557H98.6801V161.071H99.0583V162.137ZM102.828 161.725C102.828 161.148 102.465 160.518 101.689 160.518C100.884 160.518 100.516 161.163 100.516 161.778C100.516 162.394 100.884 163.039 101.689 163.039C102.251 163.039 102.601 162.787 102.799 162.326L102.315 162.147C102.164 162.404 101.995 162.525 101.723 162.525C101.408 162.525 101.195 162.336 101.141 161.972H102.828V161.725ZM101.156 161.497C101.233 161.192 101.432 161.032 101.689 161.032C101.985 161.032 102.155 161.226 102.213 161.497H101.156ZM103.369 163H103.97V162.132C103.97 161.391 104.242 161.056 104.625 161.056C104.717 161.056 104.804 161.08 104.877 161.124L104.988 160.566C104.882 160.532 104.785 160.518 104.693 160.518C104.407 160.518 104.145 160.678 103.97 160.954V160.557H103.369V163Z" fill="#00274E"/>
<circle cx="80.7731" cy="26.7731" r="11.7731" fill="#108BE3"/>
<path d="M80.7022 24.7085L78.3374 26.4283L79.2364 29.1839H82.1484L83.0474 26.4283L80.7022 24.7085Z" fill="#00274E"/>
<path d="M61.0955 48H61.7708V46.5768H62.4668C63.2095 46.5768 63.6042 46.1353 63.6042 45.4705C63.6042 44.8057 63.2095 44.3642 62.4668 44.3642H61.0955V48ZM61.7708 45.9536V44.9875H62.4408C62.7472 44.9875 62.9186 45.1433 62.9186 45.4705C62.9186 45.7977 62.7472 45.9536 62.4408 45.9536H61.7708ZM66.3075 46.634C66.3075 46.0159 65.9179 45.3407 65.0869 45.3407C64.2247 45.3407 63.8299 46.0315 63.8299 46.6911C63.8299 47.3507 64.2247 48.0416 65.0869 48.0416C65.6894 48.0416 66.0634 47.7715 66.2763 47.278L65.7569 47.0859C65.5959 47.3611 65.4141 47.491 65.1233 47.491C64.7856 47.491 64.5571 47.2884 64.5 46.8989H66.3075V46.634ZM64.5156 46.3899C64.5987 46.0626 64.8116 45.8912 65.0869 45.8912C65.4037 45.8912 65.5855 46.099 65.6479 46.3899H64.5156ZM66.8869 48H67.5309V44.3226H66.8869V48ZM68.2564 48H68.9005V45.3822H68.2564V48ZM68.3187 45.1329H68.7862L69.5393 44.3226H68.6667L68.3187 45.1329ZM69.4703 46.6911C69.4703 47.4494 69.917 48.0416 70.7481 48.0416C71.3298 48.0416 71.7453 47.787 71.9375 47.2936L71.361 47.0599C71.2207 47.3456 71.0337 47.491 70.7481 47.491C70.3533 47.491 70.1456 47.169 70.1456 46.6911C70.1456 46.2133 70.3533 45.8912 70.7481 45.8912C71.0337 45.8912 71.2207 46.0367 71.361 46.3223L71.9375 46.0886C71.7453 45.5952 71.3298 45.3407 70.7481 45.3407C69.917 45.3407 69.4703 45.9328 69.4703 46.6911ZM72.436 47.2521C72.436 47.7663 72.758 48.0416 73.241 48.0416C73.5683 48.0416 73.8487 47.865 74.0513 47.5793V48H74.6954V45.3822H74.0513V46.4262C74.0513 47.0962 73.7708 47.491 73.454 47.491C73.2255 47.491 73.08 47.3559 73.08 47.0599V45.3822H72.436V47.2521ZM75.4235 48H76.0676V44.3226H75.4235V48ZM76.5972 47.2469C76.5972 47.7507 76.9296 48.0416 77.3918 48.0416C77.7243 48.0416 77.9943 47.9169 78.1969 47.6676L78.2644 48H78.7942V46.4366C78.7942 45.7146 78.3943 45.3407 77.6931 45.3407C77.1737 45.3407 76.7789 45.6315 76.6958 46.0678L77.2412 46.1925C77.3191 45.9899 77.4697 45.8912 77.6931 45.8912C77.958 45.8912 78.1502 46.0211 78.1502 46.2756V46.3899H77.6931C77.0231 46.3899 76.5972 46.7275 76.5972 47.2469ZM78.1502 46.9508C78.1502 47.278 77.8749 47.491 77.5632 47.491C77.3918 47.491 77.2724 47.3871 77.2724 47.2365C77.2724 47.0079 77.4334 46.8989 77.7191 46.8989H78.1502V46.9508ZM79.2335 47.3352C79.2907 47.5273 79.4101 47.6936 79.5919 47.8338C79.7737 47.974 80.0022 48.0416 80.2723 48.0416C80.5372 48.0416 80.7502 47.9636 80.9164 47.813C81.0826 47.6572 81.1657 47.4494 81.1657 47.1949C81.1657 46.8261 80.9372 46.6028 80.5268 46.4574C80.1061 46.3067 79.9919 46.2133 79.9919 46.0886C79.9919 45.9691 80.1061 45.8912 80.2464 45.8912C80.423 45.8912 80.5632 45.9691 80.6671 46.1198L81.0514 45.7666C80.8904 45.4965 80.584 45.3407 80.2308 45.3407C79.7529 45.3407 79.4049 45.6679 79.4049 46.073C79.4049 46.4522 79.6335 46.6807 80.0282 46.8417C80.3866 46.982 80.5684 47.0755 80.5684 47.2365C80.5684 47.4027 80.4333 47.491 80.2671 47.491C80.023 47.491 79.8464 47.33 79.7477 47.0599L79.2335 47.3352ZM84.5233 45.3822L83.9416 46.9924L83.3442 45.3822H82.695L83.6403 47.8234L83.1936 49.0596H83.8169L85.1673 45.3822H84.5233ZM86.6847 47.3352C86.7419 47.5273 86.8613 47.6936 87.0431 47.8338C87.2249 47.974 87.4534 48.0416 87.7235 48.0416C87.9884 48.0416 88.2014 47.9636 88.3676 47.813C88.5338 47.6572 88.6169 47.4494 88.6169 47.1949C88.6169 46.8261 88.3884 46.6028 87.978 46.4574C87.5573 46.3067 87.4431 46.2133 87.4431 46.0886C87.4431 45.9691 87.5573 45.8912 87.6976 45.8912C87.8742 45.8912 88.0144 45.9691 88.1183 46.1198L88.5026 45.7666C88.3416 45.4965 88.0352 45.3407 87.682 45.3407C87.2041 45.3407 86.8561 45.6679 86.8561 46.073C86.8561 46.4522 87.0847 46.6807 87.4794 46.8417C87.8378 46.982 88.0196 47.0755 88.0196 47.2365C88.0196 47.4027 87.8846 47.491 87.7183 47.491C87.4742 47.491 87.2976 47.33 87.1989 47.0599L86.6847 47.3352ZM91.4255 46.634C91.4255 46.0159 91.0359 45.3407 90.2049 45.3407C89.3427 45.3407 88.9479 46.0315 88.9479 46.6911C88.9479 47.3507 89.3427 48.0416 90.2049 48.0416C90.8074 48.0416 91.1814 47.7715 91.3943 47.278L90.8749 47.0859C90.7139 47.3611 90.5321 47.491 90.2413 47.491C89.9036 47.491 89.6751 47.2884 89.618 46.8989H91.4255V46.634ZM89.6336 46.3899C89.7167 46.0626 89.9296 45.8912 90.2049 45.8912C90.5217 45.8912 90.7035 46.099 90.7659 46.3899H89.6336ZM92.0049 48H92.6489V47.0703C92.6489 46.2756 92.9398 45.9172 93.3501 45.9172C93.4488 45.9172 93.5423 45.9432 93.6202 45.9899L93.7397 45.3926C93.6254 45.3562 93.5215 45.3407 93.4228 45.3407C93.1164 45.3407 92.8359 45.5121 92.6489 45.8081V45.3822H92.0049V48ZM94.1707 48H94.8148V45.3822H94.1707V48ZM94.0773 44.6291C94.0773 44.8628 94.259 45.0446 94.4928 45.0446C94.7265 45.0446 94.9083 44.8628 94.9083 44.6291C94.9083 44.3953 94.7265 44.2136 94.4928 44.2136C94.259 44.2136 94.0773 44.3953 94.0773 44.6291ZM97.8622 46.634C97.8622 46.0159 97.4727 45.3407 96.6416 45.3407C95.7794 45.3407 95.3847 46.0315 95.3847 46.6911C95.3847 47.3507 95.7794 48.0416 96.6416 48.0416C97.2442 48.0416 97.6181 47.7715 97.8311 47.278L97.3117 47.0859C97.1507 47.3611 96.9689 47.491 96.678 47.491C96.3404 47.491 96.1119 47.2884 96.0547 46.8989H97.8622V46.634ZM96.0703 46.3899C96.1534 46.0626 96.3664 45.8912 96.6416 45.8912C96.9585 45.8912 97.1403 46.099 97.2026 46.3899H96.0703ZM98.1988 47.3352C98.256 47.5273 98.3754 47.6936 98.5572 47.8338C98.739 47.974 98.9676 48.0416 99.2376 48.0416C99.5025 48.0416 99.7155 47.9636 99.8817 47.813C100.048 47.6572 100.131 47.4494 100.131 47.1949C100.131 46.8261 99.9025 46.6028 99.4922 46.4574C99.0714 46.3067 98.9572 46.2133 98.9572 46.0886C98.9572 45.9691 99.0714 45.8912 99.2117 45.8912C99.3883 45.8912 99.5285 45.9691 99.6324 46.1198L100.017 45.7666C99.8557 45.4965 99.5493 45.3407 99.1961 45.3407C98.7182 45.3407 98.3702 45.6679 98.3702 46.073C98.3702 46.4522 98.5988 46.6807 98.9935 46.8417C99.3519 46.982 99.5337 47.0755 99.5337 47.2365C99.5337 47.4027 99.3987 47.491 99.2324 47.491C98.9883 47.491 98.8117 47.33 98.713 47.0599L98.1988 47.3352Z" fill="#00274E"/>
<path d="M37.4723 54.9828C37.4723 54.7612 37.313 54.6019 37.0914 54.6019C36.8698 54.6019 36.7105 54.7612 36.7105 54.9828C36.7105 55.2045 36.8698 55.3637 37.0914 55.3637C37.313 55.3637 37.4723 55.2045 37.4723 54.9828ZM37.964 56.8181C37.964 56.271 37.5831 55.9801 37.1053 55.9801C36.6551 55.9801 36.3573 56.2225 36.2258 56.7073L36.572 56.8388C36.6759 56.5133 36.8421 56.3818 37.1191 56.3818C37.3684 56.3818 37.5347 56.548 37.5347 56.8042C37.5347 57.102 37.4169 57.2474 36.8352 57.5522C36.1911 57.8846 35.9834 58.127 35.9834 58.5494C35.9834 59.1242 36.4266 59.519 37.0568 59.519C37.7701 59.519 38.2133 59.1311 38.3241 58.4871L37.8879 58.4109C37.7701 58.8818 37.5208 59.1173 37.1053 59.1173C36.669 59.1173 36.4266 58.8957 36.4266 58.5286C36.4543 58.2101 36.4959 58.1754 37.1745 57.8015C37.7216 57.5175 37.964 57.2544 37.964 56.8181ZM39.0338 55.6269C39.0131 57.2405 40.0519 58.12 41.1738 58.1062C42.0879 58.1062 42.7528 57.5799 43.0021 56.7211L42.5519 56.5895C42.3649 57.2821 41.894 57.6768 41.1738 57.6768C40.1904 57.6768 39.5117 56.9289 39.5117 55.6269C39.5117 54.3249 40.1904 53.577 41.1738 53.577C41.894 53.577 42.3649 53.9717 42.5519 54.6643L43.0021 54.5327C42.7528 53.6739 42.0879 53.1476 41.1738 53.1476C40.0519 53.1338 39.0131 54.0133 39.0338 55.6269ZM43.6794 56.3056C43.6794 57.2405 44.3235 58.1062 45.3138 58.1062C46.3041 58.1062 46.9482 57.2405 46.9482 56.3056C46.9482 55.3707 46.3041 54.505 45.3138 54.505C44.3235 54.505 43.6794 55.3707 43.6794 56.3056ZM46.498 56.3056C46.498 57.0328 46.0687 57.7045 45.3138 57.7045C44.5589 57.7045 44.1296 57.0328 44.1296 56.3056C44.1296 55.5784 44.5589 54.9067 45.3138 54.9067C46.0687 54.9067 46.498 55.5784 46.498 56.3056ZM45.1407 54.1726H45.4869L46.2695 53.203H45.6254L45.1407 54.1726ZM47.8233 58.0508H48.2526V56.5203C48.2526 55.5438 48.7166 54.9067 49.2915 54.9067C49.7555 54.9067 49.9147 55.1629 49.9147 55.71V58.0508H50.3441V56.5203C50.3441 55.5438 50.8081 54.9067 51.3829 54.9067C51.8469 54.9067 52.0062 55.1629 52.0062 55.71V58.0508H52.4356V55.6546C52.4356 54.879 52.1239 54.505 51.4522 54.505C50.9882 54.505 50.5519 54.8305 50.3095 55.2806C50.2056 54.7612 49.887 54.505 49.3607 54.505C48.869 54.505 48.4743 54.8097 48.2526 55.2876V54.5604H47.8233V58.0508ZM53.31 56.3056C53.31 57.2405 53.9541 58.1062 54.9444 58.1062C55.9347 58.1062 56.5788 57.2405 56.5788 56.3056C56.5788 55.3707 55.9347 54.505 54.9444 54.505C53.9541 54.505 53.31 55.3707 53.31 56.3056ZM56.1286 56.3056C56.1286 57.0328 55.6993 57.7045 54.9444 57.7045C54.1895 57.7045 53.7602 57.0328 53.7602 56.3056C53.7602 55.5784 54.1895 54.9067 54.9444 54.9067C55.6993 54.9067 56.1286 55.5784 56.1286 56.3056ZM58.9771 57.1505C59.1087 57.6837 59.5242 58.1062 60.2375 58.1062C60.9024 58.1062 61.3179 57.7184 61.3179 57.0812C61.3179 56.5826 60.9647 56.264 60.4661 56.077C59.8774 55.8624 59.6627 55.71 59.6627 55.4053C59.6627 55.1006 59.8774 54.9067 60.1752 54.9067C60.4592 54.9067 60.6738 55.0244 60.8608 55.3083L61.1655 55.0452C60.9439 54.6781 60.6392 54.505 60.196 54.505C59.635 54.505 59.2195 54.8651 59.2195 55.4191C59.2195 55.9385 59.5242 56.1948 60.099 56.3956C60.6184 56.5826 60.8678 56.7488 60.8678 57.0882C60.8678 57.469 60.6323 57.7045 60.2375 57.7045C59.7597 57.7045 59.5035 57.4275 59.358 56.9496L58.9771 57.1505ZM64.9741 56.1117C64.9741 55.156 64.337 54.505 63.4436 54.505C62.5225 54.505 61.8923 55.2668 61.8923 56.3056C61.8923 57.3236 62.5364 58.1062 63.4436 58.1062C64.1084 58.1062 64.5447 57.8361 64.8979 57.1436L64.517 56.9566C64.2608 57.4898 63.9699 57.7045 63.4436 57.7045C63.0904 57.7045 62.8203 57.5729 62.6264 57.3028C62.4325 57.0328 62.3356 56.7003 62.3356 56.3056H64.9741V56.1117ZM62.3702 55.9039C62.5018 55.2599 62.9242 54.9067 63.4436 54.9067C64.06 54.9067 64.4478 55.2876 64.5309 55.9039H62.3702ZM67.5917 58.0508H68.0211V53.1476H67.5917V58.0508ZM69.0999 58.0508H69.5292V53.1476H69.0999V58.0508ZM70.333 57.0466C70.333 57.7668 70.7831 58.1062 71.4202 58.1062C71.9466 58.1062 72.3067 57.8707 72.5214 57.5106L72.6253 58.0508H72.9507V55.7377C72.9507 55.3568 72.833 55.0521 72.5975 54.8374C72.369 54.6158 72.0712 54.505 71.718 54.505C71.0809 54.505 70.5615 54.879 70.4715 55.4607L70.887 55.5576C70.9978 55.1698 71.2679 54.9067 71.718 54.9067C72.2167 54.9067 72.5214 55.1698 72.5214 55.7516V55.9039H71.9189C70.9216 55.9039 70.333 56.2917 70.333 57.0466ZM72.5214 56.4372C72.5214 57.3375 71.9535 57.7045 71.4618 57.7045C71.0393 57.7045 70.7831 57.469 70.7831 57.0466C70.7831 56.5757 71.1571 56.3056 71.9327 56.3056H72.5214V56.4372ZM73.949 58.0508H74.3783V56.5203C74.3783 55.5438 74.8423 54.9067 75.4171 54.9067C75.8811 54.9067 76.0404 55.1629 76.0404 55.71V58.0508H76.4698V56.5203C76.4698 55.5438 76.9338 54.9067 77.5086 54.9067C77.9726 54.9067 78.1319 55.1629 78.1319 55.71V58.0508H78.5613V55.6546C78.5613 54.879 78.2496 54.505 77.5779 54.505C77.1139 54.505 76.6776 54.8305 76.4352 55.2806C76.3313 54.7612 76.0127 54.505 75.4864 54.505C74.9947 54.505 74.6 54.8097 74.3783 55.2876V54.5604H73.949V58.0508ZM79.3481 57.0466C79.3481 57.7668 79.7983 58.1062 80.4354 58.1062C80.9617 58.1062 81.3218 57.8707 81.5365 57.5106L81.6404 58.0508H81.9659V55.7377C81.9659 55.3568 81.8482 55.0521 81.6127 54.8374C81.3842 54.6158 81.0864 54.505 80.7332 54.505C80.0961 54.505 79.5766 54.879 79.4866 55.4607L79.9021 55.5576C80.0129 55.1698 80.283 54.9067 80.7332 54.9067C81.2318 54.9067 81.5365 55.1698 81.5365 55.7516V55.9039H80.934C79.9368 55.9039 79.3481 56.2917 79.3481 57.0466ZM81.5365 56.4372C81.5365 57.3375 80.9686 57.7045 80.4769 57.7045C80.0545 57.7045 79.7983 57.469 79.7983 57.0466C79.7983 56.5757 80.1722 56.3056 80.9479 56.3056H81.5365V56.4372ZM83.3935 57.5937C83.4835 57.7322 83.6359 57.8499 83.8437 57.9538C84.0583 58.0577 84.273 58.1062 84.4946 58.1062C85.4919 58.1062 86.0528 57.3167 86.0528 56.3056C86.0528 55.2945 85.4919 54.505 84.4946 54.505C84.0583 54.505 83.6497 54.7128 83.3935 55.0521V54.8443V53.1476H82.9641V58.0508H83.3935V57.8015V57.5937ZM85.6027 56.3056C85.6027 57.1297 85.1941 57.7045 84.4739 57.7045C83.7536 57.7045 83.352 57.1297 83.352 56.3056C83.352 55.897 83.4489 55.5646 83.6428 55.3014C83.8437 55.0382 84.1207 54.9067 84.4739 54.9067C84.8271 54.9067 85.1041 55.0382 85.3049 55.3014C85.5057 55.5646 85.6027 55.897 85.6027 56.3056ZM86.6928 57.0466C86.6928 57.7668 87.1429 58.1062 87.7801 58.1062C88.3064 58.1062 88.6665 57.8707 88.8812 57.5106L88.9851 58.0508H89.3106V55.7377C89.3106 55.3568 89.1929 55.0521 88.9574 54.8374C88.7289 54.6158 88.4311 54.505 88.0779 54.505C87.4407 54.505 86.9213 54.879 86.8313 55.4607L87.2468 55.5576C87.3576 55.1698 87.6277 54.9067 88.0779 54.9067C88.5765 54.9067 88.8812 55.1698 88.8812 55.7516V55.9039H88.2787C87.2814 55.9039 86.6928 56.2917 86.6928 57.0466ZM88.8812 56.4372C88.8812 57.3375 88.3133 57.7045 87.8216 57.7045C87.3992 57.7045 87.1429 57.469 87.1429 57.0466C87.1429 56.5757 87.5169 56.3056 88.2926 56.3056H88.8812V56.4372ZM90.3088 58.0508H90.7382V56.5203C90.7382 55.5438 91.2299 54.9067 91.867 54.9067C92.3449 54.9067 92.5803 55.1906 92.5803 55.71V58.0508H93.0097V55.6546C93.0097 54.9274 92.6011 54.505 91.9363 54.505C91.4376 54.505 90.9806 54.8166 90.7382 55.2876V54.5604H90.3088V58.0508ZM95.8342 58.0508H96.2636V53.1476H95.8342V58.0508ZM97.1346 56.3056C97.1346 57.2405 97.7787 58.1062 98.769 58.1062C99.7593 58.1062 100.403 57.2405 100.403 56.3056C100.403 55.3707 99.7593 54.505 98.769 54.505C97.7787 54.505 97.1346 55.3707 97.1346 56.3056ZM99.9533 56.3056C99.9533 57.0328 99.5239 57.7045 98.769 57.7045C98.0142 57.7045 97.5848 57.0328 97.5848 56.3056C97.5848 55.5784 98.0142 54.9067 98.769 54.9067C99.5239 54.9067 99.9533 55.5784 99.9533 56.3056ZM100.976 57.1505C101.107 57.6837 101.523 58.1062 102.236 58.1062C102.901 58.1062 103.317 57.7184 103.317 57.0812C103.317 56.5826 102.963 56.264 102.465 56.077C101.876 55.8624 101.661 55.71 101.661 55.4053C101.661 55.1006 101.876 54.9067 102.174 54.9067C102.458 54.9067 102.672 55.0244 102.859 55.3083L103.164 55.0452C102.943 54.6781 102.638 54.505 102.195 54.505C101.634 54.505 101.218 54.8651 101.218 55.4191C101.218 55.9385 101.523 56.1948 102.098 56.3956C102.617 56.5826 102.866 56.7488 102.866 57.0882C102.866 57.469 102.631 57.7045 102.236 57.7045C101.758 57.7045 101.502 57.4275 101.357 56.9496L100.976 57.1505ZM105.918 59.4636H106.347V57.7668V57.5591C106.576 57.8984 107.026 58.1062 107.448 58.1062C108.446 58.1062 109.007 57.3167 109.007 56.3056C109.007 55.2945 108.446 54.505 107.448 54.505C106.998 54.505 106.541 54.7543 106.347 55.059V54.8513V54.5604H105.918V59.4636ZM108.557 56.3056C108.557 56.7142 108.46 57.0466 108.259 57.3098C108.058 57.5729 107.781 57.7045 107.428 57.7045C107.074 57.7045 106.797 57.5729 106.597 57.3098C106.403 57.0466 106.306 56.7142 106.306 56.3056C106.306 55.4815 106.707 54.9067 107.428 54.9067C108.148 54.9067 108.557 55.4815 108.557 56.3056ZM109.647 57.0466C109.647 57.7668 110.097 58.1062 110.734 58.1062C111.26 58.1062 111.62 57.8707 111.835 57.5106L111.939 58.0508H112.264V55.7377C112.264 55.3568 112.147 55.0521 111.911 54.8374C111.683 54.6158 111.385 54.505 111.032 54.505C110.395 54.505 109.875 54.879 109.785 55.4607L110.201 55.5576C110.311 55.1698 110.582 54.9067 111.032 54.9067C111.53 54.9067 111.835 55.1698 111.835 55.7516V55.9039H111.233C110.235 55.9039 109.647 56.2917 109.647 57.0466ZM111.835 56.4372C111.835 57.3375 111.267 57.7045 110.775 57.7045C110.353 57.7045 110.097 57.469 110.097 57.0466C110.097 56.5757 110.471 56.3056 111.246 56.3056H111.835V56.4372ZM113.055 56.3056C113.055 57.3167 113.616 58.1062 114.613 58.1062C115.049 58.1062 115.5 57.8569 115.714 57.5522V57.7599V58.0508H116.144V53.1476H115.714V54.8443V55.0521C115.465 54.6989 115.077 54.505 114.613 54.505C113.616 54.505 113.055 55.2945 113.055 56.3056ZM115.756 56.3056C115.756 57.1297 115.354 57.7045 114.634 57.7045C113.914 57.7045 113.505 57.1297 113.505 56.3056C113.505 55.897 113.602 55.5646 113.803 55.3014C114.004 55.0382 114.281 54.9067 114.634 54.9067C114.987 54.9067 115.264 55.0382 115.458 55.3014C115.659 55.5646 115.756 55.897 115.756 56.3056ZM117.226 58.0508H117.655V56.7003C117.655 55.5369 118.078 54.9067 118.618 54.9067C118.791 54.9067 118.957 54.9482 119.109 55.0313L119.206 54.6227C119.013 54.5396 118.867 54.505 118.68 54.505C118.216 54.505 117.87 54.7474 117.655 55.1837V54.5604H117.226V58.0508ZM122.528 56.1117C122.528 55.156 121.891 54.505 120.997 54.505C120.076 54.505 119.446 55.2668 119.446 56.3056C119.446 57.3236 120.09 58.1062 120.997 58.1062C121.662 58.1062 122.098 57.8361 122.452 57.1436L122.071 56.9566C121.814 57.4898 121.524 57.7045 120.997 57.7045C120.644 57.7045 120.374 57.5729 120.18 57.3028C119.986 57.0328 119.889 56.7003 119.889 56.3056H122.528V56.1117ZM119.924 55.9039C120.055 55.2599 120.478 54.9067 120.997 54.9067C121.614 54.9067 122.001 55.2876 122.085 55.9039H119.924ZM123.091 57.1505C123.223 57.6837 123.638 58.1062 124.351 58.1062C125.016 58.1062 125.432 57.7184 125.432 57.0812C125.432 56.5826 125.079 56.264 124.58 56.077C123.991 55.8624 123.777 55.71 123.777 55.4053C123.777 55.1006 123.991 54.9067 124.289 54.9067C124.573 54.9067 124.788 55.0244 124.975 55.3083L125.279 55.0452C125.058 54.6781 124.753 54.505 124.31 54.505C123.749 54.505 123.333 54.8651 123.333 55.4191C123.333 55.9385 123.638 56.1948 124.213 56.3956C124.732 56.5826 124.982 56.7488 124.982 57.0882C124.982 57.469 124.746 57.7045 124.351 57.7045C123.874 57.7045 123.617 57.4275 123.472 56.9496L123.091 57.1505ZM56.3432 64.3056C56.3432 65.3167 56.9042 66.1062 57.9014 66.1062C58.3377 66.1062 58.7879 65.8569 59.0026 65.5522V65.7599V66.0508H59.432V61.1476H59.0026V62.8443V63.0521C58.7533 62.6989 58.3654 62.505 57.9014 62.505C56.9042 62.505 56.3432 63.2945 56.3432 64.3056ZM59.0441 64.3056C59.0441 65.1297 58.6425 65.7045 57.9222 65.7045C57.202 65.7045 56.7934 65.1297 56.7934 64.3056C56.7934 63.897 56.8903 63.5646 57.0912 63.3014C57.292 63.0382 57.569 62.9067 57.9222 62.9067C58.2754 62.9067 58.5524 63.0382 58.7463 63.3014C58.9472 63.5646 59.0441 63.897 59.0441 64.3056ZM63.3882 64.1117C63.3882 63.156 62.7511 62.505 61.8577 62.505C60.9366 62.505 60.3064 63.2668 60.3064 64.3056C60.3064 65.3236 60.9505 66.1062 61.8577 66.1062C62.5225 66.1062 62.9588 65.8361 63.312 65.1436L62.9311 64.9566C62.6749 65.4898 62.384 65.7045 61.8577 65.7045C61.5045 65.7045 61.2344 65.5729 61.0405 65.3028C60.8466 65.0328 60.7496 64.7003 60.7496 64.3056H63.3882V64.1117ZM60.7842 63.9039C60.9158 63.2599 61.3383 62.9067 61.8577 62.9067C62.474 62.9067 62.8619 63.2876 62.945 63.9039H60.7842ZM66.0889 66.0508H66.5459V63.6823H69.0114V66.0508H69.4684V61.203H69.0114V63.2529H66.5459V61.203H66.0889V66.0508ZM70.3634 65.0466C70.3634 65.7668 70.8135 66.1062 71.4507 66.1062C71.977 66.1062 72.3371 65.8707 72.5518 65.5106L72.6557 66.0508H72.9812V63.7377C72.9812 63.3568 72.8634 63.0521 72.628 62.8374C72.3994 62.6158 72.1017 62.505 71.7485 62.505C71.1113 62.505 70.5919 62.879 70.5019 63.4607L70.9174 63.5576C71.0282 63.1698 71.2983 62.9067 71.7485 62.9067C72.2471 62.9067 72.5518 63.1698 72.5518 63.7516V63.9039H71.9493C70.952 63.9039 70.3634 64.2917 70.3634 65.0466ZM72.5518 64.4372C72.5518 65.3375 71.9839 65.7045 71.4922 65.7045C71.0698 65.7045 70.8135 65.469 70.8135 65.0466C70.8135 64.5757 71.1875 64.3056 71.9632 64.3056H72.5518V64.4372ZM73.9794 66.0508H74.4088V64.7003C74.4088 63.5369 74.8312 62.9067 75.3714 62.9067C75.5445 62.9067 75.7107 62.9482 75.8631 63.0313L75.9601 62.6227C75.7661 62.5396 75.6207 62.505 75.4337 62.505C74.9697 62.505 74.6235 62.7474 74.4088 63.1837V62.5604H73.9794V66.0508ZM76.5832 66.0508H77.0126V64.7003C77.0126 63.5369 77.435 62.9067 77.9752 62.9067C78.1483 62.9067 78.3145 62.9482 78.4669 63.0313L78.5638 62.6227C78.3699 62.5396 78.2245 62.505 78.0375 62.505C77.5735 62.505 77.2272 62.7474 77.0126 63.1837V62.5604H76.5832V66.0508ZM81.4518 62.5604L80.4754 65.3582L79.4435 62.5604H78.9933L80.2399 66.0231L79.7413 67.4636H80.1706L81.902 62.5604H81.4518ZM84.3424 66.0508H84.7994V63.8762H85.9906C86.8563 63.8762 87.3895 63.3707 87.3895 62.5396C87.3895 61.7086 86.8563 61.203 85.9906 61.203H84.3424V66.0508ZM84.7994 63.4468V61.6324H85.9975C86.6277 61.6324 86.9117 61.9856 86.9117 62.5396C86.9117 63.0936 86.6277 63.4468 85.9975 63.4468H84.7994ZM87.805 64.3056C87.805 65.2405 88.4491 66.1062 89.4394 66.1062C90.4297 66.1062 91.0738 65.2405 91.0738 64.3056C91.0738 63.3707 90.4297 62.505 89.4394 62.505C88.4491 62.505 87.805 63.3707 87.805 64.3056ZM90.6236 64.3056C90.6236 65.0328 90.1942 65.7045 89.4394 65.7045C88.6845 65.7045 88.2551 65.0328 88.2551 64.3056C88.2551 63.5784 88.6845 62.9067 89.4394 62.9067C90.1942 62.9067 90.6236 63.5784 90.6236 64.3056ZM92.0811 65.0605C92.0811 65.7599 92.4204 66.1062 92.9537 66.1062C93.2099 66.1062 93.4108 66.0646 93.5631 65.9815L93.4454 65.5937C93.3277 65.6699 93.1822 65.7045 93.0091 65.7045C92.7044 65.7045 92.5105 65.5106 92.5105 65.1297V62.9621H93.4523V62.5604H92.5105V61.1476L92.0811 61.4316V62.5604H91.4647V62.9621H92.0811V65.0605ZM94.4549 65.0605C94.4549 65.7599 94.7943 66.1062 95.3275 66.1062C95.5838 66.1062 95.7846 66.0646 95.937 65.9815L95.8192 65.5937C95.7015 65.6699 95.5561 65.7045 95.3829 65.7045C95.0782 65.7045 94.8843 65.5106 94.8843 65.1297V62.9621H95.8261V62.5604H94.8843V61.1476L94.4549 61.4316V62.5604H93.8386V62.9621H94.4549V65.0605ZM99.3744 64.1117C99.3744 63.156 98.7373 62.505 97.8439 62.505C96.9228 62.505 96.2926 63.2668 96.2926 64.3056C96.2926 65.3236 96.9367 66.1062 97.8439 66.1062C98.5088 66.1062 98.9451 65.8361 99.2982 65.1436L98.9174 64.9566C98.6611 65.4898 98.3702 65.7045 97.8439 65.7045C97.4907 65.7045 97.2206 65.5729 97.0267 65.3028C96.8328 65.0328 96.7359 64.7003 96.7359 64.3056H99.3744V64.1117ZM96.7705 63.9039C96.9021 63.2599 97.3245 62.9067 97.8439 62.9067C98.4603 62.9067 98.8481 63.2876 98.9312 63.9039H96.7705ZM100.247 66.0508H100.677V64.7003C100.677 63.5369 101.099 62.9067 101.639 62.9067C101.812 62.9067 101.978 62.9482 102.131 63.0313L102.228 62.6227C102.034 62.5396 101.888 62.505 101.701 62.505C101.237 62.505 100.891 62.7474 100.677 63.1837V62.5604H100.247V66.0508ZM103.044 63.8485C103.044 64.3956 103.425 64.6865 103.903 64.6865C104.353 64.6865 104.651 64.4441 104.782 63.9593L104.436 63.8277C104.332 64.1532 104.166 64.2848 103.889 64.2848C103.647 64.2848 103.474 64.1117 103.474 63.8624C103.474 63.5646 103.591 63.4191 104.173 63.1144C104.817 62.782 105.025 62.5396 105.025 62.1172C105.025 61.5424 104.582 61.1476 103.951 61.1476C103.238 61.1476 102.795 61.5354 102.684 62.1795L103.12 62.2557C103.238 61.7848 103.487 61.5493 103.903 61.5493C104.339 61.5493 104.582 61.7709 104.582 62.1379C104.554 62.4565 104.505 62.4911 103.834 62.8651C103.287 63.149 103.044 63.4122 103.044 63.8485ZM103.536 65.6837C103.536 65.9053 103.695 66.0646 103.917 66.0646C104.138 66.0646 104.298 65.9053 104.298 65.6837C104.298 65.4621 104.138 65.3028 103.917 65.3028C103.695 65.3028 103.536 65.4621 103.536 65.6837Z" fill="#00274E"/>
<g clip-path="url(#clip0_1644_2)">
<path d="M84.0816 21.8718C84.0816 21.8392 84.0816 21.8065 84.0816 21.7739C84.0816 20.2401 82.9184 19 81.4796 19C80.6837 19 79.9796 19.359 79.5204 19.979C79.2449 19.7506 78.9082 19.5874 78.5408 19.5874C77.7143 19.5874 77.0408 20.3054 77.0408 21.1865C77.0408 21.317 77.0714 21.4476 77.102 21.5781C76.4592 21.9044 76 22.6224 76 23.4709C76 24.6783 76.9184 25.6573 78.051 25.6573C79 25.6573 79.7959 24.972 80.0102 24.0256C80.4388 24.352 80.9286 24.5152 81.5102 24.5152C81.8163 24.5152 82.0918 24.4499 82.3673 24.352C82.6429 24.711 83.0408 24.9394 83.5 24.9394C84.3265 24.9394 85 24.2214 85 23.3403C85 22.655 84.6327 22.1002 84.0816 21.8718Z" fill="white"/>
<path d="M83.9592 32.9999H77.0408L76 23.5034H85L83.9592 32.9999Z" fill="#00274E"/>
<path d="M80.5 30.0954C81.6835 30.0954 82.6429 29.4087 82.6429 28.5616C82.6429 27.7145 81.6835 27.0278 80.5 27.0278C79.3166 27.0278 78.3572 27.7145 78.3572 28.5616C78.3572 29.4087 79.3166 30.0954 80.5 30.0954Z" fill="#ABDEEA"/>
</g>
<defs>
<clipPath id="clip0_1644_2">
<rect width="9" height="14" fill="white" transform="translate(76 19)"/>
</clipPath>
</defs>
</svg>
