<svg width="68" height="68" viewBox="0 0 68 68" fill="none" xmlns="http://www.w3.org/2000/svg">
<circle cx="34" cy="34" r="34" fill="#00274E"/>
<path d="M33.5532 33.6L46.7893 20.5986C43.4568 16.9844 38.857 15.107 33.5532 15.0131C33.5532 15.0131 33.5532 15.0131 33.5063 15.0131C28.6249 14.8254 24.3536 16.6559 20.5518 20.3639L33.5532 33.6Z" fill="#F8534B"/>
<path d="M46.7888 20.5985L33.5527 33.5999H52.1866C52.3743 28.6716 50.4968 24.4004 46.7888 20.5985Z" fill="#108BE3"/>
<path d="M33.5996 33.5999L46.601 46.836C50.2152 43.5035 52.0457 38.9037 52.1396 33.5999H33.5996Z" fill="#108BE3"/>
<path d="M20.5522 20.3638C16.9381 23.6963 15.1075 28.2961 15.0137 33.5999H33.5536L20.5522 20.3638Z" fill="#F6A442"/>
<path d="M15.0131 33.6C14.8254 38.5283 16.6559 42.7995 20.3639 46.6483L33.6469 33.6H15.0131Z" fill="#F6A442"/>
<path d="M46.6478 46.8831L33.6463 33.6939V33.647L33.5994 33.6939L20.3633 46.6484C23.6958 50.2625 28.2956 52.14 33.5994 52.1869C33.5994 52.1869 33.5994 52.1869 33.6463 52.1869C38.5747 52.3747 42.8459 50.5441 46.6478 46.8831Z" fill="#0CC482"/>
<g clip-path="url(#clip0_418_2159)">
<path d="M36.6357 26.4858L33.5197 22L30.4037 26.4858C27.2088 27.7561 25 30.8526 25 34.465C25 39.189 28.826 43.0397 33.5197 43.0397C38.2135 43.0397 42.0394 39.189 42.0394 34.465C42 30.8526 39.7912 27.7561 36.6357 26.4858Z" fill="white"/>
</g>
<defs>
<clipPath id="clip0_418_2159">
<rect width="17" height="21" fill="white" transform="translate(25 22)"/>
</clipPath>
</defs>
</svg>
