<svg width="159" height="194" viewBox="0 0 159 194" fill="none" xmlns="http://www.w3.org/2000/svg">
<rect width="159" height="194" rx="15" fill="#00274E"/>
<rect x="22" y="86.3311" width="116" height="18.006" rx="9.00299" fill="#E2F4F8"/>
<rect x="22" y="108.493" width="116" height="18.006" rx="9.00299" fill="#E2F4F8"/>
<rect x="22" y="130.654" width="116" height="18.006" rx="9.00299" fill="#E2F4F8"/>
<rect x="22" y="152.815" width="116" height="18.006" rx="9.00299" fill="#E2F4F8"/>
<rect x="22" y="26.7729" width="116" height="55.403" rx="8.65672" fill="#E2F4F8"/>
<path d="M61.5781 95.3033C61.5636 96.4231 62.315 97.0485 63.144 97.0388C63.5463 97.0388 63.8178 96.8691 63.9681 96.6364L64.0214 97H64.5498V95.2887H63.3088V95.8123H63.939C63.8954 96.1613 63.6384 96.4571 63.1779 96.4571C62.6107 96.4571 62.218 96.0789 62.218 95.3033C62.218 94.547 62.6155 94.1495 63.1924 94.1495C63.5754 94.1495 63.8517 94.3628 64.0262 94.7894L64.6031 94.6391C64.4238 93.9944 63.9244 93.5678 63.1924 93.5678C62.3295 93.5678 61.5781 94.1835 61.5781 95.3033ZM65.2214 97H65.8225V96.1323C65.8225 95.3905 66.094 95.056 66.477 95.056C66.5691 95.056 66.6563 95.0803 66.7291 95.1239L66.8406 94.5664C66.7339 94.5325 66.637 94.5179 66.5448 94.5179C66.2588 94.5179 65.9971 94.6779 65.8225 94.9542V94.5567H65.2214V97ZM66.9935 95.7784C66.9935 96.4958 67.4638 97.0388 68.2346 97.0388C69.0054 97.0388 69.4756 96.4958 69.4756 95.7784C69.4756 95.0609 69.0054 94.5179 68.2346 94.5179C67.4638 94.5179 66.9935 95.0609 66.9935 95.7784ZM68.8454 95.7784C68.8454 95.9868 68.7921 96.1662 68.6806 96.3116C68.5691 96.4522 68.4236 96.5249 68.2346 96.5249C68.0455 96.5249 67.9001 96.4522 67.7886 96.3116C67.6771 96.1662 67.6237 95.9868 67.6237 95.7784C67.6237 95.5699 67.6771 95.3905 67.7886 95.25C67.9001 95.1045 68.0455 95.0318 68.2346 95.0318C68.4236 95.0318 68.5691 95.1045 68.6806 95.25C68.7921 95.3905 68.8454 95.5699 68.8454 95.7784ZM70.5224 97H71.0653L71.8943 94.5567H71.2883L70.7939 96.2583L70.2994 94.5567H69.6934L70.5224 97ZM74.4188 95.725C74.4188 95.1482 74.0552 94.5179 73.2796 94.5179C72.4748 94.5179 72.1064 95.1627 72.1064 95.7784C72.1064 96.394 72.4748 97.0388 73.2796 97.0388C73.8419 97.0388 74.1909 96.7867 74.3897 96.3262L73.9049 96.1468C73.7546 96.4037 73.585 96.5249 73.3135 96.5249C72.9984 96.5249 72.7851 96.3359 72.7318 95.9723H74.4188V95.725ZM72.7463 95.4972C72.8239 95.1918 73.0226 95.0318 73.2796 95.0318C73.5753 95.0318 73.7449 95.2257 73.8031 95.4972H72.7463ZM74.9595 97H75.5607V96.1323C75.5607 95.3905 75.8321 95.056 76.2151 95.056C76.3072 95.056 76.3945 95.0803 76.4672 95.1239L76.5787 94.5664C76.472 94.5325 76.3751 94.5179 76.283 94.5179C75.997 94.5179 75.7352 94.6779 75.5607 94.9542V94.5567H74.9595V97ZM78.0671 95.3033C78.0526 96.4037 78.8089 97.0485 79.6718 97.0388C80.4086 97.0388 80.9176 96.6655 81.0776 96.0111L80.5104 95.8656C80.3698 96.2389 80.1177 96.4571 79.6718 96.4571C79.1288 96.4571 78.707 96.0644 78.707 95.3033C78.707 94.5422 79.1288 94.1495 79.6718 94.1495C80.1177 94.1495 80.3698 94.3677 80.5104 94.7409L81.0776 94.5955C80.9176 93.9411 80.4086 93.5678 79.6718 93.5678C78.8089 93.5581 78.0526 94.2028 78.0671 95.3033ZM81.6205 97H82.2216V93.5678H81.6205V97ZM85.0753 95.725C85.0753 95.1482 84.7118 94.5179 83.9361 94.5179C83.1314 94.5179 82.763 95.1627 82.763 95.7784C82.763 96.394 83.1314 97.0388 83.9361 97.0388C84.4985 97.0388 84.8475 96.7867 85.0463 96.3262L84.5615 96.1468C84.4112 96.4037 84.2415 96.5249 83.97 96.5249C83.6549 96.5249 83.4416 96.3359 83.3883 95.9723H85.0753V95.725ZM83.4029 95.4972C83.4804 95.1918 83.6792 95.0318 83.9361 95.0318C84.2318 95.0318 84.4015 95.2257 84.4597 95.4972H83.4029ZM86.1498 97H86.6927L87.5217 94.5567H86.9157L86.4213 96.2583L85.9268 94.5567H85.3208L86.1498 97ZM90.0462 95.725C90.0462 95.1482 89.6826 94.5179 88.907 94.5179C88.1022 94.5179 87.7338 95.1627 87.7338 95.7784C87.7338 96.394 88.1022 97.0388 88.907 97.0388C89.4693 97.0388 89.8183 96.7867 90.0171 96.3262L89.5323 96.1468C89.382 96.4037 89.2124 96.5249 88.9409 96.5249C88.6258 96.5249 88.4125 96.3359 88.3592 95.9723H90.0462V95.725ZM88.3737 95.4972C88.4513 95.1918 88.65 95.0318 88.907 95.0318C89.2027 95.0318 89.3724 95.2257 89.4305 95.4972H88.3737ZM90.5869 97H91.1881V93.5678H90.5869V97ZM91.6823 96.2971C91.6823 96.7673 91.9926 97.0388 92.424 97.0388C92.7343 97.0388 92.9864 96.9224 93.1754 96.6897L93.2384 97H93.7329V95.5408C93.7329 94.867 93.3596 94.5179 92.7052 94.5179C92.2204 94.5179 91.852 94.7894 91.7744 95.1966L92.2834 95.313C92.3561 95.1239 92.4967 95.0318 92.7052 95.0318C92.9524 95.0318 93.1318 95.153 93.1318 95.3905V95.4972H92.7052C92.0798 95.4972 91.6823 95.8123 91.6823 96.2971ZM93.1318 96.0208C93.1318 96.3262 92.8749 96.5249 92.584 96.5249C92.424 96.5249 92.3125 96.428 92.3125 96.2874C92.3125 96.0741 92.4628 95.9723 92.7294 95.9723H93.1318V96.0208ZM94.3459 97H94.947V96.0256C94.947 95.4002 95.2088 95.0318 95.5045 95.0318C95.7178 95.0318 95.8535 95.1579 95.8535 95.4342V97H96.4546V95.2548C96.4546 94.7749 96.1541 94.5179 95.7032 94.5179C95.3978 94.5179 95.136 94.6828 94.947 94.9494V94.5567H94.3459V97ZM96.9985 95.7784C96.9985 96.5492 97.3863 97.0388 98.065 97.0388C98.3801 97.0388 98.6274 96.8982 98.7049 96.7479V96.8933V97H99.3061V93.5678H98.7049V94.6343V94.7797C98.5886 94.6294 98.3414 94.5179 98.065 94.5179C97.3863 94.5179 96.9985 95.0076 96.9985 95.7784ZM98.7583 95.7784C98.7583 96.2486 98.5256 96.5249 98.1959 96.5249C97.8663 96.5249 97.6287 96.2437 97.6287 95.7784C97.6287 95.3081 97.8663 95.0318 98.1959 95.0318C98.5256 95.0318 98.7583 95.3081 98.7583 95.7784Z" fill="#00274E"/>
<path d="M61.4267 119H62.1054L62.3527 118.2H63.4289L63.6761 119H64.3548L63.2059 115.607H62.5757L61.4267 119ZM62.532 117.618L62.8908 116.44L63.2495 117.618H62.532ZM65.3438 118.748C65.4214 118.889 65.6589 119.039 65.9353 119.039C66.6527 119.039 67.0502 118.549 67.0502 117.778C67.0502 117.008 66.6527 116.518 65.9353 116.518C65.6977 116.518 65.4553 116.639 65.3438 116.78V116.634V115.568H64.7427V119H65.3438V118.893V118.748ZM66.42 117.778C66.42 118.244 66.1825 118.525 65.8529 118.525C65.5232 118.525 65.2905 118.249 65.2905 117.778C65.2905 117.308 65.5232 117.032 65.8529 117.032C66.1825 117.032 66.42 117.308 66.42 117.778ZM67.5927 119H68.1938V118.132C68.1938 117.391 68.4653 117.056 68.8482 117.056C68.9403 117.056 69.0276 117.08 69.1003 117.124L69.2118 116.566C69.1052 116.532 69.0082 116.518 68.9161 116.518C68.6301 116.518 68.3683 116.678 68.1938 116.954V116.557H67.5927V119ZM69.3555 118.297C69.3555 118.767 69.6658 119.039 70.0973 119.039C70.4075 119.039 70.6596 118.922 70.8487 118.69L70.9117 119H71.4062V117.541C71.4062 116.867 71.0329 116.518 70.3784 116.518C69.8936 116.518 69.5252 116.789 69.4477 117.197L69.9567 117.313C70.0294 117.124 70.17 117.032 70.3784 117.032C70.6257 117.032 70.805 117.153 70.805 117.391V117.497H70.3784C69.7531 117.497 69.3555 117.812 69.3555 118.297ZM70.805 118.021C70.805 118.326 70.5481 118.525 70.2572 118.525C70.0973 118.525 69.9858 118.428 69.9858 118.287C69.9858 118.074 70.136 117.972 70.4027 117.972H70.805V118.021ZM72.038 119H72.6392V117.967C72.6392 117.337 72.9203 117.032 73.2112 117.032C73.4584 117.032 73.5748 117.172 73.5748 117.468V119H74.1759V117.255C74.1759 116.77 73.885 116.518 73.4148 116.518C73.0803 116.518 72.7991 116.692 72.6392 116.949V115.568H72.038V119ZM74.6531 118.297C74.6531 118.767 74.9633 119.039 75.3948 119.039C75.705 119.039 75.9571 118.922 76.1462 118.69L76.2092 119H76.7037V117.541C76.7037 116.867 76.3304 116.518 75.6759 116.518C75.1912 116.518 74.8227 116.789 74.7452 117.197L75.2542 117.313C75.3269 117.124 75.4675 117.032 75.6759 117.032C75.9232 117.032 76.1025 117.153 76.1025 117.391V117.497H75.6759C75.0506 117.497 74.6531 117.812 74.6531 118.297ZM76.1025 118.021C76.1025 118.326 75.8456 118.525 75.5547 118.525C75.3948 118.525 75.2833 118.428 75.2833 118.287C75.2833 118.074 75.4335 117.972 75.7002 117.972H76.1025V118.021ZM77.3166 119H77.9177V118.103C77.9177 117.405 78.1359 117.032 78.4461 117.032C78.6449 117.032 78.7467 117.143 78.7467 117.371V119H79.3478V118.05C79.3478 117.391 79.566 117.032 79.8762 117.032C80.075 117.032 80.1768 117.143 80.1768 117.371V119H80.7779V117.269C80.7779 116.799 80.5016 116.518 80.0507 116.518C79.755 116.518 79.4787 116.707 79.3042 117.022C79.2024 116.688 78.9357 116.518 78.6206 116.518C78.3152 116.518 78.1068 116.663 77.9177 116.949V116.557H77.3166V119ZM82.7052 119H84.7752V118.418H83.3354V115.607H82.7052V119ZM85.2794 119H85.8805V116.557H85.2794V119ZM85.1922 115.854C85.1922 116.072 85.3618 116.242 85.58 116.242C85.7981 116.242 85.9678 116.072 85.9678 115.854C85.9678 115.636 85.7981 115.466 85.58 115.466C85.3618 115.466 85.1922 115.636 85.1922 115.854ZM86.5387 119H87.1398V118.026C87.1398 117.4 87.4016 117.032 87.6973 117.032C87.9106 117.032 88.0464 117.158 88.0464 117.434V119H88.6475V117.255C88.6475 116.775 88.3469 116.518 87.8961 116.518C87.5907 116.518 87.3289 116.683 87.1398 116.949V116.557H86.5387V119ZM89.1914 117.778C89.1914 118.486 89.6083 119.039 90.3839 119.039C90.9269 119.039 91.3147 118.801 91.4941 118.341L90.956 118.123C90.8251 118.389 90.6506 118.525 90.3839 118.525C90.0155 118.525 89.8216 118.224 89.8216 117.778C89.8216 117.332 90.0155 117.032 90.3839 117.032C90.6506 117.032 90.8251 117.168 90.956 117.434L91.4941 117.216C91.3147 116.755 90.9269 116.518 90.3839 116.518C89.6083 116.518 89.1914 117.071 89.1914 117.778ZM91.8709 117.778C91.8709 118.496 92.3411 119.039 93.1119 119.039C93.8827 119.039 94.353 118.496 94.353 117.778C94.353 117.061 93.8827 116.518 93.1119 116.518C92.3411 116.518 91.8709 117.061 91.8709 117.778ZM93.7227 117.778C93.7227 117.987 93.6694 118.166 93.5579 118.312C93.4464 118.452 93.301 118.525 93.1119 118.525C92.9229 118.525 92.7774 118.452 92.6659 118.312C92.5544 118.166 92.5011 117.987 92.5011 117.778C92.5011 117.57 92.5544 117.391 92.6659 117.25C92.7774 117.105 92.9229 117.032 93.1119 117.032C93.301 117.032 93.4464 117.105 93.5579 117.25C93.6694 117.391 93.7227 117.57 93.7227 117.778ZM94.8945 119H95.4956V115.568H94.8945V119ZM96.1727 119H96.7738V118.026C96.7738 117.4 97.0356 117.032 97.3313 117.032C97.5446 117.032 97.6803 117.158 97.6803 117.434V119H98.2815V117.255C98.2815 116.775 97.9809 116.518 97.5301 116.518C97.2246 116.518 96.9629 116.683 96.7738 116.949V116.557H96.1727V119Z" fill="#00274E"/>
<path d="M61.8189 140.161C61.8916 140.709 62.2794 141.039 62.866 141.039C63.5689 141.039 63.9471 140.685 63.9471 139.807V137.607H63.3168V139.875C63.3168 140.302 63.1569 140.457 62.866 140.457C62.6382 140.457 62.4976 140.326 62.4394 140.03L61.8189 140.161ZM64.5005 139.778C64.5005 140.496 64.9707 141.039 65.7415 141.039C66.5123 141.039 66.9825 140.496 66.9825 139.778C66.9825 139.061 66.5123 138.518 65.7415 138.518C64.9707 138.518 64.5005 139.061 64.5005 139.778ZM66.3523 139.778C66.3523 139.987 66.299 140.166 66.1875 140.312C66.076 140.452 65.9305 140.525 65.7415 140.525C65.5524 140.525 65.407 140.452 65.2955 140.312C65.184 140.166 65.1307 139.987 65.1307 139.778C65.1307 139.57 65.184 139.391 65.2955 139.25C65.407 139.105 65.5524 139.032 65.7415 139.032C65.9305 139.032 66.076 139.105 66.1875 139.25C66.299 139.391 66.3523 139.57 66.3523 139.778ZM67.524 141H68.1251V139.967C68.1251 139.337 68.4063 139.032 68.6972 139.032C68.9444 139.032 69.0608 139.172 69.0608 139.468V141H69.6619V139.255C69.6619 138.77 69.371 138.518 68.9008 138.518C68.5663 138.518 68.2851 138.692 68.1251 138.949V137.568H67.524V141ZM70.3219 141H70.923V140.026C70.923 139.4 71.1848 139.032 71.4805 139.032C71.6938 139.032 71.8296 139.158 71.8296 139.434V141H72.4307V139.255C72.4307 138.775 72.1301 138.518 71.6793 138.518C71.3739 138.518 71.1121 138.683 70.923 138.949V138.557H70.3219V141ZM74.3613 141H74.9915V139.546H76.2131V138.964H74.9915V138.188H76.5088V137.607H74.3613V141ZM76.9147 140.622C76.9147 140.855 77.0893 141.029 77.322 141.029C77.5546 141.029 77.7292 140.855 77.7292 140.622C77.7292 140.389 77.5546 140.215 77.322 140.215C77.0893 140.215 76.9147 140.389 76.9147 140.622ZM79.583 141H80.2132V139.381L81.4446 141H82.2444L80.7707 139.124L82.1475 137.607H81.3718L80.2132 138.867V137.607H79.583V141ZM84.5659 139.725C84.5659 139.148 84.2023 138.518 83.4266 138.518C82.6219 138.518 82.2535 139.163 82.2535 139.778C82.2535 140.394 82.6219 141.039 83.4266 141.039C83.989 141.039 84.338 140.787 84.5368 140.326L84.052 140.147C83.9017 140.404 83.7321 140.525 83.4606 140.525C83.1455 140.525 82.9322 140.336 82.8788 139.972H84.5659V139.725ZM82.8934 139.497C82.971 139.192 83.1697 139.032 83.4266 139.032C83.7224 139.032 83.892 139.226 83.9502 139.497H82.8934ZM85.1066 141H85.7077V140.026C85.7077 139.4 85.9695 139.032 86.2652 139.032C86.4785 139.032 86.6143 139.158 86.6143 139.434V141H87.2154V139.255C87.2154 138.775 86.9148 138.518 86.464 138.518C86.1586 138.518 85.8968 138.683 85.7077 138.949V138.557H85.1066V141ZM87.8761 141H88.4772V140.026C88.4772 139.4 88.739 139.032 89.0347 139.032C89.248 139.032 89.3837 139.158 89.3837 139.434V141H89.9849V139.255C89.9849 138.775 89.6843 138.518 89.2335 138.518C88.9281 138.518 88.6663 138.683 88.4772 138.949V138.557H87.8761V141ZM92.8412 139.725C92.8412 139.148 92.4776 138.518 91.7019 138.518C90.8972 138.518 90.5288 139.163 90.5288 139.778C90.5288 140.394 90.8972 141.039 91.7019 141.039C92.2643 141.039 92.6133 140.787 92.8121 140.326L92.3273 140.147C92.177 140.404 92.0073 140.525 91.7359 140.525C91.4208 140.525 91.2075 140.336 91.1541 139.972H92.8412V139.725ZM91.1687 139.497C91.2462 139.192 91.445 139.032 91.7019 139.032C91.9976 139.032 92.1673 139.226 92.2255 139.497H91.1687ZM93.2462 139.778C93.2462 140.549 93.634 141.039 94.3127 141.039C94.6278 141.039 94.875 140.898 94.9526 140.748V140.893V141H95.5537V137.568H94.9526V138.634V138.78C94.8362 138.629 94.589 138.518 94.3127 138.518C93.634 138.518 93.2462 139.008 93.2462 139.778ZM95.0059 139.778C95.0059 140.249 94.7732 140.525 94.4436 140.525C94.1139 140.525 93.8764 140.244 93.8764 139.778C93.8764 139.308 94.1139 139.032 94.4436 139.032C94.7732 139.032 95.0059 139.308 95.0059 139.778ZM97.6474 138.557L97.1045 140.06L96.547 138.557H95.941L96.8233 140.835L96.4064 141.989H96.9881L98.2485 138.557H97.6474Z" fill="#00274E"/>
<path d="M59.4532 163H60.0834V160.188H61.0287V159.607H58.5079V160.188H59.4532V163ZM61.4862 163H62.0873V161.967C62.0873 161.337 62.3685 161.032 62.6593 161.032C62.9066 161.032 63.0229 161.172 63.0229 161.468V163H63.624V161.255C63.624 160.77 63.3332 160.518 62.8629 160.518C62.5284 160.518 62.2473 160.692 62.0873 160.949V159.568H61.4862V163ZM66.4796 161.725C66.4796 161.148 66.116 160.518 65.3404 160.518C64.5357 160.518 64.1672 161.163 64.1672 161.778C64.1672 162.394 64.5357 163.039 65.3404 163.039C65.9027 163.039 66.2518 162.787 66.4505 162.326L65.9658 162.147C65.8155 162.404 65.6458 162.525 65.3743 162.525C65.0592 162.525 64.8459 162.336 64.7926 161.972H66.4796V161.725ZM64.8072 161.497C64.8847 161.192 65.0835 161.032 65.3404 161.032C65.6361 161.032 65.8058 161.226 65.864 161.497H64.8072ZM66.8846 161.778C66.8846 162.496 67.3549 163.039 68.1257 163.039C68.8965 163.039 69.3667 162.496 69.3667 161.778C69.3667 161.061 68.8965 160.518 68.1257 160.518C67.3549 160.518 66.8846 161.061 66.8846 161.778ZM68.7365 161.778C68.7365 161.987 68.6832 162.166 68.5717 162.312C68.4602 162.452 68.3147 162.525 68.1257 162.525C67.9366 162.525 67.7912 162.452 67.6797 162.312C67.5682 162.166 67.5149 161.987 67.5149 161.778C67.5149 161.57 67.5682 161.391 67.6797 161.25C67.7912 161.105 67.9366 161.032 68.1257 161.032C68.3147 161.032 68.4602 161.105 68.5717 161.25C68.6832 161.391 68.7365 161.57 68.7365 161.778ZM69.7725 161.778C69.7725 162.549 70.1603 163.039 70.839 163.039C71.1541 163.039 71.4013 162.898 71.4789 162.748V162.893V163H72.08V159.568H71.4789V160.634V160.78C71.3625 160.629 71.1153 160.518 70.839 160.518C70.1603 160.518 69.7725 161.008 69.7725 161.778ZM71.5322 161.778C71.5322 162.249 71.2995 162.525 70.9699 162.525C70.6402 162.525 70.4027 162.244 70.4027 161.778C70.4027 161.308 70.6402 161.032 70.9699 161.032C71.2995 161.032 71.5322 161.308 71.5322 161.778ZM72.6224 161.778C72.6224 162.496 73.0927 163.039 73.8635 163.039C74.6342 163.039 75.1045 162.496 75.1045 161.778C75.1045 161.061 74.6342 160.518 73.8635 160.518C73.0927 160.518 72.6224 161.061 72.6224 161.778ZM74.4743 161.778C74.4743 161.987 74.4209 162.166 74.3094 162.312C74.1979 162.452 74.0525 162.525 73.8635 162.525C73.6744 162.525 73.529 162.452 73.4175 162.312C73.306 162.166 73.2526 161.987 73.2526 161.778C73.2526 161.57 73.306 161.391 73.4175 161.25C73.529 161.105 73.6744 161.032 73.8635 161.032C74.0525 161.032 74.1979 161.105 74.3094 161.25C74.4209 161.391 74.4743 161.57 74.4743 161.778ZM75.646 163H76.2471V162.132C76.2471 161.391 76.5186 161.056 76.9016 161.056C76.9937 161.056 77.0809 161.08 77.1536 161.124L77.2651 160.566C77.1585 160.532 77.0615 160.518 76.9694 160.518C76.6834 160.518 76.4216 160.678 76.2471 160.954V160.557H75.646V163ZM79.7305 161.725C79.7305 161.148 79.3669 160.518 78.5913 160.518C77.7865 160.518 77.4181 161.163 77.4181 161.778C77.4181 162.394 77.7865 163.039 78.5913 163.039C79.1536 163.039 79.5027 162.787 79.7014 162.326L79.2166 162.147C79.0664 162.404 78.8967 162.525 78.6252 162.525C78.3101 162.525 78.0968 162.336 78.0435 161.972H79.7305V161.725ZM78.058 161.497C78.1356 161.192 78.3343 161.032 78.5913 161.032C78.887 161.032 79.0567 161.226 79.1148 161.497H78.058ZM81.5222 163H82.1524V161.536H82.4821L83.3934 163H84.0964L83.1559 161.483C83.5631 161.361 83.7909 161.022 83.7909 160.571C83.7909 159.99 83.4177 159.607 82.7584 159.607H81.5222V163ZM82.1524 160.954V160.188H82.7632C83.0105 160.188 83.1607 160.305 83.1607 160.571C83.1607 160.838 83.0105 160.954 82.7632 160.954H82.1524ZM84.2589 161.778C84.2589 162.496 84.7292 163.039 85.5 163.039C86.2708 163.039 86.741 162.496 86.741 161.778C86.741 161.061 86.2708 160.518 85.5 160.518C84.7292 160.518 84.2589 161.061 84.2589 161.778ZM86.1108 161.778C86.1108 161.987 86.0575 162.166 85.946 162.312C85.8345 162.452 85.689 162.525 85.5 162.525C85.3109 162.525 85.1655 162.452 85.054 162.312C84.9425 162.166 84.8892 161.987 84.8892 161.778C84.8892 161.57 84.9425 161.391 85.054 161.25C85.1655 161.105 85.3109 161.032 85.5 161.032C85.689 161.032 85.8345 161.105 85.946 161.25C86.0575 161.391 86.1108 161.57 86.1108 161.778ZM87.1468 161.778C87.1468 162.496 87.617 163.039 88.3878 163.039C89.1586 163.039 89.6288 162.496 89.6288 161.778C89.6288 161.061 89.1586 160.518 88.3878 160.518C87.617 160.518 87.1468 161.061 87.1468 161.778ZM88.9986 161.778C88.9986 161.987 88.9453 162.166 88.8338 162.312C88.7223 162.452 88.5769 162.525 88.3878 162.525C88.1987 162.525 88.0533 162.452 87.9418 162.312C87.8303 162.166 87.777 161.987 87.777 161.778C87.777 161.57 87.8303 161.391 87.9418 161.25C88.0533 161.105 88.1987 161.032 88.3878 161.032C88.5769 161.032 88.7223 161.105 88.8338 161.25C88.9453 161.391 88.9986 161.57 88.9986 161.778ZM89.939 162.379C89.9923 162.559 90.1038 162.714 90.2735 162.845C90.4432 162.976 90.6565 163.039 90.9086 163.039C91.1558 163.039 91.3546 162.966 91.5097 162.825C91.6648 162.68 91.7424 162.486 91.7424 162.249C91.7424 161.904 91.5291 161.696 91.1461 161.56C90.7534 161.42 90.6468 161.332 90.6468 161.216C90.6468 161.105 90.7534 161.032 90.8843 161.032C91.0491 161.032 91.18 161.105 91.277 161.245L91.6357 160.915C91.4854 160.663 91.1994 160.518 90.8698 160.518C90.4238 160.518 90.099 160.823 90.099 161.201C90.099 161.555 90.3123 161.769 90.6807 161.919C91.0152 162.05 91.1849 162.137 91.1849 162.287C91.1849 162.443 91.0588 162.525 90.9037 162.525C90.6759 162.525 90.511 162.375 90.4189 162.123L89.939 162.379ZM94.3637 161.725C94.3637 161.148 94.0001 160.518 93.2245 160.518C92.4198 160.518 92.0513 161.163 92.0513 161.778C92.0513 162.394 92.4198 163.039 93.2245 163.039C93.7868 163.039 94.1359 162.787 94.3346 162.326L93.8499 162.147C93.6996 162.404 93.5299 162.525 93.2584 162.525C92.9433 162.525 92.73 162.336 92.6767 161.972H94.3637V161.725ZM92.6913 161.497C92.7688 161.192 92.9676 161.032 93.2245 161.032C93.5202 161.032 93.6899 161.226 93.7481 161.497H92.6913ZM95.4382 163H95.9811L96.8101 160.557H96.2041L95.7097 162.258L95.2152 160.557H94.6092L95.4382 163ZM99.3346 161.725C99.3346 161.148 98.971 160.518 98.1954 160.518C97.3906 160.518 97.0222 161.163 97.0222 161.778C97.0222 162.394 97.3906 163.039 98.1954 163.039C98.7577 163.039 99.1067 162.787 99.3055 162.326L98.8207 162.147C98.6704 162.404 98.5008 162.525 98.2293 162.525C97.9142 162.525 97.7009 162.336 97.6476 161.972H99.3346V161.725ZM97.6621 161.497C97.7397 161.192 97.9384 161.032 98.1954 161.032C98.4911 161.032 98.6607 161.226 98.7189 161.497H97.6621ZM99.8753 163H100.476V159.568H99.8753V163ZM101.236 162.137C101.236 162.733 101.57 163.039 102.133 163.039C102.273 163.039 102.404 163.01 102.53 162.952L102.39 162.467C102.317 162.506 102.239 162.525 102.157 162.525C101.944 162.525 101.837 162.418 101.837 162.127V161.071H102.482V160.557H101.837V159.568L101.236 159.946V160.557H100.858V161.071H101.236V162.137Z" fill="#00274E"/>
<circle cx="80.7731" cy="26.7731" r="11.7731" fill="#108BE3"/>
<path d="M72.5117 46.1821C72.4961 47.3611 73.3063 48.0519 74.2309 48.0416C75.0204 48.0416 75.5658 47.6416 75.7372 46.9404L75.1295 46.7846C74.9788 47.1845 74.7087 47.4183 74.2309 47.4183C73.6492 47.4183 73.1973 46.9976 73.1973 46.1821C73.1973 45.3666 73.6492 44.9459 74.2309 44.9459C74.7087 44.9459 74.9788 45.1796 75.1295 45.5796L75.7372 45.4238C75.5658 44.7226 75.0204 44.3226 74.2309 44.3226C73.3063 44.3122 72.4961 45.003 72.5117 46.1821ZM76.3188 48H76.9629V44.3226H76.3188V48ZM77.4924 47.2469C77.4924 47.7507 77.8248 48.0416 78.2871 48.0416C78.6195 48.0416 78.8896 47.9169 79.0922 47.6676L79.1597 48H79.6895V46.4366C79.6895 45.7146 79.2895 45.3407 78.5884 45.3407C78.069 45.3407 77.6742 45.6315 77.5911 46.0678L78.1365 46.1925C78.2144 45.9899 78.365 45.8912 78.5884 45.8912C78.8532 45.8912 79.0454 46.0211 79.0454 46.2756V46.3899H78.5884C77.9183 46.3899 77.4924 46.7275 77.4924 47.2469ZM79.0454 46.9508C79.0454 47.278 78.7701 47.491 78.4585 47.491C78.2871 47.491 78.1676 47.3871 78.1676 47.2365C78.1676 47.0079 78.3287 46.8989 78.6143 46.8989H79.0454V46.9508ZM80.1288 47.3352C80.1859 47.5273 80.3054 47.6936 80.4872 47.8338C80.669 47.974 80.8975 48.0416 81.1676 48.0416C81.4325 48.0416 81.6454 47.9636 81.8117 47.813C81.9779 47.6572 82.061 47.4494 82.061 47.1949C82.061 46.8261 81.8324 46.6028 81.4221 46.4574C81.0014 46.3067 80.8871 46.2133 80.8871 46.0886C80.8871 45.9691 81.0014 45.8912 81.1416 45.8912C81.3182 45.8912 81.4585 45.9691 81.5623 46.1198L81.9467 45.7666C81.7857 45.4965 81.4792 45.3407 81.126 45.3407C80.6482 45.3407 80.3002 45.6679 80.3002 46.073C80.3002 46.4522 80.5287 46.6807 80.9235 46.8417C81.2819 46.982 81.4637 47.0755 81.4637 47.2365C81.4637 47.4027 81.3286 47.491 81.1624 47.491C80.9183 47.491 80.7417 47.33 80.643 47.0599L80.1288 47.3352ZM82.3758 47.3352C82.433 47.5273 82.5524 47.6936 82.7342 47.8338C82.916 47.974 83.1445 48.0416 83.4146 48.0416C83.6795 48.0416 83.8925 47.9636 84.0587 47.813C84.2249 47.6572 84.308 47.4494 84.308 47.1949C84.308 46.8261 84.0795 46.6028 83.6691 46.4574C83.2484 46.3067 83.1341 46.2133 83.1341 46.0886C83.1341 45.9691 83.2484 45.8912 83.3887 45.8912C83.5652 45.8912 83.7055 45.9691 83.8094 46.1198L84.1937 45.7666C84.0327 45.4965 83.7263 45.3407 83.3731 45.3407C82.8952 45.3407 82.5472 45.6679 82.5472 46.073C82.5472 46.4522 82.7758 46.6807 83.1705 46.8417C83.5289 46.982 83.7107 47.0755 83.7107 47.2365C83.7107 47.4027 83.5756 47.491 83.4094 47.491C83.1653 47.491 82.9887 47.33 82.89 47.0599L82.3758 47.3352ZM84.8605 48H85.5046V45.3822H84.8605V48ZM84.7671 44.6291C84.7671 44.8628 84.9488 45.0446 85.1826 45.0446C85.4163 45.0446 85.5981 44.8628 85.5981 44.6291C85.5981 44.3953 85.4163 44.2136 85.1826 44.2136C84.9488 44.2136 84.7671 44.3953 84.7671 44.6291ZM86.0745 46.6911C86.0745 47.4494 86.5212 48.0416 87.3522 48.0416C87.934 48.0416 88.3495 47.787 88.5417 47.2936L87.9651 47.0599C87.8249 47.3456 87.6379 47.491 87.3522 47.491C86.9575 47.491 86.7497 47.169 86.7497 46.6911C86.7497 46.2133 86.9575 45.8912 87.3522 45.8912C87.6379 45.8912 87.8249 46.0367 87.9651 46.3223L88.5417 46.0886C88.3495 45.5952 87.934 45.3407 87.3522 45.3407C86.5212 45.3407 86.0745 45.9328 86.0745 46.6911Z" fill="#00274E"/>
<path d="M40.7254 54.9828C40.7254 54.7612 40.5661 54.6019 40.3445 54.6019C40.1229 54.6019 39.9636 54.7612 39.9636 54.9828C39.9636 55.2045 40.1229 55.3637 40.3445 55.3637C40.5661 55.3637 40.7254 55.2045 40.7254 54.9828ZM41.2171 56.8181C41.2171 56.271 40.8362 55.9801 40.3583 55.9801C39.9082 55.9801 39.6104 56.2225 39.4788 56.7073L39.8251 56.8388C39.9289 56.5133 40.0952 56.3818 40.3722 56.3818C40.6215 56.3818 40.7877 56.548 40.7877 56.8042C40.7877 57.102 40.67 57.2474 40.0882 57.5522C39.4442 57.8846 39.2364 58.127 39.2364 58.5494C39.2364 59.1242 39.6796 59.519 40.3098 59.519C41.0232 59.519 41.4664 59.1311 41.5772 58.4871L41.1409 58.4109C41.0232 58.8818 40.7738 59.1173 40.3583 59.1173C39.922 59.1173 39.6796 58.8957 39.6796 58.5286C39.7073 58.2101 39.7489 58.1754 40.4276 57.8015C40.9747 57.5175 41.2171 57.2544 41.2171 56.8181ZM42.2869 55.6269C42.2869 57.1297 43.2633 58.1062 44.413 58.1062C44.877 58.1062 45.3271 57.9469 45.6872 57.6491L46.1443 58.1062L46.4559 57.7945L45.9919 57.3375C46.3451 56.9012 46.539 56.3194 46.539 55.6269C46.539 54.1241 45.5626 53.1476 44.413 53.1476C43.2633 53.1476 42.2869 54.1241 42.2869 55.6269ZM45.3825 57.3513C45.1124 57.566 44.7869 57.6768 44.413 57.6768C43.485 57.6768 42.7647 56.9496 42.7647 55.6269C42.7647 54.3042 43.485 53.577 44.413 53.577C45.341 53.577 46.0612 54.3042 46.0612 55.6269C46.0612 56.1948 45.9365 56.6588 45.6803 57.0258L45.1817 56.5203L44.87 56.8319L45.3825 57.3513ZM47.4378 56.9566C47.4378 57.6837 47.8464 58.1062 48.5112 58.1062C49.0098 58.1062 49.4669 57.7945 49.7093 57.3236V58.0508H50.1387V54.5604H49.7093V56.0909C49.7093 57.0674 49.2176 57.7045 48.5805 57.7045C48.1026 57.7045 47.8672 57.4206 47.8672 56.9012V54.5604H47.4378V56.9566ZM54.0924 56.1117C54.0924 55.156 53.4552 54.505 52.5619 54.505C51.6408 54.505 51.0106 55.2668 51.0106 56.3056C51.0106 57.3236 51.6546 58.1062 52.5619 58.1062C53.2267 58.1062 53.663 57.8361 54.0162 57.1436L53.6353 56.9566C53.379 57.4898 53.0882 57.7045 52.5619 57.7045C52.2087 57.7045 51.9386 57.5729 51.7447 57.3028C51.5507 57.0328 51.4538 56.7003 51.4538 56.3056H54.0924V56.1117ZM51.4884 55.9039C51.62 55.2599 52.0424 54.9067 52.5619 54.9067C53.1782 54.9067 53.566 55.2876 53.6491 55.9039H51.4884ZM52.3887 54.1726H52.735L53.5176 53.203H52.8735L52.3887 54.1726ZM56.7099 59.4636H57.1393V57.7668V57.5591C57.3678 57.8984 57.818 58.1062 58.2404 58.1062C59.2377 58.1062 59.7986 57.3167 59.7986 56.3056C59.7986 55.2945 59.2377 54.505 58.2404 54.505C57.7903 54.505 57.3332 54.7543 57.1393 55.059V54.8513V54.5604H56.7099V59.4636ZM59.3485 56.3056C59.3485 56.7142 59.2515 57.0466 59.0507 57.3098C58.8499 57.5729 58.5729 57.7045 58.2197 57.7045C57.8665 57.7045 57.5895 57.5729 57.3886 57.3098C57.1947 57.0466 57.0978 56.7142 57.0978 56.3056C57.0978 55.4815 57.4994 54.9067 58.2197 54.9067C58.9399 54.9067 59.3485 55.4815 59.3485 56.3056ZM60.6731 58.0508H61.1025V56.7003C61.1025 55.5369 61.5249 54.9067 62.0651 54.9067C62.2382 54.9067 62.4044 54.9482 62.5568 55.0313L62.6537 54.6227C62.4598 54.5396 62.3144 54.505 62.1274 54.505C61.6634 54.505 61.3171 54.7474 61.1025 55.1837V54.5604H60.6731V58.0508ZM65.9751 56.1117C65.9751 55.156 65.3379 54.505 64.4445 54.505C63.5235 54.505 62.8933 55.2668 62.8933 56.3056C62.8933 57.3236 63.5373 58.1062 64.4445 58.1062C65.1094 58.1062 65.5457 57.8361 65.8989 57.1436L65.518 56.9566C65.2617 57.4898 64.9709 57.7045 64.4445 57.7045C64.0914 57.7045 63.8213 57.5729 63.6274 57.3028C63.4334 57.0328 63.3365 56.7003 63.3365 56.3056H65.9751V56.1117ZM63.3711 55.9039C63.5027 55.2599 63.9251 54.9067 64.4445 54.9067C65.0609 54.9067 65.4487 55.2876 65.5318 55.9039H63.3711ZM66.5382 57.1505C66.6698 57.6837 67.0853 58.1062 67.7986 58.1062C68.4635 58.1062 68.879 57.7184 68.879 57.0812C68.879 56.5826 68.5258 56.264 68.0272 56.077C67.4385 55.8624 67.2238 55.71 67.2238 55.4053C67.2238 55.1006 67.4385 54.9067 67.7363 54.9067C68.0203 54.9067 68.2349 55.0244 68.4219 55.3083L68.7266 55.0452C68.505 54.6781 68.2003 54.505 67.7571 54.505C67.1961 54.505 66.7806 54.8651 66.7806 55.4191C66.7806 55.9385 67.0853 56.1948 67.6601 56.3956C68.1795 56.5826 68.4289 56.7488 68.4289 57.0882C68.4289 57.469 68.1934 57.7045 67.7986 57.7045C67.3208 57.7045 67.0646 57.4275 66.9191 56.9496L66.5382 57.1505ZM69.7356 58.0508H70.165V54.5604H69.7356V58.0508ZM69.5971 53.5562C69.5971 53.757 69.7494 53.9094 69.9503 53.9094C70.1511 53.9094 70.3035 53.757 70.3035 53.5562C70.3035 53.3554 70.1511 53.203 69.9503 53.203C69.7494 53.203 69.5971 53.3554 69.5971 53.5562ZM71.036 56.3056C71.036 57.3167 71.5969 58.1062 72.5942 58.1062C73.0305 58.1062 73.4806 57.8569 73.6953 57.5522V57.7599V58.0508H74.1247V53.1476H73.6953V54.8443V55.0521C73.446 54.6989 73.0582 54.505 72.5942 54.505C71.5969 54.505 71.036 55.2945 71.036 56.3056ZM73.7369 56.3056C73.7369 57.1297 73.3352 57.7045 72.615 57.7045C71.8947 57.7045 71.4861 57.1297 71.4861 56.3056C71.4861 55.897 71.5831 55.5646 71.7839 55.3014C71.9848 55.0382 72.2618 54.9067 72.615 54.9067C72.9682 54.9067 73.2452 55.0382 73.4391 55.3014C73.6399 55.5646 73.7369 55.897 73.7369 56.3056ZM78.0809 56.1117C78.0809 55.156 77.4438 54.505 76.5504 54.505C75.6293 54.505 74.9991 55.2668 74.9991 56.3056C74.9991 57.3236 75.6432 58.1062 76.5504 58.1062C77.2153 58.1062 77.6516 57.8361 78.0048 57.1436L77.6239 56.9566C77.3676 57.4898 77.0768 57.7045 76.5504 57.7045C76.1972 57.7045 75.9271 57.5729 75.7332 57.3028C75.5393 57.0328 75.4424 56.7003 75.4424 56.3056H78.0809V56.1117ZM75.477 55.9039C75.6086 55.2599 76.031 54.9067 76.5504 54.9067C77.1668 54.9067 77.5546 55.2876 77.6377 55.9039H75.477ZM78.9536 58.0508H79.383V56.5203C79.383 55.5438 79.8747 54.9067 80.5118 54.9067C80.9897 54.9067 81.2252 55.1906 81.2252 55.71V58.0508H81.6545V55.6546C81.6545 54.9274 81.2459 54.505 80.5811 54.505C80.0825 54.505 79.6254 54.8166 79.383 55.2876V54.5604H78.9536V58.0508ZM82.8394 57.0605C82.8394 57.7599 83.1787 58.1062 83.712 58.1062C83.9682 58.1062 84.169 58.0646 84.3214 57.9815L84.2037 57.5937C84.0859 57.6699 83.9405 57.7045 83.7674 57.7045C83.4627 57.7045 83.2687 57.5106 83.2687 57.1297V54.9621H84.2106V54.5604H83.2687V53.1476L82.8394 53.4316V54.5604H82.223V54.9621H82.8394V57.0605ZM87.7589 56.1117C87.7589 55.156 87.1217 54.505 86.2284 54.505C85.3073 54.505 84.6771 55.2668 84.6771 56.3056C84.6771 57.3236 85.3211 58.1062 86.2284 58.1062C86.8932 58.1062 87.3295 57.8361 87.6827 57.1436L87.3018 56.9566C87.0456 57.4898 86.7547 57.7045 86.2284 57.7045C85.8752 57.7045 85.6051 57.5729 85.4112 57.3028C85.2173 57.0328 85.1203 56.7003 85.1203 56.3056H87.7589V56.1117ZM85.1549 55.9039C85.2865 55.2599 85.709 54.9067 86.2284 54.9067C86.8447 54.9067 87.2325 55.2876 87.3156 55.9039H85.1549ZM90.1687 56.3056C90.1687 57.3167 90.7296 58.1062 91.7269 58.1062C92.1632 58.1062 92.6133 57.8569 92.828 57.5522V57.7599V58.0508H93.2574V53.1476H92.828V54.8443V55.0521C92.5787 54.6989 92.1909 54.505 91.7269 54.505C90.7296 54.505 90.1687 55.2945 90.1687 56.3056ZM92.8696 56.3056C92.8696 57.1297 92.4679 57.7045 91.7477 57.7045C91.0274 57.7045 90.6188 57.1297 90.6188 56.3056C90.6188 55.897 90.7158 55.5646 90.9166 55.3014C91.1175 55.0382 91.3945 54.9067 91.7477 54.9067C92.1009 54.9067 92.3779 55.0382 92.5718 55.3014C92.7726 55.5646 92.8696 55.897 92.8696 56.3056ZM97.2136 56.1117C97.2136 55.156 96.5765 54.505 95.6831 54.505C94.762 54.505 94.1318 55.2668 94.1318 56.3056C94.1318 57.3236 94.7759 58.1062 95.6831 58.1062C96.348 58.1062 96.7843 57.8361 97.1374 57.1436L96.7566 56.9566C96.5003 57.4898 96.2094 57.7045 95.6831 57.7045C95.3299 57.7045 95.0598 57.5729 94.8659 57.3028C94.672 57.0328 94.5751 56.7003 94.5751 56.3056H97.2136V56.1117ZM94.6097 55.9039C94.7413 55.2599 95.1637 54.9067 95.6831 54.9067C96.2995 54.9067 96.6873 55.2876 96.7704 55.9039H94.6097ZM99.9143 58.0508H102.719V57.6214H100.371V55.6823H102.234V55.2529H100.371V53.6324H102.65V53.203H99.9143V58.0508ZM103.343 57.1505C103.474 57.6837 103.89 58.1062 104.603 58.1062C105.268 58.1062 105.684 57.7184 105.684 57.0812C105.684 56.5826 105.33 56.264 104.832 56.077C104.243 55.8624 104.028 55.71 104.028 55.4053C104.028 55.1006 104.243 54.9067 104.541 54.9067C104.825 54.9067 105.04 55.0244 105.226 55.3083L105.531 55.0452C105.31 54.6781 105.005 54.505 104.562 54.505C104.001 54.505 103.585 54.8651 103.585 55.4191C103.585 55.9385 103.89 56.1948 104.465 56.3956C104.984 56.5826 105.233 56.7488 105.233 57.0882C105.233 57.469 104.998 57.7045 104.603 57.7045C104.125 57.7045 103.869 57.4275 103.724 56.9496L103.343 57.1505ZM106.645 57.0605C106.645 57.7599 106.985 58.1062 107.518 58.1062C107.774 58.1062 107.975 58.0646 108.127 57.9815L108.01 57.5937C107.892 57.6699 107.746 57.7045 107.573 57.7045C107.269 57.7045 107.075 57.5106 107.075 57.1297V54.9621H108.017V54.5604H107.075V53.1476L106.645 53.4316V54.5604H106.029V54.9621H106.645V57.0605ZM108.625 57.0466C108.625 57.7668 109.076 58.1062 109.713 58.1062C110.239 58.1062 110.599 57.8707 110.814 57.5106L110.918 58.0508H111.243V55.7377C111.243 55.3568 111.125 55.0521 110.89 54.8374C110.661 54.6158 110.364 54.505 110.01 54.505C109.373 54.505 108.854 54.879 108.764 55.4607L109.179 55.5576C109.29 55.1698 109.56 54.9067 110.01 54.9067C110.509 54.9067 110.814 55.1698 110.814 55.7516V55.9039H110.211C109.214 55.9039 108.625 56.2917 108.625 57.0466ZM110.814 56.4372C110.814 57.3375 110.246 57.7045 109.754 57.7045C109.332 57.7045 109.076 57.469 109.076 57.0466C109.076 56.5757 109.45 56.3056 110.225 56.3056H110.814V56.4372ZM112.034 56.3056C112.034 57.3167 112.595 58.1062 113.592 58.1062C114.028 58.1062 114.478 57.8569 114.693 57.5522V57.7599V58.0508H115.122V53.1476H114.693V54.8443V55.0521C114.444 54.6989 114.056 54.505 113.592 54.505C112.595 54.505 112.034 55.2945 112.034 56.3056ZM114.735 56.3056C114.735 57.1297 114.333 57.7045 113.613 57.7045C112.892 57.7045 112.484 57.1297 112.484 56.3056C112.484 55.897 112.581 55.5646 112.782 55.3014C112.982 55.0382 113.259 54.9067 113.613 54.9067C113.966 54.9067 114.243 55.0382 114.437 55.3014C114.638 55.5646 114.735 55.897 114.735 56.3056ZM115.997 56.3056C115.997 57.2405 116.641 58.1062 117.631 58.1062C118.622 58.1062 119.266 57.2405 119.266 56.3056C119.266 55.3707 118.622 54.505 117.631 54.505C116.641 54.505 115.997 55.3707 115.997 56.3056ZM118.815 56.3056C118.815 57.0328 118.386 57.7045 117.631 57.7045C116.876 57.7045 116.447 57.0328 116.447 56.3056C116.447 55.5784 116.876 54.9067 117.631 54.9067C118.386 54.9067 118.815 55.5784 118.815 56.3056ZM119.838 57.1505C119.969 57.6837 120.385 58.1062 121.098 58.1062C121.763 58.1062 122.179 57.7184 122.179 57.0812C122.179 56.5826 121.825 56.264 121.327 56.077C120.738 55.8624 120.524 55.71 120.524 55.4053C120.524 55.1006 120.738 54.9067 121.036 54.9067C121.32 54.9067 121.535 55.0244 121.722 55.3083L122.026 55.0452C121.805 54.6781 121.5 54.505 121.057 54.505C120.496 54.505 120.08 54.8651 120.08 55.4191C120.08 55.9385 120.385 56.1948 120.96 56.3956C121.479 56.5826 121.729 56.7488 121.729 57.0882C121.729 57.469 121.493 57.7045 121.098 57.7045C120.62 57.7045 120.364 57.4275 120.219 56.9496L119.838 57.1505ZM40.5733 64.4995C40.5733 65.5383 41.3281 66.1062 42.2354 66.1062C43.1426 66.1062 43.8975 65.5383 43.8975 64.4995V61.203H43.4404V64.541C43.4404 65.1851 43.011 65.6768 42.2354 65.6768C41.4597 65.6768 41.0303 65.1851 41.0303 64.541V61.203H40.5733V64.4995ZM44.976 66.0508H45.4054V64.5203C45.4054 63.5438 45.8971 62.9067 46.5342 62.9067C47.0121 62.9067 47.2475 63.1906 47.2475 63.71V66.0508H47.6769V63.6546C47.6769 62.9274 47.2683 62.505 46.6035 62.505C46.1049 62.505 45.6478 62.8166 45.4054 63.2876V62.5604H44.976V66.0508ZM48.7566 66.0508H49.1859V62.5604H48.7566V66.0508ZM48.6181 61.5562C48.6181 61.757 48.7704 61.9094 48.9713 61.9094C49.1721 61.9094 49.3245 61.757 49.3245 61.5562C49.3245 61.3554 49.1721 61.203 48.9713 61.203C48.7704 61.203 48.6181 61.3554 48.6181 61.5562ZM50.057 64.3056C50.057 65.3167 50.6179 66.1062 51.6152 66.1062C52.0515 66.1062 52.5016 65.8569 52.7163 65.5522V65.7599V66.0508H53.1457V61.1476H52.7163V62.8443V63.0521C52.467 62.6989 52.0792 62.505 51.6152 62.505C50.6179 62.505 50.057 63.2945 50.057 64.3056ZM52.7579 64.3056C52.7579 65.1297 52.3562 65.7045 51.636 65.7045C50.9157 65.7045 50.5071 65.1297 50.5071 64.3056C50.5071 63.897 50.6041 63.5646 50.8049 63.3014C51.0058 63.0382 51.2828 62.9067 51.636 62.9067C51.9892 62.9067 52.2662 63.0382 52.4601 63.3014C52.6609 63.5646 52.7579 63.897 52.7579 64.3056ZM54.0201 64.3056C54.0201 65.2405 54.6642 66.1062 55.6545 66.1062C56.6448 66.1062 57.2889 65.2405 57.2889 64.3056C57.2889 63.3707 56.6448 62.505 55.6545 62.505C54.6642 62.505 54.0201 63.3707 54.0201 64.3056ZM56.8388 64.3056C56.8388 65.0328 56.4094 65.7045 55.6545 65.7045C54.8997 65.7045 54.4703 65.0328 54.4703 64.3056C54.4703 63.5784 54.8997 62.9067 55.6545 62.9067C56.4094 62.9067 56.8388 63.5784 56.8388 64.3056ZM57.8612 65.1505C57.9928 65.6837 58.4083 66.1062 59.1216 66.1062C59.7865 66.1062 60.202 65.7184 60.202 65.0812C60.202 64.5826 59.8488 64.264 59.3502 64.077C58.7615 63.8624 58.5468 63.71 58.5468 63.4053C58.5468 63.1006 58.7615 62.9067 59.0593 62.9067C59.3433 62.9067 59.5579 63.0244 59.7449 63.3083L60.0496 63.0452C59.828 62.6781 59.5233 62.505 59.0801 62.505C58.5191 62.505 58.1036 62.8651 58.1036 63.4191C58.1036 63.9385 58.4083 64.1948 58.9831 64.3956C59.5025 64.5826 59.7518 64.7488 59.7518 65.0882C59.7518 65.469 59.5164 65.7045 59.1216 65.7045C58.6438 65.7045 58.3875 65.4275 58.2421 64.9496L57.8612 65.1505ZM62.6095 65.0466C62.6095 65.7668 63.0597 66.1062 63.6968 66.1062C64.2232 66.1062 64.5833 65.8707 64.798 65.5106L64.9018 66.0508H65.2273V63.7377C65.2273 63.3568 65.1096 63.0521 64.8741 62.8374C64.6456 62.6158 64.3478 62.505 63.9946 62.505C63.3575 62.505 62.8381 62.879 62.748 63.4607L63.1636 63.5576C63.2744 63.1698 63.5445 62.9067 63.9946 62.9067C64.4932 62.9067 64.798 63.1698 64.798 63.7516V63.9039H64.1954C63.1982 63.9039 62.6095 64.2917 62.6095 65.0466ZM64.798 64.4372C64.798 65.3375 64.2301 65.7045 63.7384 65.7045C63.3159 65.7045 63.0597 65.469 63.0597 65.0466C63.0597 64.5757 63.4337 64.3056 64.2093 64.3056H64.798V64.4372ZM66.6549 65.5937C66.745 65.7322 66.8973 65.8499 67.1051 65.9538C67.3198 66.0577 67.5345 66.1062 67.7561 66.1062C68.7533 66.1062 69.3143 65.3167 69.3143 64.3056C69.3143 63.2945 68.7533 62.505 67.7561 62.505C67.3198 62.505 66.9112 62.7128 66.6549 63.0521V62.8443V61.1476H66.2256V66.0508H66.6549V65.8015V65.5937ZM68.8641 64.3056C68.8641 65.1297 68.4555 65.7045 67.7353 65.7045C67.015 65.7045 66.6134 65.1297 66.6134 64.3056C66.6134 63.897 66.7103 63.5646 66.9042 63.3014C67.1051 63.0382 67.3821 62.9067 67.7353 62.9067C68.0885 62.9067 68.3655 63.0382 68.5663 63.3014C68.7672 63.5646 68.8641 63.897 68.8641 64.3056ZM69.9809 64.3056C69.9809 65.2405 70.625 66.1062 71.6153 66.1062C72.6057 66.1062 73.2497 65.2405 73.2497 64.3056C73.2497 63.3707 72.6057 62.505 71.6153 62.505C70.625 62.505 69.9809 63.3707 69.9809 64.3056ZM72.7996 64.3056C72.7996 65.0328 72.3702 65.7045 71.6153 65.7045C70.8605 65.7045 70.4311 65.0328 70.4311 64.3056C70.4311 63.5784 70.8605 62.9067 71.6153 62.9067C72.3702 62.9067 72.7996 63.5784 72.7996 64.3056ZM74.1248 66.0508H74.5542V61.1476H74.1248V66.0508ZM75.633 66.0508H76.0623V62.5604H75.633V66.0508ZM75.4945 61.5562C75.4945 61.757 75.6468 61.9094 75.8477 61.9094C76.0485 61.9094 76.2009 61.757 76.2009 61.5562C76.2009 61.3554 76.0485 61.203 75.8477 61.203C75.6468 61.203 75.4945 61.3554 75.4945 61.5562ZM76.9334 64.3056C76.9334 65.2405 77.5774 66.1062 78.5678 66.1062C79.5581 66.1062 80.2022 65.2405 80.2022 64.3056C80.2022 63.3707 79.5581 62.505 78.5678 62.505C77.5774 62.505 76.9334 63.3707 76.9334 64.3056ZM79.752 64.3056C79.752 65.0328 79.3226 65.7045 78.5678 65.7045C77.8129 65.7045 77.3835 65.0328 77.3835 64.3056C77.3835 63.5784 77.8129 62.9067 78.5678 62.9067C79.3226 62.9067 79.752 63.5784 79.752 64.3056ZM78.3946 62.1726H78.7409L79.5235 61.203H78.8794L78.3946 62.1726ZM82.8221 66.0508H83.2515V61.1476H82.8221V66.0508ZM84.0552 65.0466C84.0552 65.7668 84.5053 66.1062 85.1425 66.1062C85.6688 66.1062 86.0289 65.8707 86.2436 65.5106L86.3475 66.0508H86.673V63.7377C86.673 63.3568 86.5553 63.0521 86.3198 62.8374C86.0913 62.6158 85.7935 62.505 85.4403 62.505C84.8031 62.505 84.2837 62.879 84.1937 63.4607L84.6092 63.5576C84.72 63.1698 84.9901 62.9067 85.4403 62.9067C85.9389 62.9067 86.2436 63.1698 86.2436 63.7516V63.9039H85.6411C84.6439 63.9039 84.0552 64.2917 84.0552 65.0466ZM86.2436 64.4372C86.2436 65.3375 85.6757 65.7045 85.184 65.7045C84.7616 65.7045 84.5053 65.469 84.5053 65.0466C84.5053 64.5757 84.8793 64.3056 85.655 64.3056H86.2436V64.4372ZM92.2901 64.1117C92.2901 63.156 91.653 62.505 90.7596 62.505C89.8385 62.505 89.2083 63.2668 89.2083 64.3056C89.2083 65.3236 89.8524 66.1062 90.7596 66.1062C91.4244 66.1062 91.8607 65.8361 92.2139 65.1436L91.833 64.9566C91.5768 65.4898 91.2859 65.7045 90.7596 65.7045C90.4064 65.7045 90.1363 65.5729 89.9424 65.3028C89.7485 65.0328 89.6515 64.7003 89.6515 64.3056H92.2901V64.1117ZM89.6862 63.9039C89.8178 63.2599 90.2402 62.9067 90.7596 62.9067C91.376 62.9067 91.7638 63.2876 91.8469 63.9039H89.6862ZM92.8533 65.1505C92.9849 65.6837 93.4004 66.1062 94.1137 66.1062C94.7785 66.1062 95.1941 65.7184 95.1941 65.0812C95.1941 64.5826 94.8409 64.264 94.3422 64.077C93.7536 63.8624 93.5389 63.71 93.5389 63.4053C93.5389 63.1006 93.7536 62.9067 94.0514 62.9067C94.3353 62.9067 94.55 63.0244 94.737 63.3083L95.0417 63.0452C94.8201 62.6781 94.5154 62.505 94.0722 62.505C93.5112 62.505 93.0957 62.8651 93.0957 63.4191C93.0957 63.9385 93.4004 64.1948 93.9752 64.3956C94.4946 64.5826 94.7439 64.7488 94.7439 65.0882C94.7439 65.469 94.5085 65.7045 94.1137 65.7045C93.6359 65.7045 93.3796 65.4275 93.2342 64.9496L92.8533 65.1505ZM95.7685 64.3056C95.7685 65.2474 96.3156 66.1062 97.3129 66.1062C97.9985 66.1062 98.4763 65.7738 98.7187 65.1436L98.3309 64.9912C98.137 65.4621 97.8184 65.7045 97.3129 65.7045C96.9597 65.7045 96.6826 65.5729 96.4957 65.3098C96.3087 65.0397 96.2186 64.7073 96.2186 64.3056C96.2186 63.9039 96.3087 63.5715 96.4957 63.3083C96.6826 63.0382 96.9597 62.9067 97.3129 62.9067C97.8046 62.9067 98.1439 63.1421 98.3309 63.62L98.7187 63.4676C98.4763 62.8236 98.0123 62.505 97.3129 62.505C96.3156 62.505 95.7685 63.3637 95.7685 64.3056ZM99.5472 66.0508H99.9765V61.1476H99.5472V66.0508ZM100.78 65.0466C100.78 65.7668 101.23 66.1062 101.868 66.1062C102.394 66.1062 102.754 65.8707 102.969 65.5106L103.073 66.0508H103.398V63.7377C103.398 63.3568 103.28 63.0521 103.045 62.8374C102.816 62.6158 102.519 62.505 102.165 62.505C101.528 62.505 101.009 62.879 100.919 63.4607L101.334 63.5576C101.445 63.1698 101.715 62.9067 102.165 62.9067C102.664 62.9067 102.969 63.1698 102.969 63.7516V63.9039H102.366C101.369 63.9039 100.78 64.2917 100.78 65.0466ZM102.969 64.4372C102.969 65.3375 102.401 65.7045 101.909 65.7045C101.487 65.7045 101.23 65.469 101.23 65.0466C101.23 64.5757 101.604 64.3056 102.38 64.3056H102.969V64.4372ZM105.063 66.0508H105.534L106.711 62.5604H106.261L105.299 65.476L104.336 62.5604H103.886L105.063 66.0508ZM107.365 66.0508H107.795V62.5604H107.365V66.0508ZM107.227 61.5562C107.227 61.757 107.379 61.9094 107.58 61.9094C107.781 61.9094 107.933 61.757 107.933 61.5562C107.933 61.3554 107.781 61.203 107.58 61.203C107.379 61.203 107.227 61.3554 107.227 61.5562ZM109.033 65.0605C109.033 65.7599 109.372 66.1062 109.905 66.1062C110.162 66.1062 110.362 66.0646 110.515 65.9815L110.397 65.5937C110.279 65.6699 110.134 65.7045 109.961 65.7045C109.656 65.7045 109.462 65.5106 109.462 65.1297V62.9621H110.404V62.5604H109.462V61.1476L109.033 61.4316V62.5604H108.416V62.9621H109.033V65.0605ZM111.112 64.9566C111.112 65.6837 111.521 66.1062 112.185 66.1062C112.684 66.1062 113.141 65.7945 113.384 65.3236V66.0508H113.813V62.5604H113.384V64.0909C113.384 65.0674 112.892 65.7045 112.255 65.7045C111.777 65.7045 111.541 65.4206 111.541 64.9012V62.5604H111.112V64.9566ZM114.685 64.3056C114.685 65.3167 115.246 66.1062 116.243 66.1062C116.679 66.1062 117.129 65.8569 117.344 65.5522V65.7599V66.0508H117.773V61.1476H117.344V62.8443V63.0521C117.095 62.6989 116.707 62.505 116.243 62.505C115.246 62.505 114.685 63.2945 114.685 64.3056ZM117.386 64.3056C117.386 65.1297 116.984 65.7045 116.264 65.7045C115.544 65.7045 115.135 65.1297 115.135 64.3056C115.135 63.897 115.232 63.5646 115.433 63.3014C115.634 63.0382 115.911 62.9067 116.264 62.9067C116.617 62.9067 116.894 63.0382 117.088 63.3014C117.289 63.5646 117.386 63.897 117.386 64.3056ZM119.022 63.8485C119.022 64.3956 119.403 64.6865 119.881 64.6865C120.331 64.6865 120.629 64.4441 120.76 63.9593L120.414 63.8277C120.31 64.1532 120.144 64.2848 119.867 64.2848C119.624 64.2848 119.451 64.1117 119.451 63.8624C119.451 63.5646 119.569 63.4191 120.151 63.1144C120.795 62.782 121.003 62.5396 121.003 62.1172C121.003 61.5424 120.559 61.1476 119.929 61.1476C119.216 61.1476 118.773 61.5354 118.662 62.1795L119.098 62.2557C119.216 61.7848 119.465 61.5493 119.881 61.5493C120.317 61.5493 120.559 61.7709 120.559 62.1379C120.532 62.4565 120.483 62.4911 119.811 62.8651C119.264 63.149 119.022 63.4122 119.022 63.8485ZM119.514 65.6837C119.514 65.9053 119.673 66.0646 119.894 66.0646C120.116 66.0646 120.275 65.9053 120.275 65.6837C120.275 65.4621 120.116 65.3028 119.894 65.3028C119.673 65.3028 119.514 65.4621 119.514 65.6837Z" fill="#00274E"/>
<path d="M80.3152 21.1075C80.5308 20.4441 81.4692 20.4441 81.6848 21.1075L82.6345 24.0304C82.7309 24.327 83.0073 24.5279 83.3192 24.5279H86.3925C87.09 24.5279 87.38 25.4204 86.8157 25.8304L84.3294 27.6368C84.077 27.8201 83.9714 28.1451 84.0678 28.4418L85.0175 31.3647C85.2331 32.028 84.4738 32.5796 83.9096 32.1696L81.4232 30.3632C81.1709 30.1799 80.8291 30.1799 80.5768 30.3632L78.0904 32.1696C77.5262 32.5796 76.7669 32.028 76.9825 31.3647L77.9322 28.4418C78.0286 28.1451 77.923 27.8201 77.6706 27.6368L75.1843 25.8304C74.62 25.4204 74.91 24.5279 75.6075 24.5279H78.6808C78.9927 24.5279 79.2691 24.327 79.3655 24.0304L80.3152 21.1075Z" fill="white"/>
</svg>
