<svg width="8" height="16" viewBox="0 0 8 16" fill="none" xmlns="http://www.w3.org/2000/svg">
<path d="M1.38875 8.32C1.38875 9.86 2.52875 10.84 4.06875 10.84C5.42875 10.84 6.42875 10.1 6.84875 8.76L5.32875 8.18C5.08875 8.88 4.66875 9.22 4.04875 9.22C3.54875 9.22 3.18875 8.88 3.18875 8.38C3.18875 7.74 3.54875 7.42 4.98875 6.8C6.88875 5.98 7.64875 5.28 7.64875 3.9C7.64875 2.04 6.26875 0.84 4.12875 0.84C2.04875 0.84 0.68875 2.06 0.34875 3.88L2.26875 4.2C2.56875 3.18 3.18875 2.64 4.12875 2.64C5.02875 2.64 5.62875 3.06 5.62875 3.86C5.62875 4.56 5.18875 4.94 3.58875 5.64C2.14875 6.28 1.38875 7.04 1.38875 8.32ZM2.58875 13.62C2.58875 14.44 3.24875 15.1 4.06875 15.1C4.92875 15.1 5.56875 14.44 5.56875 13.62C5.56875 12.76 4.92875 12.12 4.06875 12.12C3.24875 12.12 2.58875 12.76 2.58875 13.62Z" fill="#AFAFAF"/>
</svg>
