<svg width="136" height="136" viewBox="0 0 136 136" fill="none" xmlns="http://www.w3.org/2000/svg">
<g clip-path="url(#clip0_3519_2)">
<path d="M68.0894 136.179C105.694 136.179 136.179 105.694 136.179 68.0894C136.179 30.4846 105.694 0 68.0894 0C30.4846 0 0 30.4846 0 68.0894C0 105.694 30.4846 136.179 68.0894 136.179Z" fill="#E9F6ED"/>
<path d="M68.0894 136C105.619 136 136.179 105.619 136.179 67.9106C136.179 30.2024 105.619 0 68.0894 0C30.5598 0 0 30.3811 0 68.0894C0 105.798 30.3811 136 68.0894 136Z" fill="#E9F6ED"/>
<path d="M117.5 136C127.717 136 136 127.717 136 117.5C136 107.283 127.717 99 117.5 99C107.283 99 99 107.283 99 117.5C99 127.717 107.283 136 117.5 136Z" fill="#0CC482"/>
<path d="M115.4 122.148C115.041 122.148 114.862 121.968 114.682 121.789L111.269 118.376C110.91 118.017 110.91 117.299 111.269 116.939C111.629 116.58 112.347 116.58 112.706 116.939L115.221 119.454L122.405 112.269C122.765 111.91 123.483 111.91 123.842 112.269C124.201 112.629 124.201 113.347 123.842 113.706L116.119 121.789C115.939 121.968 115.76 122.148 115.4 122.148Z" fill="white"/>
<path d="M41 52.7911L66.2283 75.1165C67.3622 76.0994 68.9213 76.0994 69.9134 75.1165L95 52.7911V87.1918C95 88.7363 93.7244 90 92.1654 90H43.8346C42.2756 90 41 88.7363 41 87.1918V52.7911Z" fill="#0CC482"/>
<path d="M41 51.8082V52.7911L66.2283 75.1164C67.3622 76.0993 68.9213 76.0993 69.9134 75.1164L95 52.7911V51.8082C95 50.2637 93.7244 49 92.1654 49H43.8346C42.2756 49 41 50.2637 41 51.8082Z" fill="#00443B"/>
</g>
<defs>
<clipPath id="clip0_3519_2">
<rect width="136" height="136" fill="white"/>
</clipPath>
</defs>
</svg>
