<svg width="335" height="485" viewBox="0 0 335 485" fill="none" xmlns="http://www.w3.org/2000/svg">
<circle cx="168" cy="3" r="3" fill="#001C38"/>
<circle cx="156" cy="3" r="3" fill="#001C38"/>
<circle cx="216" cy="3" r="3" fill="#001C38"/>
<circle cx="132" cy="3" r="3" fill="#001C38"/>
<circle cx="192" cy="3" r="3" fill="#001C38"/>
<circle cx="144" cy="3" r="3" fill="#001C38"/>
<circle cx="204" cy="3" r="3" fill="#001C38"/>
<circle cx="120" cy="3" r="3" fill="#001C38"/>
<circle cx="180" cy="3" r="3" fill="#001C38"/>
<rect y="241" width="335" height="52" rx="26" fill="#E2F4F8"/>
<rect y="305" width="335" height="52" rx="26" fill="#E2F4F8"/>
<rect y="369" width="335" height="52" rx="26" fill="#E2F4F8"/>
<rect y="433" width="335" height="52" rx="26" fill="#E2F4F8"/>
<rect y="69" width="335" height="160" rx="25" fill="#E2F4F8"/>
<path d="M162.229 266.1C162.229 266.772 162.733 267.276 163.405 267.276C164.077 267.276 164.581 266.772 164.581 266.1C164.581 265.428 164.077 264.924 163.405 264.924C162.733 264.924 162.229 265.428 162.229 266.1ZM166.823 266.1C166.823 266.772 167.327 267.276 167.999 267.276C168.671 267.276 169.175 266.772 169.175 266.1C169.175 265.428 168.671 264.924 167.999 264.924C167.327 264.924 166.823 265.428 166.823 266.1ZM171.417 266.1C171.417 266.772 171.921 267.276 172.593 267.276C173.265 267.276 173.769 266.772 173.769 266.1C173.769 265.428 173.265 264.924 172.593 264.924C171.921 264.924 171.417 265.428 171.417 266.1Z" fill="#00274E"/>
<path d="M162.229 330.1C162.229 330.772 162.733 331.276 163.405 331.276C164.077 331.276 164.581 330.772 164.581 330.1C164.581 329.428 164.077 328.924 163.405 328.924C162.733 328.924 162.229 329.428 162.229 330.1ZM166.823 330.1C166.823 330.772 167.327 331.276 167.999 331.276C168.671 331.276 169.175 330.772 169.175 330.1C169.175 329.428 168.671 328.924 167.999 328.924C167.327 328.924 166.823 329.428 166.823 330.1ZM171.417 330.1C171.417 330.772 171.921 331.276 172.593 331.276C173.265 331.276 173.769 330.772 173.769 330.1C173.769 329.428 173.265 328.924 172.593 328.924C171.921 328.924 171.417 329.428 171.417 330.1Z" fill="#00274E"/>
<path d="M162.229 394.1C162.229 394.772 162.733 395.276 163.405 395.276C164.077 395.276 164.581 394.772 164.581 394.1C164.581 393.428 164.077 392.924 163.405 392.924C162.733 392.924 162.229 393.428 162.229 394.1ZM166.823 394.1C166.823 394.772 167.327 395.276 167.999 395.276C168.671 395.276 169.175 394.772 169.175 394.1C169.175 393.428 168.671 392.924 167.999 392.924C167.327 392.924 166.823 393.428 166.823 394.1ZM171.417 394.1C171.417 394.772 171.921 395.276 172.593 395.276C173.265 395.276 173.769 394.772 173.769 394.1C173.769 393.428 173.265 392.924 172.593 392.924C171.921 392.924 171.417 393.428 171.417 394.1Z" fill="#00274E"/>
<path d="M162.229 458.1C162.229 458.772 162.733 459.276 163.405 459.276C164.077 459.276 164.581 458.772 164.581 458.1C164.581 457.428 164.077 456.924 163.405 456.924C162.733 456.924 162.229 457.428 162.229 458.1ZM166.823 458.1C166.823 458.772 167.327 459.276 167.999 459.276C168.671 459.276 169.175 458.772 169.175 458.1C169.175 457.428 168.671 456.924 167.999 456.924C167.327 456.924 166.823 457.428 166.823 458.1ZM171.417 458.1C171.417 458.772 171.921 459.276 172.593 459.276C173.265 459.276 173.769 458.772 173.769 458.1C173.769 457.428 173.265 456.924 172.593 456.924C171.921 456.924 171.417 457.428 171.417 458.1Z" fill="#00274E"/>
<circle cx="169" cy="69" r="34" fill="#108BE3"/>
<path d="M144.719 130H146.669V121.3H149.594V119.5H141.794V121.3H144.719V130ZM151.009 130H152.869V122.44H151.009V130ZM150.739 120.265C150.739 120.94 151.264 121.465 151.939 121.465C152.614 121.465 153.139 120.94 153.139 120.265C153.139 119.59 152.614 119.065 151.939 119.065C151.264 119.065 150.739 119.59 150.739 120.265ZM154.515 126.22C154.515 128.41 155.805 130.12 158.205 130.12C159.885 130.12 161.085 129.385 161.64 127.96L159.975 127.285C159.57 128.11 159.03 128.53 158.205 128.53C157.065 128.53 156.465 127.6 156.465 126.22C156.465 124.84 157.065 123.91 158.205 123.91C159.03 123.91 159.57 124.33 159.975 125.155L161.64 124.48C161.085 123.055 159.885 122.32 158.205 122.32C155.805 122.32 154.515 124.03 154.515 126.22ZM162.521 132.04H163.931L166.031 127.96H163.526L162.521 132.04ZM173.327 130H175.277V121.3H178.202V119.5H170.402V121.3H173.327V130ZM177.88 127.825C177.88 129.28 178.84 130.12 180.175 130.12C181.135 130.12 181.915 129.76 182.5 129.04L182.695 130H184.225V125.485C184.225 123.4 183.07 122.32 181.045 122.32C179.545 122.32 178.405 123.16 178.165 124.42L179.74 124.78C179.965 124.195 180.4 123.91 181.045 123.91C181.81 123.91 182.365 124.285 182.365 125.02V125.35H181.045C179.11 125.35 177.88 126.325 177.88 127.825ZM182.365 126.97C182.365 127.915 181.57 128.53 180.67 128.53C180.175 128.53 179.83 128.23 179.83 127.795C179.83 127.135 180.295 126.82 181.12 126.82H182.365V126.97ZM185.76 126.22C185.76 128.41 187.05 130.12 189.45 130.12C191.13 130.12 192.33 129.385 192.885 127.96L191.22 127.285C190.815 128.11 190.275 128.53 189.45 128.53C188.31 128.53 187.71 127.6 187.71 126.22C187.71 124.84 188.31 123.91 189.45 123.91C190.275 123.91 190.815 124.33 191.22 125.155L192.885 124.48C192.33 123.055 191.13 122.32 189.45 122.32C187.05 122.32 185.76 124.03 185.76 126.22ZM194.231 128.83C194.231 129.55 194.771 130.09 195.491 130.09C196.211 130.09 196.751 129.55 196.751 128.83C196.751 128.11 196.211 127.57 195.491 127.57C194.771 127.57 194.231 128.11 194.231 128.83Z" fill="#00274E"/>
<path d="M164.891 69.77C164.891 72.05 166.601 73.61 169.031 73.61C171.161 73.61 172.691 72.44 173.381 70.52L170.741 69.53C170.411 70.46 169.841 70.91 169.031 70.91C168.431 70.91 167.951 70.49 167.951 69.86C167.951 69.05 168.491 68.69 170.501 67.88C171.971 67.31 173.021 66.74 173.651 66.11C174.311 65.48 174.641 64.61 174.641 63.5C174.641 60.62 172.451 58.76 169.091 58.76C165.971 58.76 163.841 60.71 163.361 63.35L166.631 63.89C167.021 62.6 167.951 61.88 169.181 61.88C170.351 61.88 171.131 62.39 171.131 63.38C171.131 64.37 170.441 65 168.131 65.87C166.091 66.68 164.891 67.85 164.891 69.77ZM166.541 77.72C166.541 79.07 167.621 80.18 169.031 80.18C170.441 80.18 171.521 79.07 171.521 77.72C171.521 76.31 170.381 75.2 169.031 75.2C167.681 75.2 166.541 76.31 166.541 77.72Z" fill="#00274E"/>
<path d="M57.1496 151.14C57.1496 151.78 57.6096 152.24 58.2496 152.24C58.8896 152.24 59.3496 151.78 59.3496 151.14C59.3496 150.5 58.8896 150.04 58.2496 150.04C57.6096 150.04 57.1496 150.5 57.1496 151.14ZM57.4096 164.08H59.0896L58.6496 153.76H57.8496L57.4096 164.08ZM65.9304 160H67.2504V147.24H71.4304V146H61.7504V147.24H65.9304V160ZM70.7823 154.96C70.7823 157.66 72.6423 160.16 75.5023 160.16C78.3623 160.16 80.2223 157.66 80.2223 154.96C80.2223 152.26 78.3623 149.76 75.5023 149.76C72.6423 149.76 70.7823 152.26 70.7823 154.96ZM78.9223 154.96C78.9223 157.06 77.6823 159 75.5023 159C73.3223 159 72.0823 157.06 72.0823 154.96C72.0823 152.86 73.3223 150.92 75.5023 150.92C77.6823 150.92 78.9223 152.86 78.9223 154.96ZM82.1495 154.96C82.1495 157.88 83.7695 160.16 86.6495 160.16C87.9095 160.16 89.2095 159.44 89.8295 158.56V159.16V160H91.0695V145.84H89.8295V150.74V151.34C89.1095 150.32 87.9895 149.76 86.6495 149.76C83.7695 149.76 82.1495 152.04 82.1495 154.96ZM89.9495 154.96C89.9495 157.34 88.7895 159 86.7095 159C84.6295 159 83.4495 157.34 83.4495 154.96C83.4495 153.78 83.7295 152.82 84.3095 152.06C84.8895 151.3 85.6895 150.92 86.7095 150.92C87.7295 150.92 88.5295 151.3 89.0895 152.06C89.6695 152.82 89.9495 153.78 89.9495 154.96ZM93.5948 154.96C93.5948 157.66 95.4548 160.16 98.3148 160.16C101.175 160.16 103.035 157.66 103.035 154.96C103.035 152.26 101.175 149.76 98.3148 149.76C95.4548 149.76 93.5948 152.26 93.5948 154.96ZM101.735 154.96C101.735 157.06 100.495 159 98.3148 159C96.1348 159 94.8948 157.06 94.8948 154.96C94.8948 152.86 96.1348 150.92 98.3148 150.92C100.495 150.92 101.735 152.86 101.735 154.96ZM104.688 157.4C105.068 158.94 106.268 160.16 108.328 160.16C110.248 160.16 111.448 159.04 111.448 157.2C111.448 155.76 110.428 154.84 108.988 154.3C107.288 153.68 106.668 153.24 106.668 152.36C106.668 151.48 107.288 150.92 108.148 150.92C108.968 150.92 109.588 151.26 110.128 152.08L111.008 151.32C110.368 150.26 109.488 149.76 108.208 149.76C106.588 149.76 105.388 150.8 105.388 152.4C105.388 153.9 106.268 154.64 107.928 155.22C109.428 155.76 110.148 156.24 110.148 157.22C110.148 158.32 109.468 159 108.328 159C106.948 159 106.208 158.2 105.788 156.82L104.688 157.4ZM118.96 160H120.2V145.84H118.96V160ZM123.316 160H124.556V149.92H123.316V160ZM122.916 147.02C122.916 147.6 123.356 148.04 123.936 148.04C124.516 148.04 124.956 147.6 124.956 147.02C124.956 146.44 124.516 146 123.936 146C123.356 146 122.916 146.44 122.916 147.02ZM126.758 157.4C127.138 158.94 128.338 160.16 130.398 160.16C132.318 160.16 133.518 159.04 133.518 157.2C133.518 155.76 132.498 154.84 131.058 154.3C129.358 153.68 128.738 153.24 128.738 152.36C128.738 151.48 129.358 150.92 130.218 150.92C131.038 150.92 131.658 151.26 132.198 152.08L133.078 151.32C132.438 150.26 131.558 149.76 130.278 149.76C128.658 149.76 127.458 150.8 127.458 152.4C127.458 153.9 128.338 154.64 129.998 155.22C131.498 155.76 132.218 156.24 132.218 157.22C132.218 158.32 131.538 159 130.398 159C129.018 159 128.278 158.2 127.858 156.82L126.758 157.4ZM136.295 157.14C136.295 159.16 137.275 160.16 138.815 160.16C139.555 160.16 140.135 160.04 140.575 159.8L140.235 158.68C139.895 158.9 139.475 159 138.975 159C138.095 159 137.535 158.44 137.535 157.34V151.08H140.255V149.92H137.535V145.84L136.295 146.66V149.92H134.515V151.08H136.295V157.14ZM141.603 154.96C141.603 157.66 143.463 160.16 146.323 160.16C149.183 160.16 151.043 157.66 151.043 154.96C151.043 152.26 149.183 149.76 146.323 149.76C143.463 149.76 141.603 152.26 141.603 154.96ZM149.743 154.96C149.743 157.06 148.503 159 146.323 159C144.143 159 142.903 157.06 142.903 154.96C142.903 152.86 144.143 150.92 146.323 150.92C148.503 150.92 149.743 152.86 149.743 154.96ZM152.695 157.4C153.075 158.94 154.275 160.16 156.335 160.16C158.255 160.16 159.455 159.04 159.455 157.2C159.455 155.76 158.435 154.84 156.995 154.3C155.295 153.68 154.675 153.24 154.675 152.36C154.675 151.48 155.295 150.92 156.155 150.92C156.975 150.92 157.595 151.26 158.135 152.08L159.015 151.32C158.375 150.26 157.495 149.76 156.215 149.76C154.595 149.76 153.395 150.8 153.395 152.4C153.395 153.9 154.275 154.64 155.935 155.22C157.435 155.76 158.155 156.24 158.155 157.22C158.155 158.32 157.475 159 156.335 159C154.955 159 154.215 158.2 153.795 156.82L152.695 157.4ZM172.708 149.92L169.888 158L166.908 149.92H165.608L169.208 159.92L167.768 164.08H169.008L174.008 149.92H172.708ZM180.816 164.08H182.056V159.18V158.58C182.716 159.56 184.016 160.16 185.236 160.16C188.116 160.16 189.736 157.88 189.736 154.96C189.736 152.04 188.116 149.76 185.236 149.76C183.936 149.76 182.616 150.48 182.056 151.36V150.76V149.92H180.816V164.08ZM188.436 154.96C188.436 156.14 188.156 157.1 187.576 157.86C186.996 158.62 186.196 159 185.176 159C184.156 159 183.356 158.62 182.776 157.86C182.216 157.1 181.936 156.14 181.936 154.96C181.936 152.58 183.096 150.92 185.176 150.92C187.256 150.92 188.436 152.58 188.436 154.96ZM192.261 160H193.501V156.1C193.501 152.74 194.721 150.92 196.281 150.92C196.781 150.92 197.261 151.04 197.701 151.28L197.981 150.1C197.421 149.86 197.001 149.76 196.461 149.76C195.121 149.76 194.121 150.46 193.501 151.72V149.92H192.261V160ZM207.573 154.4C207.573 151.64 205.733 149.76 203.153 149.76C200.493 149.76 198.673 151.96 198.673 154.96C198.673 157.9 200.533 160.16 203.153 160.16C205.073 160.16 206.333 159.38 207.353 157.38L206.253 156.84C205.513 158.38 204.673 159 203.153 159C202.133 159 201.353 158.62 200.793 157.84C200.233 157.06 199.953 156.1 199.953 154.96H207.573V154.4ZM200.053 153.8C200.433 151.94 201.653 150.92 203.153 150.92C204.933 150.92 206.053 152.02 206.293 153.8H200.053ZM210.093 164.08H211.333V159.18V158.58C211.993 159.56 213.293 160.16 214.513 160.16C217.393 160.16 219.013 157.88 219.013 154.96C219.013 152.04 217.393 149.76 214.513 149.76C213.213 149.76 211.893 150.48 211.333 151.36V150.76V149.92H210.093V164.08ZM217.713 154.96C217.713 156.14 217.433 157.1 216.853 157.86C216.273 158.62 215.473 159 214.453 159C213.433 159 212.633 158.62 212.053 157.86C211.493 157.1 211.213 156.14 211.213 154.96C211.213 152.58 212.373 150.92 214.453 150.92C216.533 150.92 217.713 152.58 217.713 154.96ZM220.861 157.1C220.861 159.18 222.161 160.16 224.001 160.16C225.521 160.16 226.561 159.48 227.181 158.44L227.481 160H228.421V153.32C228.421 152.22 228.081 151.34 227.401 150.72C226.741 150.08 225.881 149.76 224.861 149.76C223.021 149.76 221.521 150.84 221.261 152.52L222.461 152.8C222.781 151.68 223.561 150.92 224.861 150.92C226.301 150.92 227.181 151.68 227.181 153.36V153.8H225.441C222.561 153.8 220.861 154.92 220.861 157.1ZM227.181 155.34C227.181 157.94 225.541 159 224.121 159C222.901 159 222.161 158.32 222.161 157.1C222.161 155.74 223.241 154.96 225.481 154.96H227.181V155.34ZM231.304 160H232.544V156.1C232.544 152.74 233.764 150.92 235.324 150.92C235.824 150.92 236.304 151.04 236.744 151.28L237.024 150.1C236.464 149.86 236.044 149.76 235.504 149.76C234.164 149.76 233.164 150.46 232.544 151.72V149.92H231.304V160ZM237.795 157.1C237.795 159.18 239.095 160.16 240.935 160.16C242.455 160.16 243.495 159.48 244.115 158.44L244.415 160H245.355V153.32C245.355 152.22 245.015 151.34 244.335 150.72C243.675 150.08 242.815 149.76 241.795 149.76C239.955 149.76 238.455 150.84 238.195 152.52L239.395 152.8C239.715 151.68 240.495 150.92 241.795 150.92C243.235 150.92 244.115 151.68 244.115 153.36V153.8H242.375C239.495 153.8 237.795 154.92 237.795 157.1ZM244.115 155.34C244.115 157.94 242.475 159 241.055 159C239.835 159 239.095 158.32 239.095 157.1C239.095 155.74 240.175 154.96 242.415 154.96H244.115V155.34ZM247.638 154.96C247.638 157.88 249.258 160.16 252.138 160.16C253.398 160.16 254.698 159.44 255.318 158.56V159.16V160H256.558V145.84H255.318V150.74V151.34C254.598 150.32 253.478 149.76 252.138 149.76C249.258 149.76 247.638 152.04 247.638 154.96ZM255.438 154.96C255.438 157.34 254.278 159 252.198 159C250.118 159 248.938 157.34 248.938 154.96C248.938 153.78 249.218 152.82 249.798 152.06C250.378 151.3 251.178 150.92 252.198 150.92C253.218 150.92 254.018 151.3 254.578 152.06C255.158 152.82 255.438 153.78 255.438 154.96ZM259.083 154.96C259.083 157.66 260.943 160.16 263.803 160.16C266.663 160.16 268.523 157.66 268.523 154.96C268.523 152.26 266.663 149.76 263.803 149.76C260.943 149.76 259.083 152.26 259.083 154.96ZM267.223 154.96C267.223 157.06 265.983 159 263.803 159C261.623 159 260.383 157.06 260.383 154.96C260.383 152.86 261.623 150.92 263.803 150.92C265.983 150.92 267.223 152.86 267.223 154.96ZM270.176 157.4C270.556 158.94 271.756 160.16 273.816 160.16C275.736 160.16 276.936 159.04 276.936 157.2C276.936 155.76 275.916 154.84 274.476 154.3C272.776 153.68 272.156 153.24 272.156 152.36C272.156 151.48 272.776 150.92 273.636 150.92C274.456 150.92 275.076 151.26 275.616 152.08L276.496 151.32C275.856 150.26 274.976 149.76 273.696 149.76C272.076 149.76 270.876 150.8 270.876 152.4C270.876 153.9 271.756 154.64 273.416 155.22C274.916 155.76 275.636 156.24 275.636 157.22C275.636 158.32 274.956 159 273.816 159C272.436 159 271.696 158.2 271.276 156.82L270.176 157.4ZM280.35 156.32H281.15L281.59 146H279.91L280.35 156.32ZM279.65 158.94C279.65 159.58 280.11 160.04 280.75 160.04C281.39 160.04 281.85 159.58 281.85 158.94C281.85 158.3 281.39 157.84 280.75 157.84C280.11 157.84 279.65 158.3 279.65 158.94ZM85.3332 184H93.4332V182.76H86.6532V177.16H92.0332V175.92H86.6532V171.24H93.2332V170H85.3332V184ZM96.1088 184H97.3488V169.84H96.1088V184ZM104.243 188.24C105.903 187.98 106.743 186.98 106.743 185.28V173.92H105.503V185.1C105.503 186.28 105.063 186.76 103.963 187.08L104.243 188.24ZM105.103 171.02C105.103 171.6 105.543 172.04 106.123 172.04C106.703 172.04 107.143 171.6 107.143 171.02C107.143 170.44 106.703 170 106.123 170C105.543 170 105.103 170.44 105.103 171.02ZM109.859 180.84C109.859 182.94 111.039 184.16 112.959 184.16C114.399 184.16 115.719 183.26 116.419 181.9V184H117.659V173.92H116.419V178.34C116.419 181.16 114.999 183 113.159 183C111.779 183 111.099 182.18 111.099 180.68V173.92H109.859V180.84ZM129.077 178.4C129.077 175.64 127.237 173.76 124.657 173.76C121.997 173.76 120.177 175.96 120.177 178.96C120.177 181.9 122.037 184.16 124.657 184.16C126.577 184.16 127.837 183.38 128.857 181.38L127.757 180.84C127.017 182.38 126.177 183 124.657 183C123.637 183 122.857 182.62 122.297 181.84C121.737 181.06 121.457 180.1 121.457 178.96H129.077V178.4ZM121.557 177.8C121.937 175.94 123.157 174.92 124.657 174.92C126.437 174.92 127.557 176.02 127.797 177.8H121.557ZM130.798 184.92C130.798 187 132.398 188.24 134.958 188.24C137.458 188.24 139.098 187.14 139.098 184.76C139.098 182.98 137.918 182.12 136.078 182.12H133.478C132.758 182.12 132.238 181.82 132.238 181.16C132.238 180.66 132.518 180.28 133.058 180.04C133.598 180.36 134.218 180.52 134.938 180.52C136.858 180.52 138.358 179.16 138.358 177.14C138.358 176.34 138.118 175.64 137.658 175.04L139.058 174.26L138.478 173.2L136.678 174.22C136.138 173.92 135.558 173.76 134.938 173.76C133.018 173.76 131.518 175.12 131.518 177.14C131.518 178 131.798 178.78 132.278 179.36C131.538 179.7 131.038 180.36 131.038 181.16C131.038 181.94 131.298 182.48 131.838 182.8C131.218 183.26 130.798 183.98 130.798 184.92ZM137.118 177.14C137.118 178.56 136.158 179.44 134.938 179.44C133.718 179.44 132.758 178.56 132.758 177.14C132.758 175.72 133.718 174.84 134.938 174.84C136.158 174.84 137.118 175.72 137.118 177.14ZM137.898 184.92C137.898 186.22 136.858 187.12 134.958 187.12C133.018 187.12 131.998 186.3 131.998 184.96C131.998 184.14 132.298 183.52 132.898 183.14C133.198 183.18 133.518 183.2 133.878 183.2H135.938C137.238 183.2 137.898 183.78 137.898 184.92ZM140.431 178.96C140.431 181.66 142.291 184.16 145.151 184.16C148.011 184.16 149.871 181.66 149.871 178.96C149.871 176.26 148.011 173.76 145.151 173.76C142.291 173.76 140.431 176.26 140.431 178.96ZM148.571 178.96C148.571 181.06 147.331 183 145.151 183C142.971 183 141.731 181.06 141.731 178.96C141.731 176.86 142.971 174.92 145.151 174.92C147.331 174.92 148.571 176.86 148.571 178.96ZM165.737 178.4C165.737 175.64 163.897 173.76 161.317 173.76C158.657 173.76 156.837 175.96 156.837 178.96C156.837 181.9 158.697 184.16 161.317 184.16C163.237 184.16 164.497 183.38 165.517 181.38L164.417 180.84C163.677 182.38 162.837 183 161.317 183C160.297 183 159.517 182.62 158.957 181.84C158.397 181.06 158.117 180.1 158.117 178.96H165.737V178.4ZM158.217 177.8C158.597 175.94 159.817 174.92 161.317 174.92C163.097 174.92 164.217 176.02 164.457 177.8H158.217ZM168.257 184H169.497V179.58C169.497 176.76 170.837 174.92 172.497 174.92C173.837 174.92 174.297 175.66 174.297 177.24V184H175.537V179.58C175.537 176.76 176.877 174.92 178.537 174.92C179.877 174.92 180.337 175.66 180.337 177.24V184H181.577V177.08C181.577 174.84 180.677 173.76 178.737 173.76C177.397 173.76 176.137 174.7 175.437 176C175.137 174.5 174.217 173.76 172.697 173.76C171.277 173.76 170.137 174.64 169.497 176.02V173.92H168.257V184ZM184.703 188.08H185.943V183.18V182.58C186.603 183.56 187.903 184.16 189.123 184.16C192.003 184.16 193.623 181.88 193.623 178.96C193.623 176.04 192.003 173.76 189.123 173.76C187.823 173.76 186.503 174.48 185.943 175.36V174.76V173.92H184.703V188.08ZM192.323 178.96C192.323 180.14 192.043 181.1 191.463 181.86C190.883 182.62 190.083 183 189.063 183C188.043 183 187.243 182.62 186.663 181.86C186.103 181.1 185.823 180.14 185.823 178.96C185.823 176.58 186.983 174.92 189.063 174.92C191.143 174.92 192.323 176.58 192.323 178.96ZM196.148 184H197.388V173.92H196.148V184ZM195.748 171.02C195.748 171.6 196.188 172.04 196.768 172.04C197.348 172.04 197.788 171.6 197.788 171.02C197.788 170.44 197.348 170 196.768 170C196.188 170 195.748 170.44 195.748 171.02ZM208.803 178.4C208.803 175.64 206.963 173.76 204.383 173.76C201.723 173.76 199.903 175.96 199.903 178.96C199.903 181.9 201.763 184.16 204.383 184.16C206.303 184.16 207.563 183.38 208.583 181.38L207.483 180.84C206.743 182.38 205.903 183 204.383 183C203.363 183 202.583 182.62 202.023 181.84C201.463 181.06 201.183 180.1 201.183 178.96H208.803V178.4ZM201.283 177.8C201.663 175.94 202.883 174.92 204.383 174.92C206.163 174.92 207.283 176.02 207.523 177.8H201.283ZM210.23 184H217.23V182.84H211.93L217.01 174.6V173.92H210.47V175.08H215.37L210.23 183.4V184ZM218.811 181.1C218.811 183.18 220.111 184.16 221.951 184.16C223.471 184.16 224.511 183.48 225.131 182.44L225.431 184H226.371V177.32C226.371 176.22 226.031 175.34 225.351 174.72C224.691 174.08 223.831 173.76 222.811 173.76C220.971 173.76 219.471 174.84 219.211 176.52L220.411 176.8C220.731 175.68 221.511 174.92 222.811 174.92C224.251 174.92 225.131 175.68 225.131 177.36V177.8H223.391C220.511 177.8 218.811 178.92 218.811 181.1ZM225.131 179.34C225.131 181.94 223.491 183 222.071 183C220.851 183 220.111 182.32 220.111 181.1C220.111 179.74 221.191 178.96 223.431 178.96H225.131V179.34ZM240.032 173.92L237.212 182L234.232 173.92H232.932L236.532 183.92L235.092 188.08H236.332L241.332 173.92H240.032ZM242.15 181.1C242.15 183.18 243.45 184.16 245.29 184.16C246.81 184.16 247.85 183.48 248.47 182.44L248.77 184H249.71V177.32C249.71 176.22 249.37 175.34 248.69 174.72C248.03 174.08 247.17 173.76 246.15 173.76C244.31 173.76 242.81 174.84 242.55 176.52L243.75 176.8C244.07 175.68 244.85 174.92 246.15 174.92C247.59 174.92 248.47 175.68 248.47 177.36V177.8H246.73C243.85 177.8 242.15 178.92 242.15 181.1ZM248.47 179.34C248.47 181.94 246.83 183 245.41 183C244.19 183 243.45 182.32 243.45 181.1C243.45 179.74 244.53 178.96 246.77 178.96H248.47V179.34ZM252.233 183.02C252.233 183.6 252.673 184.04 253.253 184.04C253.833 184.04 254.273 183.6 254.273 183.02C254.273 182.44 253.833 182 253.253 182C252.673 182 252.233 182.44 252.233 183.02Z" fill="#00274E"/>
</svg>
