<svg width="137" height="137" viewBox="0 0 137 137" fill="none" xmlns="http://www.w3.org/2000/svg">
<path d="M68.0894 136.179C105.694 136.179 136.179 105.694 136.179 68.0894C136.179 30.4846 105.694 0 68.0894 0C30.4846 0 0 30.4846 0 68.0894C0 105.694 30.4846 136.179 68.0894 136.179Z" fill="#108BE3"/>
<path d="M102.919 67.9593C102.919 87.2076 87.3624 102.919 67.9593 102.919C48.7229 102.919 33 87.1956 33 67.9593C33 48.7229 48.7229 33 67.9593 33C87.1956 33 102.919 48.7229 102.919 67.9593Z" fill="white" stroke="#00274E" stroke-width="8"/>
<path d="M67.409 75.9424C67.0847 75.9424 66.7603 75.9424 66.436 75.7864C65.4631 75.4743 64.9766 74.5381 64.9766 73.602V56.2828C64.9766 55.0346 66.1117 53.9424 67.409 53.9424C68.7063 53.9424 69.8414 55.0346 69.8414 56.2828V67.9849L75.8414 62.2119C76.8144 61.2757 78.2739 61.2757 79.2468 62.2119C80.2198 63.1481 80.2198 64.5523 79.2468 65.4885L69.1928 75.1622C68.7063 75.6303 68.0576 75.9424 67.409 75.9424Z" fill="#108BE3"/>
</svg>
