<svg width="137" height="155" viewBox="0 0 137 155" fill="none" xmlns="http://www.w3.org/2000/svg">
<path d="M62.2294 147.1C62.2294 147.772 62.7334 148.276 63.4054 148.276C64.0774 148.276 64.5814 147.772 64.5814 147.1C64.5814 146.428 64.0774 145.924 63.4054 145.924C62.7334 145.924 62.2294 146.428 62.2294 147.1ZM66.8231 147.1C66.8231 147.772 67.3271 148.276 67.9991 148.276C68.6711 148.276 69.1751 147.772 69.1751 147.1C69.1751 146.428 68.6711 145.924 67.9991 145.924C67.3271 145.924 66.8231 146.428 66.8231 147.1ZM71.4169 147.1C71.4169 147.772 71.9209 148.276 72.5929 148.276C73.2649 148.276 73.7689 147.772 73.7689 147.1C73.7689 146.428 73.2649 145.924 72.5929 145.924C71.9209 145.924 71.4169 146.428 71.4169 147.1Z" fill="#00274E"/>
<path d="M68.0894 136.179C105.694 136.179 136.179 105.694 136.179 68.0894C136.179 30.4846 105.694 0 68.0894 0C30.4846 0 0 30.4846 0 68.0894C0 105.694 30.4846 136.179 68.0894 136.179Z" fill="#108BE3"/>
<path d="M102.919 67.9593C102.919 87.2076 87.3624 102.919 67.9593 102.919C48.7229 102.919 33 87.1956 33 67.9593C33 48.7229 48.7229 33 67.9593 33C87.1956 33 102.919 48.7229 102.919 67.9593Z" fill="white" stroke="#00274E" stroke-width="8"/>
<rect x="75.0713" y="56.6865" width="6" height="26" rx="3" transform="rotate(45 75.0713 56.6865)" fill="#108BE3"/>
<rect x="79.3135" y="75.0713" width="6" height="26" rx="3" transform="rotate(135 79.3135 75.0713)" fill="#108BE3"/>
</svg>
