<svg width="137" height="155" viewBox="0 0 137 155" fill="none" xmlns="http://www.w3.org/2000/svg">
<path d="M62.2294 147.1C62.2294 147.772 62.7334 148.276 63.4054 148.276C64.0774 148.276 64.5814 147.772 64.5814 147.1C64.5814 146.428 64.0774 145.924 63.4054 145.924C62.7334 145.924 62.2294 146.428 62.2294 147.1ZM66.8231 147.1C66.8231 147.772 67.3271 148.276 67.9991 148.276C68.6711 148.276 69.1751 147.772 69.1751 147.1C69.1751 146.428 68.6711 145.924 67.9991 145.924C67.3271 145.924 66.8231 146.428 66.8231 147.1ZM71.4169 147.1C71.4169 147.772 71.9209 148.276 72.5929 148.276C73.2649 148.276 73.7689 147.772 73.7689 147.1C73.7689 146.428 73.2649 145.924 72.5929 145.924C71.9209 145.924 71.4169 146.428 71.4169 147.1Z" fill="#00274E"/>
<path d="M68.0894 136.179C105.694 136.179 136.179 105.694 136.179 68.0894C136.179 30.4846 105.694 0 68.0894 0C30.4846 0 0 30.4846 0 68.0894C0 105.694 30.4846 136.179 68.0894 136.179Z" fill="#108BE3"/>
<g clip-path="url(#clip0_4126_2)">
<path d="M77.2423 46.326H61.2259V33L36 52.5624L61.2259 72.1247V58.7987H77.2423C83.3152 58.7987 88.3203 63.6565 88.3203 69.6958C88.3203 75.7352 83.3819 80.593 77.2423 80.593H45.9435V93.0656H77.2423C90.3224 93.0656 101 82.628 101 69.6958C101 56.7637 90.3224 46.326 77.2423 46.326Z" fill="#00274E"/>
</g>
<line x1="36.8787" y1="99.8787" x2="101.879" y2="34.8787" stroke="#C0E7EF" stroke-width="6"/>
<defs>
<clipPath id="clip0_4126_2">
<rect width="65" height="60" fill="white" transform="translate(36 33)"/>
</clipPath>
</defs>
</svg>
