<svg width="14" height="14" viewBox="0 0 14 14" fill="none" xmlns="http://www.w3.org/2000/svg">
<path d="M10.0313 8.82928H9.40562L9.17966 8.61456C10.0546 7.58817 10.499 6.26236 10.4195 4.91505C10.3401 3.56773 9.74307 2.30353 8.75357 1.38743C7.76408 0.471332 6.45896 -0.0255248 5.11179 0.0010107C3.76462 0.0275462 2.48001 0.575413 1.52724 1.52977C0.574461 2.48412 0.0275006 3.77086 0.00100902 5.12027C-0.0254825 6.46967 0.470551 7.77695 1.38513 8.76809C2.29971 9.75922 3.56183 10.3573 4.90691 10.4368C6.252 10.5164 7.57561 10.0713 8.6003 9.19488L8.81466 9.42121V10.048L12.8413 14L14 12.8393L10.0313 8.82928ZM5.26314 8.82928C4.55449 8.83043 3.86145 8.62091 3.27175 8.22727C2.68205 7.83363 2.22224 7.27357 1.95052 6.618C1.6788 5.96243 1.60741 5.24084 1.74538 4.5446C1.88335 3.84836 2.22447 3.20879 2.72556 2.70687C3.22665 2.20495 3.86517 1.86326 4.56025 1.72506C5.25534 1.58686 5.97573 1.65837 6.63022 1.93054C7.2847 2.20271 7.84384 2.66329 8.23683 3.25396C8.62982 3.84464 8.83898 4.53883 8.83784 5.24865C8.8386 5.71908 8.74666 6.18504 8.56728 6.6198C8.38791 7.05457 8.12463 7.4496 7.79253 7.78224C7.46044 8.11489 7.06607 8.3786 6.63202 8.55828C6.19797 8.73795 5.73279 8.83004 5.26314 8.82928Z" fill="#00443B"/>
</svg>
