<svg width="13" height="15" viewBox="0 0 13 15" fill="none" xmlns="http://www.w3.org/2000/svg">
<path d="M10.8333 10.1689C10.2844 10.1689 9.79333 10.3856 9.41778 10.725L4.26833 7.72778C4.30444 7.56167 4.33333 7.39556 4.33333 7.22222C4.33333 7.04889 4.30444 6.88278 4.26833 6.71667L9.36 3.74833C9.75 4.10944 10.2628 4.33333 10.8333 4.33333C12.0322 4.33333 13 3.36556 13 2.16667C13 0.967778 12.0322 0 10.8333 0C9.63444 0 8.66667 0.967778 8.66667 2.16667C8.66667 2.34 8.69556 2.50611 8.73167 2.67222L3.64 5.64056C3.25 5.27945 2.73722 5.05556 2.16667 5.05556C0.967778 5.05556 0 6.02333 0 7.22222C0 8.42111 0.967778 9.38889 2.16667 9.38889C2.73722 9.38889 3.25 9.165 3.64 8.80389L8.78222 11.8083C8.74611 11.96 8.72444 12.1189 8.72444 12.2778C8.72444 13.4406 9.67056 14.3867 10.8333 14.3867C11.9961 14.3867 12.9422 13.4406 12.9422 12.2778C12.9422 11.115 11.9961 10.1689 10.8333 10.1689ZM10.8333 1.44444C11.2306 1.44444 11.5556 1.76944 11.5556 2.16667C11.5556 2.56389 11.2306 2.88889 10.8333 2.88889C10.4361 2.88889 10.1111 2.56389 10.1111 2.16667C10.1111 1.76944 10.4361 1.44444 10.8333 1.44444ZM2.16667 7.94445C1.76944 7.94445 1.44444 7.61944 1.44444 7.22222C1.44444 6.825 1.76944 6.5 2.16667 6.5C2.56389 6.5 2.88889 6.825 2.88889 7.22222C2.88889 7.61944 2.56389 7.94445 2.16667 7.94445ZM10.8333 13.0144C10.4361 13.0144 10.1111 12.6894 10.1111 12.2922C10.1111 11.895 10.4361 11.57 10.8333 11.57C11.2306 11.57 11.5556 11.895 11.5556 12.2922C11.5556 12.6894 11.2306 13.0144 10.8333 13.0144Z" fill="#00443B"/>
</svg>
