<svg width="12" height="9" viewBox="0 0 12 9" fill="none" xmlns="http://www.w3.org/2000/svg">
<path d="M6 1.09C7.00265 1.08753 7.98569 1.36766 8.83643 1.89827C9.68717 2.42888 10.3712 3.18848 10.81 4.09C10.3695 4.99028 9.68511 5.74885 8.83478 6.27943C7.98445 6.81001 7.00228 7.09129 6 7.09129C4.99772 7.09129 4.01555 6.81001 3.16522 6.27943C2.31489 5.74885 1.63054 4.99028 1.19 4.09C1.62883 3.18848 2.31283 2.42888 3.16357 1.89827C4.01431 1.36766 4.99735 1.08753 6 1.09V1.09ZM6 0C4.70503 0.00123338 3.44037 0.391931 2.37036 1.12132C1.30035 1.85072 0.474453 2.88508 0 4.09C0.473026 5.29603 1.29852 6.33152 2.36882 7.06141C3.43911 7.79129 4.70452 8.1817 6 8.1817C7.29548 8.1817 8.56089 7.79129 9.63118 7.06141C10.7015 6.33152 11.527 5.29603 12 4.09C11.5255 2.88508 10.6997 1.85072 9.62964 1.12132C8.55963 0.391931 7.29497 0.00123338 6 0ZM6 2.725C6.26997 2.725 6.53388 2.80506 6.75835 2.95504C6.98283 3.10503 7.15778 3.31822 7.2611 3.56764C7.36441 3.81706 7.39144 4.09151 7.33877 4.3563C7.2861 4.62108 7.1561 4.8643 6.9652 5.0552C6.7743 5.2461 6.53108 5.3761 6.2663 5.42877C6.00151 5.48144 5.72706 5.45441 5.47764 5.35109C5.22822 5.24778 5.01503 5.07283 4.86504 4.84835C4.71506 4.62388 4.635 4.35997 4.635 4.09C4.635 3.72798 4.77881 3.38079 5.0348 3.1248C5.29079 2.86881 5.63798 2.725 6 2.725V2.725ZM6 1.635C5.51445 1.635 5.0398 1.77898 4.63608 2.04874C4.23235 2.3185 3.91769 2.70192 3.73188 3.15051C3.54606 3.5991 3.49745 4.09272 3.59217 4.56895C3.6869 5.04517 3.92071 5.48261 4.26405 5.82595C4.60739 6.16928 5.04483 6.4031 5.52105 6.49783C5.99728 6.59255 6.4909 6.54394 6.93949 6.35812C7.38808 6.17231 7.7715 5.85765 8.04126 5.45392C8.31102 5.0502 8.455 4.57555 8.455 4.09C8.45368 3.4393 8.1946 2.81563 7.73449 2.35551C7.27437 1.8954 6.6507 1.63632 6 1.635V1.635Z" fill="white"/>
</svg>
