<svg width="14" height="13" viewBox="0 0 14 13" fill="none" xmlns="http://www.w3.org/2000/svg">
<path d="M4.2 0L4.207 7.385C3.794 7.147 3.318 7 2.807 7C1.253 7 0 8.253 0 9.8C0 11.347 1.253 12.6 2.807 12.6C4.361 12.6 5.6 11.347 5.6 9.8V2.8H13.02L12.6 0H4.2ZM2.807 11.2C2.037 11.2 1.407 10.57 1.407 9.8C1.407 9.03 2.037 8.4 2.807 8.4C3.577 8.4 4.207 9.03 4.207 9.8C4.207 10.57 3.577 11.2 2.807 11.2Z" fill="#00443B"/>
<path d="M12.6004 0L12.6074 7.385C12.1944 7.147 11.7184 7 11.2074 7C9.65339 7 8.40039 8.253 8.40039 9.8C8.40039 11.347 9.65339 12.6 11.2074 12.6C12.7614 12.6 14.0004 11.347 14.0004 9.8V2.8V0H12.6004ZM11.2074 11.2C10.4374 11.2 9.80739 10.57 9.80739 9.8C9.80739 9.03 10.4374 8.4 11.2074 8.4C11.9774 8.4 12.6074 9.03 12.6074 9.8C12.6074 10.57 11.9774 11.2 11.2074 11.2Z" fill="#00443B"/>
</svg>
