<svg width="190" height="190" viewBox="0 0 190 190" fill="none" xmlns="http://www.w3.org/2000/svg">
<path d="M89.2294 96.1C89.2294 96.772 89.7334 97.276 90.4054 97.276C91.0774 97.276 91.5814 96.772 91.5814 96.1C91.5814 95.428 91.0774 94.924 90.4054 94.924C89.7334 94.924 89.2294 95.428 89.2294 96.1ZM93.8231 96.1C93.8231 96.772 94.3271 97.276 94.9991 97.276C95.6711 97.276 96.1751 96.772 96.1751 96.1C96.1751 95.428 95.6711 94.924 94.9991 94.924C94.3271 94.924 93.8231 95.428 93.8231 96.1ZM98.4169 96.1C98.4169 96.772 98.9209 97.276 99.5929 97.276C100.265 97.276 100.769 96.772 100.769 96.1C100.769 95.428 100.265 94.924 99.5929 94.924C98.9209 94.924 98.4169 95.428 98.4169 96.1Z" fill="#00274E"/>
<path d="M95.0884 189.821C147.506 189.821 189.999 147.328 189.999 94.9106C189.999 42.4929 147.506 0 95.0884 0C42.6707 0 0.177734 42.4929 0.177734 94.9106C0.177734 147.328 42.6707 189.821 95.0884 189.821Z" fill="#108BE3"/>
<path d="M85.599 88.0416L114.64 87.8523C119.055 87.8235 122.65 83.8765 122.679 79.0208L122.771 76.3227L85.8318 76.6125L85.599 88.0416Z" fill="#E2F4F8"/>
<path d="M80 88C80 79.7157 86.7157 73 95 73H113C121.284 73 128 79.7157 128 88V100C128 108.284 121.284 115 113 115H95C86.7157 115 80 108.284 80 100V88Z" fill="#E9F6ED"/>
<path d="M73.4145 115H65.1839C62.9205 115 61 113.106 61 110.72V77.3962C61 75.0811 62.8519 73.1167 65.1839 73.1167H73.4831C75.7465 73.1167 77.667 75.0109 77.667 77.3962V110.79C77.5984 113.106 75.7465 115 73.4145 115Z" fill="#00274E"/>
</svg>
