<svg width="190" height="190" viewBox="0 0 190 190" fill="none" xmlns="http://www.w3.org/2000/svg">
<path d="M89.2294 102.1C89.2294 102.772 89.7334 103.276 90.4054 103.276C91.0774 103.276 91.5814 102.772 91.5814 102.1C91.5814 101.428 91.0774 100.924 90.4054 100.924C89.7334 100.924 89.2294 101.428 89.2294 102.1ZM93.8231 102.1C93.8231 102.772 94.3271 103.276 94.9991 103.276C95.6711 103.276 96.1751 102.772 96.1751 102.1C96.1751 101.428 95.6711 100.924 94.9991 100.924C94.3271 100.924 93.8231 101.428 93.8231 102.1ZM98.4169 102.1C98.4169 102.772 98.9209 103.276 99.5929 103.276C100.265 103.276 100.769 102.772 100.769 102.1C100.769 101.428 100.265 100.924 99.5929 100.924C98.9209 100.924 98.4169 101.428 98.4169 102.1Z" fill="#00274E"/>
<path d="M95.0884 189.821C147.506 189.821 189.999 147.328 189.999 94.9106C189.999 42.4929 147.506 0 95.0884 0C42.6707 0 0.177734 42.4929 0.177734 94.9106C0.177734 147.328 42.6707 189.821 95.0884 189.821Z" fill="#108BE3"/>
<path d="M91.6594 100.343L111.962 121.109C115.048 124.266 114.774 129.598 111.344 133.036L109.492 135L83.7031 108.551L91.6594 100.343Z" fill="#E2F4F8"/>
<path d="M80 99C80 107.284 86.7157 114 95 114H113C121.284 114 128 107.284 128 99V87C128 78.7157 121.284 72 113 72H95C86.7157 72 80 78.7157 80 87V99Z" fill="#E9F6ED"/>
<path d="M73.4145 72.0002H65.1839C62.9205 72.0002 61 73.8944 61 76.2797V109.604C61 111.919 62.8519 113.883 65.1839 113.883H73.4831C75.7465 113.883 77.667 111.989 77.667 109.604V76.2096C77.5984 73.8944 75.7465 72.0002 73.4145 72.0002Z" fill="#00274E"/>
</svg>
