<svg width="137" height="137" viewBox="0 0 137 137" fill="none" xmlns="http://www.w3.org/2000/svg">
<path d="M68.0894 136.179C105.694 136.179 136.179 105.694 136.179 68.0894C136.179 30.4846 105.694 0 68.0894 0C30.4846 0 0 30.4846 0 68.0894C0 105.694 30.4846 136.179 68.0894 136.179Z" fill="#E9F6ED"/>
<path d="M65.6591 64.657L85.9613 43.8909C89.0478 40.7339 88.7735 35.402 85.344 31.9644L83.4921 30L57.7029 56.4488L65.6591 64.657Z" fill="#0CC482"/>
<path d="M68.677 93H90.6253C94.1919 93 97.2784 90.4744 98.0329 86.8965L103.794 60.588C104.892 55.7472 101.257 51.1169 96.3867 51.1169H68.677C60.7207 51.1169 54.2048 57.7818 54.2048 65.9198V78.1971C54.2048 86.4054 60.7207 93 68.677 93Z" fill="#0CC482"/>
<path d="M47.4145 93H39.1839C36.9205 93 35 91.1058 35 88.7205V55.3965C35 53.0813 36.8519 51.1169 39.1839 51.1169H47.4831C49.7465 51.1169 51.667 53.0112 51.667 55.3965V88.7907C51.5984 91.1058 49.7465 93 47.4145 93Z" fill="#00443B"/>
</svg>
