<svg width="68" height="68" viewBox="0 0 68 68" fill="none" xmlns="http://www.w3.org/2000/svg">
<circle cx="34" cy="34" r="34" fill="#108BE3"/>
<path d="M33.4759 53.9518C44.7844 53.9518 53.9518 44.7844 53.9518 33.4759C53.9518 22.1674 44.7844 13 33.4759 13C22.1674 13 13 22.1674 13 33.4759C13 44.7844 22.1674 53.9518 33.4759 53.9518Z" fill="#00274E"/>
<path d="M33.4759 49.9529C42.5759 49.9529 49.9529 42.5759 49.9529 33.4759C49.9529 24.3758 42.5759 16.9988 33.4759 16.9988C24.3758 16.9988 16.9988 24.3758 16.9988 33.4759C16.9988 42.5759 24.3758 49.9529 33.4759 49.9529Z" fill="#E2F4F8"/>
<path d="M42.8708 40.5582C46.7823 40.5582 49.9531 37.3874 49.9531 33.4759C49.9531 29.5645 46.7823 26.3937 42.8708 26.3937C38.9594 26.3937 35.7886 29.5645 35.7886 33.4759C35.7886 37.3874 38.9594 40.5582 42.8708 40.5582Z" fill="#E2F4F8"/>
<path d="M24.1294 40.5582C28.0408 40.5582 31.2116 37.3874 31.2116 33.4759C31.2116 29.5645 28.0408 26.3937 24.1294 26.3937C20.218 26.3937 17.0471 29.5645 17.0471 33.4759C17.0471 37.3874 20.218 40.5582 24.1294 40.5582Z" fill="#E2F4F8"/>
<path d="M24.1292 26.3937C28.0317 26.3937 31.2115 29.5735 31.2115 33.4759H35.7403C35.7403 29.5735 38.92 26.3937 42.8225 26.3937C46.725 26.3937 49.9048 29.5735 49.9048 33.4759C51.6161 23.4884 42.5334 16.0353 33.4277 16.0353C24.3219 16.0353 15.8603 23.9651 17.0469 33.4759C17.0469 29.5735 20.1786 26.3937 24.1292 26.3937Z" fill="#00274E"/>
<path d="M43.035 36.8373C44.8781 36.8373 46.3722 35.3431 46.3722 33.5001C46.3722 31.657 44.8781 30.1628 43.035 30.1628C41.1919 30.1628 39.6978 31.657 39.6978 33.5001C39.6978 35.3431 41.1919 36.8373 43.035 36.8373Z" fill="#00274E"/>
<path d="M23.9651 36.8373C25.8082 36.8373 27.3023 35.3431 27.3023 33.5001C27.3023 31.657 25.8082 30.1628 23.9651 30.1628C22.1221 30.1628 20.6279 31.657 20.6279 33.5001C20.6279 35.3431 22.1221 36.8373 23.9651 36.8373Z" fill="#00274E"/>
<path d="M35.7402 30.7297H31.2114V37.3784H35.7402V30.7297Z" fill="#00274E"/>
</svg>
